<svg xmlns="http://www.w3.org/2000/svg" xmlns:xlink="http://www.w3.org/1999/xlink" width="64" height="64" viewBox="0 0 64 64">
    <defs>
        <path id="a" d="M0 .188h39.479v18.691H0z"/>
        <path id="c" d="M0 .227h39.479v18.692H0z"/>
    </defs>
    <g fill="none" fill-rule="evenodd">
        <rect width="64" height="64" fill="#444" rx="16"/>
        <g transform="translate(12 11.353)">
            <mask id="b" fill="#fff">
                <use xlink:href="#a"/>
            </mask>
            <path fill="#FFF" d="M39.327 9.902l-8.822 8.822a.525.525 0 0 1-.896-.371V14.35H.418A.418.418 0 0 1 0 13.932V5.136c0-.231.187-.419.418-.419h29.19V.711c0-.462.564-.7.897-.368l8.822 8.814a.532.532 0 0 1 0 .745" mask="url(#b)"/>
        </g>
        <g transform="translate(12 32.975)">
            <mask id="d" fill="#fff">
                <use xlink:href="#c"/>
            </mask>
            <path fill="#FFF" d="M.152 9.204L8.974.382a.525.525 0 0 1 .896.371v4.004h29.191c.231 0 .418.187.418.418v8.796c0 .23-.187.418-.418.418H9.871v4.006a.525.525 0 0 1-.897.369L.152 9.949a.532.532 0 0 1 0-.745" mask="url(#d)"/>
        </g>
    </g>
</svg>
