<svg xmlns="http://www.w3.org/2000/svg" xmlns:xlink="http://www.w3.org/1999/xlink" width="64" height="64" viewBox="0 0 64 64">
    <defs>
        <path id="a" d="M.323.002h6.412v12.212H.323z"/>
        <path id="c" d="M0 .41h5.721v12.336H0z"/>
    </defs>
    <g fill="none" fill-rule="evenodd">
        <rect width="64" height="64" fill="#444" rx="16"/>
        <path fill="#FFF" d="M31.85 51.705c-3.861 0-7.719-1.128-11.072-3.382a19.873 19.873 0 0 1-6.516-7.264 1.684 1.684 0 0 1 2.985-1.56 16.494 16.494 0 0 0 5.409 6.03 16.455 16.455 0 0 0 18.214.115 1.684 1.684 0 0 1 1.843 2.819 19.835 19.835 0 0 1-10.864 3.242"/>
        <g transform="translate(44.911 31.452)">
            <mask id="b" fill="#fff">
                <use xlink:href="#a"/>
            </mask>
            <path fill="#FFF" d="M2.006 12.214A1.684 1.684 0 0 1 .61 9.59a16.461 16.461 0 0 0 2.763-8.022A1.678 1.678 0 0 1 5.17.007 1.682 1.682 0 0 1 6.73 1.803a19.836 19.836 0 0 1-3.326 9.666 1.681 1.681 0 0 1-1.4.745" mask="url(#b)"/>
        </g>
        <path fill="#FFF" d="M49.757 28.42a1.688 1.688 0 0 1-2.086-1.15 15.402 15.402 0 0 0-.747-2.063 1.685 1.685 0 0 1 3.083-1.356 19.635 19.635 0 0 1 .9 2.483 1.686 1.686 0 0 1-1.15 2.086M45.059 21.073a1.68 1.68 0 0 1-1.224-.527 16.585 16.585 0 0 0-2.8-2.369 16.454 16.454 0 0 0-19.276.641 1.682 1.682 0 1 1-2.06-2.663 19.815 19.815 0 0 1 23.215-.772 19.955 19.955 0 0 1 3.368 2.85 1.683 1.683 0 0 1-1.223 2.84"/>
        <g transform="translate(12 20.82)">
            <mask id="d" fill="#fff">
                <use xlink:href="#c"/>
            </mask>
            <path fill="#FFF" d="M1.684 12.746c-.928 0-1.681-.75-1.684-1.679a19.811 19.811 0 0 1 2.573-9.803 1.683 1.683 0 1 1 2.929 1.66 16.444 16.444 0 0 0-2.135 8.134c.003.93-.75 1.686-1.679 1.688h-.004z" mask="url(#d)"/>
        </g>
        <path fill="#FFF" d="M24.217 43.622a14.097 14.097 0 0 1-6.49-11.88c0-7.79 6.311-14.106 14.098-14.106 7.786 0 14.098 6.315 14.098 14.107 0 5.016-2.617 9.421-6.56 11.923-1.406-1.527-4.278-2.574-7.593-2.574-3.283 0-6.132 1.026-7.553 2.53m7.553-4.853a7.079 7.079 0 0 0 7.076-7.082 7.08 7.08 0 0 0-7.076-7.081 7.08 7.08 0 0 0-7.077 7.081 7.079 7.079 0 0 0 7.077 7.082"/>
    </g>
</svg>
