<svg xmlns="http://www.w3.org/2000/svg" width="64" height="64" viewBox="0 0 64 64">
    <g fill="none" fill-rule="evenodd">
        <path fill="#4D4D4D" d="M48 64H16C7.163 64 0 56.836 0 48V16C0 7.164 7.163 0 16 0h32c8.837 0 16 7.164 16 16v32c0 8.836-7.163 16-16 16"/>
        <path fill="#FFF" d="M39.68 15.872C35.218 15.945 32 13 32 13s-3.216 2.945-7.68 2.872C19.855 15.798 16.638 13 16.638 13v19.37c0 4.449 0 8.312 4.788 13.22C26.214 50.498 32 51.74 32 51.74s5.786-1.242 10.575-6.15c4.788-4.908 4.788-8.771 4.788-13.22V13s-3.217 2.798-7.682 2.872"/>
    </g>
</svg>
