<svg xmlns="http://www.w3.org/2000/svg" width="64" height="64" viewBox="0 0 64 64">
    <g fill="none" fill-rule="evenodd">
        <rect width="64" height="64" fill="#444" rx="16"/>
        <g fill="#FFF">
            <path d="M11.498 13.083a.28.28 0 0 1-.1-.018.666.666 0 0 0-.36-.029.263.263 0 1 1-.11-.515c.082-.018.174-.018.246-.025.146 0 .29.027.424.08a.263.263 0 0 1-.1.507zm1.956 2.4a.266.266 0 0 1-.214-.107l-.31-.417a.26.26 0 0 1 .056-.367.267.267 0 0 1 .372.056l.31.417a.26.26 0 0 1-.056.367.267.267 0 0 1-.158.051zm-3.184.309a.265.265 0 0 1-.266-.262L10 15.013a.265.265 0 0 1 .264-.265h.002c.147 0 .266.117.267.261l.004.518a.265.265 0 0 1-.265.265h-.002zm5.048 2.188a.267.267 0 0 1-.214-.107l-.31-.415a.261.261 0 0 1 .055-.369.268.268 0 0 1 .373.056l.31.416a.26.26 0 0 1-.055.368.268.268 0 0 1-.159.051zm-5.027.913a.265.265 0 0 1-.267-.261l-.003-.516c0-.146.117-.265.265-.266h.001c.147 0 .266.117.267.261l.004.517a.265.265 0 0 1-.265.265h-.002zm6.891 1.585a.267.267 0 0 1-.214-.107l-.311-.416a.262.262 0 0 1 .056-.369.269.269 0 0 1 .373.056l.311.416a.265.265 0 1 1-.215.42zm-6.87 1.517a.265.265 0 0 1-.267-.261l-.003-.517a.265.265 0 0 1 .264-.266h.003c.146 0 .265.117.266.261l.003.518a.265.265 0 0 1-.264.265h-.002zm8.734.98a.267.267 0 0 1-.214-.107l-.311-.416a.261.261 0 0 1 .056-.368.269.269 0 0 1 .373.055l.311.417a.265.265 0 1 1-.215.42zm-8.713 2.121a.265.265 0 0 1-.267-.26l-.003-.518a.265.265 0 0 1 .264-.265h.002c.147 0 .266.116.267.261l.003.517a.265.265 0 0 1-.264.265h-.002zm.02 3.102a.265.265 0 0 1-.266-.261l-.003-.517a.265.265 0 0 1 .264-.265h.002c.146 0 .266.116.267.26l.003.517a.265.265 0 0 1-.264.266h-.003zm.022 3.101a.265.265 0 0 1-.267-.26l-.004-.518a.265.265 0 0 1 .265-.265h.002c.146 0 .266.117.267.261l.003.517a.265.265 0 0 1-.265.265h-.001zm.02 3.102a.265.265 0 0 1-.266-.261l-.004-.518a.264.264 0 0 1 .265-.264h.002c.146 0 .265.116.266.26l.004.518a.265.265 0 0 1-.264.265h-.002zm.021 3.101a.265.265 0 0 1-.266-.26l-.004-.517a.265.265 0 0 1 .264-.266h.003c.146 0 .265.117.266.261l.004.518a.265.265 0 0 1-.265.264h-.002zm.021 3.102a.265.265 0 0 1-.267-.261l-.003-.517a.265.265 0 0 1 .264-.265h.002c.147 0 .266.116.267.26l.004.518a.265.265 0 0 1-.265.265h-.002zm4.955 1.704a.266.266 0 0 1-.233-.136.26.26 0 0 1 .105-.357l.458-.25a.267.267 0 0 1 .363.104.26.26 0 0 1-.105.357l-.46.25a.262.262 0 0 1-.128.032zm2.682.604a.268.268 0 0 1-.253-.18l-.166-.49a.263.263 0 0 1 .169-.333c.14-.045.29.029.337.167l.166.49a.263.263 0 0 1-.253.346zm-7.591.791c-.12 0-.23-.08-.26-.2a1.136 1.136 0 0 1-.033-.272l-.002-.304a.265.265 0 0 1 .265-.265h.001c.146 0 .266.117.267.262l.002.303c0 .051.007.102.019.15a.263.263 0 0 1-.259.326zm2.158.105a.267.267 0 0 1-.233-.136.262.262 0 0 1 .104-.358l.458-.25a.267.267 0 0 1 .363.103.262.262 0 0 1-.104.358l-.459.25a.266.266 0 0 1-.129.033zm6.424 2.048a.266.266 0 0 1-.253-.18l-.166-.49a.267.267 0 0 1 .507-.165l.165.489a.262.262 0 0 1-.253.346zm.99 2.943a.266.266 0 0 1-.253-.18l-.164-.49a.262.262 0 0 1 .169-.333c.139-.047.29.03.337.167l.165.49a.263.263 0 0 1-.253.346zm5.44.24a.265.265 0 0 1-.253-.18l-.165-.49a.262.262 0 0 1 .169-.333c.138-.047.29.03.337.167l.165.49a.262.262 0 0 1-.253.346zm-1.676 1.928a.262.262 0 0 1-.084-.513l.497-.164c.14-.047.291.03.337.168a.262.262 0 0 1-.17.332l-.496.163a.26.26 0 0 1-.084.014zm-2.505.592a.256.256 0 0 1-.1-.02 1.166 1.166 0 0 1-.52-.414.261.261 0 0 1 .068-.366.269.269 0 0 1 .37.068c.071.1.17.179.284.226a.26.26 0 0 1 .145.343.266.266 0 0 1-.247.163zM20.614 26a.394.394 0 0 1-.31-.145l-.229-.287a.34.34 0 0 1 .081-.499.407.407 0 0 1 .54.076l.228.286a.339.339 0 0 1-.08.5.404.404 0 0 1-.23.069zM23.986 13.893a.266.266 0 0 1-.216-.107l-.08-.107a.65.65 0 0 0-.213-.185.26.26 0 0 1-.107-.357.27.27 0 0 1 .363-.105c.15.08.281.193.388.335l.08.107a.259.259 0 0 1-.057.368.264.264 0 0 1-.158.051zm-1.717.697a.265.265 0 0 1-.267-.261l-.002-.27c0-.112.015-.222.044-.328a.27.27 0 0 1 .33-.184.263.263 0 0 1 .187.323.682.682 0 0 0-.026.188l.002.267a.265.265 0 0 1-.266.265h-.002zm2.995 1.008a.268.268 0 0 1-.216-.107l-.319-.426a.26.26 0 0 1 .056-.368.27.27 0 0 1 .375.056l.32.426a.26.26 0 0 1-.057.368.27.27 0 0 1-.16.051zm-2.98 1.11a.266.266 0 0 1-.268-.262l-.004-.529a.266.266 0 0 1 .267-.264h.001c.147 0 .267.116.268.261l.003.53a.265.265 0 0 1-.266.264h-.001zm4.258.595a.268.268 0 0 1-.215-.106l-.32-.426a.26.26 0 0 1 .057-.369.27.27 0 0 1 .374.056l.32.426a.26.26 0 0 1-.057.368.27.27 0 0 1-.159.051zm-4.244 1.523a.265.265 0 0 1-.267-.261l-.004-.53a.266.266 0 0 1 .266-.265h.001c.147 0 .267.117.268.262l.004.53a.266.266 0 0 1-.266.264h-.002zm5.523.183a.268.268 0 0 1-.216-.107l-.32-.426a.26.26 0 0 1 .058-.368.27.27 0 0 1 .374.055l.319.427a.26.26 0 0 1-.056.368.27.27 0 0 1-.16.051zm1.279 1.705a.27.27 0 0 1-.216-.107l-.32-.426a.26.26 0 0 1 .056-.368.27.27 0 0 1 .375.055l.32.427a.26.26 0 0 1-.056.368.268.268 0 0 1-.16.051zm-6.788.23a.265.265 0 0 1-.268-.262l-.003-.529a.266.266 0 0 1 .266-.265h.001c.148 0 .267.117.268.262l.004.529a.265.265 0 0 1-.266.265h-.002zm8.065 1.475a.268.268 0 0 1-.215-.106l-.32-.427a.26.26 0 0 1 .057-.368.27.27 0 0 1 .375.056l.32.426a.26.26 0 0 1-.058.368.267.267 0 0 1-.159.051zm-8.051.643a.266.266 0 0 1-.268-.261l-.002-.53a.265.265 0 0 1 .266-.264h.001c.147 0 .267.116.268.26l.003.53a.265.265 0 0 1-.266.265h-.002zm9.33 1.063a.267.267 0 0 1-.215-.107l-.32-.427a.26.26 0 0 1 .057-.367.27.27 0 0 1 .374.055l.32.426a.26.26 0 0 1-.057.368.267.267 0 0 1-.159.052zm-9.315 1.055a.265.265 0 0 1-.268-.262l-.003-.53a.266.266 0 0 1 .266-.264h.001c.147 0 .267.117.268.261l.004.53a.266.266 0 0 1-.266.265h-.002zm10.594.65a.268.268 0 0 1-.216-.107l-.32-.426a.26.26 0 0 1 .057-.368.27.27 0 0 1 .374.056l.32.426a.26.26 0 0 1-.056.368.27.27 0 0 1-.16.051zm-10.58 1.468a.265.265 0 0 1-.268-.262l-.003-.53a.266.266 0 0 1 .266-.264c.13.002.268.116.269.262l.004.53a.265.265 0 0 1-.266.264h-.002zm.014 2.118a.266.266 0 0 1-.268-.262l-.003-.53a.265.265 0 0 1 .266-.264h.002c.146 0 .266.117.267.262l.004.53a.265.265 0 0 1-.267.264h-.001zm.014 2.118a.265.265 0 0 1-.267-.262l-.004-.53a.265.265 0 0 1 .266-.264h.002c.147 0 .267.117.268.262l.003.53a.265.265 0 0 1-.266.264h-.002zm.015 2.117a.265.265 0 0 1-.268-.261l-.004-.53a.265.265 0 0 1 .266-.264h.002c.147 0 .267.116.268.262l.003.529a.265.265 0 0 1-.266.264h-.001zm.014 2.119a.265.265 0 0 1-.267-.262l-.004-.53a.265.265 0 0 1 .266-.264h.001c.147 0 .267.117.268.262l.004.53a.266.266 0 0 1-.267.264zm.014 2.117a.265.265 0 0 1-.268-.261l-.003-.53a.266.266 0 0 1 .266-.264h.001c.147 0 .267.117.268.261l.004.53a.265.265 0 0 1-.266.264h-.002zm.014 2.118a.265.265 0 0 1-.268-.261l-.003-.53a.266.266 0 0 1 .266-.264h.001c.148 0 .267.117.268.262l.004.529a.265.265 0 0 1-.266.264h-.002zm.015 2.118a.265.265 0 0 1-.268-.26l-.003-.53a.265.265 0 0 1 .266-.265h.001c.147 0 .267.117.268.261l.004.53a.266.266 0 0 1-.266.264h-.002zm5.232.421a.266.266 0 0 1-.234-.136.26.26 0 0 1 .105-.357l.471-.256a.267.267 0 0 1 .363.103.26.26 0 0 1-.105.358l-.471.255a.265.265 0 0 1-.13.033zm2.21.111a.27.27 0 0 1-.254-.18l-.03-.089a.617.617 0 0 0-.165-.257.26.26 0 0 1-.009-.372.272.272 0 0 1 .379-.009c.137.13.242.292.304.471l.03.09a.263.263 0 0 1-.254.346zm-4.097.913a.268.268 0 0 1-.235-.136.26.26 0 0 1 .105-.358l.472-.255a.268.268 0 0 1 .363.103.26.26 0 0 1-.105.357l-.471.256a.265.265 0 0 1-.13.033zm-3.256.663a.268.268 0 0 1-.244-.156 1.119 1.119 0 0 1-.101-.466l-.001-.159a.266.266 0 0 1 .266-.265c.163.006.268.117.269.262v.16c.001.09.02.175.056.254a.26.26 0 0 1-.135.347.27.27 0 0 1-.11.023zm1.368.36a.268.268 0 0 1-.234-.135.26.26 0 0 1 .105-.357l.471-.257a.272.272 0 0 1 .364.103.26.26 0 0 1-.105.358l-.471.256a.274.274 0 0 1-.13.033zm6.665.074a.267.267 0 0 1-.254-.18l-.17-.503a.262.262 0 0 1 .17-.332c.14-.047.292.03.339.167l.17.502a.261.261 0 0 1-.17.332.264.264 0 0 1-.085.014zm.68 2.01a.268.268 0 0 1-.255-.18l-.17-.503a.262.262 0 0 1 .17-.332c.14-.047.292.029.338.167l.17.503a.262.262 0 0 1-.254.345zm5.38.006a.268.268 0 0 1-.254-.18l-.17-.503a.262.262 0 0 1 .17-.332c.14-.047.292.03.339.167l.17.503a.261.261 0 0 1-.17.332.26.26 0 0 1-.084.013zm-4.7 2.004a.267.267 0 0 1-.255-.18l-.17-.503a.262.262 0 0 1 .17-.332.268.268 0 0 1 .338.166l.17.503a.262.262 0 0 1-.254.346zm5.38.006a.267.267 0 0 1-.254-.18l-.17-.503a.263.263 0 0 1 .17-.332c.14-.046.292.03.338.167l.17.503a.262.262 0 0 1-.255.345zm.19 1.996a.27.27 0 0 1-.178-.067.26.26 0 0 1-.021-.37.636.636 0 0 0 .16-.336.27.27 0 0 1 .302-.223c.146.02.248.154.227.297-.033.228-.134.44-.29.611a.272.272 0 0 1-.2.088zm-4.891.008a.268.268 0 0 1-.255-.18l-.17-.503a.262.262 0 0 1 .17-.332c.14-.047.292.03.339.167l.17.502a.262.262 0 0 1-.17.332.258.258 0 0 1-.084.014zm2.902.763a.262.262 0 0 1-.084-.513l.511-.166c.14-.047.292.03.339.166a.262.262 0 0 1-.17.333l-.512.167a.26.26 0 0 1-.084.013zM33.711 52c-.114 0-.227-.016-.336-.049a.262.262 0 0 1-.179-.328.269.269 0 0 1 .334-.175c.12.036.251.035.374-.003a.268.268 0 0 1 .335.173.263.263 0 0 1-.175.33 1.219 1.219 0 0 1-.353.052zM53.006 38.71l-5.614.816a.893.893 0 0 0-.718 1.166l2.935 8.848a.894.894 0 0 1-.565 1.13l-3.07 1.02a.892.892 0 0 1-1.127-.565l-2.933-8.842a.892.892 0 0 0-1.278-.5l-4.675 2.584a.892.892 0 0 1-1.323-.776l-.196-29.61c-.006-.865 1.098-1.233 1.61-.536l17.544 23.852a.894.894 0 0 1-.59 1.414"/>
        </g>
    </g>
</svg>
