<svg xmlns="http://www.w3.org/2000/svg" width="64" height="64" viewBox="0 0 64 64">
    <g fill="none" fill-rule="evenodd">
        <path fill="#17A6F2" d="M48 64H16C7.164 64 0 56.836 0 48V16C0 7.164 7.164 0 16 0h32c8.836 0 16 7.164 16 16v32c0 8.836-7.164 16-16 16"/>
        <path fill="#FFF" d="M16 21v-4a2 2 0 0 1 2-2h19a2 2 0 0 1 2 2v4a2 2 0 0 1-2 2H18a2 2 0 0 1-2-2M20.5 34v-4a2 2 0 0 1 2-2h19a2 2 0 0 1 2 2v4a2 2 0 0 1-2 2h-19a2 2 0 0 1-2-2M26 47v-4a2 2 0 0 1 2-2h19a2 2 0 0 1 2 2v4a2 2 0 0 1-2 2H28a2 2 0 0 1-2-2"/>
    </g>
</svg>
