<svg xmlns="http://www.w3.org/2000/svg" width="64" height="64" viewBox="0 0 64 64">
    <g fill="none" fill-rule="evenodd">
        <path fill="#4D4D4D" d="M48 64H16C7.164 64 0 56.836 0 48V16C0 7.164 7.164 0 16 0h32c8.836 0 16 7.164 16 16v32c0 8.836-7.164 16-16 16"/>
        <path fill="#FFF" d="M55.992 45.582a1.076 1.076 0 0 1-1.074 1.196H27.031a1.076 1.076 0 0 1-1.075-1.196l.002-.013c.077-.629.27-1.228.525-1.806.302-.686.853-1.143 1.452-1.549 1.093-.739 2.305-1.239 3.514-1.744.87-.363 1.744-.714 2.611-1.082 2.457-1.106 2.784-1.952 2.822-2.086a1.83 1.83 0 0 0 .038-.237c.018-.184.031-.369.044-.553v-.479c-5.31.048-6.874-2.228-6.874-2.228s3.034-.048 2.846-8.056c-.188-8.009 3.504-9.332 4.881-9.855 4.008-1.524 6.021.899 6.021.899 4.646-.43 5.928 4.645 5.357 10.426-.57 5.78 2.605 6.679 2.605 6.679-2.182 2.229-6.78 2.088-6.78 2.088v.983l.008.096c.007.081.021.16.038.238.038.133.365.979 2.822 2.085.867.369 1.742.72 2.611 1.083 1.21.504 2.421 1.005 3.514 1.743.6.406 1.15.863 1.452 1.549.255.579.448 1.178.526 1.807l.001.012zm-31.266 1.163c-.746.092-1.517.027-2.256.028l-2.334.002c-1.626 0-3.251.002-4.876.003H9.4A1.4 1.4 0 0 1 8 45.379v-1.66c0-1.452.675-2.853 1.816-3.735 3.372-2.593 6.795-4.357 7.522-4.668.103-.052.155-.156.155-.208v-2.075a8.898 8.898 0 0 1-.985-2.853c-.312 0-.726-.467-1.194-2.075-.622-2.178.053-2.49.57-2.438a5.63 5.63 0 0 1-.155-3.32c.312-1.245.934-2.18 1.712-2.956.467-.52.986-.934 1.556-1.297a8.319 8.319 0 0 1 1.505-.78 3.974 3.974 0 0 1 1.4-.258 5.692 5.692 0 0 1 3.476.727c1.245.674 1.712 1.556 1.712 1.556s3.06.207 1.712 6.639c.415.156.726.726.207 2.387-.571 2.074-1.141 2.178-1.452 1.97-.104.727-.363 1.505-.727 2.23v2.388c0 .103.052.207.156.207.76.38 1.573.679 2.353 1.017.87.378 1.74.76 2.6 1.158.413.19.824.385 1.23.585.156.077.31.155.463.234-.35.22-.804.469-1.402.738-1.108.514-2.28.906-3.396 1.414-.663.3-1.348.604-1.988.95-.593.322-1.126.767-1.498 1.333-.4.609-.6 1.324-.794 2.026-.1.36-.201.727-.202 1.102-.002.375.107.765.374 1.029z"/>
    </g>
</svg>
