<svg xmlns="http://www.w3.org/2000/svg" xmlns:xlink="http://www.w3.org/1999/xlink" width="64" height="64" viewBox="0 0 64 64">
    <defs>
        <path id="a" d="M0 .431h19.82v19.6H0z"/>
        <path id="c" d="M.004.4h19.82V20H.005z"/>
    </defs>
    <g fill="none" fill-rule="evenodd">
        <rect width="64" height="64" fill="#444" rx="16"/>
        <g transform="translate(12 12.013)">
            <mask id="b" fill="#fff">
                <use xlink:href="#a"/>
            </mask>
            <path fill="#FFF" d="M19.82 4.738v4.084h-5.595c-3.142 0-5.704 2.53-5.704 5.64v5.57H4.355C1.95 20.031 0 18.101 0 15.724V4.738C0 2.36 1.95.43 4.355.43h11.11c2.404 0 4.355 1.929 4.355 4.307" mask="url(#b)"/>
        </g>
        <g transform="translate(31.775 31.569)">
            <mask id="d" fill="#fff">
                <use xlink:href="#c"/>
            </mask>
            <path fill="#FFF" d="M19.825 4.707v10.986c0 2.378-1.951 4.307-4.355 4.307H4.36C1.955 20 .004 18.071.004 15.693v-4.16H5.56c3.146 0 5.703-2.529 5.703-5.64V.4h4.207c2.404 0 4.355 1.929 4.355 4.307" mask="url(#d)"/>
        </g>
        <path fill="#FFF" d="M26.225 41.325c-2.153 0-3.906-1.734-3.906-3.863V26.476c0-2.13 1.753-3.863 3.906-3.863h11.11c2.157 0 3.905 1.734 3.905 3.863v10.986c0 2.13-1.748 3.863-3.905 3.863h-11.11zm11.11-19.6h-11.11c-2.648 0-4.805 2.133-4.805 4.75v10.987c0 2.623 2.157 4.751 4.805 4.751h11.11c2.651 0 4.804-2.128 4.804-4.75V26.475c0-2.618-2.153-4.752-4.804-4.752z"/>
        <path fill="#FFF" d="M40.341 31.97v.888h-4.206c-1.906 0-3.457 1.533-3.457 3.417v4.16h-.898v-4.16c0-2.377 1.95-4.306 4.355-4.306h4.206zM31.82 23.502v4.236c0 2.377-1.95 4.307-4.355 4.307h-4.247v-.89h4.247c1.906 0 3.456-1.532 3.456-3.417v-4.236h.899z"/>
    </g>
</svg>
