<?xml version="1.0" encoding="UTF-8"?>
<svg width="64px" height="64px" viewBox="0 0 64 64" version="1.1" xmlns="http://www.w3.org/2000/svg" xmlns:xlink="http://www.w3.org/1999/xlink">
    <!-- Generator: Sketch 49.1 (51147) - http://www.bohemiancoding.com/sketch -->
    <title>icon_Core</title>
    <desc>Created with Sketch.</desc>
    <defs>
        <linearGradient x1="50%" y1="0%" x2="50%" y2="100%" id="linearGradient-1">
            <stop stop-color="#404040" offset="0%"></stop>
            <stop stop-color="#000000" offset="100%"></stop>
        </linearGradient>
    </defs>
    <g id="Page-1" stroke="none" stroke-width="1" fill="none" fill-rule="evenodd">
        <g id="Product-Roadmap" transform="translate(-245.000000, -1337.000000)">
            <g id="Core" transform="translate(229.000000, 1321.000000)">
                <g id="Group-2" transform="translate(16.000000, 16.000000)">
                    <g id="icon_Core">
                        <g id="Icon">
                            <rect fill="url(#linearGradient-1)" x="0" y="0" width="64" height="64" rx="14.9333333"></rect>
                            <g transform="translate(22.000000, 17.000000)" fill="#F5A623">
                                <path d="M11.2439667,15.6395667 C11.2439667,13.4002333 13.0669667,11.5772333 15.3076333,11.5772333 C17.5483,11.5772333 19.3699667,13.4002333 19.3699667,15.6395667 C19.3699667,17.8802333 17.5483,19.7032333 15.3076333,19.7032333 C13.0669667,19.7032333 11.2439667,17.8802333 11.2439667,15.6395667 M5.59296667,29.4179 C3.3523,29.4179 1.52896667,27.5949 1.52896667,25.3542333 C1.52896667,23.1135667 3.3523,21.2919 5.59296667,21.2919 C7.83396667,21.2919 9.65663333,23.1135667 9.65663333,25.3542333 C9.65663333,27.5949 7.83396667,29.4179 5.59296667,29.4179 M15.3076333,10.0465667 C12.2226333,10.0465667 9.71296667,12.5559 9.71296667,15.6395667 C9.71296667,15.8649 9.7263,16.0872333 9.75263333,16.3045667 C9.75463333,16.3212333 9.7563,16.3379 9.75796667,16.3529 C9.95196667,18.3562333 10.3629667,19.0379 9.67663333,19.7245667 C8.9833,20.4179 8.27863333,19.9769 6.21496667,19.7962333 C6.10196667,19.7829 5.9893,19.7725667 5.87496667,19.7679 L5.87163333,19.7679 C5.77863333,19.7629 5.68596667,19.7612333 5.59296667,19.7612333 C2.50796667,19.7612333 0.0003,22.2692333 0.0003,25.3542333 C0.0003,28.4392333 2.50796667,30.9489 5.59296667,30.9489 C8.6783,30.9489 11.1876333,28.4392333 11.1876333,25.3542333 C11.1876333,25.1419 11.1743,24.9329 11.1513,24.7272333 C10.9686333,22.6672333 10.5393,21.9555667 11.2226333,21.2705667 C11.9026333,20.5905667 12.6093,21.0069 14.6723,21.1975667 C14.7853,21.2075667 14.9013,21.2172333 15.0206333,21.2275667 L15.0289667,21.2275667 C15.1203,21.2322333 15.2146333,21.2339 15.3076333,21.2339 C18.3909667,21.2339 20.9006333,18.7245667 20.9006333,15.6395667 C20.9006333,12.5559 18.3909667,10.0465667 15.3076333,10.0465667" id="Fill-1"></path>
                                <path d="M9.65673333,5.92633333 C9.65673333,8.167 7.83373333,9.98866667 5.59306667,9.98866667 C3.35406667,9.98866667 1.53073333,8.167 1.53073333,5.92633333 C1.53073333,3.68566667 3.35406667,1.864 5.59306667,1.864 C7.83373333,1.864 9.65673333,3.68566667 9.65673333,5.92633333 M5.59306667,0.333333333 C2.50973333,0.333333333 6.66666665e-05,2.84133333 6.66666665e-05,5.92633333 C6.66666665e-05,9.01133333 2.50973333,11.5193333 5.59306667,11.5193333 C8.67806667,11.5193333 11.1877333,9.01133333 11.1877333,5.92633333 C11.1877333,2.84133333 8.67806667,0.333333333 5.59306667,0.333333333" id="Fill-4"></path>
                            </g>
                        </g>
                    </g>
                </g>
            </g>
        </g>
    </g>
</svg>