<svg xmlns="http://www.w3.org/2000/svg" width="64" height="64" viewBox="0 0 64 64">
    <g fill="none" fill-rule="evenodd">
        <path fill="#4D4D4D" d="M15.746 64C7.063 64 0 56.937 0 48.254V15.746C0 7.063 7.063 0 15.746 0h32.508C56.937 0 64 7.063 64 15.746v32.508C64 56.937 56.937 64 48.254 64H15.746z"/>
        <path fill="#FFF" d="M46.676 34.326h-12.35v12.35a2.325 2.325 0 0 1-4.65 0v-12.35h-12.35a2.325 2.325 0 0 1 0-4.65h12.35V17.325a2.325 2.325 0 0 1 4.65 0v12.35h12.35a2.325 2.325 0 0 1 0 4.65"/>
    </g>
</svg>
