<svg xmlns="http://www.w3.org/2000/svg" width="64" height="64" viewBox="0 0 64 64">
    <g fill="none" fill-rule="evenodd">
        <rect width="64" height="64" fill="#444" rx="16"/>
        <path fill="#FFF" d="M28.09 49.771v-4.246c0-.678.556-1.228 1.24-1.228h5.17c.685 0 1.24.55 1.24 1.228v4.246c0 .679-.555 1.23-1.24 1.23h-5.17c-.684 0-1.24-.551-1.24-1.23M29.058 38.581l-2.053-23.81a1.265 1.265 0 0 1 1.255-1.379h8.309c.738 0 1.318.638 1.254 1.38l-2.053 23.81a1.263 1.263 0 0 1-1.254 1.159h-4.204a1.263 1.263 0 0 1-1.254-1.16"/>
    </g>
</svg>
