<svg xmlns="http://www.w3.org/2000/svg" width="64" height="64" viewBox="0 0 64 64">
    <g fill="none" fill-rule="nonzero">
        <rect width="64" height="64" fill="#17A6F2" rx="16"/>
        <ellipse cx="32.675" cy="29.725" fill="#FFF" rx="24.37" ry="17.285"/>
        <path fill="#17A6F2" d="M30.78 31.8l-.255-3.395 1-.38c3.045-1.08 4.25-2.06 4.25-3.835 0-1.62-1.27-2.57-3.175-2.57-2.25 0-4.31 1-6.12 2.41l-.555-3.68A11.785 11.785 0 0 1 33 18.065c4.155 0 6.785 2.19 6.785 5.84S37.5 29.26 33.5 30.815l-.22 2.065-2.38.535-.12-1.615zm-1 3.93H34v4.635h-4.205l-.015-4.635z"/>
        <path fill="#FFF" d="M18.525 39.555l-1.8 13.74a.31.31 0 0 0 .5.275L28.1 43.955l-9.575-4.4z"/>
    </g>
</svg>
