<svg xmlns="http://www.w3.org/2000/svg" width="64" height="64" viewBox="0 0 64 64">
    <g fill="none" fill-rule="evenodd">
        <rect width="64" height="64" fill="#4D4D4D" rx="16"/>
        <path fill="#FFF" d="M31.657 24.13c1.838.035 4.083.73 4.866 2.224.408.764 1.326 1.042 2.075.625l1.803-.972a1.57 1.57 0 0 0 .612-2.12c-1.258-2.432-3.64-4.065-6.736-4.621v-1.702c0-.87-.68-1.564-1.53-1.564h-2.008c-.85 0-1.531.695-1.531 1.564v1.702c-3.81.66-7.62 2.884-7.519 7.505.136 5.837 5.784 6.81 9.526 7.435 3.709.695 5.58 1.32 5.546 2.85 0 2.432-3.879 2.64-5.104 2.64-2.143 0-4.967-.695-5.885-2.606-.17-.382-.51-.66-.885-.799a1.44 1.44 0 0 0-1.19.104l-1.872.973c-.748.382-1.02 1.32-.68 2.085 1.36 2.849 4.32 4.795 8.029 5.316v1.667c0 .87.68 1.564 1.53 1.564h1.974c.85 0 1.531-.695 1.531-1.564v-1.702c4.049-.66 7.757-3.127 7.791-7.61 0-6.253-6.022-7.33-10.036-8.025-4.287-.765-5.138-1.425-5.138-2.398 0-.486.136-.868.443-1.216.816-.834 2.517-1.355 4.388-1.355"/>
    </g>
</svg>
