<svg xmlns="http://www.w3.org/2000/svg" width="64" height="64" viewBox="0 0 64 64">
    <g fill="none" fill-rule="evenodd">
        <path fill="#17A6F2" d="M48 64H16C7.163 64 0 56.836 0 48V16C0 7.164 7.163 0 16 0h32c8.837 0 16 7.164 16 16v32c0 8.836-7.163 16-16 16"/>
        <path fill="#FFF" d="M21 49h-4a2 2 0 0 1-2-2V17a2 2 0 0 1 2-2h4a2 2 0 0 1 2 2v30a2 2 0 0 1-2 2M34 49h-4a2 2 0 0 1-2-2V34a2 2 0 0 1 2-2h4a2 2 0 0 1 2 2v13a2 2 0 0 1-2 2M47 49h-4a2 2 0 0 1-2-2V26a2 2 0 0 1 2-2h4a2 2 0 0 1 2 2v21a2 2 0 0 1-2 2"/>
    </g>
</svg>
