<svg xmlns="http://www.w3.org/2000/svg" xmlns:xlink="http://www.w3.org/1999/xlink" width="64" height="64" viewBox="0 0 64 64">
    <defs>
        <path id="a" d="M0 .16h39.84V40H0z"/>
    </defs>
    <g fill="none" fill-rule="evenodd">
        <rect width="64" height="64" fill="#444" rx="16"/>
        <g transform="translate(12 12.437)">
            <mask id="b" fill="#fff">
                <use xlink:href="#a"/>
            </mask>
            <path fill="#FFF" d="M9.238 38.271c-4.14 0-7.51-3.37-7.51-7.51V9.4c0-4.14 3.37-7.51 7.51-7.51h21.363c4.148 0 7.51 3.37 7.51 7.51v21.363c0 4.139-3.362 7.51-7.51 7.51H9.238zM30.601.161H9.238C4.148.16 0 4.307 0 9.398v21.363C0 35.86 4.148 40 9.238 40h21.363c5.099 0 9.239-4.14 9.239-9.238V9.399C39.84 4.309 35.7.16 30.6.16z" mask="url(#b)"/>
        </g>
        <path fill="#FFF" d="M38.083 43.637c-.337 0-.667-.11-.952-.317l-4.652-3.379a.945.945 0 0 0-1.119 0l-4.652 3.38a1.608 1.608 0 0 1-.95.316 1.653 1.653 0 0 1-1.331-.685 1.598 1.598 0 0 1-.222-1.45l1.777-5.469a.949.949 0 0 0-.345-1.064l-4.652-3.38a1.602 1.602 0 0 1-.59-1.818 1.602 1.602 0 0 1 1.546-1.123h5.75a.948.948 0 0 0 .905-.658l1.777-5.469a1.603 1.603 0 0 1 1.547-1.124c.718 0 1.325.441 1.548 1.124l1.776 5.469a.95.95 0 0 0 .905.658h5.75c.718 0 1.325.44 1.546 1.123a1.6 1.6 0 0 1-.59 1.818l-4.653 3.38a.95.95 0 0 0-.345 1.064l1.778 5.469a1.6 1.6 0 0 1-.222 1.45c-.312.429-.81.685-1.33.685"/>
        <path fill="#333" d="M31.92 21.06c-.867 0-1.6.532-1.868 1.356l-1.777 5.47a.614.614 0 0 1-.584.424h-5.75c-.867 0-1.6.532-1.868 1.356a1.935 1.935 0 0 0 .714 2.197l4.652 3.38a.612.612 0 0 1 .222.685l-1.776 5.47c-.197.606-.1 1.245.268 1.752.376.516.975.824 1.604.824.41 0 .807-.131 1.15-.38l4.652-3.38a.605.605 0 0 1 .36-.117c.132 0 .256.04.362.117l4.651 3.38c.344.249.741.38 1.15.38a1.99 1.99 0 0 0 1.604-.824 1.934 1.934 0 0 0 .27-1.753l-1.778-5.469a.613.613 0 0 1 .223-.685l4.652-3.38c.702-.51.982-1.372.714-2.197A1.934 1.934 0 0 0 41.9 28.31h-5.75a.614.614 0 0 1-.584-.425l-1.777-5.469a1.936 1.936 0 0 0-1.868-1.357m0 .675c.516 0 1.033.298 1.226.891l1.776 5.469c.173.531.668.89 1.227.89h5.75c1.248 0 1.768 1.598.757 2.333l-4.652 3.38a1.29 1.29 0 0 0-.468 1.44l1.777 5.47c.294.904-.425 1.692-1.23 1.692a1.27 1.27 0 0 1-.754-.252l-4.651-3.38a1.287 1.287 0 0 0-1.516 0l-4.652 3.38c-.24.175-.5.252-.753.252-.805 0-1.524-.788-1.23-1.693l1.777-5.469a1.29 1.29 0 0 0-.468-1.44l-4.652-3.38c-1.01-.735-.492-2.332.757-2.332h5.75c.56 0 1.054-.36 1.227-.891l1.776-5.469c.193-.593.71-.89 1.226-.89"/>
    </g>
</svg>
