<svg xmlns="http://www.w3.org/2000/svg" width="29" height="43" viewBox="0 0 29 43">
    <g fill="none" fill-rule="nonzero">
        <path fill="#FFAD1D" d="M27.09 21.172a5.917 5.917 0 1 1-11.833.004 5.917 5.917 0 0 1 11.834-.004z"/>
        <path fill="#22D6D6" d="M7.737 28.696a5.917 5.917 0 1 0 0 11.834 5.917 5.917 0 0 0 0-11.834z"/>
        <path fill="#111" d="M21.176 13.437a7.74 7.74 0 0 0-7.683 8.655v.067c.27 2.773.838 3.715-.11 4.664-.95.949-1.936.35-4.79.099a7.308 7.308 0 0 0-.471-.039h-.385a7.737 7.737 0 1 0 7.74 7.736 7.653 7.653 0 0 0-.053-.866c-.251-2.85-.845-3.827.1-4.783.944-.957 1.918-.365 4.772-.1l.481.041h.399a7.737 7.737 0 0 0 0-15.474zM7.737 40.233a5.62 5.62 0 1 1 5.621-5.622 5.639 5.639 0 0 1-5.62 5.622zm7.816-19.061a5.62 5.62 0 1 1 5.623 5.623 5.627 5.627 0 0 1-5.623-5.623z"/>
        <path fill="#FFF" d="M13.654 7.737a5.917 5.917 0 1 1-11.833.004 5.917 5.917 0 0 1 11.833-.004z"/>
        <path fill="#111" d="M7.737 0a7.737 7.737 0 1 0 7.74 7.737A7.745 7.745 0 0 0 7.737 0zm5.621 7.737a5.62 5.62 0 1 1-11.241 0 5.62 5.62 0 0 1 11.241 0z"/>
    </g>
</svg>
