<svg xmlns="http://www.w3.org/2000/svg" xmlns:xlink="http://www.w3.org/1999/xlink" width="64" height="64" viewBox="0 0 64 64">
    <defs>
        <path id="a" d="M.094.083h22.45v21.759H.094z"/>
    </defs>
    <g fill="none" fill-rule="evenodd">
        <rect width="64" height="64" fill="#444" rx="16"/>
        <rect width="39" height="39" x="12.5" y="12.5" stroke="#FFF" rx="5"/>
        <path fill="#FFF" d="M29 39.535L27.536 41l-1.767-.474-.295-.295L25 38.464 26.465 37l2 .535zM42.193 29.132a3.899 3.899 0 0 1-3.852 1.024l-1.706 1.73-2.766-2.739 1.74-1.766a4.034 4.034 0 0 1 1.007-3.905 3.91 3.91 0 0 1 3.033-1.164l.48.486-1.06 1.076-.001-.002-1.169 1.187.578 2.187 2.155.586 1.171-1.186 1.06-1.075.478.486a4.023 4.023 0 0 1-1.148 3.075"/>
        <path fill="#FFF" d="M39.07 23.874l-1.17 1.185 1.168-1.187z"/>
        <path fill="#FFF" d="M39.07 23.874l-1.17 1.185 1.168-1.187zM27.416 40.989l-1.733-.472-.227-.062-.062-.23-.464-1.759 1.436-1.455 1.96.532.525 1.989-1.435 1.457zm5.44-5.266l-2.703-2.808-2.2 2.234a3.903 3.903 0 0 0-3.852 1.022 4.04 4.04 0 0 0 0 5.656 3.902 3.902 0 0 0 5.578 0 4.034 4.034 0 0 0 1.008-3.906l2.169-2.198z"/>
        <path fill="#FFF" d="M28.85 39.532l-1.434 1.457-1.733-.471-.227-.063-.062-.23-.464-1.758 1.436-1.456 1.96.532z"/>
        <path fill="#383838" d="M28.85 39.532l-1.434 1.457-1.733-.471-.227-.063-.062-.23-.464-1.758 1.436-1.456 1.96.532z"/>
        <path fill="#FFF" d="M23.824 31.019l-1.015 1.029a.312.312 0 0 1-.445 0l-3.272-3.32a.323.323 0 0 1 0-.451l1.015-1.03a.312.312 0 0 1 .445 0l3.272 3.32a.323.323 0 0 1 0 .452"/>
        <g transform="translate(21.108 21)">
            <mask id="b" fill="#fff">
                <use xlink:href="#a"/>
            </mask>
            <path fill="#FFF" d="M22.544 19.067l-2.733 2.775-7.454-7.74-2.7-2.806-4.053-4.208-.612.62-1.043 1.058a.468.468 0 0 1-.67 0L.234 5.676a.484.484 0 0 1 0-.68l3.236-3.283c.275-.28.616-.483.99-.591.024-.008.049-.012.072-.016L11.267.087a.467.467 0 0 1 .404.136l.692.702a.483.483 0 0 1-.12.767l-2.61 1.343a.476.476 0 0 0-.12.087l-.9.914-.613.62 4.149 4.112 2.766 2.74 7.63 7.56z" mask="url(#b)"/>
        </g>
    </g>
</svg>
