<svg xmlns="http://www.w3.org/2000/svg" width="64" height="64" viewBox="0 0 64 64">
    <g fill="none" fill-rule="evenodd">
        <path fill="#999" d="M48 64H16C7.164 64 0 56.836 0 48V16C0 7.164 7.164 0 16 0h32c8.836 0 16 7.164 16 16v32c0 8.836-7.164 16-16 16"/>
        <rect width="40" height="40" x="12" y="12" stroke="#FFF" stroke-width="2" rx="8"/>
        <path stroke="#FFF" d="M32.428 21.988a.861.861 0 0 0-1.666 0l-1.793 5.757c-.25.799-.97 1.345-1.788 1.345h-5.8c-.848 0-1.212 1.169-.509 1.702l4.693 3.558a1.97 1.97 0 0 1 .676 2.154l-1.793 5.757c-.27.871.66 1.576 1.342 1.06l4.693-3.558c.66-.501 1.562-.501 2.224 0l4.692 3.557c.682.517 1.613-.188 1.34-1.06l-1.792-5.757a1.973 1.973 0 0 1 .677-2.153l4.692-3.558c.704-.534.34-1.702-.507-1.702h-5.8c-.82 0-1.54-.547-1.789-1.345l-1.792-5.757z"/>
    </g>
</svg>
