<svg xmlns="http://www.w3.org/2000/svg" xmlns:xlink="http://www.w3.org/1999/xlink" width="64" height="64" viewBox="0 0 64 64">
    <defs>
        <path id="a" d="M.323.002h6.412v12.212H.323z"/>
        <path id="c" d="M0 .41h5.721v12.336H0z"/>
    </defs>
    <g fill="none" fill-rule="evenodd">
        <rect width="64" height="64" fill="#FFF" rx="16"/>
        <path fill="#17A6F2" d="M39.834 19.933c6.584 4.424 8.334 13.347 3.91 19.93-4.424 6.584-13.348 8.335-19.932 3.91-6.583-4.423-8.334-13.346-3.909-19.93 4.424-6.584 13.347-8.334 19.931-3.91"/>
        <path fill="#17A6F2" d="M31.85 51.705c-3.861 0-7.719-1.128-11.072-3.382a19.871 19.871 0 0 1-6.516-7.264 1.684 1.684 0 0 1 2.985-1.56 16.496 16.496 0 0 0 5.409 6.03 16.454 16.454 0 0 0 18.214.115 1.684 1.684 0 0 1 1.843 2.819 19.834 19.834 0 0 1-10.864 3.242"/>
        <g transform="translate(44.911 31.452)">
            <mask id="b" fill="#fff">
                <use xlink:href="#a"/>
            </mask>
            <path fill="#17A6F2" d="M2.006 12.214A1.683 1.683 0 0 1 .61 9.591a16.465 16.465 0 0 0 2.763-8.023A1.678 1.678 0 0 1 5.17.006 1.682 1.682 0 0 1 6.73 1.803a19.84 19.84 0 0 1-3.326 9.666 1.683 1.683 0 0 1-1.4.745" mask="url(#b)"/>
        </g>
        <path fill="#17A6F2" d="M49.757 28.42a1.688 1.688 0 0 1-2.086-1.15c-.14-.494-.308-.987-.497-1.463a12.603 12.603 0 0 0-.25-.6 1.686 1.686 0 0 1 .863-2.22 1.685 1.685 0 0 1 2.22.864 19.58 19.58 0 0 1 .9 2.484 1.686 1.686 0 0 1-1.15 2.085M45.059 21.073a1.68 1.68 0 0 1-1.224-.527 16.582 16.582 0 0 0-2.8-2.369 16.454 16.454 0 0 0-19.276.64 1.682 1.682 0 1 1-2.06-2.662 19.815 19.815 0 0 1 23.215-.772 19.979 19.979 0 0 1 3.368 2.85 1.683 1.683 0 0 1-1.223 2.84"/>
        <g transform="translate(12 20.82)">
            <mask id="d" fill="#fff">
                <use xlink:href="#c"/>
            </mask>
            <path fill="#17A6F2" d="M1.684 12.746c-.928 0-1.681-.75-1.684-1.679a19.812 19.812 0 0 1 2.573-9.803 1.683 1.683 0 1 1 2.929 1.66 16.444 16.444 0 0 0-2.135 8.134c.003.93-.75 1.685-1.679 1.688h-.004z" mask="url(#d)"/>
        </g>
        <path fill="#FFF" d="M35.593 30.17h-2.087v-2.087a1.684 1.684 0 0 0-3.366 0v2.087h-2.087a1.684 1.684 0 0 0 0 3.367h2.087v2.086c0 .929.756 1.684 1.685 1.684.927 0 1.681-.755 1.681-1.684v-2.087h2.087c.929 0 1.685-.755 1.685-1.682 0-.929-.756-1.684-1.685-1.684"/>
    </g>
</svg>
