<svg xmlns="http://www.w3.org/2000/svg" width="64" height="64" viewBox="0 0 64 64">
    <g fill="none" fill-rule="evenodd">
        <path fill="#17A6F2" d="M48 0H16C7.164 0 0 7.164 0 16v32c0 8.837 7.164 16 16 16h32c8.837 0 16-7.163 16-16V16c0-8.836-7.163-16-16-16"/>
        <g fill="#FFF">
            <path d="M29.393 34.497l-8.36 8.36c-1.37 1.37-3.588 1.37-5.005 0-1.37-1.37-1.37-3.636 0-5.006l5.857-5.857-5.856-5.808c-1.37-1.417-1.37-3.637 0-5.006 1.416-1.417 3.636-1.417 5.006 0l8.358 8.312c1.37 1.369 1.37 3.636 0 5.005M48.872 43.89H35.129c-1.936 0-3.542-1.606-3.542-3.542a3.538 3.538 0 0 1 3.542-3.542h13.743a3.508 3.508 0 0 1 3.542 3.542 3.538 3.538 0 0 1-3.542 3.542"/>
        </g>
    </g>
</svg>
