<svg xmlns="http://www.w3.org/2000/svg" xmlns:xlink="http://www.w3.org/1999/xlink" width="64" height="64" viewBox="0 0 64 64">
    <defs>
        <rect id="a" width="64" height="64" rx="16"/>
    </defs>
    <g fill="none" fill-rule="evenodd">
        <g>
            <use fill="#FFF" xlink:href="#a"/>
            <rect width="63" height="63" x=".5" y=".5" stroke="#E6E6E6" rx="16"/>
        </g>
        <path fill="#17A6F2" d="M35.098 37.589c-2.233 0-4.333-.844-5.912-2.375a8.098 8.098 0 0 1-1.575-2.12 1.231 1.231 0 0 1 .579-1.676c.637-.31 1.411-.056 1.728.561a5.631 5.631 0 0 0 1.09 1.467 5.839 5.839 0 0 0 4.09 1.643 5.839 5.839 0 0 0 4.09-1.643l5.05-4.896a5.495 5.495 0 0 0 0-7.932 5.837 5.837 0 0 0-4.09-1.643 5.836 5.836 0 0 0-4.09 1.643l-4.414 4.28a1.317 1.317 0 0 1-1.823 0 1.222 1.222 0 0 1 0-1.767l4.415-4.28c1.58-1.532 3.679-2.376 5.912-2.376 2.234 0 4.333.844 5.913 2.375a7.945 7.945 0 0 1 0 11.467l-5.05 4.897c-1.58 1.531-3.679 2.375-5.913 2.375"/>
        <path fill="#17A6F2" d="M24.562 49c-2.193 0-4.388-.809-6.057-2.426a8.123 8.123 0 0 1 0-11.734l5.173-5.01c1.618-1.568 3.769-2.43 6.057-2.43 2.288 0 4.439.862 6.057 2.43a8.31 8.31 0 0 1 1.48 1.921 1.258 1.258 0 0 1-.534 1.733c-.641.336-1.443.105-1.79-.517a5.788 5.788 0 0 0-1.023-1.33c-2.31-2.236-6.07-2.236-8.38 0l-5.173 5.012a5.62 5.62 0 0 0 0 8.116c2.31 2.237 6.07 2.237 8.38 0l4.453-4.313a1.35 1.35 0 0 1 1.867 0c.516.5.516 1.309 0 1.808l-4.453 4.314C28.95 48.19 26.755 49 24.562 49"/>
    </g>
</svg>
