<svg xmlns="http://www.w3.org/2000/svg" width="64" height="64" viewBox="0 0 64 64">
    <g fill="none" fill-rule="evenodd">
        <g transform="translate(-16 -16)">
            <rect width="566" height="134" fill="#17A6F2" rx="30"/>
            <g fill="#FFF">
                <text font-family="SFProText-Regular, SF Pro Text" font-size="16" transform="translate(96 16)">
                    <tspan x="0" y="51">Introduce Interbit to your colleagues or friends. They&apos;ll </tspan> <tspan x="0" y="73">receive an email and link that indicates it came from you. </tspan> <tspan x="0" y="95">Don&apos;t worry we won&apos;t put them on any marketing lists.</tspan>
                </text>
                <text font-family="Whitney-Bold, Whitney" font-size="24" font-weight="bold" transform="translate(96 16)">
                    <tspan x="0" y="23">Share with a colleague or friend</tspan>
                </text>
            </g>
            <rect width="64" height="64" x="16" y="16" fill="#FFF" rx="16"/>
        </g>
        <g>
            <rect width="64" height="64" fill="#FFF" rx="16"/>
            <path fill="#17A6F2" d="M44.246 47.461H19.754c-.236 0-.467-.025-.693-.063l9.36-9.67 1.859 1.92a2.387 2.387 0 0 0 3.44 0l1.856-1.918 9.36 9.668a4.127 4.127 0 0 1-.69.063M15.49 43.056V27.944c0-1.003.33-1.926.878-2.668l11 11.364-9.84 10.166a4.435 4.435 0 0 1-2.038-3.75m32.713-16.74c.196.505.307 1.053.307 1.628v15.112c0 1.587-.819 2.976-2.04 3.752l-9.84-10.166 4.014-4.147a20.93 20.93 0 0 1-.382-1.78l-7.595 7.844a.922.922 0 0 1-1.334 0L17.465 24.234a4.137 4.137 0 0 1 2.289-.694h20.921c.19-.54.42-1.053.692-1.539H19.754C16.581 22 14 24.666 14 27.944v15.112C14 46.334 16.581 49 19.754 49h24.492C47.419 49 50 46.334 50 43.056V27.944a6.07 6.07 0 0 0-.364-2.06 7.508 7.508 0 0 0-1.433.433"/>
            <path fill="#17A6F2" d="M60.895 21.926l-6.1 6.287a.368.368 0 0 1-.255.108.37.37 0 0 1-.365-.376v-3.422a18.366 18.366 0 0 0-1.716-.082c-8.29 0-9.126 6.43-8.44 10.126a.359.359 0 0 1-.35.433.333.333 0 0 1-.316-.227c-2.12-5.328-3.51-16.249 9.986-16.249.27 0 .55.006.836.016v-3.164A.37.37 0 0 1 54.54 15c.09 0 .18.036.255.113l6.1 6.282c.14.15.14.387 0 .531"/>
        </g>
    </g>
</svg>
