<svg xmlns="http://www.w3.org/2000/svg" width="64" height="64" viewBox="0 0 300 300">
    <defs>
        <linearGradient id="a" x1="50%" x2="50%" y1="0%" y2="100%">
            <stop offset="0%" stop-color="#404040"/>
            <stop offset="100%"/>
        </linearGradient>
    </defs>
    <g fill="none" fill-rule="evenodd">
        <rect width="300" height="300" fill="#000" fill-rule="nonzero" rx="70"/>
        <rect width="300" height="300" fill="url(#a)" rx="70"/>
        <path fill="#FFF" fill-rule="nonzero" d="M110.226 51h79.548c20.594 0 28.062 2.144 35.591 6.17 7.529 4.027 13.438 9.936 17.464 17.465 4.027 7.529 6.171 14.997 6.171 35.59v79.55c0 20.593-2.144 28.061-6.17 35.59-4.027 7.529-9.936 13.438-17.465 17.464-7.529 4.027-14.997 6.171-35.59 6.171h-79.55c-20.593 0-28.061-2.144-35.59-6.17-7.529-4.027-13.438-9.936-17.464-17.465-4.027-7.529-6.171-14.997-6.171-35.59v-79.55c0-20.593 2.144-28.061 6.17-35.59 4.027-7.529 9.936-13.438 17.465-17.464C82.164 53.144 89.632 51 110.225 51zM150.5 85C114.325 85 85 114.325 85 150.5s29.325 65.5 65.5 65.5 65.5-29.325 65.5-65.5S186.675 85 150.5 85z"/>
    </g>
</svg>
