<?xml version="1.0" encoding="UTF-8"?>
<svg width="64px" height="64px" viewBox="0 0 64 64" version="1.1" xmlns="http://www.w3.org/2000/svg" xmlns:xlink="http://www.w3.org/1999/xlink">
    <!-- Generator: Sketch 49.1 (51147) - http://www.bohemiancoding.com/sketch -->
    <title>icon_Tools</title>
    <desc>Created with Sketch.</desc>
    <defs>
        <linearGradient x1="50%" y1="1.48798772%" x2="50%" y2="100%" id="linearGradient-1">
            <stop stop-color="#EFEFEF" offset="0%"></stop>
            <stop stop-color="#C4C4C4" offset="100%"></stop>
        </linearGradient>
    </defs>
    <g id="Symbols" stroke="none" stroke-width="1" fill="none" fill-rule="evenodd">
        <g id="bar_AppCategoryNotLinked" transform="translate(-16.000000, -16.000000)">
            <g id="Group">
                <g transform="translate(16.000000, 16.000000)">
                    <g id="icon_Tools">
                        <rect id="Image" fill="url(#linearGradient-1)" x="0" y="0" width="64" height="64" rx="16"></rect>
                        <g id="maintenance" stroke-width="1" transform="translate(11.000000, 12.000000)" fill="#444444">
                            <path d="M23.8398462,29.7246923 C23.8398462,29.7246923 31.1026154,36.9874615 31.6243846,37.5092308 C33.3043846,39.1892308 36.0263077,39.1892308 37.7046923,37.5092308 C39.3846923,35.8292308 39.3846923,33.1073077 37.7046923,31.4273077 C37.1829231,30.9055385 29.9201538,23.6427692 29.9201538,23.6427692 L23.8398462,29.7246923 Z" id="Shape" fill-rule="nonzero"></path>
                            <path d="M35.5352308,12.9279231 L30.3643846,11.6356154 L29.0720769,6.46476923 L35.0586923,0.478153846 C31.6195385,-0.615461538 27.7070769,0.193846154 24.9786923,2.92061538 C21.0856154,6.81369231 22.3310769,11.8811538 26.2257692,15.7742308 C30.1188462,19.6673077 35.1863077,20.9143846 39.0793846,17.0196923 C41.8077692,14.2913077 42.6170769,10.3788462 41.5218462,6.94130769 L35.5352308,12.9279231 Z" id="Shape" fill-rule="nonzero"></path>
                            <polygon id="Shape" fill-rule="nonzero" points="16.9615385 13.7307692 11.3076923 8.07692308 9.69230769 3.23076923 3.23076923 0 0 3.23076923 3.23076923 9.69230769 8.07692308 11.3076923 13.7307692 16.9615385"></polygon>
                            <path d="M25.6506923,9.49684615 C20.2165385,14.931 5.23869231,29.9088462 4.65069231,30.4968462 C2.75746154,32.3900769 2.75746154,35.4576923 4.65069231,37.3509231 C6.54392308,39.2441538 9.61153846,39.2441538 11.5047692,37.3509231 C12.0927692,36.7629231 27.0706154,21.7850769 32.5047692,16.3509231 L25.6506923,9.49684615 Z M8.07692308,35.5384615 C7.18523077,35.5384615 6.46153846,34.8147692 6.46153846,33.9230769 C6.46153846,33.0313846 7.18523077,32.3076923 8.07692308,32.3076923 C8.96861538,32.3076923 9.69230769,33.0313846 9.69230769,33.9230769 C9.69230769,34.8147692 8.96861538,35.5384615 8.07692308,35.5384615 Z" id="Shape" fill-rule="nonzero"></path>
                        </g>
                    </g>
                </g>
            </g>
        </g>
    </g>
</svg>