<svg xmlns="http://www.w3.org/2000/svg" width="64" height="64" viewBox="0 0 64 64">
    <g fill="none" fill-rule="evenodd">
        <path fill="#FFF" d="M48 64H16C7.164 64 0 56.837 0 48V16C0 7.164 7.164 0 16 0h32c8.836 0 16 7.164 16 16v32c0 8.837-7.164 16-16 16"/>
        <path fill="#17A6F2" d="M39 40.564v4a.5.5 0 0 1-.5.5h-13a.5.5 0 0 1-.5-.5v-4a.5.5 0 0 0-.5-.5h-2a.5.5 0 0 0-.5.5v7a.5.5 0 0 0 .5.5h19a.5.5 0 0 0 .5-.5v-7a.5.5 0 0 0-.5-.5h-2a.5.5 0 0 0-.5.5"/>
        <path fill="#17A6F2" d="M38.179 17.585v9.782c0 .765.62 1.386 1.387 1.386h2.045c1.255 0 1.864 1.536.95 2.396l-9.76 9.576a1.387 1.387 0 0 1-1.902 0l-9.764-9.575c-.914-.861-.305-2.397.95-2.397h2.029c.766 0 1.387-.621 1.387-1.386v-9.782c0-.911.738-1.65 1.649-1.65h9.38c.91 0 1.649.739 1.649 1.65"/>
    </g>
</svg>
