<svg xmlns="http://www.w3.org/2000/svg" xmlns:xlink="http://www.w3.org/1999/xlink" width="64" height="64" viewBox="0 0 64 64">
    <defs>
        <path id="a" d="M.473.083h2.601v2.065H.473z"/>
    </defs>
    <g fill="none" fill-rule="evenodd">
        <rect width="64" height="64" fill="#444" rx="16"/>
        <path fill="#FFF" d="M31.976 19.723c-6.78 0-12.298 5.469-12.298 12.195s5.517 12.2 12.298 12.2 12.299-5.474 12.299-12.2c0-6.726-5.518-12.195-12.299-12.195M1.561 30.885h-.52c-.575 0-1.041.463-1.041 1.032 0 .57.466 1.033 1.04 1.033h.521c.574 0 1.04-.463 1.04-1.033 0-.57-.466-1.032-1.04-1.032M6.244 30.885h-.52c-.575 0-1.041.463-1.041 1.032 0 .57.466 1.033 1.04 1.033h.52c.575 0 1.042-.463 1.042-1.033 0-.57-.467-1.032-1.041-1.032M17.044 35.679c-.724-2.823-3.24-4.794-6.117-4.794h-.52c-.575 0-1.041.462-1.041 1.032 0 .57.466 1.033 1.04 1.033h.52c1.926 0 3.612 1.331 4.1 3.237a17.376 17.376 0 0 0 3.507 6.81c.206.246.502.372.8.372.235 0 .471-.078.666-.238a1.027 1.027 0 0 0 .134-1.454 15.294 15.294 0 0 1-3.089-5.998M25.465 45.764c-1-.464-1.954-1.04-2.836-1.71a1.048 1.048 0 0 0-1.459.193c-.35.452-.263 1.1.194 1.447 1 .76 2.083 1.413 3.219 1.94a1.043 1.043 0 0 0 1.384-.497c.243-.517.019-1.13-.502-1.373M31.976 61.058c-.574 0-1.04.463-1.04 1.032v.516c0 .57.466 1.033 1.04 1.033.575 0 1.04-.463 1.04-1.033v-.516c0-.57-.465-1.032-1.04-1.032M31.976 56.413c-.574 0-1.04.462-1.04 1.032v.516c0 .57.466 1.033 1.04 1.033.575 0 1.04-.463 1.04-1.033v-.516c0-.57-.465-1.032-1.04-1.032M41.815 43.668a15.512 15.512 0 0 1-6.046 3.064c-2.846.717-4.833 3.213-4.833 6.068v.516c0 .57.465 1.032 1.04 1.032s1.04-.462 1.04-1.032V52.8c0-1.91 1.343-3.583 3.265-4.067a17.6 17.6 0 0 0 6.866-3.478 1.026 1.026 0 0 0 .133-1.454 1.045 1.045 0 0 0-1.465-.133M47.32 37.882a1.045 1.045 0 0 0-1.384.497 15.304 15.304 0 0 1-1.724 2.813c-.35.452-.263 1.1.194 1.447a1.044 1.044 0 0 0 1.459-.192 17.364 17.364 0 0 0 1.956-3.192 1.03 1.03 0 0 0-.501-1.373"/>
        <g transform="translate(60.878 30.606)">
            <mask id="b" fill="#fff">
                <use xlink:href="#a"/>
            </mask>
            <path fill="#FFF" d="M2.034.083h-.52C.938.083.472.546.472 1.115c0 .57.466 1.033 1.04 1.033h.52c.575 0 1.041-.463 1.041-1.033 0-.57-.466-1.032-1.04-1.032" mask="url(#b)"/>
        </g>
        <path fill="#FFF" d="M53.546 30.69h-.52c-1.926 0-3.612-1.332-4.1-3.24a17.385 17.385 0 0 0-3.507-6.809 1.046 1.046 0 0 0-1.466-.133 1.027 1.027 0 0 0-.134 1.454 15.305 15.305 0 0 1 3.089 5.997c.724 2.824 3.239 4.795 6.117 4.795h.52c.575 0 1.041-.462 1.041-1.032 0-.57-.466-1.032-1.04-1.032M58.229 30.69h-.52c-.575 0-1.041.462-1.041 1.032 0 .57.466 1.032 1.04 1.032h.52c.575 0 1.041-.462 1.041-1.032 0-.57-.466-1.032-1.04-1.032M38.486 17.874a15.51 15.51 0 0 1 2.837 1.71 1.043 1.043 0 0 0 1.459-.192c.35-.453.262-1.1-.194-1.447a17.524 17.524 0 0 0-3.219-1.94 1.043 1.043 0 0 0-1.383.497c-.244.516-.02 1.13.5 1.372M31.976 2.58c.575 0 1.04-.462 1.04-1.032v-.516c0-.57-.465-1.032-1.04-1.032-.574 0-1.04.463-1.04 1.032v.516c0 .57.466 1.033 1.04 1.033M31.976 7.226c.575 0 1.04-.463 1.04-1.032v-.516c0-.57-.465-1.033-1.04-1.033-.574 0-1.04.463-1.04 1.033v.516c0 .57.466 1.032 1.04 1.032M21.472 20.21c.234 0 .47-.078.665-.24a15.525 15.525 0 0 1 6.046-3.063c2.846-.718 4.834-3.213 4.834-6.068v-.516c0-.57-.466-1.032-1.041-1.032s-1.04.461-1.04 1.032v.516c0 1.91-1.343 3.582-3.266 4.067a17.614 17.614 0 0 0-6.864 3.478 1.026 1.026 0 0 0-.135 1.454c.206.245.502.372.8.372M16.632 25.757a1.04 1.04 0 0 0 1.384-.497c.47-.993 1.05-1.94 1.723-2.813.35-.452.263-1.1-.193-1.447a1.047 1.047 0 0 0-1.46.192 17.33 17.33 0 0 0-1.954 3.193c-.244.516-.02 1.13.5 1.372"/>
    </g>
</svg>
