<svg xmlns="http://www.w3.org/2000/svg" width="64" height="64" viewBox="0 0 64 64">
    <g fill="none" fill-rule="evenodd">
        <path fill="#999" d="M48 64H16C7.164 64 0 56.836 0 48V16C0 7.164 7.164 0 16 0h32c8.836 0 16 7.164 16 16v32c0 8.836-7.164 16-16 16"/>
        <path fill="#FFF" d="M19 11h26a8 8 0 0 1 8 8v26a8 8 0 0 1-8 8H19a8 8 0 0 1-8-8V19a8 8 0 0 1 8-8z"/>
        <path fill="#999" d="M32.905 21.84l1.793 5.756c.184.592.713.994 1.31.994h5.8c1.335 0 1.89 1.782.81 2.6l-4.692 3.558a1.473 1.473 0 0 0-.501 1.607l1.792 5.757c.413 1.324-1.04 2.426-2.12 1.607l-4.692-3.558a1.334 1.334 0 0 0-1.62 0l-4.693 3.558c-1.08.819-2.533-.283-2.121-1.607l1.792-5.757a1.47 1.47 0 0 0-.5-1.607l-4.693-3.557c-1.079-.82-.524-2.6.81-2.6h5.8c.598 0 1.127-.403 1.312-.995l1.793-5.756a1.36 1.36 0 0 1 2.62 0z"/>
    </g>
</svg>
