<svg xmlns="http://www.w3.org/2000/svg" xmlns:xlink="http://www.w3.org/1999/xlink" width="64" height="64" viewBox="0 0 64 64">
    <defs>
        <path id="a" d="M.24.363h9.362v9.361H.24z"/>
        <path id="c" d="M.24.407h9.362v9.36H.24z"/>
    </defs>
    <g fill="none" fill-rule="evenodd">
        <rect width="64" height="64" fill="#444" rx="16"/>
        <path fill="#FFF" d="M36.485 31.609a4.68 4.68 0 1 1-9.36 0 4.68 4.68 0 0 1 9.36 0"/>
        <g transform="translate(26.884 9.102)">
            <mask id="b" fill="#fff">
                <use xlink:href="#a"/>
            </mask>
            <path fill="#FFF" d="M9.602 5.044a4.68 4.68 0 1 1-9.361 0 4.68 4.68 0 0 1 9.36 0" mask="url(#b)"/>
        </g>
        <g transform="translate(26.884 43.985)">
            <mask id="d" fill="#fff">
                <use xlink:href="#c"/>
            </mask>
            <path fill="#FFF" d="M9.602 5.087a4.68 4.68 0 1 1-9.361 0 4.68 4.68 0 0 1 9.36 0" mask="url(#d)"/>
        </g>
        <path fill="#FFF" d="M19.021 18.824a4.68 4.68 0 1 1-4.68 8.107 4.68 4.68 0 0 1 4.68-8.107M49.269 36.287a4.68 4.68 0 1 1-4.681 8.108 4.68 4.68 0 0 1 4.68-8.108M14.341 36.287a4.68 4.68 0 1 1 4.68 8.106 4.68 4.68 0 0 1-4.68-8.106M44.589 18.824a4.68 4.68 0 1 1 4.68 8.106 4.68 4.68 0 0 1-4.68-8.106M31.805 21.026a.415.415 0 0 1-.416-.416v-.414a.415.415 0 0 1 .831 0v.414c0 .23-.186.416-.415.416m0 2.49a.415.415 0 0 1-.416-.415v-.415a.415.415 0 0 1 .831 0v.415a.415.415 0 0 1-.415.415m0 2.49a.415.415 0 0 1-.416-.415v-.415a.415.415 0 0 1 .831 0v.415c0 .23-.186.415-.415.415m0 12.451a.415.415 0 0 1-.416-.415v-.415a.415.415 0 0 1 .831 0v.415c0 .229-.186.415-.415.415m0 2.49a.415.415 0 0 1-.416-.415v-.415a.415.415 0 0 1 .831 0v.415c0 .23-.186.415-.415.415m0 2.49a.415.415 0 0 1-.416-.415v-.415a.415.415 0 0 1 .831 0v.415c0 .23-.186.415-.415.415M22.28 26.525a.413.413 0 0 1-.207-.056l-.36-.207a.415.415 0 1 1 .416-.719l.359.208a.414.414 0 0 1-.208.774m2.157 1.245a.412.412 0 0 1-.207-.055l-.36-.208a.415.415 0 1 1 .415-.719l.36.207a.415.415 0 0 1-.208.775m2.155 1.245a.414.414 0 0 1-.207-.055l-.359-.208a.414.414 0 1 1 .415-.718l.36.207a.415.415 0 0 1-.209.774m10.783 6.226a.413.413 0 0 1-.207-.056l-.36-.208a.415.415 0 1 1 .416-.719l.36.208a.415.415 0 0 1-.209.775m2.157 1.245a.415.415 0 0 1-.207-.057l-.36-.207a.415.415 0 1 1 .416-.719l.359.208a.414.414 0 0 1-.208.775m2.157 1.244a.415.415 0 0 1-.208-.055l-.36-.208a.415.415 0 1 1 .416-.719l.36.208a.415.415 0 0 1-.208.774M41.33 26.525a.414.414 0 0 1-.208-.775l.36-.207a.415.415 0 0 1 .415.719l-.36.207a.413.413 0 0 1-.207.056m-2.157 1.245a.414.414 0 0 1-.208-.774l.36-.208a.415.415 0 0 1 .415.719l-.36.208a.415.415 0 0 1-.207.055m-2.156 1.245a.415.415 0 0 1-.208-.774l.36-.208a.415.415 0 1 1 .414.719l-.359.207a.41.41 0 0 1-.207.056m-10.783 6.226a.415.415 0 0 1-.208-.775l.36-.208a.416.416 0 0 1 .415.719l-.36.208a.413.413 0 0 1-.207.056m-2.156 1.245a.415.415 0 0 1-.208-.775l.36-.208a.416.416 0 0 1 .415.719l-.36.207a.415.415 0 0 1-.207.057M21.92 37.73a.415.415 0 0 1-.208-.774l.36-.208a.415.415 0 0 1 .415.72l-.36.207a.415.415 0 0 1-.207.055"/>
    </g>
</svg>
