<svg id="Layer_1" data-name="Layer 1" xmlns="http://www.w3.org/2000/svg" viewBox="0 0 59.13 59.13"><defs><style>.cls-1{fill:#fe7862;}.cls-2{fill:none;stroke:#fe7862;stroke-linecap:round;stroke-miterlimit:10;stroke-width:3.75px;stroke-dasharray:8.7 8.7;}.cls-3{fill:#fff;}</style></defs><title>icon-chain_key</title><circle class="cls-1" cx="29.57" cy="29.57" r="22.57"/><circle class="cls-2" cx="29.57" cy="29.57" r="27.69"/><path class="cls-3" d="M29.42,47.11A.64.64,0,0,1,29,47L26.3,43.93V29h-.94c-.4,0-.55-.13-.54-.67,0-.91-.06-1.47-1.46-2.24A3.29,3.29,0,0,1,21.69,23l.09-4.9a2.93,2.93,0,0,1,1.6-2.58l4.37-2.39a3.89,3.89,0,0,1,3.31,0l4.37,2.39A2.93,2.93,0,0,1,37,18.12l.09,4.9a3.29,3.29,0,0,1-1.67,3.09c-1.39.77-1.46,1.33-1.45,2.24,0,.54-.15.64-.55.67h-.94V43.93L29.84,47a.64.64,0,0,1-.45.12Zm0-28.42a1,1,0,0,0,.44-.12L33.24,17c.42-.22.37-.57-.15-.86l-3-1.59a1.73,1.73,0,0,0-.69-.14h0a1.73,1.73,0,0,0-.69.14l-3,1.59c-.52.29-.57.64-.15.86L29,18.57a1,1,0,0,0,.44.12Z"/></svg>