<svg id="Layer_1" data-name="Layer 1" xmlns="http://www.w3.org/2000/svg" viewBox="0 0 478.16 118.27"><defs><style>.cls-1{fill:#56d695;}.cls-2{fill:#fe7862;}.cls-3,.cls-4,.cls-5{fill:none;stroke-linecap:round;stroke-miterlimit:10;stroke-width:7.5px;}.cls-3{stroke:#fe7862;}.cls-3,.cls-5{stroke-dasharray:18;}.cls-4{stroke:#b3b3b3;stroke-dasharray:1.5 15;}.cls-5{stroke:#56d695;}.cls-6{fill:#333;}</style></defs><title>read_join</title><circle class="cls-1" cx="346.12" cy="59.13" r="45.15"/><circle class="cls-2" cx="124.3" cy="59.13" r="45.15"/><path class="cls-3" d="M197.2,59.13a20.39,20.39,0,0,0-19.58,15,55.38,55.38,0,1,1-2.29-36.57"/><line class="cls-4" x1="261.96" y1="59.13" x2="201.27" y2="59.13"/><path class="cls-5" d="M295.08,80.69a55.39,55.39,0,1,0-2.45-36,19.7,19.7,0,0,1-19.08,14.42"/><path d="M423.73,61.1c-1.8,0-3.11-1.24-3.11-3.47s1.4-3.49,3.19-3.49a3.64,3.64,0,0,1,2.13.62L425.76,56a3,3,0,0,0-2-.74c-1.15,0-1.92.84-1.92,2.38s.84,2.39,2,2.39a2.93,2.93,0,0,0,2-.74l.18,1.15A3.62,3.62,0,0,1,423.73,61.1Z"/><path d="M430.1,61.1c-1.78,0-3.07-1.27-3.07-3.47s1.29-3.49,3.07-3.49,3.11,1.29,3.11,3.49S431.89,61.1,430.1,61.1Zm0-5.92c-1.21,0-1.81,1-1.81,2.45s.63,2.44,1.81,2.44,1.84-1,1.84-2.44S431.3,55.18,430.1,55.18Z"/><path d="M439,61V56.41c0-.68-.3-1.15-1-1.15A2.88,2.88,0,0,0,436,56.34V61h-1.25V54.28h1l.15,1a3.62,3.62,0,0,1,2.37-1.11,1.78,1.78,0,0,1,1.93,2V61Z"/><path d="M444.19,61.1a5.34,5.34,0,0,1-2.43-.63l.18-1.17a4.2,4.2,0,0,0,2.35.77c.86,0,1.36-.32,1.36-.88s-.38-.84-1.58-1.14c-1.57-.39-2.2-.87-2.2-2.06s.89-1.85,2.35-1.85a5.39,5.39,0,0,1,2.2.45l-.2,1.18a4.2,4.2,0,0,0-2-.58c-.75,0-1.15.3-1.15.77s.34.7,1.39,1c1.65.42,2.4.9,2.4,2.17S445.92,61.1,444.19,61.1Z"/><path d="M449.57,54.28v4.56c0,.68.29,1.14,1,1.14a2.85,2.85,0,0,0,1.93-1.07V54.28h1.25V61h-1l-.16-1a3.54,3.54,0,0,1-2.37,1.1,1.77,1.77,0,0,1-1.93-2V54.28Z"/><path d="M464,61V56.41c0-.68-.25-1.15-1-1.15a2.83,2.83,0,0,0-1.89,1.08V61h-1.24V56.41c0-.68-.26-1.15-1-1.15a2.83,2.83,0,0,0-1.9,1.08V61h-1.24V54.28h1l.16,1a3.52,3.52,0,0,1,2.32-1.11A1.68,1.68,0,0,1,461,55.25a3.53,3.53,0,0,1,2.35-1.11,1.74,1.74,0,0,1,1.89,2V61Z"/><path d="M469.86,61.1c-1.74,0-3.1-1.05-3.1-3.5,0-2.14,1.26-3.46,2.94-3.46,1.95,0,2.84,1.5,2.84,3.35v.27H468c.05,1.55.78,2.28,1.94,2.28a3.71,3.71,0,0,0,2.4-.95l.18,1.12A4.15,4.15,0,0,1,469.86,61.1Zm-1.8-4.28h3.22c-.15-1.08-.63-1.7-1.59-1.7C468.92,55.12,468.26,55.68,468.06,56.82Z"/><path d="M475.37,57v4h-1.25V54.28h1l.21,1.36a3,3,0,0,1,2.34-1.5l.19,1.19A3.08,3.08,0,0,0,475.37,57Z"/><path d="M3.91,61.05a4.63,4.63,0,0,1-1.68-.3v2.64L1,63.57V54.28H2l.15,1A2.8,2.8,0,0,1,4.3,54.14c1.44,0,2.63,1.07,2.63,3.29C6.93,59.87,5.53,61.05,3.91,61.05Zm.19-5.8a2.37,2.37,0,0,0-1.87,1.18v3.2A3.11,3.11,0,0,0,3.85,60c1.05,0,1.82-.86,1.82-2.51C5.67,56,5,55.25,4.1,55.25Z"/><path d="M9.76,57v4H8.51V54.28h1l.21,1.36a3,3,0,0,1,2.34-1.5l.19,1.19A3.08,3.08,0,0,0,9.76,57Z"/><path d="M16,61.1c-1.78,0-3.07-1.27-3.07-3.47s1.29-3.49,3.07-3.49,3.11,1.29,3.11,3.49S17.75,61.1,16,61.1Zm0-5.92c-1.2,0-1.81,1-1.81,2.45s.64,2.44,1.81,2.44,1.85-1,1.85-2.44S17.17,55.18,16,55.18Z"/><path d="M23.4,61H22.18l-2.36-6.63,1.28-.19,1.71,5.28,1.65-5.19h1.3Z"/><path d="M27.79,52.94a.79.79,0,1,1,0-1.58.79.79,0,0,1,0,1.58Zm-.63,8V54.28h1.25V61Z"/><path d="M33.11,54.2a4.88,4.88,0,0,1,1.68.29V51.05l1.25-.2V61H35l-.15-1a2.76,2.76,0,0,1-2.17,1.1c-1.44,0-2.63-1.05-2.63-3.29C30.09,55.38,31.49,54.2,33.11,54.2ZM32.9,60a2.37,2.37,0,0,0,1.89-1.18V55.63a3.11,3.11,0,0,0-1.64-.38c-1,0-1.8.85-1.8,2.51C31.35,59.23,32,60,32.9,60Z"/><path d="M40.71,61.1c-1.73,0-3.09-1.05-3.09-3.5,0-2.14,1.26-3.46,2.94-3.46,1.95,0,2.84,1.5,2.84,3.35v.27H38.86c.06,1.55.79,2.28,2,2.28a3.71,3.71,0,0,0,2.4-.95l.18,1.12A4.17,4.17,0,0,1,40.71,61.1Zm-1.79-4.28h3.22c-.15-1.08-.63-1.7-1.59-1.7C39.77,55.12,39.12,55.68,38.92,56.82Z"/><path d="M46.23,57v4H45V54.28h1l.21,1.36a3,3,0,0,1,2.34-1.5l.19,1.19A3.08,3.08,0,0,0,46.23,57Z"/><path d="M210.51,29h-.78v3.7h-1.85V23.05h3c2.16,0,3.46,1,3.46,2.9a2.7,2.7,0,0,1-2,2.72l2.62,3.8-2,.35Zm.23-4.48h-1v3.07h.93c1.15,0,1.87-.55,1.87-1.56S211.9,24.54,210.74,24.54Z"/><path d="M218.72,32.86c-1.89,0-3.31-1.08-3.31-3.52,0-2.2,1.32-3.53,3.08-3.53,2,0,2.95,1.53,2.95,3.45,0,.14,0,.31,0,.41h-4.34c.07,1.31.78,1.89,1.82,1.89a4,4,0,0,0,2.33-.84l.19,1.31A4.58,4.58,0,0,1,218.72,32.86Zm-1.63-4.24h2.71c-.12-1.05-.54-1.64-1.35-1.64S217.22,27.52,217.09,28.62Z"/><path d="M226.73,32.72l-.14-.88a3,3,0,0,1-2.26,1A1.77,1.77,0,0,1,222.41,31c0-1.64,1.35-2.35,4.08-2.62v-.19c0-.73-.42-1-1.16-1a5.45,5.45,0,0,0-2.26.55l-.21-1.35a7,7,0,0,1,2.69-.55c1.75,0,2.62.65,2.62,2.27v4.64Zm-.24-3.38c-2,.24-2.41.82-2.41,1.46a.75.75,0,0,0,.83.79,2.3,2.3,0,0,0,1.58-.73Z"/><path d="M232.45,25.88a4.75,4.75,0,0,1,1.57.26V22.87l1.68-.26V32.72h-1.44l-.14-.94a2.65,2.65,0,0,1-2.07,1.08c-1.42,0-2.55-1.05-2.55-3.33C229.5,27,230.88,25.88,232.45,25.88Zm0,5.48a2,2,0,0,0,1.54-.94v-2.9a2.8,2.8,0,0,0-1.32-.29c-.88,0-1.51.71-1.51,2.2C231.19,30.74,231.74,31.36,232.48,31.36Z"/><path d="M241.2,32.82a7.43,7.43,0,0,1-1.11-.1l-.25-1.61a4,4,0,0,0,1.11.14c.85,0,1.37-.39,1.37-1.43V23.05h1.85v7C244.17,32,242.94,32.82,241.2,32.82Z"/><path d="M248.78,32.86c-1.84,0-3.17-1.32-3.17-3.52s1.34-3.53,3.18-3.53S252,27.13,252,29.33,250.62,32.86,248.78,32.86Zm0-5.67c-1,0-1.53.89-1.53,2.14s.54,2.16,1.53,2.16,1.56-.89,1.56-2.15S249.78,27.19,248.78,27.19Z"/><path d="M254.26,24.82a1,1,0,0,1-1-.95,1,1,0,0,1,2,0A1,1,0,0,1,254.26,24.82Zm-.85,7.9V26h1.68v6.77Z"/><path d="M261,32.72V28.29c0-.58-.26-1-.87-1a2.26,2.26,0,0,0-1.54.85v4.57h-1.68V26h1.42l.16,1a3.24,3.24,0,0,1,2.25-1.1,1.81,1.81,0,0,1,1.94,2v4.87Z"/><polygon class="cls-6" points="229.34 51.75 244.34 59.25 229.34 66.75 229.34 51.75"/></svg>