<svg id="Layer_1" data-name="Layer 1" xmlns="http://www.w3.org/2000/svg" viewBox="0 0 458.04 118.27"><defs><style>.cls-1{fill:#56d695;}.cls-2{fill:#fe7862;}.cls-3,.cls-5{fill:none;stroke-linecap:round;stroke-miterlimit:10;stroke-width:7.5px;stroke-dasharray:18;}.cls-3{stroke:#fe7862;}.cls-4{fill:#b3b3b3;}.cls-5{stroke:#56d695;}.cls-6{fill:#333;}</style></defs><title>write_join</title><circle class="cls-1" cx="337.18" cy="59.13" r="45.15"/><circle class="cls-2" cx="115.36" cy="59.13" r="45.15"/><path class="cls-3" d="M188.26,59.13a20.39,20.39,0,0,0-19.57,15,55.38,55.38,0,1,1-2.29-36.57"/><path class="cls-4" d="M201.28,56.33a3.75,3.75,0,0,1-1-7.36l1.54-.41a3.75,3.75,0,0,1,1.84,7.27l-1.36.36A3.57,3.57,0,0,1,201.28,56.33Zm49.05-.24a3.71,3.71,0,0,1-.93-.12q-.68-.18-1.38-.33a3.75,3.75,0,0,1,1.69-7.31l1.54.37a3.75,3.75,0,0,1-.92,7.39ZM217,53.71a3.75,3.75,0,0,1-.29-7.49l1.55-.11a3.75,3.75,0,0,1,.48,7.48l-1.44.11Zm17.49-.05h-.27l-1.45-.09a3.75,3.75,0,0,1,.44-7.49l1.55.1a3.75,3.75,0,0,1-.27,7.49Z"/><path class="cls-4" d="M233.39,73.24a3.75,3.75,0,0,1-.27-7.49l1.44-.11a3.75,3.75,0,1,1,.65,7.47l-1.55.12Zm-14.49,0h-.28l-1.56-.13a3.75,3.75,0,0,1,.68-7.46l1.43.11a3.75,3.75,0,0,1-.27,7.49Zm30.26-2.55a3.75,3.75,0,0,1-1-7.37l1.35-.38a3.75,3.75,0,1,1,2.14,7.19l-1.53.43A3.72,3.72,0,0,1,249.16,70.68Zm-46-.08a4,4,0,0,1-1-.14L200.58,70a3.75,3.75,0,0,1,2.23-7.16l1.34.4a3.75,3.75,0,0,1-1,7.36Z"/><path class="cls-5" d="M286.15,80.69a55.39,55.39,0,1,0-2.45-36,19.7,19.7,0,0,1-19.08,14.42"/><path d="M413.31,57v4h-1.25V54.28h1l.21,1.36a3,3,0,0,1,2.34-1.5l.19,1.19A3.08,3.08,0,0,0,413.31,57Z"/><path d="M419.54,61.1c-1.74,0-3.1-1.05-3.1-3.5,0-2.14,1.26-3.46,2.94-3.46,1.95,0,2.85,1.5,2.85,3.35v.27h-4.54c.06,1.55.78,2.28,1.95,2.28a3.7,3.7,0,0,0,2.39-.95l.18,1.12A4.13,4.13,0,0,1,419.54,61.1Zm-1.79-4.28H421c-.16-1.08-.63-1.7-1.6-1.7C418.6,55.12,417.94,55.68,417.75,56.82Z"/><path d="M426.54,61.1c-1.79,0-3.11-1.24-3.11-3.47s1.4-3.49,3.19-3.49a3.64,3.64,0,0,1,2.13.62L428.57,56a3,3,0,0,0-2-.74c-1.15,0-1.92.84-1.92,2.38s.84,2.39,2,2.39a2.93,2.93,0,0,0,2-.74l.18,1.15A3.6,3.6,0,0,1,426.54,61.1Z"/><path d="M432.94,61.1c-1.74,0-3.1-1.05-3.1-3.5,0-2.14,1.26-3.46,2.94-3.46,2,0,2.85,1.5,2.85,3.35v.27h-4.54c.05,1.55.78,2.28,2,2.28a3.7,3.7,0,0,0,2.39-.95l.18,1.12A4.15,4.15,0,0,1,432.94,61.1Zm-1.8-4.28h3.23c-.16-1.08-.63-1.7-1.6-1.7C432,55.12,431.34,55.68,431.14,56.82Z"/><path d="M437.93,52.94a.79.79,0,1,1,0-1.58.79.79,0,1,1,0,1.58Zm-.63,8V54.28h1.25V61Z"/><path d="M443.54,61h-1.22L440,54.38l1.28-.19L443,59.47l1.65-5.19h1.3Z"/><path d="M449.74,61.1c-1.74,0-3.1-1.05-3.1-3.5,0-2.14,1.26-3.46,2.94-3.46,1.95,0,2.85,1.5,2.85,3.35v.27h-4.54c.05,1.55.78,2.28,1.94,2.28a3.71,3.71,0,0,0,2.4-.95l.18,1.12A4.15,4.15,0,0,1,449.74,61.1Zm-1.8-4.28h3.23c-.16-1.08-.63-1.7-1.6-1.7C448.8,55.12,448.14,55.68,447.94,56.82Z"/><path d="M455.25,57v4H454V54.28h1l.21,1.36a3,3,0,0,1,2.34-1.5l.2,1.19A3.08,3.08,0,0,0,455.25,57Z"/><path d="M3,61.1a5.42,5.42,0,0,1-2.44-.63L.76,59.3a4.2,4.2,0,0,0,2.35.77c.85,0,1.36-.32,1.36-.88s-.38-.84-1.58-1.14C1.32,57.66.69,57.18.69,56S1.58,54.14,3,54.14a5.39,5.39,0,0,1,2.2.45L5,55.77a4.23,4.23,0,0,0-2-.58c-.75,0-1.15.3-1.15.77s.34.7,1.39,1c1.65.42,2.4.9,2.4,2.17S4.73,61.1,3,61.1Z"/><path d="M9.89,61.1c-1.74,0-3.1-1.05-3.1-3.5,0-2.14,1.26-3.46,2.94-3.46,1.95,0,2.85,1.5,2.85,3.35v.27H8C8.09,59.31,8.82,60,10,60a3.71,3.71,0,0,0,2.4-.95l.18,1.12A4.15,4.15,0,0,1,9.89,61.1Zm-1.8-4.28h3.22c-.15-1.08-.63-1.7-1.59-1.7C9,55.12,8.29,55.68,8.09,56.82Z"/><path d="M18.36,61V56.41c0-.68-.3-1.15-1-1.15a2.88,2.88,0,0,0-1.93,1.08V61H14.15V54.28h1l.15,1a3.62,3.62,0,0,1,2.37-1.11,1.78,1.78,0,0,1,1.93,2V61Z"/><path d="M24.18,54.2a4.88,4.88,0,0,1,1.68.29V51.05l1.25-.2V61h-1L26,60a2.77,2.77,0,0,1-2.17,1.1c-1.45,0-2.64-1.05-2.64-3.29C21.15,55.38,22.55,54.2,24.18,54.2ZM24,60a2.37,2.37,0,0,0,1.89-1.18V55.63a3.11,3.11,0,0,0-1.64-.38c-1,0-1.81.85-1.81,2.51C22.41,59.23,23.07,60,24,60Z"/><path d="M31.78,61.1c-1.74,0-3.09-1.05-3.09-3.5,0-2.14,1.26-3.46,2.94-3.46,1.94,0,2.84,1.5,2.84,3.35v.27H29.93C30,59.31,30.72,60,31.88,60a3.66,3.66,0,0,0,2.39-.95l.19,1.12A4.17,4.17,0,0,1,31.78,61.1ZM30,56.82h3.22c-.15-1.08-.63-1.7-1.6-1.7C30.84,55.12,30.18,55.68,30,56.82Z"/><path d="M37.3,57v4H36.05V54.28h1l.21,1.36a3,3,0,0,1,2.34-1.5l.2,1.19A3,3,0,0,0,37.3,57Z"/><path d="M206.71,32.75h-1.77l-2.14-7.06-2.14,7.06h-1.75l-2.71-9.44,2-.35,1.8,6.92,2-6.83h1.87l2,6.83,1.75-6.83h1.87Z"/><path d="M211.75,28.84v3.88h-1.69V26h1.43l.21,1.36a2.66,2.66,0,0,1,2.17-1.5l.27,1.67A3.12,3.12,0,0,0,211.75,28.84Z"/><path d="M216.13,24.82a1,1,0,0,1-1-.95,1,1,0,0,1,2,0A1,1,0,0,1,216.13,24.82Zm-.86,7.9V26H217v6.77Z"/><path d="M221.31,32.83c-1.33,0-2.23-.49-2.23-2V27.33h-1V26h1V23.81l1.67-.25V26h1.37l.21,1.38h-1.58v3.19c0,.55.24.84.88.84a2.12,2.12,0,0,0,.53-.05l.21,1.41A4.44,4.44,0,0,1,221.31,32.83Z"/><path d="M226.53,32.86c-1.89,0-3.31-1.08-3.31-3.52,0-2.2,1.32-3.53,3.09-3.53,2,0,2.94,1.53,2.94,3.45,0,.14,0,.31,0,.41h-4.34c.07,1.31.79,1.89,1.82,1.89a4,4,0,0,0,2.33-.84l.19,1.31A4.58,4.58,0,0,1,226.53,32.86Zm-1.63-4.24h2.71c-.11-1.05-.53-1.64-1.35-1.64C225.59,27,225,27.52,224.9,28.62Z"/><path d="M234.4,32.82a7.18,7.18,0,0,1-1.11-.1L233,31.11a3.93,3.93,0,0,0,1.1.14c.86,0,1.38-.39,1.38-1.43V23.05h1.85v7C237.37,32,236.13,32.82,234.4,32.82Z"/><path d="M242,32.86c-1.83,0-3.16-1.32-3.16-3.52s1.34-3.53,3.18-3.53,3.19,1.32,3.19,3.52S243.82,32.86,242,32.86Zm0-5.67c-1,0-1.53.89-1.53,2.14s.55,2.16,1.53,2.16,1.57-.89,1.57-2.15S243,27.19,242,27.19Z"/><path d="M247.46,24.82a1,1,0,0,1-1-.95,1,1,0,0,1,2,0A1,1,0,0,1,247.46,24.82Zm-.86,7.9V26h1.68v6.77Z"/><path d="M254.15,32.72V28.29c0-.58-.25-1-.87-1a2.26,2.26,0,0,0-1.54.85v4.57h-1.68V26h1.43l.15,1a3.26,3.26,0,0,1,2.26-1.1,1.81,1.81,0,0,1,1.93,2v4.87Z"/><polygon class="cls-6" points="220.4 61.75 235.4 69.25 220.4 76.75 220.4 61.75"/><polygon class="cls-6" points="235.03 57.25 220.03 49.75 235.03 42.25 235.03 57.25"/></svg>