<?xml version="1.0" encoding="utf-8"?>
<!-- Generator: Adobe Illustrator 21.1.0, SVG Export Plug-In . SVG Version: 6.00 Build 0)  -->
<svg version="1.1" id="Layer_1" xmlns="http://www.w3.org/2000/svg" xmlns:xlink="http://www.w3.org/1999/xlink" x="0px" y="0px"
	 viewBox="0 0 100 100" style="enable-background:new 0 0 100 100;" xml:space="preserve">
<g>
	<path stroke="white" fill="white" d="M93.6,67.5l-8.1-20.8c-1.5-3.9-5.3-6.5-9.5-6.5h-2.6l4.1-9.3c0,0,0,0,0-0.1c0.6-1.5,0.6-3.2,0-4.7l-1.7-4.4l0,0
		c0-0.1,0-0.2,0-0.2l-5.9-15C68.2,2.5,64.5,0,60.3,0H24.9c0,0-0.1,0-0.1,0c0,0-0.1,0-0.1,0c-0.9,0-1.7,0.5-2,1.4L13,26.1
		c-1,2.4-1,5.1,0,7.6l9.7,24.7c0,0.1,0.1,0.3,0.2,0.4c0.4,0.6,1.1,1,1.8,1c0,0,0.1,0,0.1,0h6.4l-2.5,6.4c-0.9,2.5-0.9,5.1,0,7.6
		l9.7,24.8c0.3,0.8,1.1,1.3,2,1.4l0,0c0,0,0,0,1,0H76c4.2,0,7.9-2.5,9.4-6.4l8.2-20.9C94.2,71,94.2,69.1,93.6,67.5z M42,95.9
		l-9.3-23.7c-0.6-1.4-0.6-3,0-4.5l4.5-11.5l1.3-3.4l2.5-6.3l10.2,25.8L42,95.9z M68.7,40.2H41.6c0,0,0,0-0.1,0l0,0l-1.4,0
		c-0.9,0-1.7,0.6-2,1.4l-3.6,9.8l-1.7,4.2h-6.7L17,32.2c-0.6-1.5-0.6-3.1,0-4.5L24.7,8l9.2,20.5l0,0c0.4,0.8,1.2,1.4,2.1,1.4h36.5
		L68.7,40.2z"/>
</g>
</svg>
