<svg id="Layer_1" data-name="Layer 1" xmlns="http://www.w3.org/2000/svg" viewBox="0 0 16 16"><defs><style>.cls-1{fill:#42acf3;}.cls-2{fill:#fff;}</style></defs><title>icon-note</title><circle class="cls-1" cx="8" cy="8" r="8"/><path class="cls-2" d="M8.09,13c-.42,0-.77,0-1.07,0l-.87.05a1.6,1.6,0,0,1,0-.3q0-.12.06-.15a.23.23,0,0,1,.12-.06,2.17,2.17,0,0,0,.7-.21A.37.37,0,0,0,7.19,12V7.77A1.38,1.38,0,0,0,7,7q-.15-.25-.75-.3a.23.23,0,0,1-.21-.26V6.35a.25.25,0,0,1,0-.14h.28l.39,0,.41,0,.39,0c.26,0,.52-.07.77-.12a2.31,2.31,0,0,1,.49-.08c.17,0,.26.08.26.24a3.31,3.31,0,0,1,0,.46,5.35,5.35,0,0,0-.05.8V12a.36.36,0,0,0,.21.35,2.37,2.37,0,0,0,.69.21.19.19,0,0,1,.17.21v.16a.32.32,0,0,1,0,.14L9.18,13C8.87,13,8.51,13,8.09,13ZM6.92,3.59a1.14,1.14,0,0,1,.33-.84,1.11,1.11,0,0,1,.82-.33,1.14,1.14,0,0,1,.84.33,1.17,1.17,0,0,1,.32.84,1.17,1.17,0,0,1-.32.84,1.14,1.14,0,0,1-.84.33,1.11,1.11,0,0,1-.82-.33A1.14,1.14,0,0,1,6.92,3.59Z"/></svg>