<svg width="29" height="43" viewBox="0 0 29 43" fill="none" xmlns="http://www.w3.org/2000/svg">
<path d="M11.8338 5.91479C11.8346 8.30828 10.3933 10.4665 8.18217 11.3828C5.97103 12.2992 3.42562 11.7931 1.73317 10.1006C0.040712 8.40817 -0.465377 5.86275 0.450949 3.65161C1.36727 1.44047 3.5255 -0.000814179 5.91899 3.20636e-07C9.1838 0.00443772 11.8293 2.64998 11.8338 5.91479Z" transform="translate(15.2549 15.2573)" fill="#FFAD1D"/>
<path d="M5.91698 -9.29272e-07C3.52367 -8.29272e-07 1.36606 1.4418 0.45037 3.65301C-0.465321 5.86421 0.0412654 8.4093 1.73388 10.1013C3.42649 11.7934 5.97174 12.2991 8.18264 11.3826C10.3935 10.4662 11.8346 8.3081 11.8338 5.91479C11.8293 2.6492 9.18257 0.00332717 5.91698 -9.29272e-07Z" transform="translate(1.81836 28.6958)" fill="#22D6D6"/>
<path d="M21.174 -2.11353e-07C18.9621 0.000557789 16.8562 0.947485 15.3879 2.60171C13.9195 4.25594 13.2292 6.45936 13.491 8.65569V8.72215C13.7609 11.4953 14.3288 12.4378 13.3803 13.3863C12.4317 14.3349 11.4449 13.7367 8.59125 13.485C8.43417 13.4669 8.2791 13.4548 8.12 13.4467C7.99111 13.4467 7.86222 13.4467 7.73535 13.4467C3.46212 13.4478 -0.00111202 16.9129 2.67841e-07 21.1861C0.00111256 25.4593 3.46615 28.9226 7.73938 28.9215C12.0126 28.9203 15.4758 25.4553 15.4747 21.1821C15.4737 20.8927 15.4562 20.6035 15.4224 20.3161C15.1706 17.4665 14.5765 16.4897 15.521 15.5331C16.4656 14.5765 17.4403 15.1686 20.294 15.4324L20.7753 15.4747H20.7874C20.9142 15.4747 21.0451 15.4747 21.174 15.4747C25.4473 15.4747 28.9114 12.0106 28.9114 7.73736C28.9114 3.46414 25.4473 -2.11353e-07 21.174 -2.11353e-07ZM7.73535 26.7968C4.63135 26.7968 2.11495 24.2807 2.11458 21.1767C2.11421 18.0727 4.63 15.556 7.734 15.5553C10.838 15.5545 13.355 18.07 13.3561 21.174C13.3473 24.2749 10.8363 26.7868 7.73535 26.7968ZM15.5512 7.73535C15.5524 4.63161 18.0689 2.11623 21.1727 2.1166C24.2764 2.11697 26.7924 4.63295 26.7928 7.73669C26.7931 10.8404 24.2778 13.357 21.174 13.3581C18.0696 13.3559 15.5535 10.8398 15.5512 7.73535Z" transform="translate(0 13.4368)" fill="#111111"/>
<path d="M11.8338 5.91479C11.8346 8.3081 10.3935 10.4662 8.18264 11.3826C5.97174 12.2991 3.42649 11.7934 1.73388 10.1013C0.0412654 8.4093 -0.465321 5.86421 0.45037 3.65301C1.36606 1.4418 3.52367 1.89479e-07 5.91698 4.94791e-08C9.18303 0.00222016 11.8305 2.64874 11.8338 5.91479Z" transform="translate(1.81836 1.82251)" fill="white"/>
<path d="M7.73535 0C3.46238 0.00111217 -0.000741281 3.46574 1.18983e-07 7.7387C0.000741519 12.0117 3.46507 15.4751 7.73803 15.4747C12.011 15.4744 15.4747 12.0103 15.4747 7.73736C15.4703 3.46519 12.0075 0.00333012 7.73535 0ZM13.3561 7.73736C13.3561 10.8416 10.8396 13.3581 7.73535 13.3581C4.63109 13.3581 2.11458 10.8416 2.11458 7.73736C2.11458 4.6331 4.63109 2.1166 7.73535 2.1166C10.8387 2.11882 13.3539 4.63402 13.3561 7.73736Z" fill="#111111"/>
</svg>
