<svg xmlns="http://www.w3.org/2000/svg" viewBox="0 0 26.07 26.02"><defs><style>.a{fill:#f3c94c;}</style></defs><title>icon-caution</title><path class="a" d="M25,26H1a1.19,1.19,0,0,1-.9-.5.91.91,0,0,1,0-1l12-24a1,1,0,0,1,1.8,0l12,24a1.17,1.17,0,0,1,0,1A1.05,1.05,0,0,1,25,26Z" transform="translate(0.05 0.02)"/><path d="M10.6,7.2l.9,10.4a.54.54,0,0,0,.5.5h1.8a.47.47,0,0,0,.5-.5l.9-10.4a.56.56,0,0,0-.5-.6H11.1A.65.65,0,0,0,10.6,7.2Zm.5,13.5v1.9a.47.47,0,0,0,.5.5h2.3a.47.47,0,0,0,.5-.5V20.7a.47.47,0,0,0-.5-.5H11.6C11.4,20.1,11.1,20.4,11.1,20.7Z" transform="translate(0.05 0.02)"/></svg>