<svg id="Layer_1" data-name="Layer 1" xmlns="http://www.w3.org/2000/svg" viewBox="0 0 16 16"><defs><style>.cls-1{fill:#d9534f;}.cls-2{fill:#fff;}</style></defs><title>icon-important</title><circle class="cls-1" cx="8" cy="8" r="8"/><path class="cls-2" d="M6.81,12a1.18,1.18,0,0,1,.34-.86,1.17,1.17,0,0,1,1.67,0,1.23,1.23,0,0,1,.34.86,1.19,1.19,0,0,1-.34.85,1.17,1.17,0,0,1-1.67,0A1.15,1.15,0,0,1,6.81,12ZM6.86,2.5a5.85,5.85,0,0,1,1.32-.19,1.37,1.37,0,0,1,.73.15.48.48,0,0,1,.23.43V3a.41.41,0,0,1,0,.1c-.09.47-.19,1-.27,1.54s-.16,1.14-.23,1.74-.13,1.2-.19,1.82S8.33,9.4,8.3,10l-.16,0H8q-.27,0-.33-.09a.44.44,0,0,1-.07-.19Z"/></svg>