<svg xmlns="http://www.w3.org/2000/svg" viewBox="0 0 16 16"><defs><style>.a{fill:#1385e8;}.b{fill:#fff;}</style></defs><title>icon-note</title><circle class="a" cx="8" cy="8" r="8"/><path class="b" d="M8.09,13H7l-.87.05a1.5,1.5,0,0,1,0-.3q0-.12.06-.15a.23.23,0,0,1,.12-.06,2.18,2.18,0,0,0,.7-.21A.36.36,0,0,0,7.19,12V7.77A1.38,1.38,0,0,0,7,7q-.15-.25-.75-.3A.23.23,0,0,1,6,6.45H6V6.35a.33.33,0,0,1,0-.14H7.51a4,4,0,0,0,.77-.12A2.64,2.64,0,0,1,8.77,6c.17,0,.26.08.26.24a3.53,3.53,0,0,1,0,.46,5.37,5.37,0,0,0,0,.8V12a.35.35,0,0,0,.21.35,2.4,2.4,0,0,0,.69.21.19.19,0,0,1,.17.21h0v.16a.33.33,0,0,1,0,.14L9.18,13ZM6.92,3.59a1.15,1.15,0,0,1,.33-.84,1.1,1.1,0,0,1,.82-.33,1.15,1.15,0,0,1,.84.33,1.19,1.19,0,0,1,.32.84,1.19,1.19,0,0,1-.32.84,1.15,1.15,0,0,1-.84.33,1.1,1.1,0,0,1-.82-.33A1.15,1.15,0,0,1,6.92,3.59Z"/></svg>