<svg xmlns="http://www.w3.org/2000/svg" viewBox="0 0 28 28"><defs><style>.a{fill:#1385e8;}.b{fill:#fff;}</style></defs><title>icon-tip</title><path class="a" d="M7,0H21a7,7,0,0,1,7,7V21a7,7,0,0,1-7,7H7a7,7,0,0,1-7-7V7A7,7,0,0,1,7,0Z"/><path class="b" d="M14,21.9a.5.5,0,1,0-.5-.5A.47.47,0,0,0,14,21.9Z"/><path class="b" d="M12.4,20.3a1.11,1.11,0,0,0,1.1,1.1h1a1.11,1.11,0,0,0,1.1-1.1v-.5H12.4Z"/><path class="b" d="M20.5,13.3a.5.5,0,1,0-.5-.5C19.9,13.1,20.2,13.3,20.5,13.3Z"/><path class="b" d="M7.5,13.3a.5.5,0,1,0-.5-.5A.47.47,0,0,0,7.5,13.3Z"/><path class="b" d="M18.9,17.7a.57.57,0,1,0-.8,0A.61.61,0,0,0,18.9,17.7Z"/><path class="b" d="M9.8,8.6A.57.57,0,1,0,9,7.8a.53.53,0,0,0,.1.8A.48.48,0,0,0,9.8,8.6Z"/><path class="b" d="M9.8,17.7a.57.57,0,1,0-.8-.8.57.57,0,0,0,.8.8Z"/><path class="b" d="M18.9,8.6a.57.57,0,1,0-.8-.8.78.78,0,0,0,.1.8A.48.48,0,0,0,18.9,8.6Z"/><path class="b" d="M14,7.9a4.8,4.8,0,0,0-4.8,4.8c0,2.7,2.2,3.8,3.2,5.9h3.2c1.1-2.2,3.2-3.2,3.2-5.9A4.8,4.8,0,0,0,14,7.9ZM14,16V13.3H11.8L14,9.5v2.7h2.2Z"/></svg>