<svg width="142" height="40" fill="none" xmlns="http://www.w3.org/2000/svg"><path fill-rule="evenodd" clip-rule="evenodd" d="M33.764 6.237h2.419c.215 0 .376.16.322.322v2.473a.347.347 0 0 1-.322.323h-2.42a.347.347 0 0 1-.322-.323V6.56c0-.161.161-.322.323-.322zm90.806 0h2.42c.214 0 .322.161.322.322v2.473a.347.347 0 0 1-.323.323h-2.42a.347.347 0 0 1-.322-.323V6.56c0-.16.162-.322.323-.322zM64.3 12.419h4.355c.215 0 .322.162.376.377v2.043a.347.347 0 0 1-.322.322h-4.355v12.42c0 2.311.591 3.118 2.204 3.118.699 0 1.29-.054 1.72-.161.108-.054.216 0 .27.053a.41.41 0 0 1 .107.27v1.881a.363.363 0 0 1-.215.322c-.7.216-1.56.323-2.742.323-3.01 0-4.462-1.613-4.462-4.946V15.16h-3.334a.347.347 0 0 1-.322-.322v-2.043c0-.162.16-.323.322-.323h3.334v-5.86c0-.161.16-.323.322-.323h2.42c.16 0 .322.162.322.323v5.806zm-21.505 2.043c1.182-1.72 3.172-2.526 6.129-2.526 2.096 0 6.989.806 7.043 7.849v12.957a.347.347 0 0 1-.323.323h-2.42a.347.347 0 0 1-.322-.323v-12.58c0-3.549-1.505-5.377-4.516-5.377-5.054 0-5.806 4.731-5.806 7.58v10.27a.347.347 0 0 1-.323.322h-2.42a.347.347 0 0 1-.322-.323v-15c0-1.72 0-3.387-.054-4.946 0-.053.054-.161.108-.215.054-.054.107-.107.215-.107h2.42c.16 0 .322.16.322.322v1.667c0 .161.161.215.269.107zm36.451-2.526c-5.591 0-9.193 4.3-9.193 11.021 0 4.893 2.365 10.645 8.924 10.645 5.592 0 7.635-3.656 8.334-5.806.053-.108 0-.215-.054-.323a.296.296 0 0 0-.269-.161h-2.42c-.107 0-.268.054-.322.215-.752 1.613-1.935 3.28-5.215 3.28-3.44 0-5.752-2.85-5.914-7.312 0-.108.054-.162.162-.162h14.14a.347.347 0 0 0 .322-.322c.054-.484.054-1.022.054-1.56 0-2.365-.7-4.677-1.882-6.29-1.398-2.096-3.763-3.225-6.667-3.225zm-5.752 8.978c-.108 0-.162-.054-.162-.161.538-4.033 2.473-6.13 5.807-6.13 2.58 0 5.376 1.614 5.537 6.13 0 .107-.053.161-.16.161H73.494zm20.591-5.86c1.237-1.936 3.333-2.957 6.344-3.118.108 0 .215.053.215.107l.042.077c.037.063.066.113.066.192v2.473a.347.347 0 0 1-.323.323c-4.193.268-6.613 3.064-6.613 7.58v9.946a.347.347 0 0 1-.322.323h-2.42a.347.347 0 0 1-.322-.323V18.011c0-1.435-.02-2.513-.036-3.356v-.015c-.01-.54-.018-.983-.018-1.36v-.592c0-.053.054-.161.108-.215.053-.054.107-.107.215-.107h2.419c.161 0 .322.16.322.322.054.7.054 1.183.054 2.258 0 .162.161.215.269.108zm18.978-3.118c-2.258 0-4.946.698-6.29 2.258-.107.107-.269.053-.269-.108V6.613a.347.347 0 0 0-.322-.323h-2.42a.347.347 0 0 0-.322.323V26.02c0 2.205 0 4.463-.054 6.721 0 .107.054.161.108.215a.408.408 0 0 0 .215.107h2.311c.162 0 .323-.107.323-.322.054-.43.054-1.022.054-1.667 0-.161.215-.215.269-.107 1.236 1.666 3.118 2.527 5.752 2.527 5.43 0 8.818-4.301 8.818-11.237.107-6.237-3.119-10.322-8.173-10.322zm-.376 2.795c3.549 0 5.807 2.957 5.807 7.688 0 5.27-2.258 8.441-6.022 8.441-3.978 0-5.968-2.688-5.968-8.01 0-5.538 1.99-8.119 6.183-8.119zm24.033-2.312h4.354c.162 0 .323.162.377.377v2.043c0 .161-.162.322-.323.322h-4.355v12.42c0 2.311.592 3.118 2.205 3.118.698 0 1.29-.054 1.72-.161.107-.054.215 0 .269.053a.41.41 0 0 1 .107.27v1.881a.362.362 0 0 1-.215.322c-.7.216-1.56.323-2.742.323-3.01 0-4.462-1.613-4.462-4.946V15.16h-3.333a.347.347 0 0 1-.323-.322v-2.043c0-.162.161-.323.323-.323h3.333v-5.86c0-.161.16-.323.323-.323h2.419c.16 0 .323.162.323.323v5.806zm-9.732.216h-2.42a.347.347 0 0 0-.322.322v19.785c0 .161.162.323.323.323h2.42a.347.347 0 0 0 .322-.323V12.957c0-.161-.108-.322-.323-.322zm-90.806 0h-2.42a.347.347 0 0 0-.322.322v19.785c0 .161.161.323.323.323h2.419a.347.347 0 0 0 .322-.323V12.957c.054-.161-.107-.322-.322-.322z" fill="#111"/><path d="M25.591 20c0 3.064-2.526 5.591-5.591 5.591-3.065 0-5.591-2.527-5.591-5.591 0-3.065 2.526-5.592 5.591-5.592 3.065 0 5.591 2.527 5.591 5.592z" fill="#FFAD1D"/><path d="M7.312 27.097c-3.065 0-5.592 2.527-5.592 5.591 0 3.065 2.527 5.591 5.592 5.591 3.064 0 5.591-2.526 5.591-5.59 0-3.065-2.527-5.592-5.591-5.592z" fill="#22D6D6"/><path d="M12.903 7.312c0 3.064-2.527 5.591-5.591 5.591-3.065 0-5.592-2.527-5.592-5.591 0-3.065 2.527-5.592 5.592-5.592 3.064 0 5.591 2.527 5.591 5.592z" fill="#fff"/><path d="M20 12.688c-4.032 0-7.312 3.28-7.312 7.312 0 .269 0 .591.054.86v.054c.269 2.634.806 3.495-.108 4.409-.914.914-1.828.322-4.516.107-.161 0-.269-.054-.43-.054h-.376C3.28 25.376 0 28.656 0 32.688S3.28 40 7.312 40s7.312-3.28 7.312-7.312c0-.269 0-.537-.054-.806-.215-2.688-.807-3.602.107-4.516.914-.914 1.828-.323 4.517-.108.16 0 .322 0 .43.054H20c4.032 0 7.312-3.28 7.312-7.312s-3.28-7.312-7.312-7.312zM7.312 38.011c-2.903 0-5.323-2.366-5.323-5.323 0-2.903 2.366-5.322 5.323-5.322 2.903 0 5.322 2.365 5.322 5.322a5.3 5.3 0 0 1-5.322 5.323zM14.677 20c0-2.903 2.366-5.323 5.323-5.323 2.903 0 5.323 2.366 5.323 5.323 0 2.903-2.366 5.323-5.323 5.323-2.903 0-5.323-2.42-5.323-5.323zM7.312 0C3.28 0 0 3.28 0 7.312s3.28 7.312 7.312 7.312 7.312-3.28 7.312-7.312S11.344 0 7.312 0zm5.322 7.312c0 2.903-2.365 5.322-5.322 5.322-2.903 0-5.323-2.365-5.323-5.322 0-2.903 2.366-5.323 5.323-5.323 2.957 0 5.322 2.42 5.322 5.323z" fill="#111"/></svg>