<svg id="Layer_1" data-name="Layer 1" xmlns="http://www.w3.org/2000/svg" xmlns:xlink="http://www.w3.org/1999/xlink" viewBox="0 0 282 282"><defs><style>.cls-1{fill:#f6f7f7;}.cls-2{opacity:0.5;}.cls-3{fill:url(#New_Gradient_Swatch);}.cls-4{fill:url(#linear-gradient);}.cls-5{fill:url(#linear-gradient-2);}.cls-6{fill:url(#New_Gradient_Swatch-2);}.cls-7{fill:none;stroke:#231f20;stroke-linecap:round;stroke-miterlimit:10;stroke-width:4px;}</style><linearGradient id="New_Gradient_Swatch" x1="25.41" y1="83.59" x2="141.11" y2="83.59" gradientUnits="userSpaceOnUse"><stop offset="0" stop-color="#1791ff"/><stop offset="1" stop-color="#1791ff"/></linearGradient><linearGradient id="linear-gradient" x1="140.89" y1="198.85" x2="256.59" y2="198.85" gradientUnits="userSpaceOnUse"><stop offset="0" stop-color="#56d695"/><stop offset="1" stop-color="#78deaa"/></linearGradient><linearGradient id="linear-gradient-2" x1="140.89" y1="169.92" x2="198.74" y2="169.92" xlink:href="#linear-gradient"/><linearGradient id="New_Gradient_Swatch-2" x1="83.04" y1="112.3" x2="141.11" y2="112.3" xlink:href="#New_Gradient_Swatch"/></defs><title>App_Store</title><rect class="cls-1" width="282" height="282"/><g class="cls-2"><path class="cls-3" d="M141.11,51.16v32H108.46A25.42,25.42,0,0,0,83,108.57v32.87H50.83A25.42,25.42,0,0,1,25.41,116V51.16A25.42,25.42,0,0,1,50.83,25.74h64.86A25.42,25.42,0,0,1,141.11,51.16Z"/></g><g class="cls-2"><path class="cls-4" d="M256.59,166.42v64.86a25.42,25.42,0,0,1-25.42,25.42H166.31a25.42,25.42,0,0,1-25.42-25.42V198.85h32.43a25.42,25.42,0,0,0,25.42-25.42V141h32.43A25.42,25.42,0,0,1,256.59,166.42Z"/></g><path class="cls-5" d="M198.74,141v32.43a25.42,25.42,0,0,1-25.42,25.42H140.89V166.42A25.42,25.42,0,0,1,166.31,141Z"/><path class="cls-6" d="M141.11,83.15V116a25.42,25.42,0,0,1-25.42,25.42H83V108.57a25.42,25.42,0,0,1,25.42-25.42Z"/><rect class="cls-7" x="83.04" y="83.15" width="115.7" height="115.7" rx="25.42" ry="25.42"/></svg>