<svg
  id="Layer_1"
  data-name="Layer 1"
  xmlns="http://www.w3.org/2000/svg"
  xmlns:xlink="http://www.w3.org/1999/xlink"
  viewBox="0 0 282 282"
  >
    <defs><style>.cls-1{fill:none;}.cls-2{fill:#f6f7f7;}.cls-3{fill:url(#linear-gradient);}.cls-4{fill:#fff;}.cls-5{clip-path:url(#clip-path);}.cls-6{fill:#ff8533;}.cls-7{fill:url(#New_Gradient_Swatch);}.cls-8{fill:#fbac21;}</style><linearGradient id="linear-gradient" x1="80.12" y1="141" x2="195.6" y2="141" gradientUnits="userSpaceOnUse"><stop offset="0" stop-color="#56d695"/><stop offset="1" stop-color="#78deaa"/></linearGradient><clipPath id="clip-path"><rect class="cls-1" width="282.28" height="282.28"/></clipPath><linearGradient id="New_Gradient_Swatch" x1="234.45" y1="287" x2="349.93" y2="287" gradientUnits="userSpaceOnUse"><stop offset="0" stop-color="#1791ff"/><stop offset="1" stop-color="#1791ff"/></linearGradient></defs><title>App_Store</title><rect class="cls-2" width="282" height="282"/><rect class="cls-3" x="80.12" y="83.26" width="115.48" height="115.48" rx="25.37" ry="25.37"/><path class="cls-4" d="M175.73,117.76V150a2.1,2.1,0,0,1-2.09,2.12h-5.83V129.36a2.93,2.93,0,0,0-2.93-2.93H117.53v-8.67a2.1,2.1,0,0,1,2.12-2.12h54A2.1,2.1,0,0,1,175.73,117.76Z"/><path class="cls-4" d="M164.47,144v20.23a2.1,2.1,0,0,1-2.12,2.12h-54a2.1,2.1,0,0,1-2.09-2.12V144Z"/><path class="cls-4" d="M164.47,132v4.24h-58.2V132a2.09,2.09,0,0,1,2.09-2.09h54A2.09,2.09,0,0,1,164.47,132Z"/><g class="cls-5"><rect class="cls-6" x="195.44" y="-57.74" width="115.48" height="115.48" rx="25.37" ry="25.37"/><rect class="cls-7" x="234.45" y="229.26" width="115.48" height="115.48" rx="25.37" ry="25.37"/><rect class="cls-8" x="-68.07" y="141" width="115.48" height="115.48" rx="25.37" ry="25.37"/></g></svg>
