<svg id="Layer_1" data-name="Layer 1" xmlns="http://www.w3.org/2000/svg" xmlns:xlink="http://www.w3.org/1999/xlink" viewBox="0 0 282 282"><defs><style>.cls-1{fill:#f6f7f7;}.cls-2{fill:url(#New_Gradient_Swatch);}.cls-3{fill:url(#linear-gradient);}.cls-4{fill:#fff;}.cls-5,.cls-7{opacity:0.5;}.cls-5{fill:url(#New_Gradient_Swatch-2);}.cls-6{fill:#6d6e70;}.cls-7{fill:url(#New_Gradient_Swatch-3);}</style><linearGradient id="New_Gradient_Swatch" x1="57.53" y1="141" x2="224.47" y2="141" gradientUnits="userSpaceOnUse"><stop offset="0" stop-color="#1791ff"/><stop offset="1" stop-color="#1791ff"/></linearGradient><linearGradient id="linear-gradient" x1="172.98" y1="79.75" x2="227.53" y2="79.75" gradientUnits="userSpaceOnUse"><stop offset="0" stop-color="#56d695"/><stop offset="1" stop-color="#78deaa"/></linearGradient><linearGradient id="New_Gradient_Swatch-2" x1="19.79" y1="44.76" x2="69.85" y2="44.76" xlink:href="#New_Gradient_Swatch"/><linearGradient id="New_Gradient_Swatch-3" x1="212.32" y1="237.23" x2="262.38" y2="237.23" xlink:href="#New_Gradient_Swatch"/></defs><title>App_Store</title><rect class="cls-1" width="282" height="282"/><circle class="cls-2" cx="141" cy="141" r="83.47"/><circle class="cls-1" cx="200.26" cy="79.75" r="31.69"/><circle class="cls-3" cx="200.26" cy="79.75" r="27.27"/><path class="cls-1" d="M215.76,65.75c-16.79,13.36-21.71,28.8-21.71,28.8a2,2,0,0,1-2.86,0,28.86,28.86,0,0,0-6.53-10.13.69.69,0,0,1,.54-1.19c2.75.22,4.91,2,6.76,3.32,5.95-8.19,14-17.09,22.93-22.09A.78.78,0,0,1,215.76,65.75Z"/><path class="cls-4" d="M178.92,202.67a77,77,0,0,1-75.84,0,6.64,6.64,0,0,1,.06-11.59C114,185.07,126.05,182,141,182s27,3,37.91,9A6.65,6.65,0,0,1,178.92,202.67Z"/><circle class="cls-4" cx="140.98" cy="135.7" r="37.31" transform="translate(-15.55 253.13) rotate(-80.78)"/><circle class="cls-5" cx="44.82" cy="44.76" r="25.03"/><circle class="cls-1" cx="62.59" cy="26.39" r="9.5"/><circle class="cls-1" cx="62.59" cy="26.39" r="7.62"/><path class="cls-6" d="M62.59,19.33a7.07,7.07,0,1,1-7.06,7.06,7.07,7.07,0,0,1,7.06-7.06m0-1.12a8.18,8.18,0,1,0,8.18,8.18,8.19,8.19,0,0,0-8.18-8.18Z"/><path class="cls-4" d="M56.2,63.26a23.13,23.13,0,0,1-22.75,0,2,2,0,0,1,0-3.47,22.53,22.53,0,0,1,11.34-2.72,22.67,22.67,0,0,1,11.37,2.71A2,2,0,0,1,56.2,63.26Z"/><circle class="cls-4" cx="44.82" cy="43.17" r="11.19" transform="translate(-4.98 80.5) rotate(-80.78)"/><circle class="cls-7" cx="237.35" cy="237.23" r="25.03"/><circle class="cls-1" cx="255.12" cy="218.86" r="9.5"/><circle class="cls-1" cx="255.12" cy="218.86" r="7.62"/><path class="cls-6" d="M255.12,211.79a7.07,7.07,0,1,1-7.06,7.07,7.08,7.08,0,0,1,7.06-7.07m0-1.11a8.18,8.18,0,1,0,8.18,8.18,8.18,8.18,0,0,0-8.18-8.18Z"/><path class="cls-4" d="M248.72,255.72a23.08,23.08,0,0,1-22.74,0,2,2,0,0,1,0-3.48,25.1,25.1,0,0,1,22.71,0A2,2,0,0,1,248.72,255.72Z"/><circle class="cls-4" cx="237.35" cy="235.64" r="11.19" transform="translate(-33.27 432.18) rotate(-80.78)"/></svg>