<svg id="Layer_1" data-name="Layer 1" xmlns="http://www.w3.org/2000/svg" xmlns:xlink="http://www.w3.org/1999/xlink" viewBox="0 0 282 282"><defs><style>.cls-1{fill:#f6f7f7;}.cls-2{fill:none;stroke:#231f20;stroke-linecap:round;stroke-miterlimit:10;stroke-width:4px;}.cls-3{fill:url(#New_Gradient_Swatch);}.cls-4{fill:url(#New_Gradient_Swatch-2);}.cls-5{fill:url(#New_Gradient_Swatch-3);}.cls-6{fill:url(#New_Gradient_Swatch-4);}.cls-7{fill:url(#linear-gradient);}.cls-8{fill:#ff8533;}</style><linearGradient id="New_Gradient_Swatch" x1="22.63" y1="123.74" x2="33.28" y2="123.74" gradientUnits="userSpaceOnUse"><stop offset="0" stop-color="#1791ff"/><stop offset="1" stop-color="#1791ff"/></linearGradient><linearGradient id="New_Gradient_Swatch-2" x1="223.34" y1="91.06" x2="233.98" y2="91.06" xlink:href="#New_Gradient_Swatch"/><linearGradient id="New_Gradient_Swatch-3" x1="246.64" y1="113.25" x2="257.29" y2="113.25" xlink:href="#New_Gradient_Swatch"/><linearGradient id="New_Gradient_Swatch-4" x1="52.15" y1="150.58" x2="62.8" y2="150.58" xlink:href="#New_Gradient_Swatch"/><linearGradient id="linear-gradient" x1="78.41" y1="139.48" x2="211.89" y2="139.48" gradientUnits="userSpaceOnUse"><stop offset="0" stop-color="#56d695"/><stop offset="1" stop-color="#78deaa"/></linearGradient></defs><title>App_Store</title><rect class="cls-1" width="282" height="282"/><polyline class="cls-2" points="-5.21 153.81 27.96 123.75 57.14 151.6 92.51 121.53"/><polyline class="cls-2" points="204.65 110.07 228.87 91.01 251.9 113.25 289.63 78.7"/><circle class="cls-3" cx="27.96" cy="123.74" r="5.32"/><circle class="cls-4" cx="228.66" cy="91.06" r="5.32"/><circle class="cls-5" cx="251.97" cy="113.25" r="5.32"/><circle class="cls-6" cx="57.48" cy="150.58" r="5.32"/><path class="cls-7" d="M211.89,139.48a66.74,66.74,0,1,1-66.74-66.74v66.74Z"/><path class="cls-8" d="M221.62,129.74H154.88V63A66.74,66.74,0,0,1,221.62,129.74Z"/></svg>