<?xml version="1.0" encoding="UTF-8"?>
<svg width="400px" height="400px" viewBox="0 0 400 400" version="1.1" xmlns="http://www.w3.org/2000/svg" xmlns:xlink="http://www.w3.org/1999/xlink" style="background: #FFFFFF;">
    <!-- Generator: Sketch 49 (51002) - http://www.bohemiancoding.com/sketch -->
    <title>Starting Block Logo</title>
    <desc>Created with Sketch.</desc>
    <defs>
        <path d="M159.1502,274.5638 C136.6122,274.5638 114.0882,267.9778 94.5102,254.8198 C78.5022,244.0638 65.3482,229.3958 56.4682,212.4038 C53.9542,207.5918 55.8182,201.6538 60.6282,199.1378 C65.4482,196.6298 71.3782,198.4878 73.8942,203.2978 C81.2602,217.3958 92.1802,229.5698 105.4742,238.5038 C137.6382,260.1178 179.3862,260.3798 211.8202,239.1758 C216.3662,236.2018 222.4542,237.4818 225.4282,242.0238 C228.3962,246.5698 227.1202,252.6618 222.5782,255.6318 C203.2602,268.2598 181.1982,274.5638 159.1502,274.5638 Z" id="path-1"></path>
        <filter x="-57.1%" y="-128.0%" width="214.2%" height="356.1%" filterUnits="objectBoundingBox" id="filter-2">
            <feMorphology radius="2" operator="dilate" in="SourceAlpha" result="shadowSpreadOuter1"></feMorphology>
            <feOffset dx="0" dy="0" in="shadowSpreadOuter1" result="shadowOffsetOuter1"></feOffset>
            <feGaussianBlur stdDeviation="32" in="shadowOffsetOuter1" result="shadowBlurOuter1"></feGaussianBlur>
            <feComposite in="shadowBlurOuter1" in2="SourceAlpha" operator="out" result="shadowBlurOuter1"></feComposite>
            <feColorMatrix values="0 0 0 0 1   0 0 0 0 1   0 0 0 0 1  0 0 0 1 0" type="matrix" in="shadowBlurOuter1"></feColorMatrix>
        </filter>
        <path d="M247.123,227.6264 C245.239,227.6264 243.331,227.0844 241.651,225.9544 C237.145,222.9264 235.947,216.8204 238.975,212.3144 C248.361,198.3444 253.939,182.1484 255.105,165.4724 C255.483,160.0564 260.147,155.9564 265.595,156.3524 C271.011,156.7304 275.093,161.4264 274.715,166.8424 C273.311,186.9444 266.593,206.4604 255.291,223.2784 C253.395,226.1024 250.287,227.6264 247.123,227.6264 Z" id="path-3"></path>
        <path d="M263.705,138.6126 C262.785,138.8726 261.885,138.9926 260.965,138.9926 C256.705,138.9926 252.785,136.1926 251.525,131.8926 C250.705,129.0126 249.725,126.1326 248.625,123.3526 C248.163,122.1726 247.683,121.0126 247.163,119.8526 C244.985,114.8726 247.245,109.0726 252.205,106.8926 C257.183,104.7126 262.985,106.9726 265.163,111.9326 C265.785,113.3326 266.365,114.7326 266.923,116.1546 C268.245,119.4926 269.423,122.9726 270.423,126.4326 C271.923,131.6546 268.923,137.0926 263.705,138.6126 Z" id="path-4"></path>
        <path d="M236.2752,95.7162 C233.6652,95.7162 231.0632,94.6822 229.1292,92.6382 C224.2492,87.4742 218.7492,82.8222 212.7832,78.8122 C178.3032,55.6422 133.0752,57.1422 100.2432,82.5522 C95.9512,85.8762 89.7772,85.0902 86.4552,80.7942 C83.1332,76.5022 83.9192,70.3282 88.2132,67.0062 C127.7492,36.4042 182.2192,34.5882 223.7492,62.4962 C230.9212,67.3162 237.5392,72.9162 243.4172,79.1342 C247.1472,83.0802 246.9712,89.3022 243.0252,93.0302 C241.1252,94.8262 238.6972,95.7162 236.2752,95.7162 Z" id="path-5"></path>
        <path d="M53.0918,168.6536 C47.6738,168.6536 43.2758,164.2696 43.2618,158.8496 C43.2138,138.8296 48.4058,119.0396 58.2818,101.6156 C60.9578,96.8956 66.9518,95.2296 71.6798,97.9136 C76.4018,100.5896 78.0598,106.5896 75.3838,111.3116 C67.1898,125.7696 62.8798,142.1896 62.9218,158.7976 C62.9358,164.2276 58.5458,168.6396 53.1178,168.6536 L53.0918,168.6536 Z" id="path-6"></path>
        <linearGradient x1="0%" y1="0%" x2="100%" y2="100%" id="linearGradient-7">
            <stop stop-color="#000000" stop-opacity="0" offset="0%"></stop>
            <stop stop-color="#000000" offset="100%"></stop>
        </linearGradient>
    </defs>
    <g id="Page-1" stroke="none" stroke-width="1" fill="none" fill-rule="evenodd">
        <g id="App-Directory-(Featured)" transform="translate(-312.000000, -513.000000)">
            <g id="Image" transform="translate(229.000000, 202.000000)">
                <rect id="Chain-Architecture-Diagram" fill="#F7F7F7" x="0" y="0" width="566" height="775" rx="8"></rect>
                <g id="Starting-Block-Logo" transform="translate(125.000000, 353.000000)">
                    <g id="Stroke-3" stroke-linecap="round" stroke-dasharray="8,12">
                        <use fill="black" fill-opacity="1" filter="url(#filter-2)" xlink:href="#path-1"></use>
                        <use stroke="#FE7862" stroke-width="4" fill="#F7F7F7" fill-rule="evenodd" xlink:href="#path-1"></use>
                        <use stroke="#979797" stroke-width="1" xlink:href="#path-1"></use>
                    </g>
                    <g id="Stroke-5" stroke-linecap="round" stroke-dasharray="8,12">
                        <use stroke="#848BCC" stroke-width="4" fill="#F7F7F7" fill-rule="evenodd" xlink:href="#path-3"></use>
                        <use stroke="#979797" stroke-width="1" xlink:href="#path-3"></use>
                    </g>
                    <g id="Stroke-7" stroke-linecap="round" stroke-dasharray="8,12">
                        <use stroke="#5FD8A1" stroke-width="4" fill="#F7F7F7" fill-rule="evenodd" xlink:href="#path-4"></use>
                        <use stroke="#979797" stroke-width="1" xlink:href="#path-4"></use>
                    </g>
                    <g id="Stroke-9" stroke-linecap="round" stroke-dasharray="8,12">
                        <use stroke="#1791FF" stroke-width="4" fill="#F7F7F7" fill-rule="evenodd" xlink:href="#path-5"></use>
                        <use stroke="#979797" stroke-width="1" xlink:href="#path-5"></use>
                    </g>
                    <g id="Stroke-11" stroke-linecap="round" stroke-dasharray="8,12">
                        <use stroke="#FFAD1D" stroke-width="4" fill="#F7F7F7" fill-rule="evenodd" xlink:href="#path-6"></use>
                        <use stroke="#979797" stroke-width="1" xlink:href="#path-6"></use>
                    </g>
                    <path d="M205.8984,89.058 C244.3384,114.89 254.5584,166.99 228.7284,205.428 C202.8984,243.864 150.7984,254.086 112.3584,228.256 C73.9224,202.426 63.7004,150.326 89.5304,111.888 C115.3604,73.448 167.4604,63.228 205.8984,89.058 Z" id="Stroke-1" fill="#F7F7F7"></path>
                    <path d="M159.0078,189.0248 C154.3978,189.0248 150.6478,185.2748 150.6478,180.6648 L150.6478,167.0048 L136.9878,167.0048 C132.3898,167.0048 128.6478,163.2628 128.6478,158.6648 C128.6478,154.0568 132.3898,150.3068 136.9878,150.3068 L150.6478,150.3068 L150.6478,136.6468 C150.6478,132.0488 154.3978,128.3068 159.0078,128.3068 C163.6058,128.3068 167.3478,132.0488 167.3478,136.6468 L167.3478,150.3068 L181.0078,150.3068 C185.6198,150.3068 189.3698,154.0568 189.3698,158.6648 C189.3698,163.2628 185.6198,167.0048 181.0078,167.0048 L167.3478,167.0048 L167.3478,180.6648 C167.3478,185.2748 163.6058,189.0248 159.0078,189.0248" id="Fill-13" stroke="#979797" stroke-width="4" fill="#F7F7F7" stroke-linecap="round" stroke-dasharray="1"></path>
                    <rect id="Chain-Architecture-Diagram" x="0" y="0" width="317" height="317"></rect>
                </g>
                <g id="Starting-block" transform="translate(85.000000, 313.000000)">
                    <path d="M78.3362447,0 C35.1411609,0 0,35.140638 0,78.3350792 L0,319.658999 C0,362.85344 35.1411609,398 78.3362447,398 L319.663755,398 C362.858839,398 398,362.85344 398,319.658999 L398,78.3350792 C398,35.140638 362.858839,0 319.663755,0 L78.3362447,0 Z" id="App-Background" fill="#F7F7F7"></path>
                    <path d="M224.061323,171.474099 C241.079874,171.474099 254.932182,185.398083 254.932182,202.511777 C254.932182,219.637008 241.079874,233.560992 224.061323,233.560992 C223.550824,233.560992 223.023117,233.555224 222.529826,233.526384 L222.478202,233.526384 C221.824304,233.468703 221.176143,233.416791 220.55666,233.359111 C209.165073,232.303565 205.270366,229.990592 201.513321,233.762872 C197.744805,237.569761 200.11375,241.515082 201.123277,252.947284 C201.255204,254.08935 201.324035,255.248721 201.324035,256.431163 C201.324035,273.550626 187.471726,287.47461 170.44744,287.47461 C153.423154,287.47461 139.582317,273.550626 139.582317,256.431163 C139.582317,239.305933 153.423154,225.387717 170.44744,225.387717 C170.957939,225.387717 171.468438,225.399253 171.984673,225.422325 L172.001881,225.422325 C172.632835,225.451165 173.258053,225.508845 173.877536,225.58383 C185.263387,226.581696 189.158094,229.033101 192.98397,225.185837 C196.769694,221.37318 194.503996,217.589364 193.431374,206.474402 C193.419902,206.387882 193.414166,206.295594 193.402694,206.203306 C193.259296,204.997791 193.184728,203.763436 193.184728,202.511777 C193.184728,185.398083 207.031301,171.474099 224.061323,171.474099 Z M170.445146,117.562212 C187.475168,117.562212 201.327477,131.480427 201.327477,148.605658 C201.327477,165.725121 187.475168,179.643336 170.445146,179.643336 C153.426595,179.643336 139.580023,165.725121 139.580023,148.605658 C139.580023,131.480427 153.426595,117.562212 170.445146,117.562212 Z M170.44744,278.984094 C182.814139,278.984094 192.874987,268.861232 192.874987,256.431163 C192.874987,243.989559 182.814139,233.884 170.44744,233.884 C158.080741,233.884 148.014157,243.989559 148.014157,256.431163 C148.014157,268.861232 158.080741,278.984094 170.44744,278.984094 Z M201.633776,202.511777 C201.633776,214.947614 211.694625,225.064708 224.061323,225.064708 C236.428022,225.064708 246.483134,214.947614 246.483134,202.511777 C246.483134,190.087477 236.428022,179.964614 224.061323,179.964614 C211.694625,179.964614 201.633776,190.087477 201.633776,202.511777 Z M143.949092,71.0472239 C171.38412,59.1535809 202.920349,56.6502633 232.253974,64.050624 C261.55892,71.5894171 288.271219,88.9338323 307.543996,112.640366 C326.455408,136.566084 337.961715,166.727024 338.598405,197.493606 C338.971241,212.813449 337.313553,228.300564 332.793628,243.014765 C328.256495,257.694358 321.637214,271.704862 313.02756,284.457939 C295.085522,309.346915 269.520413,328.917783 240.261354,338.037012 C225.73794,342.703335 210.503269,345.247028 195.22271,345.166276 C179.947887,344.970164 164.787783,342.207286 150.390559,337.252562 C121.550225,327.406564 96.2776488,307.754944 79.4942721,282.47951 C62.8026705,257.175237 54.2561117,226.575928 56.1088221,196.564956 C55.908064,226.587464 65.1601442,256.390787 82.4310763,280.437634 C99.3865313,304.663289 124.228912,323.086322 152.18591,331.91715 C166.129994,336.318144 180.659144,338.65419 195.245653,338.821462 C209.843635,338.792622 224.372785,336.24316 238.196414,331.692198 C266.04443,322.797922 290.19276,303.953823 307.050704,280.241521 C315.293258,268.19791 321.688837,254.919944 326.122723,240.984424 C330.527929,227.020065 332.202826,212.28856 331.961916,197.68395 C331.680855,168.267084 320.5818,139.611595 303.150261,116.130014 C285.1566,92.9541374 259.717682,75.5751141 231.324751,67.5171999 C202.98918,59.1478129 171.957715,60.7167125 143.949092,71.0472239 Z" id="icon_StartingBlockLogo" fill="url(#linearGradient-7)"></path>
                    <path d="M192.872693,148.605658 C192.872693,161.041494 182.811844,171.152821 170.445146,171.152821 C158.089919,171.152821 148.02907,161.041494 148.02907,148.605658 C148.02907,136.169822 158.089919,126.058495 170.445146,126.058495 C182.811844,126.058495 192.872693,136.169822 192.872693,148.605658" id="Fill-5" fill="#F7F7F7"></path>
                </g>
            </g>
        </g>
    </g>
</svg>