<svg xmlns="http://www.w3.org/2000/svg" width="128" height="128" viewBox="0 0 300 300">
    <defs>
        <linearGradient id="a" x1="50%" x2="50%" y1="0%" y2="98.205%">
            <stop offset="0%" stop-color="#FFDA43"/>
            <stop offset="100%" stop-color="#FFB124"/>
        </linearGradient>
    </defs>
    <g fill="none" fill-rule="evenodd">
        <rect width="300" height="300" fill="#000" fill-rule="nonzero" rx="70"/>
        <rect width="300" height="300" fill="url(#a)" rx="70"/>
        <g opacity=".5" style="mix-blend-mode:multiply">
            <rect width="300" height="300" fill="#000" fill-rule="nonzero" rx="70"/>
            <rect width="300" height="300" fill="url(#a)" rx="70"/>
        </g>
        <path fill="#FFF" fill-rule="nonzero" d="M150 51c54.676 0 99 44.324 99 99s-44.324 99-99 99-99-44.324-99-99 44.324-99 99-99zm36.96 121.377v-44.094c0-8.383-6.86-15.243-15.243-15.243h-44.094c-8.384 0-15.243 6.86-15.243 15.243v44.094c0 8.384 6.86 15.243 15.243 15.243h44.094c8.384 0 15.243-6.86 15.243-15.243zM150 99.18c1.822 0 3.3-1.502 3.3-3.355v-11.77c0-1.853-1.478-3.355-3.3-3.355-1.822 0-3.3 1.502-3.3 3.355v11.77c0 1.853 1.478 3.355 3.3 3.355zm0 120.78c1.822 0 3.3-1.502 3.3-3.355v-11.77c0-1.853-1.478-3.355-3.3-3.355-1.822 0-3.3 1.502-3.3 3.355v11.77c0 1.853 1.478 3.355 3.3 3.355zm65.945-66.66c1.853 0 3.355-1.477 3.355-3.3 0-1.822-1.502-3.3-3.355-3.3h-11.77c-1.853 0-3.355 1.478-3.355 3.3 0 1.823 1.502 3.3 3.355 3.3h11.77zm-120.12 0c1.853 0 3.355-1.477 3.355-3.3 0-1.822-1.502-3.3-3.355-3.3h-11.77c-1.853 0-3.355 1.478-3.355 3.3 0 1.823 1.502 3.3 3.355 3.3h11.77zm97.163-42.9c.867 0 1.734-.33 2.396-.992l7.744-7.744a3.388 3.388 0 1 0-4.792-4.792l-7.743 7.744a3.387 3.387 0 0 0 2.395 5.784zm-93.72 94.38c.867 0 1.734-.33 2.396-.992l7.744-7.744a3.388 3.388 0 1 0-4.792-4.792l-7.744 7.744a3.388 3.388 0 0 0 2.396 5.784zm101.464 0a3.387 3.387 0 0 0 2.396-5.784l-7.744-7.744a3.388 3.388 0 1 0-4.792 4.792l7.744 7.744a3.376 3.376 0 0 0 2.396.992zm-93.72-94.38a3.388 3.388 0 0 0 2.396-5.784l-7.744-7.744a3.388 3.388 0 0 0-4.792 4.792l7.744 7.744a3.377 3.377 0 0 0 2.396.992z"/>
    </g>
</svg>
