<?xml version="1.0" encoding="UTF-8"?>
<svg width="301px" height="301px" viewBox="0 0 301 301" version="1.1" xmlns="http://www.w3.org/2000/svg" xmlns:xlink="http://www.w3.org/1999/xlink">
    <!-- Generator: Sketch 49.1 (51147) - http://www.bohemiancoding.com/sketch -->
    <title>icon_CreateInterbitApp</title>
    <desc>Created with Sketch.</desc>
    <defs></defs>
    <g id="Symbols" stroke="none" stroke-width="1" fill="none" fill-rule="evenodd">
        <g id="icon_CreateInterbitApp" transform="translate(1.000000, 0.000000)">
            <g>
                <rect id="Rectangle" fill="#4A4A4A" x="0" y="0" width="300" height="300" rx="70"></rect>
                <g id="Group-44">
                    <path d="M280.133903,150.057871 C280.133903,221.961097 221.844871,280.250129 149.941645,280.250129 C78.0384194,280.250129 19.7503548,221.961097 19.7503548,150.057871 C19.7503548,78.1546452 78.0384194,19.8656129 149.941645,19.8656129 C221.844871,19.8656129 280.133903,78.1546452 280.133903,150.057871 Z" id="Stroke-2" stroke="#FFFFFF" stroke-linecap="round" stroke-linejoin="round"></path>
                    <path d="M93.3115161,0.599806452 L93.3115161,299.515935" id="Stroke-4" stroke="#FFFFFF" stroke-linecap="round" stroke-linejoin="round"></path>
                    <path d="M149.941839,0.599806452 L149.941839,299.515935" id="Stroke-6" stroke="#FFFFFF" stroke-linecap="round" stroke-linejoin="round"></path>
                    <path d="M206.572742,0.599806452 L206.572742,299.515935" id="Stroke-8" stroke="#FFFFFF" stroke-linecap="round" stroke-linejoin="round"></path>
                    <path d="M280.133903,0.599806452 L280.133903,299.515935" id="Stroke-10" stroke="#FFFFFF" stroke-linecap="round" stroke-linejoin="round"></path>
                    <path d="M19.749871,0.599806452 L19.749871,299.515935" id="Stroke-12" stroke="#FFFFFF" stroke-linecap="round" stroke-linejoin="round"></path>
                    <path d="M299.399903,93.4274516 L0.483774194,93.4274516" id="Stroke-14" stroke="#FFFFFF" stroke-linecap="round" stroke-linejoin="round"></path>
                    <path d="M299.399903,150.057871 L0.483774194,150.057871" id="Stroke-16" stroke="#FFFFFF" stroke-linecap="round" stroke-linejoin="round"></path>
                    <path d="M299.399903,206.705226 L0.483774194,206.705226" id="Stroke-18" stroke="#FFFFFF" stroke-linecap="round" stroke-linejoin="round"></path>
                    <path d="M299.399903,280.251774 L0.483774194,280.251774" id="Stroke-20" stroke="#FFFFFF" stroke-linecap="round" stroke-linejoin="round"></path>
                    <path d="M299.399903,19.8658065 L0.483774194,19.8658065" id="Stroke-22" stroke="#FFFFFF" stroke-linecap="round" stroke-linejoin="round"></path>
                    <path d="M180.275516,119.724677 L299.400677,0.599516129" id="Stroke-24" stroke="#FFFFFF" stroke-linecap="round" stroke-linejoin="round"></path>
                    <path d="M119.48729,180.512419 L151.606645,148.394032" id="Stroke-26" stroke="#FFFFFF" stroke-linecap="round" stroke-linejoin="round"></path>
                    <path d="M0.483870968,299.516323 L89.9816129,210.017613" id="Stroke-28" stroke="#FFFFFF" stroke-linecap="round" stroke-linejoin="round"></path>
                    <path d="M89.336129,89.4520645 L0.483870968,0.599806452" id="Stroke-30" stroke="#FFFFFF" stroke-linecap="round" stroke-linejoin="round"></path>
                    <path d="M150.815613,150.931548 L117.404323,117.520258" id="Stroke-32" stroke="#FFFFFF" stroke-linecap="round" stroke-linejoin="round"></path>
                    <path d="M299.400387,299.516323 L177.819097,177.935032" id="Stroke-34" stroke="#FFFFFF" stroke-linecap="round" stroke-linejoin="round"></path>
                    <path d="M154.850032,149.220097 C154.850032,135.208161 166.258742,123.799452 180.280355,123.799452 C194.301968,123.799452 205.701,135.208161 205.701,149.220097 C205.701,163.24171 194.301968,174.650419 180.280355,174.650419 C166.258742,174.650419 154.850032,163.24171 154.850032,149.220097 M119.486806,235.443 C105.466161,235.443 94.0574516,224.035258 94.0574516,210.012677 C94.0574516,195.991065 105.466161,184.592032 119.486806,184.592032 C133.509387,184.592032 144.918097,195.991065 144.918097,210.012677 C144.918097,224.035258 133.509387,235.443 119.486806,235.443 M180.280355,114.219774 C160.974871,114.219774 145.270355,129.92429 145.270355,149.220097 C145.270355,150.631065 145.353581,152.022677 145.519065,153.381387 C145.52971,153.485903 145.540355,153.589452 145.551,153.682355 C146.765516,166.221387 149.338742,170.487194 145.041968,174.784935 C140.703581,179.123323 136.291645,176.362355 123.380032,175.231065 C122.673581,175.147839 121.968097,175.085903 121.251968,175.053968 L121.231645,175.053968 C120.650032,175.023 120.068419,175.012355 119.486806,175.012355 C100.181323,175.012355 84.4874516,190.707194 84.4874516,210.012677 C84.4874516,229.319129 100.181323,245.022677 119.486806,245.022677 C138.793258,245.022677 154.497774,229.319129 154.497774,210.012677 C154.497774,208.683968 154.414548,207.376548 154.269387,206.089452 C153.127452,193.198161 150.439065,188.744613 154.715516,184.458484 C158.971645,180.202355 163.393258,182.808484 176.304871,184.00171 C177.010355,184.063645 177.737129,184.125581 178.485194,184.188484 L178.536484,184.188484 C179.107452,184.219452 179.69971,184.230097 180.280355,184.230097 C199.576161,184.230097 215.280677,168.525581 215.280677,149.220097 C215.280677,129.92429 199.576161,114.219774 180.280355,114.219774" id="Fill-36" fill="#FFFFFF" fill-rule="nonzero"></path>
                    <path d="M154.850032,149.220097 C154.850032,135.208161 166.258742,123.799452 180.280355,123.799452 C194.301968,123.799452 205.701,135.208161 205.701,149.220097 C205.701,163.24171 194.301968,174.650419 180.280355,174.650419 C166.258742,174.650419 154.850032,163.24171 154.850032,149.220097 Z M119.486806,235.443 C105.466161,235.443 94.0574516,224.035258 94.0574516,210.012677 C94.0574516,195.991065 105.466161,184.592032 119.486806,184.592032 C133.509387,184.592032 144.918097,195.991065 144.918097,210.012677 C144.918097,224.035258 133.509387,235.443 119.486806,235.443 Z M180.280355,114.219774 C160.974871,114.219774 145.270355,129.92429 145.270355,149.220097 C145.270355,150.631065 145.353581,152.022677 145.519065,153.381387 C145.52971,153.485903 145.540355,153.589452 145.551,153.682355 C146.765516,166.221387 149.338742,170.487194 145.041968,174.784935 C140.703581,179.123323 136.291645,176.362355 123.380032,175.231065 C122.673581,175.147839 121.968097,175.085903 121.251968,175.053968 L121.231645,175.053968 C120.650032,175.023 120.068419,175.012355 119.486806,175.012355 C100.181323,175.012355 84.4874516,190.707194 84.4874516,210.012677 C84.4874516,229.319129 100.181323,245.022677 119.486806,245.022677 C138.793258,245.022677 154.497774,229.319129 154.497774,210.012677 C154.497774,208.683968 154.414548,207.376548 154.269387,206.089452 C153.127452,193.198161 150.439065,188.744613 154.715516,184.458484 C158.971645,180.202355 163.393258,182.808484 176.304871,184.00171 C177.010355,184.063645 177.737129,184.125581 178.485194,184.188484 L178.536484,184.188484 C179.107452,184.219452 179.69971,184.230097 180.280355,184.230097 C199.576161,184.230097 215.280677,168.525581 215.280677,149.220097 C215.280677,129.92429 199.576161,114.219774 180.280355,114.219774 Z" id="Stroke-38" stroke="#FFFFFF" stroke-linecap="round" stroke-linejoin="round"></path>
                    <path d="M144.918387,88.4370968 C144.918387,102.45871 133.509677,113.857742 119.488065,113.857742 C105.476129,113.857742 94.0674194,102.45871 94.0674194,88.4370968 C94.0674194,74.4154839 105.476129,63.0164516 119.488065,63.0164516 C133.509677,63.0164516 144.918387,74.4154839 144.918387,88.4370968 M119.487097,53.4367742 C100.192258,53.4367742 84.4877419,69.1306452 84.4877419,88.4370968 C84.4877419,107.742581 100.192258,123.437419 119.487097,123.437419 C138.793548,123.437419 154.497097,107.742581 154.497097,88.4370968 C154.497097,69.1306452 138.793548,53.4367742 119.487097,53.4367742" id="Fill-40" fill="#FFFFFF" fill-rule="nonzero"></path>
                    <path d="M144.918387,88.4370968 C144.918387,102.45871 133.509677,113.857742 119.488065,113.857742 C105.476129,113.857742 94.0674194,102.45871 94.0674194,88.4370968 C94.0674194,74.4154839 105.476129,63.0164516 119.488065,63.0164516 C133.509677,63.0164516 144.918387,74.4154839 144.918387,88.4370968 Z M119.487097,53.4367742 C100.192258,53.4367742 84.4877419,69.1306452 84.4877419,88.4370968 C84.4877419,107.742581 100.192258,123.437419 119.487097,123.437419 C138.793548,123.437419 154.497097,107.742581 154.497097,88.4370968 C154.497097,69.1306452 138.793548,53.4367742 119.487097,53.4367742 Z" id="Stroke-42" stroke="#FFFFFF" stroke-linecap="round" stroke-linejoin="round"></path>
                </g>
            </g>
        </g>
    </g>
</svg>