<svg xmlns="http://www.w3.org/2000/svg" width="128" height="128" viewBox="0 0 300 300">
    <defs>
        <linearGradient id="a" x1="50%" x2="50%" y1="0%" y2="100%">
            <stop offset="0%" stop-color="#1AC8FC"/>
            <stop offset="100%" stop-color="#1D70F1"/>
        </linearGradient>
    </defs>
    <g fill="none" fill-rule="evenodd">
        <rect width="300" height="300" fill="#000" fill-rule="nonzero" rx="70"/>
        <rect width="300" height="300" fill="url(#a)" rx="70"/>
        <path fill="#FFF" fill-rule="nonzero" d="M96.576 239.322C69.162 221.142 51 189.379 51 153.235 51 96.772 95.324 51 150 51s99 45.772 99 102.235c0 36.357-18.377 68.282-46.063 86.408-9.876-11.069-30.047-18.652-53.325-18.652-23.053 0-43.059 7.437-53.036 18.331zm53.036-35.17c27.445 0 49.694-22.975 49.694-51.318 0-28.342-22.249-51.318-49.694-51.318-27.446 0-49.694 22.976-49.694 51.318 0 28.343 22.248 51.318 49.694 51.318z"/>
    </g>
</svg>
