<?xml version="1.0" encoding="utf-8"?>
<!-- Generator: Adobe Illustrator 22.0.1, SVG Export Plug-In . SVG Version: 6.00 Build 0)  -->
<svg version="1.1" id="Layer_1" xmlns="http://www.w3.org/2000/svg" xmlns:xlink="http://www.w3.org/1999/xlink" x="0px" y="0px" width="108" height="32"
	 viewBox="0 0 108 32" style="enable-background:new 0 0 108 32;" xml:space="preserve">
<style type="text/css">
	.st0{fill:url(#path-2_2_);}
	.st1{fill:#FFFFFF;}
</style>
<g id="Page-1">
	<g id="App-Store">
		<g id="Icon">
			<g>
				<path id="path-2_10_" d="M7.5,0h17.1C28.7,0,32,3.3,32,7.5v17.1c0,4.1-3.3,7.5-7.5,7.5H7.5C3.3,32,0,28.7,0,24.5V7.5
					C0,3.3,3.3,0,7.5,0z"/>
			</g>
			<g>

					<linearGradient id="path-2_2_" gradientUnits="userSpaceOnUse" x1="1.05" y1="33.0033" x2="1.05" y2="32.8967" gradientTransform="matrix(300 0 0 -300 -299 9901)">
					<stop  offset="0" style="stop-color:#404040"/>
					<stop  offset="1" style="stop-color:#000000"/>
				</linearGradient>
				<path id="path-2_1_" class="st0" d="M7.5,0h17.1C28.7,0,32,3.3,32,7.5v17.1c0,4.1-3.3,7.5-7.5,7.5H7.5C3.3,32,0,28.7,0,24.5V7.5
					C0,3.3,3.3,0,7.5,0z"/>
			</g>
		</g>
		<path id="Combined-Shape" class="st1" d="M11.8,5.4h8.5c2.2,0,3,0.2,3.8,0.7c0.8,0.4,1.4,1.1,1.9,1.9c0.4,0.8,0.7,1.6,0.7,3.8v8.5
			c0,2.2-0.2,3-0.7,3.8s-1.1,1.4-1.9,1.9s-1.6,0.7-3.8,0.7h-8.5c-2.2,0-3-0.2-3.8-0.7c-0.8-0.4-1.4-1.1-1.9-1.9
			c-0.4-0.8-0.7-1.6-0.7-3.8v-8.5c0-2.2,0.2-3,0.7-3.8C6.5,7.2,7.2,6.5,8,6.1C8.8,5.7,9.6,5.4,11.8,5.4z M16.1,9.1c-3.9,0-7,3.1-7,7
			s3.1,7,7,7s7-3.1,7-7S19.9,9.1,16.1,9.1z"/>
	</g>
</g>
<g>
	<path d="M46.8,26.6c-2.1,0-3.8-0.6-5.1-1.3l0.3-2.1c1.2,0.8,3,1.6,4.9,1.6c2.3,0,4-1.4,4-3.7c0-2-0.9-3.1-3.9-4.4
		c-3.7-1.7-5-3.1-5-6c0-3.1,2.3-5.2,5.5-5.2c1.8,0,3.2,0.4,4.2,1.1l-0.3,2.1c-1.1-0.8-2.4-1.3-4-1.3c-2.3,0-3.5,1.5-3.5,3.3
		c0,1.9,0.9,2.8,3.9,4.2c3.5,1.7,5,3.2,5,6.2C52.8,24.4,50.2,26.6,46.8,26.6z"/>
	<path d="M60.5,26.6c-2.1,0-3.4-0.9-3.4-3.5v-9.3h-2v-1.7h2V7.2l1.8-0.3v5.2h3l0.3,1.7h-3.3v8.9c0,1.4,0.5,2.1,2,2.1
		c0.4,0,0.9-0.1,1.2-0.2l0.3,1.7C62,26.4,61.3,26.6,60.5,26.6z"/>
	<path d="M70.7,26.6c-3.4,0-5.9-2.7-5.9-7.4c0-4.7,2.6-7.4,5.9-7.4c3.4,0,6,2.7,6,7.4C76.7,23.9,74.1,26.6,70.7,26.6z M70.7,13.5
		c-2.5,0-4,2.2-4,5.7c0,3.4,1.6,5.7,4,5.7c2.5,0,4.1-2.2,4.1-5.7C74.8,15.8,73.2,13.5,70.7,13.5z"/>
	<path d="M82,17.4v8.9h-1.8V12.1h1.4L82,15c1-1.6,2.5-3.1,4.7-3.2l0.3,1.9C84.8,13.8,82.9,15.5,82,17.4z"/>
	<path d="M94.4,26.6c-3.5,0-5.9-2.5-5.9-7.4c0-4.6,2.4-7.4,5.7-7.4c3.6,0,5.4,3.2,5.4,7.1v0.4h-9.2c0.1,3.5,1.6,5.5,4.2,5.5
		c1.7,0,3.3-0.8,4.6-2.1l0.3,1.8C98.1,25.8,96.4,26.6,94.4,26.6z M90.4,17.8h7.2c-0.2-2.5-1.3-4.4-3.5-4.4
		C92.2,13.4,90.7,15,90.4,17.8z"/>
</g>
</svg>
