<svg xmlns="http://www.w3.org/2000/svg" width="566" height="398" viewBox="0 0 566 398">
    <g fill="none" fill-rule="evenodd">
        <path fill="#F6F7F7" fill-rule="nonzero" d="M0 0h566v397.193H0z"/>
        <circle cx="283" cy="197.812" r="60.89" fill="#B3B3B3" fill-rule="nonzero"/>
        <circle cx="73.818" cy="197.604" r="32.947" fill="#56D695" fill-rule="nonzero"/>
        <path stroke="#56D695" stroke-linecap="round" stroke-width="7" d="M38.528 175.5a41.834 41.834 0 0 0-6.296 24.09M34.556 211.436a41.705 41.705 0 0 0 16.97 21.329M103.072 167.993c-13.417-13.249-34.062-15.827-50.325-6.286M124.123 197.604a9.503 9.503 0 0 1-9.344-7.686 40.95 40.95 0 0 0-2.98-9.384"/>
        <path fill="#56D695" fill-rule="nonzero" d="M171.786 201.208h-.755a3.475 3.475 0 0 1 0-6.95h.755a3.475 3.475 0 1 1 0 6.95zm-15.51-.06h-.755a3.475 3.475 0 0 1 0-6.95h.755a3.475 3.475 0 1 1 0 6.95zm-15.51-.06h-.755a3.475 3.475 0 0 1 0-6.95h.744a3.475 3.475 0 1 1 0 6.95h.01zm-15.511 0h-.755a3.475 3.475 0 0 1 0-6.95h.745a3.475 3.475 0 1 1 0 6.95h.01z"/>
        <path stroke="#56D695" stroke-linecap="round" stroke-width="7" d="M208.824 151.648a86.688 86.688 0 0 0-10.744 25.6c-2.978 12.09-13.842 20.575-26.294 20.535M225.923 131.68a88.435 88.435 0 0 0-9.463 9.532M65.735 238.604a41.785 41.785 0 0 0 17.437-.288"/>
        <circle cx="492.182" cy="198.03" r="32.947" fill="#FF8533" fill-rule="nonzero"/>
        <path stroke="#FF8533" stroke-linecap="round" stroke-width="7" d="M527.472 220.134a41.884 41.884 0 0 0 4.965-11.628 41.447 41.447 0 0 0 1.301-12.442M531.444 184.198a41.705 41.705 0 0 0-16.97-21.349M462.928 227.641c13.417 13.249 34.062 15.827 50.325 6.286M441.927 198.02a9.493 9.493 0 0 1 9.344 7.686 41.259 41.259 0 0 0 2.979 9.384"/>
        <path fill="#FF8533" fill-rule="nonzero" d="M428.204 201.436h-.755a3.475 3.475 0 1 1 0-6.95h.745a3.475 3.475 0 0 1 0 6.95h.01zm-15.51-.06h-.755a3.475 3.475 0 1 1 0-6.95h.754a3.475 3.475 0 0 1 0 6.95zm-15.501-.059h-.745a3.475 3.475 0 1 1 0-6.95h.745a3.475 3.475 0 1 1 0 6.95z"/>
        <path stroke="#FF8533" stroke-linecap="round" stroke-width="7" d="M359.847 239.388a86.31 86.31 0 0 0 8.073-21.001c2.978-12.092 13.842-20.576 26.294-20.536M340.077 263.955a87.492 87.492 0 0 0 11.915-12.512M500.265 157.03a41.884 41.884 0 0 0-18.956.656"/>
        <path stroke="#B3B3B3" stroke-linecap="round" stroke-width="7" d="M251.86 264.49a73.848 73.848 0 0 1-37.525-40.185 21.32 21.32 0 0 0-19.86-13.674M308.37 266.894a73.312 73.312 0 0 1-25.37 4.498c-2.046 0-4.071-.09-6.067-.248M356.223 205.09a73.371 73.371 0 0 1-21.111 44.685M330.594 141.808a74.216 74.216 0 0 1 21.19 29.918 21.518 21.518 0 0 0 20.048 13.962M230.372 146.366a73.56 73.56 0 0 1 74.017-18.937M209.688 191.546a73.084 73.084 0 0 1 8.768-29.124"/>
        <path fill="#FFF" fill-rule="nonzero" d="M252.416 199.351l1.043-26.205h3.902l.745 23.961M266.665 200.086l.745-33.245h3.893l.973 31.1"/>
        <path stroke="#FFF" stroke-linecap="round" stroke-linejoin="round" stroke-width="1.26" d="M255.256 169.93c.06 0-.189-3.536 4.518-4.579 4.449-.993 5.402-2.979 5.402-2.979M268.493 164.329c.06 0-.19-3.535 4.508-4.578 4.448-.993 5.411-2.979 5.411-2.979M270.935 164.329c.06 0-.248-1.986 4.558-2.314a6.95 6.95 0 0 0 3.823-1.062"/>
        <path d="M307.14 217.473h-6.852l-4.37 5.77v4.309h11.221z"/>
        <path stroke="#FFF" stroke-linecap="round" stroke-linejoin="round" stroke-width="1.08" d="M54.356 191.953l19.462-8.748 19.453 8.748M57.563 192.946v17.705M90.064 192.946v17.705"/>
        <path fill="#FFF" fill-rule="nonzero" d="M69.3 191.924h9.354v9.116H69.3z"/>
        <path fill="#56D695" fill-rule="nonzero" d="M72.339 191.924h3.277v1.807h-3.277z"/>
        <path fill="#FFF" fill-rule="nonzero" d="M63.988 201.983h9.354v9.116h-9.354z"/>
        <path fill="#56D695" fill-rule="nonzero" d="M67.026 201.983h3.277v1.807h-3.277z"/>
        <path fill="#FFF" fill-rule="nonzero" d="M74.285 201.983h9.354v9.116h-9.354z"/>
        <path fill="#56D695" fill-rule="nonzero" d="M77.324 201.983h3.277v1.807h-3.277z"/>
        <path stroke="#FFF" stroke-linecap="round" stroke-linejoin="round" stroke-width="1.08" d="M472.73 191.953l19.452-8.748 19.462 8.748M475.936 192.946v17.705M508.437 192.946v17.705"/>
        <path fill="#FFF" fill-rule="nonzero" d="M487.674 191.924h9.354v9.116h-9.354z"/>
        <path fill="#FE7862" fill-rule="nonzero" d="M490.712 191.924h3.277v1.807h-3.277z"/>
        <path fill="#FFF" fill-rule="nonzero" d="M482.351 201.983h9.354v9.116h-9.354z"/>
        <path fill="#FE7862" fill-rule="nonzero" d="M485.4 201.983h3.277v1.807H485.4z"/>
        <path fill="#FFF" fill-rule="nonzero" d="M492.658 201.983h9.354v9.116h-9.354z"/>
        <path fill="#FE7862" fill-rule="nonzero" d="M495.697 201.983h3.277v1.807h-3.277z"/>
        <path fill="#B3B3B3" fill-rule="nonzero" d="M178.786 214.107h-.744a3.475 3.475 0 0 1 0-6.951h.744a3.475 3.475 0 1 1 0 6.95zm-15.51 0h-.745a3.475 3.475 0 0 1 0-6.951h.745a3.475 3.475 0 1 1 0 6.95zm-15.51 0h-.735a3.475 3.475 0 0 1 0-6.951h.735a3.475 3.475 0 1 1 0 6.95zm-15.51 0h-.735a3.475 3.475 0 0 1 0-6.951h.734a3.475 3.475 0 1 1 0 6.95z"/>
        <path stroke="#B3B3B3" stroke-linecap="round" stroke-width="7" d="M98.772 230.928c5.219-3.915 9.446-9 12.343-14.845a9.93 9.93 0 0 1 8.857-5.471"/>
        <path fill="#B3B3B3" fill-rule="nonzero" d="M433.516 189.173h-.735a3.475 3.475 0 1 1 0-6.95h.735a3.475 3.475 0 1 1 0 6.95zm-15.51 0h-.735a3.475 3.475 0 1 1 0-6.95h.775a3.475 3.475 0 1 1 0 6.95h-.04zm-15.51 0h-.735a3.475 3.475 0 1 1 0-6.95h.744a3.475 3.475 0 1 1 0 6.95h-.01zm-15.51 0h-.716a3.475 3.475 0 0 1 0-6.95h.735a3.475 3.475 0 1 1 0 6.95h-.02zM445.075 189.173a3.475 3.475 0 0 1 0-6.95 6.335 6.335 0 0 0 5.73-3.546 45.568 45.568 0 0 1 13.365-16.076 3.475 3.475 0 1 1 4.17 5.56 38.518 38.518 0 0 0-11.31 13.614 13.246 13.246 0 0 1-11.955 7.398z"/>
        <path stroke="#FFF" stroke-linecap="round" stroke-linejoin="round" stroke-width="1.26" d="M307.14 217.473h-6.852l-4.37 5.77v4.309h11.221z"/>
        <path stroke="#FFF" stroke-linecap="round" stroke-linejoin="round" stroke-width="1.26" d="M307.139 211.952H325.4v15.6h-18.261zM305.153 227.552a2.83 2.83 0 1 1-5.47.993 2.77 2.77 0 0 1 .178-.993M320.872 227.611c.113.302.17.622.17.944a2.83 2.83 0 1 1-5.66 0 2.77 2.77 0 0 1 .188-.993"/>
        <path fill="#FFF" fill-rule="nonzero" d="M304.667 220.65v1.858h-4.032l1.132-1.857z"/>
        <path fill="#FFF" fill-rule="nonzero" d="M302.502 231.365a2.84 2.84 0 0 1-2.641-3.833h-3.972v-4.31l4.369-5.769h2.651v-35.37h-21.468v22.074h-5.71v-5.143l-14.457 6.087v-6.087l-15.014 5.54v27.605h56.699v-.794c-.152.01-.305.01-.457 0zm-40.841-3.287a.626.626 0 1 1-1.241 0v-17.993a.626.626 0 1 1 1.24 0v17.993zm14.329 0a.626.626 0 1 1-1.242 0v-17.993a.626.626 0 1 1 1.242 0v17.993zm17.824-39.61h2.095v4.637h-2.105l.01-4.637zm0 6.176h2.095v4.638h-2.105l.01-4.638zm-2.87 33.454a.626.626 0 0 1-1.251 0v-18.013a.626.626 0 0 1 1.25 0v18.013zm.288-22.62h-2.115v-4.637h2.115v4.637zm0-6.176h-2.115v-4.677h2.115v4.677zm0-6.177h-2.115v-4.637h2.115v4.637zm2.601 7.716h2.076v4.637h-2.105l.03-4.637z"/>
    </g>
</svg>
