<svg xmlns="http://www.w3.org/2000/svg" width="566" height="398" viewBox="0 0 566 398">
    <defs>
        <linearGradient id="a" x1="-.015%" y1="50%" y2="50%">
            <stop offset="0%" stop-color="#1791FF"/>
            <stop offset="100%" stop-color="#1791FF"/>
        </linearGradient>
        <linearGradient id="b" x1="28544%" x2="32028%" y1="18637%" y2="18637%">
            <stop offset="0%" stop-color="#1791FF"/>
            <stop offset="100%" stop-color="#1791FF"/>
        </linearGradient>
        <linearGradient id="c" x1="33602%" x2="37074%" y1="16341%" y2="16341%">
            <stop offset="0%" stop-color="#1791FF"/>
            <stop offset="100%" stop-color="#1791FF"/>
        </linearGradient>
        <linearGradient id="d" x1="37480%" x2="38712%" y1="19702%" y2="19702%">
            <stop offset="0%" stop-color="#1791FF"/>
            <stop offset="100%" stop-color="#1791FF"/>
        </linearGradient>
        <linearGradient id="e" x1="34770%" x2="38225%" y1="23712%" y2="23712%">
            <stop offset="0%" stop-color="#1791FF"/>
            <stop offset="100%" stop-color="#1791FF"/>
        </linearGradient>
        <linearGradient id="f" x1="30939%" x2="34313%" y1="24440%" y2="24440%">
            <stop offset="0%" stop-color="#1791FF"/>
            <stop offset="100%" stop-color="#1791FF"/>
        </linearGradient>
    </defs>
    <g fill="none" fill-rule="evenodd">
        <path fill="#F6F7F7" fill-rule="nonzero" d="M0 0h565.996v397.19H0z"/>
        <circle cx="336.986" cy="202.15" r="32.063" fill="url(#a)" fill-rule="nonzero"/>
        <circle cx="106.109" cy="201.941" r="32.073" fill="#FF8533" fill-rule="nonzero"/>
        <path stroke="#FF8533" stroke-linecap="round" stroke-width="7" d="M65.596 201.941a40.523 40.523 0 0 1 59.102-36.005M87.56 237.957a40.712 40.712 0 0 1-13.524-11.27M120.15 239.962a40.444 40.444 0 0 1-14.001 2.483c-2.108 0-4.213-.163-6.295-.487M158.35 201.753a13.296 13.296 0 0 0-12.959 9.93 40.712 40.712 0 0 1-10.575 18.796M79.22 232.356a40.623 40.623 0 0 1-11.787-17.973M134.816 173.195a41.05 41.05 0 0 1 7.567 10.436"/>
        <circle cx="337.145" cy="353.122" r="19.512" fill="#56D695" fill-rule="nonzero"/>
        <path stroke="#56D695" stroke-linecap="round" stroke-width="4" d="M324.057 374.014a24.824 24.824 0 0 0 14.26 3.734M345.337 376.338a24.685 24.685 0 0 0 12.63-10.05M319.609 335.794a24.636 24.636 0 0 0-3.724 29.79M337.155 323.352a5.63 5.63 0 0 1-4.558 5.531 24.735 24.735 0 0 0-5.55 1.748M361.443 357.898c2.233-11.348-3.715-22.725-14.309-27.366"/>
        <circle cx="337.244" cy="50.423" r="19.512" fill="#56D695" fill-rule="nonzero"/>
        <path stroke="#56D695" stroke-linecap="round" stroke-width="4" d="M350.332 29.531a24.824 24.824 0 0 0-14.26-3.714M329.052 27.168a24.735 24.735 0 0 0-12.64 10.059M354.78 67.75a24.695 24.695 0 0 0 3.724-29.789M337.234 80.193a5.62 5.62 0 0 1 4.548-5.541 24.14 24.14 0 0 0 5.56-1.738M312.956 45.677c-2.245 11.35 3.707 22.734 14.309 27.366"/>
        <circle cx="468.059" cy="283.931" r="19.512" fill="#56D695" fill-rule="nonzero"/>
        <path stroke="#56D695" stroke-linecap="round" stroke-width="4" d="M479.607 305.707a24.824 24.824 0 0 0 10.367-10.476M492.287 288.46a24.675 24.675 0 0 0-2.383-15.968M444.287 290.455a24.656 24.656 0 0 0 23.95 18.122M442.281 269.037a5.62 5.62 0 0 1 2.512 6.712 24.566 24.566 0 0 0-1.26 5.68M484.343 265.293c-8.71-7.606-21.532-8.147-30.851-1.3"/>
        <circle cx="468.098" cy="128.471" r="19.512" fill="#56D695" fill-rule="nonzero"/>
        <path stroke="#56D695" stroke-linecap="round" stroke-width="4" d="M492.734 129.365a24.745 24.745 0 0 0-3.892-14.18M484.135 109.754a24.695 24.695 0 0 0-15.024-5.958M461.862 152.322a24.636 24.636 0 0 0 27.675-11.677M442.31 143.346a5.63 5.63 0 0 1 7.07 1.182 24.824 24.824 0 0 0 4.29 3.971M460.095 105.047c-10.949 3.734-17.829 14.579-16.543 26.075"/>
        <g fill="#FFF" font-family="Whitney-Book, Whitney" font-size="14.69" font-weight="300">
            <text transform="translate(319.48 192.18)">
                <tspan x="0" y="14">P</tspan>
            </text>
            <text transform="translate(319.48 192.18)">
                <tspan x="7.735" y="14">r</tspan>
            </text>
            <text transform="translate(319.48 192.18)">
                <tspan x="12.829" y="14">o</tspan>
            </text>
            <text transform="translate(319.48 192.18)">
                <tspan x="20.157" y="14">x</tspan>
            </text>
            <text transform="translate(319.48 192.18)">
                <tspan x="27.198" y="14">y</tspan>
            </text>
        </g>
        <path fill="#B3B3B3" fill-rule="nonzero" d="M286.91 203.888h-.447a1.986 1.986 0 1 1 0-3.972h.437a1.986 1.986 0 0 1 0 3.972h.01zm-9.185 0h-.447a1.986 1.986 0 1 1 0-3.972h.437a1.986 1.986 0 1 1 0 3.972h.01zm-9.185 0h-.437a1.986 1.986 0 1 1 0-3.972h.437a1.986 1.986 0 1 1 0 3.972zm-9.185 0h-.447a1.986 1.986 0 1 1 0-3.972h.437a1.986 1.986 0 1 1 0 3.972h.01zm-9.185 0h-.447a1.986 1.986 0 1 1 0-3.972h.437a1.986 1.986 0 1 1 0 3.972h.01zm-9.185 0h-.447a1.986 1.986 0 0 1 0-3.972h.437a1.986 1.986 0 1 1 0 3.972h.01zm-9.185 0h-.437a1.986 1.986 0 0 1 0-3.972h.437a1.986 1.986 0 1 1 0 3.972zm-9.185 0h-.447a1.986 1.986 0 1 1 0-3.972h.437a1.986 1.986 0 1 1 0 3.972h.01zm-9.185 0h-.447a1.986 1.986 0 1 1 0-3.972h.437a1.986 1.986 0 1 1 0 3.972h.01zm-9.185 0h-.447a1.986 1.986 0 1 1 0-3.972h.437a1.986 1.986 0 1 1 0 3.972h.01zm-9.185 0h-.437a1.986 1.986 0 1 1 0-3.972h.437a1.986 1.986 0 1 1 0 3.972zm-9.185 0h-.447a1.986 1.986 0 1 1 0-3.972h.437a1.986 1.986 0 1 1 0 3.972h.01zm-9.185 0h-.447a1.986 1.986 0 1 1 0-3.972h.437a1.986 1.986 0 1 1 0 3.972h.01zm-9.185 0h-.447a1.986 1.986 0 1 1 0-3.972h.437a1.986 1.986 0 1 1 0 3.972h.01z"/>
        <path stroke="url(#b)" stroke-linecap="round" stroke-width="7" d="M314.555 168.22a40.801 40.801 0 0 0-17.298 25.192 10.635 10.635 0 0 1-10.347 8.49"/>
        <path fill="#B3B3B3" fill-rule="nonzero" d="M337.135 154.15a1.986 1.986 0 0 1-1.986-1.987v-.436a1.986 1.986 0 1 1 3.972 0v.436c0 1.097-.89 1.986-1.986 1.986zm0-9.186a1.986 1.986 0 0 1-1.986-1.986v-.436a1.986 1.986 0 1 1 3.972 0v.446c0 1.09-.877 1.975-1.966 1.986l-.02-.01zm0-9.185a1.986 1.986 0 0 1-1.986-1.986v-.436a1.986 1.986 0 1 1 3.972 0v.436c0 1.086-.871 1.97-1.956 1.986h-.03zm0-9.185a1.986 1.986 0 0 1-1.986-1.986v-.436a1.986 1.986 0 1 1 3.972 0v.436a1.986 1.986 0 0 1-1.946 1.986h-.04zm0-9.185a1.986 1.986 0 0 1-1.986-1.986v-.436a1.986 1.986 0 1 1 3.972 0v.436a1.986 1.986 0 0 1-1.936 1.986h-.05zm0-9.185a1.986 1.986 0 0 1-1.986-1.986v-.437a1.986 1.986 0 1 1 3.972 0v.447c0 1.07-.847 1.949-1.917 1.986l-.07-.01zm0-9.185a1.986 1.986 0 0 1-1.986-1.986v-.437a1.986 1.986 0 1 1 3.972 0v.437c0 1.067-.841 1.944-1.907 1.986h-.08zm0-9.185a1.986 1.986 0 0 1-1.986-1.986v-.437a1.986 1.986 0 1 1 3.972 0v.437a1.986 1.986 0 0 1-1.897 1.986h-.09z"/>
        <path stroke="url(#c)" stroke-linecap="round" stroke-width="7" d="M364.66 172.36a40.821 40.821 0 0 0-19.105-9.93 10.516 10.516 0 0 1-8.42-10.227"/>
        <path fill="#B3B3B3" fill-rule="nonzero" d="M380.925 180.662a1.986 1.986 0 0 1-.993-3.704l.377-.208a1.986 1.986 0 0 1 1.986 3.435l-.387.219c-.3.17-.638.259-.983.258zm7.944-4.578a1.986 1.986 0 0 1-.993-3.713l.377-.219a1.988 1.988 0 0 1 1.986 3.446l-.377.218a1.986 1.986 0 0 1-.973.268h-.02zm7.944-4.587a1.986 1.986 0 0 1-.993-3.704l.377-.219a1.988 1.988 0 1 1 1.986 3.446l-.377.219a1.986 1.986 0 0 1-.964.258h-.03zm7.943-4.578a1.986 1.986 0 0 1-.993-3.704l.378-.218a1.986 1.986 0 1 1 1.986 3.436l-.378.218a1.986 1.986 0 0 1-.943.268h-.05zm7.944-4.578a1.986 1.986 0 0 1-1.728-.992 1.986 1.986 0 0 1 .735-2.711l.378-.219a1.988 1.988 0 0 1 1.986 3.446l-.378.218c-.282.16-.599.25-.923.258h-.07zm7.944-4.587a1.986 1.986 0 0 1-.993-3.704l.377-.218a1.988 1.988 0 1 1 1.986 3.445l-.377.219a1.986 1.986 0 0 1-.904.258h-.089zm7.944-4.578a1.986 1.986 0 0 1-.993-3.703l.387-.219a1.986 1.986 0 1 1 1.986 3.436l-.377.218c-.276.16-.585.253-.904.268h-.1zm7.944-4.577a1.986 1.986 0 0 1-.993-3.714l.377-.218a1.988 1.988 0 1 1 1.986 3.445l-.377.219a1.986 1.986 0 0 1-.874.268h-.12z"/>
        <path stroke="url(#d)" stroke-linecap="round" stroke-width="7" d="M376.258 212.596a40.166 40.166 0 0 0 .924-16.573 41.327 41.327 0 0 0-1.103-5.044 10.704 10.704 0 0 1 4.846-12.303"/>
        <path fill="#B3B3B3" fill-rule="nonzero" d="M432.163 265.512c-.35-.001-.692-.094-.993-.269l-.378-.218a1.986 1.986 0 1 1 1.986-3.436l.378.219a1.986 1.986 0 0 1-.993 3.704zm-7.944-4.588c-.349 0-.691-.093-.993-.268l-.378-.219a1.986 1.986 0 1 1 1.986-3.435l.378.218a1.986 1.986 0 0 1-.993 3.704zm-7.944-4.588c-.349 0-.691-.093-.993-.268l-.377-.218a1.986 1.986 0 1 1 1.986-3.436l.377.219a1.986 1.986 0 0 1-.993 3.703zm-7.944-4.587c-.349 0-.691-.093-.993-.268l-.387-.219a1.988 1.988 0 1 1 1.986-3.445l.377.218a1.986 1.986 0 0 1-.993 3.714h.01zm-7.944-4.588c-.348 0-.69-.093-.993-.268l-.377-.218a1.988 1.988 0 0 1 1.986-3.446l.387.219a1.986 1.986 0 0 1-.993 3.713h-.01zm-7.943-4.587c-.35 0-.692-.093-.993-.268l-.378-.219a1.988 1.988 0 1 1 1.986-3.445l.378.218a1.986 1.986 0 0 1-.993 3.714zm-7.944-4.588c-.349 0-.691-.093-.993-.268l-.378-.218a1.988 1.988 0 0 1 1.986-3.446l.378.219a1.986 1.986 0 0 1-.993 3.713zm-7.944-4.587c-.349 0-.691-.093-.993-.268l-.377-.219a1.988 1.988 0 1 1 1.986-3.445l.387.218a1.986 1.986 0 0 1-.993 3.714h-.01z"/>
        <path stroke="url(#e)" stroke-linecap="round" stroke-width="7" d="M348.733 241.074a40.215 40.215 0 0 0 15.252-8.549 10.367 10.367 0 0 1 12.104-1.33"/>
        <path fill="#B3B3B3" fill-rule="nonzero" d="M337.165 318.914a1.986 1.986 0 0 1-1.986-1.986v-.437a1.986 1.986 0 1 1 3.972 0v.437c0 1.097-.89 1.986-1.986 1.986zm0-9.185a1.986 1.986 0 0 1-1.986-1.986v-.437a1.986 1.986 0 1 1 3.972 0v.437c0 1.093-.883 1.98-1.976 1.986h-.01zm0-9.185a1.986 1.986 0 0 1-1.986-1.986v-.437a1.986 1.986 0 1 1 3.972 0v.437c0 1.089-.877 1.975-1.966 1.986h-.02zm0-9.185a1.986 1.986 0 0 1-1.986-1.986v-.417a1.986 1.986 0 1 1 3.972 0v.437a1.986 1.986 0 0 1-1.957 1.966h-.03zm0-9.185a1.986 1.986 0 0 1-1.986-1.986v-.437a1.986 1.986 0 0 1 3.972 0v.437a1.986 1.986 0 0 1-1.947 1.986h-.04zm0-9.185a1.986 1.986 0 0 1-1.986-1.986v-.437a1.986 1.986 0 1 1 3.972 0v.437a1.986 1.986 0 0 1-1.927 1.986h-.06zm0-9.185a1.986 1.986 0 0 1-1.986-1.986v-.437a1.986 1.986 0 1 1 3.972 0v.437c0 1.07-.847 1.948-1.917 1.986h-.07zm0-9.185a1.986 1.986 0 0 1-1.986-1.986v-.417a1.986 1.986 0 1 1 3.972 0v.437a1.986 1.986 0 0 1-1.907 1.966h-.08z"/>
        <path stroke="url(#f)" stroke-linecap="round" stroke-width="7" d="M310.692 233.17a40.831 40.831 0 0 0 18.38 8.868 10.287 10.287 0 0 1 8.172 10.178"/>
        <path stroke="#FFF" stroke-linejoin="round" stroke-width="1.03" d="M114.142 195.983h11.728v20.863H86.35v-20.863h11.726"/>
        <path fill="#FFF" fill-rule="nonzero" stroke="#FFF" stroke-linejoin="round" stroke-width="1.03" d="M98.076 184.415h16.066v32.44H98.076z"/>
        <path fill="#FFF" fill-rule="nonzero" stroke="#FF8533" stroke-linejoin="round" stroke-width="1.03" d="M110.439 190.443v2.055a.596.596 0 0 1-.596.606h-2.115v2.105a.596.596 0 0 1-.596.606h-2.055a.596.596 0 0 1-.596-.606v-2.105h-2.105a.596.596 0 0 1-.596-.606v-2.055c0-.33.267-.596.596-.596h2.105v-2.105c0-.33.267-.596.596-.596h2.055c.33 0 .596.267.596.596v2.105h2.115a.596.596 0 0 1 .596.596z"/>
        <path fill="#FF8533" fill-rule="nonzero" d="M102.932 209.925h6.683v7.487h-6.683zM101.601 198.833h3.456v3.456h-3.456zM107.291 198.833h3.456v3.456h-3.456z"/>
        <path stroke="#FFF" stroke-linejoin="round" stroke-width="1.03" d="M116.724 198.833h3.456v3.456h-3.456zM120.18 198.833h3.456v3.456h-3.456zM116.724 204.682h3.456v3.456h-3.456zM120.18 204.682h3.456v3.456h-3.456zM116.724 210.54h3.456v3.456h-3.456zM120.18 210.54h3.456v3.456h-3.456zM88.573 198.833h3.456v3.456h-3.456zM92.029 198.833h3.456v3.456h-3.456zM88.573 204.682h3.456v3.456h-3.456zM92.029 204.682h3.456v3.456h-3.456zM88.573 210.54h3.456v3.456h-3.456zM92.029 210.54h3.456v3.456h-3.456z"/>
        <path fill="#FF8533" fill-rule="nonzero" d="M101.601 204.334h3.456v3.456h-3.456zM107.291 204.334h3.456v3.456h-3.456z"/>
        <path fill="#FFF" fill-rule="nonzero" stroke="#FFF" stroke-linejoin="round" stroke-width="1.05" d="M327.007 47.603h21.369v11.826h-21.369z"/>
        <path stroke="#FFF" stroke-linejoin="round" stroke-width="1.05" d="M339.677 43.78h8.688l.904 3.823h-23.176l.914-3.823h7.427"/>
        <path fill="#FFF" fill-rule="nonzero" d="M336.162 46.283a.993.993 0 0 1-.993-.993v-1.003h-1.053a.993.993 0 0 1-.933-.993v-1.47c0-.515.418-.933.933-.933h1.053v-1.053a.993.993 0 0 1 .993-.933h1.519c.516 0 .933.418.933.933v1.053h1.063c.515 0 .933.418.933.933v1.52a.993.993 0 0 1-.933.992h-1.073v1.053a.933.933 0 0 1-.933.993l-1.51-.1z"/>
        <path fill="#56D695" fill-rule="nonzero" d="M337.681 39.401c.241 0 .437.196.437.437v1.55h1.559c.241 0 .437.195.437.436v1.52a.447.447 0 0 1-.437.446h-1.56v1.55a.447.447 0 0 1-.436.446h-1.52a.447.447 0 0 1-.446-.447V43.79h-1.55a.447.447 0 0 1-.436-.447v-1.519c0-.241.196-.437.437-.437h1.549v-1.549a.447.447 0 0 1 .447-.437h1.519zm0-.993h-1.52a1.44 1.44 0 0 0-1.44 1.43v.556h-.555a1.44 1.44 0 0 0-1.43 1.43v1.52a1.44 1.44 0 0 0 1.43 1.44h.556v.555c0 .795.645 1.44 1.44 1.44h1.519a1.44 1.44 0 0 0 1.43-1.44v-.556h.566a1.44 1.44 0 0 0 1.43-1.44v-1.519a1.44 1.44 0 0 0-1.43-1.43h-.566v-.556a1.44 1.44 0 0 0-1.43-1.43zM334.88 59.946v-8.103h-4.458v8.103M338.098 52.509h3.793v3.793h-3.793zM342.894 52.509h3.793v3.793h-3.793z"/>
        <path fill="#FFF" fill-rule="nonzero" stroke="#FFF" stroke-linejoin="round" stroke-width="1.05" d="M457.563 281.34h21.369v11.826h-21.369z"/>
        <path stroke="#FFF" stroke-linejoin="round" stroke-width="1.05" d="M470.233 277.517h8.689l.903 3.823H456.65l.914-3.823h7.427"/>
        <path fill="#FFF" fill-rule="nonzero" d="M466.698 280.019a.993.993 0 0 1-.933-.943v-1.043h-1.053a.933.933 0 0 1-.933-.933v-1.52c0-.515.418-.933.933-.933h1.053v-1.053c0-.515.418-.933.933-.933h1.52a.993.993 0 0 1 .943.933v1.053h1.062c.516 0 .934.418.934.933v1.46a.933.933 0 0 1-.934.933h-1.062v1.063a.993.993 0 0 1-.943.943l-1.52.04z"/>
        <path fill="#56D695" fill-rule="nonzero" d="M468.227 273.138a.437.437 0 0 1 .447.437v1.549h1.56c.24 0 .436.195.436.436v1.48a.437.437 0 0 1-.437.437h-1.549v1.559c0 .247-.2.447-.447.447h-1.539a.447.447 0 0 1-.447-.447v-1.56h-1.539a.437.437 0 0 1-.437-.436v-1.52c0-.24.196-.436.437-.436h1.55v-1.55a.437.437 0 0 1 .446-.436h1.51l.01.04zm-.01-1.033h-1.519a1.43 1.43 0 0 0-1.44 1.43v.556h-.546a1.44 1.44 0 0 0-1.43 1.43v1.519c0 .79.64 1.43 1.43 1.43h.556v.566a1.44 1.44 0 0 0 1.43 1.48h1.51a1.44 1.44 0 0 0 1.44-1.44v-.566h.565a1.43 1.43 0 0 0 1.45-1.47v-1.52a1.44 1.44 0 0 0-1.43-1.43h-.556v-.555a1.43 1.43 0 0 0-1.44-1.43h-.02zM465.437 293.682v-8.112h-4.458v8.112M468.654 286.245h3.793v3.793h-3.793zM473.45 286.245h3.793v3.793h-3.793z"/>
        <path fill="#FFF" fill-rule="nonzero" stroke="#FFF" stroke-linejoin="round" stroke-width="1.05" d="M326.997 350.818h21.369v11.826h-21.369z"/>
        <path stroke="#FFF" stroke-linejoin="round" stroke-width="1.05" d="M339.667 346.995h8.698l.894 3.823h-23.176l.914-3.823h7.437"/>
        <path fill="#FFF" fill-rule="nonzero" d="M336.152 349.527a.933.933 0 0 1-.934-.933v-1.053h-1.052a.933.933 0 0 1-.934-.933v-1.52c0-.515.418-.933.934-.933h1.052v-1.052c0-.526.409-.962.934-.993h1.52a.993.993 0 0 1 .932.993v1.052h1.063a.993.993 0 0 1 .943.934v1.46a.993.993 0 0 1-.943.933h-1.063v1.052a.933.933 0 0 1-.933.934l-1.52.06z"/>
        <path fill="#56D695" fill-rule="nonzero" d="M337.671 342.576a.437.437 0 0 1 .437.447v1.54h1.559c.243 0 .441.193.447.436v1.55a.447.447 0 0 1-.447.436h-1.559v1.55a.427.427 0 0 1-.437.436h-1.52a.437.437 0 0 1-.436-.437v-1.559h-1.55a.437.437 0 0 1-.436-.437v-1.519c0-.241.196-.437.437-.437h1.549v-1.549c0-.243.194-.441.437-.447h1.52v-.01zm0-.983h-1.52a1.44 1.44 0 0 0-1.43 1.44v.536h-.555a1.42 1.42 0 0 0-1.43 1.43v1.55a1.42 1.42 0 0 0 1.43 1.43h.556v.555c0 .79.64 1.43 1.43 1.43h1.52a1.42 1.42 0 0 0 1.429-1.43v-.566h.566a1.43 1.43 0 0 0 1.44-1.43v-1.519a1.43 1.43 0 0 0-1.44-1.43h-.566v-.556a1.43 1.43 0 0 0-1.43-1.44zM334.87 363.16v-8.112h-4.448v8.113M338.088 355.723h3.793v3.793h-3.793zM342.894 355.723h3.793v3.793h-3.793z"/>
        <path fill="#FFF" fill-rule="nonzero" stroke="#FFF" stroke-linejoin="round" stroke-width="1.05" d="M457.563 125.403h21.369v11.826h-21.369z"/>
        <path stroke="#FFF" stroke-linejoin="round" stroke-width="1.05" d="M470.233 121.58h8.689l.903 3.823H456.65l.914-3.823h7.427"/>
        <path fill="#FFF" fill-rule="nonzero" d="M466.698 124.122a.993.993 0 0 1-.933-.943v-1.063h-1.053a.933.933 0 0 1-.933-.933v-1.52c0-.515.418-.933.933-.933h1.053v-1.053c0-.515.418-.933.933-.933h1.52a.993.993 0 0 1 .943.933v1.053h1.062c.516 0 .934.418.934.933v1.48a.933.933 0 0 1-.934.933h-1.062v1.053a.993.993 0 0 1-.943.943l-1.52.05z"/>
        <path fill="#56D695" fill-rule="nonzero" d="M468.227 117.171a.437.437 0 0 1 .447.437v1.549h1.56c.24 0 .436.196.436.437v1.549a.437.437 0 0 1-.437.437h-1.549v1.549c0 .247-.2.447-.447.447h-1.539a.447.447 0 0 1-.447-.447v-1.56h-1.539a.437.437 0 0 1-.437-.436v-1.52a.437.437 0 0 1 .437-.456h1.55v-1.549c0-.241.195-.437.436-.437h1.53zm-.02-.993h-1.509a1.43 1.43 0 0 0-1.44 1.43v.556h-.546a1.44 1.44 0 0 0-1.43 1.43v1.549c0 .79.64 1.43 1.43 1.43h.556v.556c0 .795.645 1.44 1.44 1.44h1.51a1.44 1.44 0 0 0 1.46-1.44v-.566h.565a1.43 1.43 0 0 0 1.42-1.42v-1.52a1.44 1.44 0 0 0-1.43-1.43h-.556v-.555a1.43 1.43 0 0 0-1.44-1.43l-.03-.03zM465.437 137.745v-8.112h-4.458v8.112M468.654 130.308h3.793v3.793h-3.793zM473.45 130.308h3.793v3.793h-3.793z"/>
    </g>
</svg>
