<svg xmlns="http://www.w3.org/2000/svg" width="566" height="398" viewBox="0 0 566 398">
    <defs>
        <linearGradient id="a" x1="-.015%" x2="100.015%" y1="50%" y2="50%">
            <stop offset="0%" stop-color="#56D695"/>
            <stop offset="100%" stop-color="#78DEAA"/>
        </linearGradient>
        <linearGradient id="b" x1="-77.447%" x2="151.481%" y1="46.006%" y2="56.823%">
            <stop offset="0%" stop-color="#1791FF"/>
            <stop offset="100%" stop-color="#1791FF"/>
        </linearGradient>
        <linearGradient id="c" x1="21403%" x2="22146%" y1="6640%" y2="6640%">
            <stop offset="0%" stop-color="#1791FF"/>
            <stop offset="100%" stop-color="#1791FF"/>
        </linearGradient>
        <linearGradient id="d" x1="4151%" x2="10795%" y1="30874%" y2="30874%">
            <stop offset="0%" stop-color="#1791FF"/>
            <stop offset="100%" stop-color="#1791FF"/>
        </linearGradient>
        <linearGradient id="e" x1="2922%" x2="4268%" y1="31882%" y2="31882%">
            <stop offset="0%" stop-color="#1791FF"/>
            <stop offset="100%" stop-color="#1791FF"/>
        </linearGradient>
        <linearGradient id="f" x1="3164%" x2="5587%" y1="28399%" y2="28399%">
            <stop offset="0%" stop-color="#1791FF"/>
            <stop offset="100%" stop-color="#1791FF"/>
        </linearGradient>
        <linearGradient id="g" x1="4989%" x2="10772%" y1="34466%" y2="34466%">
            <stop offset="0%" stop-color="#1791FF"/>
            <stop offset="100%" stop-color="#1791FF"/>
        </linearGradient>
        <linearGradient id="h" x1="10943%" x2="12894%" y1="31740%" y2="31740%">
            <stop offset="0%" stop-color="#1791FF"/>
            <stop offset="100%" stop-color="#1791FF"/>
        </linearGradient>
        <linearGradient id="i" x1="6311%" x2="11674%" y1="27922%" y2="27922%">
            <stop offset="0%" stop-color="#1791FF"/>
            <stop offset="100%" stop-color="#1791FF"/>
        </linearGradient>
    </defs>
    <g fill="none" fill-rule="evenodd">
        <path fill="#F6F7F7" fill-rule="nonzero" d="M0 0h566v397.193H0z"/>
        <circle cx="283.07" cy="198.527" r="43.105" fill="#B3B3B3" fill-rule="nonzero"/>
        <circle cx="491.348" cy="91.553" r="32.977" fill="url(#a)" fill-rule="nonzero"/>
        <path stroke="#56D695" stroke-linecap="round" stroke-width="7" d="M526.171 114.411a42.003 42.003 0 0 0 6.653-24M530.68 78.505a41.765 41.765 0 0 0-16.682-21.597M461.469 120.975c13.236 13.442 33.848 16.325 50.265 7.03"/>
        <path fill="#FFF" fill-rule="nonzero" d="M511.168 79.101v17.218a1.132 1.132 0 0 1-1.123 1.142h-3.118V85.317a1.569 1.569 0 0 0-1.578-1.569h-25.381v-4.647a1.132 1.132 0 0 1 1.142-1.132h28.935a1.122 1.122 0 0 1 1.123 1.132z"/>
        <path fill="#FFF" fill-rule="nonzero" d="M505.13 93.172v10.843a1.122 1.122 0 0 1-1.132 1.132h-28.935a1.112 1.112 0 0 1-1.122-1.132V93.172h31.19zM505.13 86.737v2.274h-31.19v-2.274c0-.62.503-1.122 1.123-1.122h28.935a1.122 1.122 0 0 1 1.132 1.122z"/>
        <path stroke="#56D695" stroke-linecap="round" stroke-width="7" d="M440.884 91.027a9.493 9.493 0 0 1 9.235 7.824 41.209 41.209 0 0 0 2.81 9.434M499.867 50.86c-19.117-4.057-38.488 5.705-46.6 23.485"/>
        <circle cx="491.348" cy="306.573" r="32.977" fill="#FF8533" fill-rule="nonzero"/>
        <path stroke="#FF8533" stroke-linecap="round" stroke-width="7" d="M526.698 328.677a42.033 42.033 0 0 0 6.265-24.1M530.62 292.662a41.765 41.765 0 0 0-17.03-21.32M462.114 336.254c13.455 13.224 34.112 15.769 50.374 6.206M441.033 306.643a9.503 9.503 0 0 1 9.364 7.676 41.706 41.706 0 0 0 2.979 9.393M499.36 265.514c-19.182-3.745-38.393 6.335-46.212 24.248"/>
        <path stroke="#56D695" stroke-linecap="round" stroke-width="7" d="M336.621 195.25a53.472 53.472 0 0 0-7.944-25.013 15.888 15.888 0 0 1 1.986-19.681l.268-.268"/>
        <path stroke="#4D4D4D" stroke-linecap="round" stroke-width="7" d="M279.842 144.975a53.89 53.89 0 0 0-24.824 7.795 17.506 17.506 0 0 1-21.35-2.512"/>
        <path stroke="url(#b)" stroke-linecap="round" stroke-width="7.09" d="M229.657 204.455a53.71 53.71 0 0 0 7.318 21.458 17.675 17.675 0 0 1-2.313 21.578"/>
        <path stroke="#FF8533" stroke-linecap="round" stroke-width="7" d="M290.696 251.652a53.264 53.264 0 0 0 20.852-7.646l.11-.06a14.607 14.607 0 0 1 18.27 1.926"/>
        <path stroke="#4D4D4D" stroke-linecap="round" stroke-width="7" d="M291.45 145.532a53.69 53.69 0 0 1 12.581 3.614"/>
        <path stroke="url(#c)" stroke-linecap="round" stroke-width="7.09" d="M229.538 193.552c.181-2 .47-3.989.864-5.958a54.937 54.937 0 0 1 1.36-5.322"/>
        <path stroke="#FF8533" stroke-linecap="round" stroke-width="7.48" d="M279.177 252.019a53.512 53.512 0 0 1-12.114-2.304"/>
        <path stroke="#56D695" stroke-linecap="round" stroke-width="7" d="M336.134 206.391a53.621 53.621 0 0 1-4.2 14.28"/>
        <path fill="#B3B3B3" fill-rule="nonzero" d="M339.451 145.392a3.416 3.416 0 0 1-2.453-.992 3.466 3.466 0 0 1 0-4.916l.517-.516a3.49 3.49 0 1 1 4.965 4.905l-.517.527a3.495 3.495 0 0 1-2.512.992zm10.923-10.992a3.475 3.475 0 0 1-2.463-5.958l.517-.526a3.49 3.49 0 0 1 4.965 4.905l-.517.527a3.515 3.515 0 0 1-2.462 1.052h-.04zm10.923-10.992a3.485 3.485 0 0 1-2.453-5.958l.526-.516a3.475 3.475 0 1 1 4.916 4.905l-.527.526a3.485 3.485 0 0 1-2.393 1.043h-.07zm10.922-10.992a3.475 3.475 0 0 1-2.462-5.958l.526-.527a3.49 3.49 0 1 1 4.965 4.906l-.526.526a3.485 3.485 0 0 1-2.354 1.053h-.149zm11.003-10.923a3.475 3.475 0 0 1-2.284-6.087c.208-.189.427-.368.645-.546a3.475 3.475 0 0 1 4.41 5.362l-.477.417a3.485 3.485 0 0 1-2.225.824l-.07.03zm14.1-6.167a3.48 3.48 0 0 1-.377-6.95l.844-.08a3.486 3.486 0 1 1 .546 6.95l-.626.06a2.532 2.532 0 0 1-.387.02zm31.776-.149h-.735a3.475 3.475 0 1 1 0-6.95h.735a3.475 3.475 0 1 1 0 6.95zm-15.52 0h-.746a3.475 3.475 0 1 1 0-6.95h.745a3.475 3.475 0 1 1 0 6.95zM429.107 310.049h-.734a3.475 3.475 0 1 1 0-6.951h.734a3.475 3.475 0 0 1 0 6.95zm-15.52 0h-.745a3.475 3.475 0 1 1 0-6.951h.745a3.475 3.475 0 0 1 0 6.95zm-15.52-.08h-.278c-.278 0-.566 0-.844-.089a3.475 3.475 0 1 1 .764-6.901l.626.06a3.478 3.478 0 1 1-.268 6.95v-.02zm-14.17-5.739a3.436 3.436 0 0 1-2.204-.794c-.219-.18-.437-.358-.646-.547a3.476 3.476 0 1 1 4.578-5.233l.476.408a3.475 3.475 0 0 1-2.204 6.166zm-11.042-10.923a3.495 3.495 0 0 1-2.463-.993l-.516-.526a3.475 3.475 0 1 1 4.915-4.905l.527.516a3.475 3.475 0 0 1-2.463 5.958v-.05zm-10.923-10.992a3.495 3.495 0 0 1-2.462-.993l-.517-.526a3.49 3.49 0 0 1 4.965-4.906l.516.527a3.475 3.475 0 0 1-2.462 5.957l-.04-.06zm-10.923-10.992a3.456 3.456 0 0 1-2.462-.993l-.517-.527a3.49 3.49 0 0 1 4.965-4.905l.517.526a3.475 3.475 0 0 1-2.463 5.958l-.04-.06zm-10.922-10.993c-.918.01-1.8-.348-2.453-.993l-.526-.516a3.476 3.476 0 0 1 4.915-4.915l.526.516a3.485 3.485 0 0 1-2.462 5.958v-.05z"/>
        <circle cx="74.206" cy="91.553" r="32.977" fill="#4D4D4D" fill-rule="nonzero"/>
        <path stroke="#4D4D4D" stroke-linecap="round" stroke-width="7" d="M39.382 114.411a41.914 41.914 0 0 1-6.614-24M34.874 78.505a41.705 41.705 0 0 1 16.672-21.597M104.084 120.975c-13.238 13.447-33.855 16.33-50.274 7.03M124.669 91.027a9.493 9.493 0 0 0-9.235 7.824 41.705 41.705 0 0 1-2.81 9.434M65.686 50.86c19.117-4.057 38.488 5.705 46.6 23.485"/>
        <circle cx="74.206" cy="306.573" r="32.977" fill="url(#d)" fill-rule="nonzero"/>
        <path stroke="url(#e)" stroke-linecap="round" stroke-width="7.09" d="M38.855 328.677a41.824 41.824 0 0 1-6.265-24.1"/>
        <path stroke="url(#f)" stroke-linecap="round" stroke-width="7.09" d="M34.933 292.662a41.765 41.765 0 0 1 17.03-21.32"/>
        <path stroke="url(#g)" stroke-linecap="round" stroke-width="7.09" d="M103.439 336.254c-13.455 13.224-34.112 15.769-50.374 6.206"/>
        <path stroke="url(#h)" stroke-linecap="round" stroke-width="7.09" d="M124.51 306.643a9.493 9.493 0 0 0-9.354 7.676 42.242 42.242 0 0 1-2.979 9.393"/>
        <path stroke="url(#i)" stroke-linecap="round" stroke-width="7.09" d="M66.192 265.514c19.184-3.745 38.395 6.335 46.214 24.248"/>
        <path fill="#B3B3B3" fill-rule="nonzero" d="M226.102 145.392a3.485 3.485 0 0 1-2.462-.992l-.517-.527a3.49 3.49 0 1 1 4.965-4.905l.526.516a3.475 3.475 0 0 1 0 4.916 3.436 3.436 0 0 1-2.512.992zM215.18 134.4a3.495 3.495 0 0 1-2.462-.993l-.517-.526a3.49 3.49 0 1 1 4.965-4.905l.517.526a3.475 3.475 0 0 1-2.463 5.958l-.04-.06zm-10.923-10.992a3.475 3.475 0 0 1-2.452-.993l-.526-.526a3.475 3.475 0 0 1 4.915-4.906l.526.517a3.485 3.485 0 0 1-2.463 5.958v-.05zm-10.922-10.992a3.515 3.515 0 0 1-2.463-.993l-.516-.527a3.49 3.49 0 1 1 4.965-4.905l.516.526a3.475 3.475 0 0 1-2.463 5.958l-.04-.06zm-11.003-10.923c-.84.003-1.652-.3-2.283-.854l-.487-.417a3.475 3.475 0 1 1 4.419-5.362l.645.546a3.475 3.475 0 0 1-2.294 6.087zm-14.1-6.167c-.129.01-.258.01-.387 0l-.626-.06a3.486 3.486 0 0 1 .546-6.95l.844.08a3.48 3.48 0 0 1-.377 6.95v-.02zm-15.52-.149h-.785a3.475 3.475 0 1 1 0-6.95h.745a3.475 3.475 0 0 1 0 6.95h.04zm-15.53 0h-.735a3.475 3.475 0 0 1 0-6.95h.735a3.475 3.475 0 1 1 0 6.95zM152.71 310.049h-.784a3.475 3.475 0 1 1 0-6.951h.745a3.475 3.475 0 0 1 0 6.95h.04zm-15.53 0h-.734a3.475 3.475 0 0 1 0-6.951h.735a3.475 3.475 0 1 1 0 6.95zm30.306-.08a3.478 3.478 0 0 1-.268-6.95l.626-.06a3.475 3.475 0 0 1 .764 6.901c-.278 0-.566.06-.844.09l-.278.02zm14.17-5.739a3.475 3.475 0 0 1-2.214-6.166c.169-.13.328-.269.486-.408a3.476 3.476 0 1 1 4.578 5.233l-.645.547c-.62.515-1.4.796-2.205.794zm11.042-10.923a3.475 3.475 0 0 1-2.462-5.958l.526-.516a3.475 3.475 0 1 1 4.915 4.905l-.516.527a3.515 3.515 0 0 1-2.463 1.062v-.02zm10.923-10.992a3.475 3.475 0 0 1-2.463-5.958l.517-.526a3.49 3.49 0 1 1 4.965 4.905l-.517.526a3.515 3.515 0 0 1-2.462 1.073l-.04-.02zm10.923-10.992a3.475 3.475 0 0 1-2.463-5.958l.517-.527a3.49 3.49 0 1 1 4.964 4.906l-.516.526a3.475 3.475 0 0 1-2.423 1.072l-.08-.02zm10.923-10.993c-.918.01-1.8-.348-2.453-.993a3.466 3.466 0 0 1 0-4.965l.526-.516a3.475 3.475 0 1 1 4.906 4.915l-.517.517a3.456 3.456 0 0 1-2.353 1.062l-.11-.02z"/>
        <path fill="#FFF" fill-rule="nonzero" d="M84.404 74.305H64.008a7.08 7.08 0 0 0-7.05 7.05v20.416a7.07 7.07 0 0 0 7.05 7.04h20.396a7.06 7.06 0 0 0 7.05-7.04V81.355a7.06 7.06 0 0 0-7.05-7.05zm-1.53 25.986a12.234 12.234 0 1 1 3.595-8.669 12.154 12.154 0 0 1-3.595 8.67z"/>
        <path fill="#FFF" fill-rule="nonzero" d="M83.59 91.622a9.284 9.284 0 0 1-2.741 6.683 9.384 9.384 0 1 1-6.643-16.007 9.374 9.374 0 0 1 9.383 9.374v-.05z"/>
        <rect width="23.355" height="23.355" x="479.66" y="294.896" fill="#FFF" fill-rule="nonzero" rx="4.81"/>
        <path fill="#FFF" fill-rule="nonzero" d="M491.348 290.606a.993.993 0 0 1-1.043-.993v-3.654a1.038 1.038 0 0 1 2.075 0v3.654a.993.993 0 0 1-1.032.993zM491.348 328.26a.993.993 0 0 1-1.043-1.042v-3.645a1.038 1.038 0 0 1 2.075 0v3.645a.993.993 0 0 1-1.032 1.042zM511.992 307.606h-3.645a1.038 1.038 0 1 1 0-2.075h3.645a1.038 1.038 0 1 1 0 2.075zM474.338 307.606h-3.664a1.038 1.038 0 0 1 0-2.075h3.644a1.038 1.038 0 0 1 0 2.075h.02zM504.793 294.161a.993.993 0 0 1-.735-.308.993.993 0 0 1 0-1.47l2.373-2.373a1.04 1.04 0 1 1 1.47 1.47l-2.374 2.373a.993.993 0 0 1-.734.308zM475.52 323.434a.993.993 0 0 1-.735-.308.993.993 0 0 1 0-1.47l2.373-2.372a1.029 1.029 0 1 1 1.46 1.45l-2.374 2.373a.993.993 0 0 1-.725.327zM507.166 323.434a.993.993 0 0 1-.735-.308l-2.373-2.393a1.04 1.04 0 0 1 1.47-1.47l2.373 2.374a.993.993 0 0 1 0 1.47.993.993 0 0 1-.735.327zM477.893 294.161a.993.993 0 0 1-.735-.308l-2.373-2.373a1.04 1.04 0 1 1 1.47-1.47l2.372 2.374a.993.993 0 0 1 0 1.47.993.993 0 0 1-.734.307z"/>
        <path fill="#FFF" d="M74.116 317.864a11.32 11.32 0 1 0-11.28-11.32c-.006 6.238 5.042 11.303 11.28 11.32zm-12.045 7.755a22.481 22.481 0 1 1 24.16.07c-2.245-2.443-6.822-4.112-12.115-4.112-5.292 0-9.77 1.639-12.045 4.042z"/>
        <path fill="#FFF" fill-rule="nonzero" d="M295.64 222.23h-2.71a1.102 1.102 0 0 1 0-2.195h2.71a1.102 1.102 0 0 1 0 2.194zm-8.162 0h-2.72a1.102 1.102 0 0 1 0-2.195h2.72a1.102 1.102 0 1 1 0 2.194zm-8.162 0h-2.72a1.102 1.102 0 0 1 0-2.195h2.72a1.102 1.102 0 0 1 0 2.194zm-8.162 0h-.785c-.716 0-1.432-.07-2.135-.21a1.102 1.102 0 0 1 .417-2.154c.566.116 1.141.172 1.718.169h.785a1.102 1.102 0 0 1 0 2.194zm29.66-1.46a1.102 1.102 0 0 1-.576-2.036 8.857 8.857 0 0 0 1.867-1.529 1.096 1.096 0 0 1 1.609 1.49 11.32 11.32 0 0 1-2.324 1.916c-.173.105-.373.16-.576.159zm-37.157-1.162c-.276 0-.541-.103-.745-.288a11.32 11.32 0 0 1-1.916-2.324 1.097 1.097 0 0 1 1.866-1.151c.427.685.945 1.31 1.54 1.856a1.102 1.102 0 0 1-.745 1.907zm41.705-5.352a.814.814 0 0 1-.218 0 1.092 1.092 0 0 1-.864-1.281 8.42 8.42 0 0 0 .168-1.728v-.774a1.102 1.102 0 0 1 2.195 0v.774c0 .72-.07 1.438-.209 2.145-.108.509-.561.87-1.082.864h.01zm-44.893-1.917a1.092 1.092 0 0 1-1.092-1.092v-2.72a1.102 1.102 0 0 1 2.194 0v2.7c0 .614-.497 1.112-1.112 1.112h.01zm45.082-6.236a1.102 1.102 0 0 1-1.103-1.092v-2.72a1.102 1.102 0 0 1 2.195 0v2.72a1.092 1.092 0 0 1-1.102 1.092h.01zm-45.082-1.926a1.092 1.092 0 0 1-1.092-1.092v-2.721a1.102 1.102 0 0 1 2.194 0v2.72a1.102 1.102 0 0 1-1.112 1.093h.01zm45.082-6.236a1.102 1.102 0 0 1-1.103-1.092v-2.72a1.102 1.102 0 0 1 2.195 0v2.72a1.092 1.092 0 0 1-1.102 1.092h.01zm-45.082-1.926a1.092 1.092 0 0 1-1.092-1.093v-2.72a1.102 1.102 0 0 1 2.194 0v2.72a1.102 1.102 0 0 1-1.112 1.093h.01zm45.082-6.236a1.102 1.102 0 0 1-1.103-1.092v-2.721c0-.612.49-1.111 1.103-1.122a1.082 1.082 0 0 1 1.092 1.082v2.74a1.092 1.092 0 0 1-1.102 1.113h.01zm-45.082-1.927a1.092 1.092 0 0 1-1.092-1.092v-.794c0-.714.07-1.425.208-2.125a1.093 1.093 0 1 1 2.145.417 8.937 8.937 0 0 0-.159 1.708v.794a1.102 1.102 0 0 1-1.112 1.092h.01zm43.602-5.957a1.112 1.112 0 0 1-.933-.517 8.718 8.718 0 0 0-1.54-1.867 1.093 1.093 0 0 1 1.48-1.608 11.31 11.31 0 0 1 1.926 2.313 1.092 1.092 0 0 1-.357 1.51.993.993 0 0 1-.586.129l.01.04zm-40.98-1.5a1.092 1.092 0 0 1-.804-1.837 10.714 10.714 0 0 1 2.313-1.916 1.095 1.095 0 0 1 1.162 1.857c-.691.423-1.32.941-1.867 1.539-.215.214-.51.33-.814.317l.01.04zm34.456-2.979c-.069.01-.14.01-.208 0a8.858 8.858 0 0 0-1.698-.159h-.805a1.102 1.102 0 0 1 0-2.194h.805c.71.001 1.417.068 2.115.198a1.092 1.092 0 0 1 .864 1.291c-.137.48-.584.804-1.083.785l.01.08zm-8.152-.179h-2.721a1.102 1.102 0 0 1 0-2.194h2.72a1.102 1.102 0 0 1 0 2.194zm-8.163 0h-2.72a1.102 1.102 0 0 1 0-2.194h2.72a1.102 1.102 0 0 1 0 2.194zm-8.162 0h-2.69c-.611 0-1.107-.491-1.113-1.102a1.082 1.082 0 0 1 1.082-1.092h2.721a1.102 1.102 0 0 1 0 2.194z"/>
    </g>
</svg>
