<svg xmlns="http://www.w3.org/2000/svg" xmlns:xlink="http://www.w3.org/1999/xlink" width="567" height="398" viewBox="0 0 567 398">
    <defs>
        <path id="a" d="M.677 0h565.996v397.19H.677z"/>
        <linearGradient id="c" x1=".138%" x2="99.917%" y1="49.899%" y2="49.899%">
            <stop offset=".156%" stop-color="#1791FF"/>
            <stop offset="100%" stop-color="#1791FF"/>
        </linearGradient>
        <linearGradient id="d" x1=".233%" x2="100.012%" y1="49.927%" y2="49.927%">
            <stop offset=".156%" stop-color="#1791FF"/>
            <stop offset="100%" stop-color="#1791FF"/>
        </linearGradient>
        <linearGradient id="e" x1=".058%" x2="99.837%" y1="49.927%" y2="49.927%">
            <stop offset=".156%" stop-color="#1791FF"/>
            <stop offset="100%" stop-color="#1791FF"/>
        </linearGradient>
        <linearGradient id="f" x1=".062%" x2="99.841%" y1="49.899%" y2="49.899%">
            <stop offset=".156%" stop-color="#1791FF"/>
            <stop offset="100%" stop-color="#1791FF"/>
        </linearGradient>
        <linearGradient id="g" x1="50.778%" x2="50.778%" y1="-.068%" y2="100.029%">
            <stop offset="0%" stop-color="#FFF"/>
            <stop offset="100%"/>
        </linearGradient>
        <linearGradient id="h" x1="50.778%" x2="50.778%" y1="99.972%" y2="-.126%">
            <stop offset="0%" stop-color="#FFF"/>
            <stop offset="100%"/>
        </linearGradient>
        <linearGradient id="i" x1="50.74%" x2="50.74%" y1="-.068%" y2="100.029%">
            <stop offset="0%" stop-color="#FFF"/>
            <stop offset="100%"/>
        </linearGradient>
        <linearGradient id="j" x1="50.727%" x2="50.727%" y1="99.972%" y2="-.126%">
            <stop offset="0%" stop-color="#FFF"/>
            <stop offset="100%"/>
        </linearGradient>
    </defs>
    <g fill="none" fill-rule="evenodd">
        <mask id="b" fill="#fff">
            <use xlink:href="#a"/>
        </mask>
        <use fill="#F6F7F7" fill-rule="nonzero" xlink:href="#a"/>
        <circle cx="284.469" cy="201.971" r="32.073" fill="#56D695" fill-rule="nonzero" mask="url(#b)"/>
        <path stroke="#56D695" stroke-linecap="round" stroke-width="7" d="M261.432 235.236c-3.376-2.383-6.454-5.263-9.036-8.54M336.7 201.773c-6.058 0-11.519 4.07-13.008 9.93-1.788 7.248-5.561 13.702-10.526 18.766M257.56 232.356c-5.363-4.766-9.533-11.022-11.817-17.973M313.166 173.175c3.078 3.078 5.56 6.553 7.547 10.426" mask="url(#b)"/>
        <path fill="#B3B3B3" fill-rule="nonzero" d="M374.73 203.858h-.397a1.992 1.992 0 0 1-1.986-1.986c0-1.092.894-1.986 1.986-1.986h.398c1.092 0 1.985.894 1.985 1.986a1.992 1.992 0 0 1-1.985 1.986zm-9.135 0h-.397a1.992 1.992 0 0 1-1.986-1.986c0-1.092.894-1.986 1.986-1.986h.397c1.092 0 1.986.894 1.986 1.986a1.992 1.992 0 0 1-1.986 1.986zm-9.235 0h-.397a1.992 1.992 0 0 1-1.986-1.986c0-1.092.894-1.986 1.986-1.986h.397c1.093 0 1.986.894 1.986 1.986a1.992 1.992 0 0 1-1.986 1.986zm-9.135-.1h-.397a1.992 1.992 0 0 1-1.986-1.985c0-1.093.894-1.986 1.986-1.986h.397c1.092 0 1.986.893 1.986 1.986a1.992 1.992 0 0 1-1.986 1.985zM195.499 203.957h-.398a1.992 1.992 0 0 1-1.986-1.986c0-1.092.894-1.986 1.986-1.986h.398c1.092 0 1.985.894 1.985 1.986a1.992 1.992 0 0 1-1.985 1.986zm9.135 0h-.397a1.992 1.992 0 0 1-1.986-1.986c0-1.092.893-1.986 1.986-1.986h.397c1.092 0 1.986.894 1.986 1.986s-.795 1.986-1.986 1.986zm9.235 0h-.398a1.992 1.992 0 0 1-1.986-1.986c0-1.092.894-1.986 1.986-1.986h.398c1.092 0 1.986.894 1.986 1.986a1.992 1.992 0 0 1-1.986 1.986zm9.135 0h-.397a1.992 1.992 0 0 1-1.986-1.986c0-1.092.893-1.986 1.986-1.986h.397c1.092 0 1.986.894 1.986 1.986s-.794 1.986-1.986 1.986z" mask="url(#b)"/>
        <g mask="url(#b)">
            <g transform="translate(258.85 304.843)">
                <circle cx="24.626" cy="30.186" r="19.562" fill="url(#c)" fill-rule="nonzero"/>
                <path stroke="#1791FF" stroke-linecap="round" stroke-width="4" d="M11.519 51.039c2.085 1.29 4.369 2.284 6.851 2.979 2.482.596 4.965.894 7.348.794M32.867 53.422c5.164-1.787 9.632-5.362 12.611-10.029M7.15 12.81C3.574 16.383 1.091 21.05.297 26.511c-.894 5.76.397 11.42 3.078 16.186M24.626.397c0 2.681-1.887 5.064-4.568 5.56a27.913 27.913 0 0 0-5.56 1.788M48.954 34.953c1.49-7.745-.695-16.086-6.753-22.144a24.2 24.2 0 0 0-7.645-5.163"/>
            </g>
        </g>
        <g mask="url(#b)">
            <g transform="translate(258.85 43.69)">
                <circle cx="24.824" cy="25.023" r="19.562" fill="url(#d)" fill-rule="nonzero"/>
                <path stroke="#1791FF" stroke-linecap="round" stroke-width="4" d="M37.932 4.071c-2.086-1.29-4.37-2.284-6.852-2.979C28.598.496 26.115.2 23.732.298M16.682 1.787C11.519 3.575 7.05 7.15 4.072 11.817M42.4 42.3c3.575-3.574 6.057-8.241 6.852-13.702.893-5.76-.398-11.42-3.079-16.186M24.824 54.713c0-2.681 1.887-5.064 4.568-5.56a27.913 27.913 0 0 0 5.56-1.788M.596 20.257c-1.49 7.745.695 16.086 6.752 22.143a24.2 24.2 0 0 0 7.646 5.164"/>
            </g>
        </g>
        <path fill="#B3B3B3" fill-rule="nonzero" d="M283.675 144.478a1.992 1.992 0 0 1-1.986-1.986v-.397c0-1.093.893-1.986 1.986-1.986 1.092 0 1.986.893 1.986 1.986v.397a1.992 1.992 0 0 1-1.986 1.986zm0-9.136a1.992 1.992 0 0 1-1.986-1.985v-.398c0-1.092.893-1.986 1.986-1.986 1.092 0 1.986.894 1.986 1.986v.398a1.992 1.992 0 0 1-1.986 1.985zm0-9.234a1.992 1.992 0 0 1-1.986-1.986v-.397c0-1.093.893-1.986 1.986-1.986 1.092 0 1.986.893 1.986 1.986v.397a1.992 1.992 0 0 1-1.986 1.986zm0-9.136a1.992 1.992 0 0 1-1.986-1.985v-.398c0-1.092.893-1.986 1.986-1.986 1.092 0 1.986.894 1.986 1.986v.398a1.992 1.992 0 0 1-1.986 1.985zm0-9.234a1.992 1.992 0 0 1-1.986-1.986v-.397c0-1.093.893-1.986 1.986-1.986 1.092 0 1.986.893 1.986 1.986v.397a1.992 1.992 0 0 1-1.986 1.986z" mask="url(#b)"/>
        <path stroke="#56D695" stroke-linecap="round" stroke-width="7" d="M260.936 168.905c4.369-3.177 9.433-5.461 14.894-6.653 4.568-.993 7.845-5.163 7.845-9.83M234.522 201.971c4.866 0 9.235-3.376 10.228-8.142 1.192-5.66 3.476-10.824 6.752-15.391M283.675 252.017c0-4.667-3.277-8.54-7.745-9.632a48.783 48.783 0 0 1-5.065-1.49" mask="url(#b)"/>
        <path fill="#B3B3B3" fill-rule="nonzero" d="M283.675 299.978a1.992 1.992 0 0 1-1.986-1.986v-.397c0-1.093.893-1.986 1.986-1.986 1.092 0 1.986.893 1.986 1.986v.397a1.992 1.992 0 0 1-1.986 1.986zm0-9.235a1.992 1.992 0 0 1-1.986-1.986v-.397c0-1.092.893-1.986 1.986-1.986 1.092 0 1.986.894 1.986 1.986v.397a1.992 1.992 0 0 1-1.986 1.986zm0-9.135a1.992 1.992 0 0 1-1.986-1.986v-.397c0-1.093.893-1.986 1.986-1.986 1.092 0 1.986.893 1.986 1.986v.397a1.992 1.992 0 0 1-1.986 1.986zm0-9.235a1.992 1.992 0 0 1-1.986-1.986v-.397c0-1.092.893-1.986 1.986-1.986 1.092 0 1.986.894 1.986 1.986v.397a1.992 1.992 0 0 1-1.986 1.986zm0-9.135a1.992 1.992 0 0 1-1.986-1.986v-.397c0-1.093.893-1.986 1.986-1.986 1.092 0 1.986.893 1.986 1.986v.397a1.992 1.992 0 0 1-1.986 1.986z" mask="url(#b)"/>
        <g fill="#FFF" fill-rule="nonzero" mask="url(#b)">
            <path d="M302.84 189.46v17.277c0 .596-.497 1.093-1.093 1.093h-3.078v-12.214c0-.894-.695-1.589-1.59-1.589h-25.42v-4.667c0-.595.497-1.092 1.093-1.092h28.896c.695.1 1.191.596 1.191 1.192z"/>
            <path d="M296.881 203.56v10.823c0 .596-.496 1.093-1.092 1.093h-28.995a1.102 1.102 0 0 1-1.092-1.093V203.56h31.18zM296.881 197.106v2.283h-31.18v-2.283c0-.596.497-1.093 1.093-1.093h28.896c.695 0 1.191.497 1.191 1.093z"/>
        </g>
        <path stroke="#56D695" stroke-linecap="round" stroke-width="7" d="M305.222 236.725c-3.078 1.887-6.454 3.277-9.93 4.27M296.484 163.245c12.81 3.972 22.839 14.1 26.711 26.91" mask="url(#b)"/>
        <g stroke="#FFF" stroke-linecap="round" stroke-linejoin="round" stroke-width=".59" mask="url(#b)">
            <path d="M294.498 64.444h-21.547v-1.29l10.724-6.257 10.823 6.256zM275.036 65.735h2.284v9.036h-2.284zM280.1 65.735h2.284v9.036H280.1zM285.164 65.735h2.284v9.036h-2.284zM290.129 65.735h2.284v9.036h-2.284z"/>
            <path d="M273.447 74.77h20.555v1.39h-20.555zM273.447 64.445h20.555v1.39h-20.555zM272.553 76.162h22.441v1.39h-22.441z"/>
        </g>
        <g mask="url(#b)" opacity=".66">
            <g transform="translate(108.911 43.69)">
                <circle cx="25.222" cy="25.023" r="19.562" fill="url(#e)" fill-rule="nonzero"/>
                <path stroke="#1791FF" stroke-linecap="round" stroke-width="4" d="M38.329 4.071c-2.085-1.29-4.37-2.284-6.852-2.979C28.995.496 26.512.2 24.13.298M16.98 1.787C11.816 3.575 7.348 7.15 4.37 11.817M42.698 42.3c3.575-3.574 6.057-8.241 6.851-13.702.894-5.76-.397-11.42-3.078-16.186M25.222 54.713c0-2.681 1.886-5.064 4.567-5.56a27.913 27.913 0 0 0 5.56-1.788M.894 20.257c-1.49 7.745.695 16.086 6.752 22.143a24.2 24.2 0 0 0 7.646 5.164"/>
            </g>
            <g stroke="#FFF" stroke-linecap="round" stroke-linejoin="round" stroke-width=".59">
                <path d="M144.857 64.444h-21.548v-1.29l10.824-6.257 10.724 6.256zM125.395 65.735h2.284v9.036h-2.284zM130.459 65.735h2.284v9.036h-2.284zM135.523 65.735h2.284v9.036h-2.284zM140.587 65.735h2.284v9.036h-2.284z"/>
                <path d="M123.806 74.77h20.555v1.39h-20.555zM123.806 64.445h20.555v1.39h-20.555zM122.912 76.162h22.44v1.39h-22.44z"/>
            </g>
        </g>
        <g stroke="#FFF" stroke-linecap="round" stroke-linejoin="round" stroke-width=".59" mask="url(#b)">
            <path d="M294.498 331.157h-21.547v-1.29l10.724-6.256 10.823 6.255zM275.036 332.448h2.284v9.036h-2.284zM280.1 332.448h2.284v9.036H280.1zM285.164 332.448h2.284v9.036h-2.284zM290.129 332.448h2.284v9.036h-2.284zM273.447 341.484h20.555v1.39h-20.555z"/>
            <path d="M273.447 331.157h20.555v1.39h-20.555zM272.553 342.874h22.441v1.39h-22.441z"/>
        </g>
        <g mask="url(#b)" opacity=".66">
            <g transform="translate(407.797 304.843)">
                <circle cx="25.023" cy="30.186" r="19.562" fill="url(#f)" fill-rule="nonzero"/>
                <path stroke="#1791FF" stroke-linecap="round" stroke-width="4" d="M11.916 51.039c2.085 1.29 4.369 2.284 6.851 2.979 2.483.596 4.965.894 7.348.794M33.165 53.422c5.164-1.787 9.632-5.362 12.611-10.029M7.447 12.81C3.873 16.383 1.39 21.05.596 26.511c-.894 5.76.397 11.42 3.078 16.186M25.023.397c0 2.681-1.887 5.064-4.568 5.56a27.913 27.913 0 0 0-5.56 1.788M49.252 34.953c1.489-7.745-.696-16.086-6.753-22.144a24.2 24.2 0 0 0-7.646-5.163"/>
            </g>
        </g>
        <g stroke="#FFF" stroke-linecap="round" stroke-linejoin="round" stroke-width=".59" mask="url(#b)" opacity=".66">
            <path d="M443.842 331.157h-21.548v-1.29l10.724-6.256 10.824 6.255zM424.38 332.448h2.283v9.036h-2.284zM429.344 332.448h2.284v9.036h-2.284zM434.408 332.448h2.284v9.036h-2.284zM439.472 332.448h2.284v9.036h-2.284zM422.79 341.484h20.555v1.39H422.79z"/>
            <path d="M422.79 331.157h20.555v1.39H422.79zM421.797 342.874h22.441v1.39h-22.44z"/>
        </g>
        <circle cx="134.828" cy="201.971" r="32.073" fill="#56D695" fill-rule="nonzero" mask="url(#b)" opacity=".66"/>
        <path stroke="#56D695" stroke-linecap="round" stroke-width="7" d="M187.058 201.773c-6.057 0-11.518 4.07-13.008 9.93-1.787 7.248-5.56 13.702-10.525 18.766M107.918 232.356c-5.362-4.766-9.532-11.022-11.816-17.973" mask="url(#b)" opacity=".66"/>
        <g fill="url(#g)" fill-rule="nonzero" mask="url(#b)" opacity=".2">
            <path d="M134.033 144.478a1.992 1.992 0 0 1-1.986-1.986v-.397c0-1.093.894-1.986 1.986-1.986 1.093 0 1.986.893 1.986 1.986v.397a1.992 1.992 0 0 1-1.986 1.986zm0-9.136a1.992 1.992 0 0 1-1.986-1.985v-.398c0-1.092.894-1.986 1.986-1.986 1.093 0 1.986.894 1.986 1.986v.398a1.992 1.992 0 0 1-1.986 1.985zm0-9.234a1.992 1.992 0 0 1-1.986-1.986v-.397c0-1.093.894-1.986 1.986-1.986 1.093 0 1.986.893 1.986 1.986v.397a1.992 1.992 0 0 1-1.986 1.986zm0-9.136a1.992 1.992 0 0 1-1.986-1.985v-.398c0-1.092.894-1.986 1.986-1.986 1.093 0 1.986.894 1.986 1.986v.398a1.992 1.992 0 0 1-1.986 1.985zm0-9.234a1.992 1.992 0 0 1-1.986-1.986v-.397c0-1.093.894-1.986 1.986-1.986 1.093 0 1.986.893 1.986 1.986v.397a1.992 1.992 0 0 1-1.986 1.986z"/>
        </g>
        <path stroke="#56D695" stroke-linecap="round" stroke-width="7" d="M111.294 168.905c4.37-3.177 9.434-5.461 14.895-6.653 4.568-.993 7.844-5.163 7.844-9.83M84.98 201.971c4.866 0 9.235-3.376 10.228-8.142 1.192-5.66 3.475-10.824 6.752-15.391M134.033 252.017c0-4.667-3.276-8.54-7.745-9.632a48.783 48.783 0 0 1-5.064-1.49" mask="url(#b)" opacity=".66"/>
        <g fill="url(#h)" fill-rule="nonzero" mask="url(#b)" opacity=".2">
            <path d="M134.033 299.978a1.992 1.992 0 0 1-1.986-1.986v-.397c0-1.093.894-1.986 1.986-1.986 1.093 0 1.986.893 1.986 1.986v.397a1.992 1.992 0 0 1-1.986 1.986zm0-9.235a1.992 1.992 0 0 1-1.986-1.986v-.397c0-1.092.894-1.986 1.986-1.986 1.093 0 1.986.894 1.986 1.986v.397a1.992 1.992 0 0 1-1.986 1.986zm0-9.135a1.992 1.992 0 0 1-1.986-1.986v-.397c0-1.093.894-1.986 1.986-1.986 1.093 0 1.986.893 1.986 1.986v.397a1.992 1.992 0 0 1-1.986 1.986zm0-9.235a1.992 1.992 0 0 1-1.986-1.986v-.397c0-1.092.894-1.986 1.986-1.986 1.093 0 1.986.894 1.986 1.986v.397a1.992 1.992 0 0 1-1.986 1.986zm0-9.135a1.992 1.992 0 0 1-1.986-1.986v-.397c0-1.093.894-1.986 1.986-1.986 1.093 0 1.986.893 1.986 1.986v.397a1.992 1.992 0 0 1-1.986 1.986z"/>
        </g>
        <g fill="url(#i)" fill-rule="nonzero" mask="url(#b)" opacity=".2">
            <path d="M432.82 144.478a1.992 1.992 0 0 1-1.986-1.986v-.397c0-1.093.893-1.986 1.986-1.986 1.092 0 1.986.893 1.986 1.986v.397a1.992 1.992 0 0 1-1.986 1.986zm0-9.136a1.992 1.992 0 0 1-1.986-1.985v-.398c0-1.092.893-1.986 1.986-1.986 1.092 0 1.986.894 1.986 1.986v.398a1.992 1.992 0 0 1-1.986 1.985zm0-9.234a1.992 1.992 0 0 1-1.986-1.986v-.397c0-1.093.893-1.986 1.986-1.986 1.092 0 1.986.893 1.986 1.986v.397a1.992 1.992 0 0 1-1.986 1.986zm0-9.136a1.992 1.992 0 0 1-1.986-1.985v-.398c0-1.092.893-1.986 1.986-1.986 1.092 0 1.986.894 1.986 1.986v.398a1.992 1.992 0 0 1-1.986 1.985zm0-9.234a1.992 1.992 0 0 1-1.986-1.986v-.397c0-1.093.893-1.986 1.986-1.986 1.092 0 1.986.893 1.986 1.986v.397a1.992 1.992 0 0 1-1.986 1.986z"/>
        </g>
        <g fill="url(#j)" fill-rule="nonzero" mask="url(#b)" opacity=".2">
            <path d="M432.82 299.978a1.992 1.992 0 0 1-1.986-1.986v-.397c0-1.093.893-1.986 1.986-1.986 1.092 0 1.986.893 1.986 1.986v.397a1.992 1.992 0 0 1-1.986 1.986zm0-9.235a1.992 1.992 0 0 1-1.986-1.986v-.397c0-1.092.893-1.986 1.986-1.986 1.092 0 1.986.894 1.986 1.986v.397a1.992 1.992 0 0 1-1.986 1.986zm0-9.135a1.992 1.992 0 0 1-1.986-1.986v-.397c0-1.093.893-1.986 1.986-1.986 1.092 0 1.986.893 1.986 1.986v.397a1.992 1.992 0 0 1-1.986 1.986zm0-9.235a1.992 1.992 0 0 1-1.986-1.986v-.397c0-1.092.893-1.986 1.986-1.986 1.092 0 1.986.894 1.986 1.986v.397a1.992 1.992 0 0 1-1.986 1.986zm0-9.135a1.992 1.992 0 0 1-1.986-1.986v-.397c0-1.093.893-1.986 1.986-1.986 1.092 0 1.986.893 1.986 1.986v.397a1.992 1.992 0 0 1-1.986 1.986z"/>
        </g>
        <g fill="#FFF" fill-rule="nonzero" mask="url(#b)" opacity=".66">
            <path d="M153.297 189.46v17.277c0 .596-.496 1.093-1.092 1.093h-3.078v-12.214c0-.894-.695-1.589-1.59-1.589h-25.42v-4.667c0-.595.497-1.092 1.093-1.092h28.896c.695.1 1.191.596 1.191 1.192z"/>
            <path d="M147.24 203.56v10.823c0 .596-.497 1.093-1.092 1.093h-28.896a1.102 1.102 0 0 1-1.092-1.093V203.56h31.08zM147.24 197.106v2.283h-31.18v-2.283c0-.596.497-1.093 1.093-1.093h28.895c.695 0 1.192.497 1.192 1.093z"/>
        </g>
        <path stroke="#56D695" stroke-linecap="round" stroke-width="7" d="M155.581 236.725c-3.078 1.887-6.454 3.277-9.93 4.27M146.843 163.245c12.81 3.972 22.838 14.1 26.71 26.91" mask="url(#b)" opacity=".66"/>
        <circle cx="433.614" cy="201.971" r="32.073" fill="#56D695" fill-rule="nonzero" mask="url(#b)" opacity=".66"/>
        <path stroke="#56D695" stroke-linecap="round" stroke-width="7" d="M485.844 201.773c-6.057 0-11.518 4.07-13.008 9.93-1.787 7.248-5.56 13.702-10.525 18.766M406.704 232.356c-5.362-4.766-9.532-11.022-11.816-17.973M410.08 168.905c4.37-3.177 9.434-5.461 14.895-6.653 4.568-.993 7.845-5.163 7.845-9.83M383.767 201.971c4.865 0 9.234-3.376 10.227-8.142 1.192-5.66 3.476-10.824 6.752-15.391M432.82 252.017c0-4.667-3.277-8.54-7.746-9.632a48.783 48.783 0 0 1-5.064-1.49" mask="url(#b)" opacity=".66"/>
        <g fill="#FFF" fill-rule="nonzero" mask="url(#b)" opacity=".66">
            <path d="M452.083 189.46v17.277c0 .596-.496 1.093-1.092 1.093h-3.078v-12.214c0-.894-.695-1.589-1.589-1.589h-25.42v-4.667c0-.595.496-1.092 1.092-1.092h28.896c.695.1 1.191.596 1.191 1.192z"/>
            <path d="M446.026 203.56v10.823c0 .596-.496 1.093-1.092 1.093h-28.896a1.102 1.102 0 0 1-1.092-1.093V203.56h31.08zM446.026 197.106v2.283h-31.18v-2.283c0-.596.497-1.093 1.093-1.093h28.896c.695 0 1.191.497 1.191 1.093z"/>
        </g>
        <path stroke="#56D695" stroke-linecap="round" stroke-width="7" d="M454.367 236.725c-3.078 1.887-6.454 3.277-9.93 4.27M445.629 163.245c12.81 3.972 22.838 14.1 26.711 26.91" mask="url(#b)" opacity=".66"/>
        <g fill="#B3B3B3" fill-rule="nonzero" mask="url(#b)" opacity=".2">
            <path d="M523.478 203.858h-.397a1.992 1.992 0 0 1-1.986-1.986c0-1.092.894-1.986 1.986-1.986h.397c1.092 0 1.986.894 1.986 1.986a1.992 1.992 0 0 1-1.986 1.986zm-9.234 0h-.398a1.992 1.992 0 0 1-1.986-1.986c0-1.092.894-1.986 1.986-1.986h.398c1.092 0 1.985.894 1.985 1.986a1.992 1.992 0 0 1-1.985 1.986zm-9.136 0h-.397a1.992 1.992 0 0 1-1.986-1.986c0-1.092.894-1.986 1.986-1.986h.397c1.092 0 1.986.894 1.986 1.986a1.992 1.992 0 0 1-1.986 1.986zm-9.235-.1h-.397a1.992 1.992 0 0 1-1.986-1.985c0-1.093.894-1.986 1.986-1.986h.397c1.093 0 1.986.893 1.986 1.986a1.992 1.992 0 0 1-1.986 1.985z"/>
        </g>
        <g fill="#B3B3B3" fill-rule="nonzero" mask="url(#b)" opacity=".2">
            <path d="M76.937 203.858h-.397a1.992 1.992 0 0 1-1.986-1.986c0-1.092.894-1.986 1.986-1.986h.397c1.093 0 1.986.894 1.986 1.986a1.992 1.992 0 0 1-1.986 1.986zm-9.135 0h-.397a1.992 1.992 0 0 1-1.986-1.986c0-1.092.893-1.986 1.986-1.986h.397c1.092 0 1.986.894 1.986 1.986a1.992 1.992 0 0 1-1.986 1.986zm-9.235 0h-.397a1.992 1.992 0 0 1-1.986-1.986c0-1.092.894-1.986 1.986-1.986h.397c1.093 0 1.986.894 1.986 1.986a1.992 1.992 0 0 1-1.986 1.986zm-9.135-.1h-.397a1.992 1.992 0 0 1-1.986-1.985c0-1.093.893-1.986 1.986-1.986h.397c1.092 0 1.986.893 1.986 1.986a1.992 1.992 0 0 1-1.986 1.985z"/>
        </g>
        <circle cx="582.362" cy="201.971" r="32.073" fill="#56D695" fill-rule="nonzero" mask="url(#b)" opacity=".2"/>
        <path stroke="#56D695" stroke-linecap="round" stroke-width="7" d="M555.452 232.356c-5.362-4.766-9.533-11.022-11.816-17.973M558.828 168.905c4.37-3.177 9.433-5.461 14.895-6.653 4.567-.993 7.844-5.163 7.844-9.83M532.415 201.971c4.866 0 9.235-3.376 10.228-8.142 1.191-5.66 3.475-10.824 6.752-15.391" mask="url(#b)" opacity=".2"/>
        <g fill="#FFF" fill-rule="nonzero" mask="url(#b)" opacity=".2">
            <path d="M594.674 203.56v10.823c0 .596-.496 1.093-1.092 1.093h-28.895a1.102 1.102 0 0 1-1.093-1.093V203.56h31.08zM594.674 197.106v2.283h-31.179v-2.283c0-.596.497-1.093 1.092-1.093h28.896c.695 0 1.191.497 1.191 1.093z"/>
        </g>
        <circle cx="-12.331" cy="201.971" r="32.073" fill="#56D695" fill-rule="nonzero" mask="url(#b)" opacity=".2"/>
        <path stroke="#56D695" stroke-linecap="round" stroke-width="7" d="M39.9 201.773c-6.058 0-11.52 4.07-13.009 9.93-1.787 7.248-5.56 13.702-10.525 18.766" mask="url(#b)" opacity=".2"/>
        <g fill="#FFF" fill-rule="nonzero" mask="url(#b)" opacity=".2">
            <path d="M6.138 189.46v17.277c0 .596-.496 1.093-1.092 1.093H1.868v-12.214c0-.894-.695-1.589-1.588-1.589h-25.42v-4.667c0-.595.496-1.092 1.092-1.092H5.046c.596.1 1.092.596 1.092 1.192z"/>
        </g>
        <path stroke="#56D695" stroke-linecap="round" stroke-width="7" d="M8.422 236.725c-3.078 1.887-6.454 3.277-9.93 4.27M-.316 163.245c12.81 3.972 22.838 14.1 26.71 26.91" mask="url(#b)" opacity=".2"/>
    </g>
</svg>
