<svg id="Layer_1" data-name="Layer 1" xmlns="http://www.w3.org/2000/svg" xmlns:xlink="http://www.w3.org/1999/xlink" viewBox="0 0 282 282"><defs><style>.cls-1{fill:#f7f7f7;}.cls-2{fill:url(#linear-gradient);}.cls-3{fill:#1791ff;}.cls-4{fill:#fff;}</style><linearGradient id="linear-gradient" x1="99.13" y1="137.39" x2="183" y2="137.39" gradientUnits="userSpaceOnUse"><stop offset="0" stop-color="#1791ff"/><stop offset="1" stop-color="#1791ff"/></linearGradient></defs><title>Artboard 1 copy 6</title><rect class="cls-1" x="0.06" width="282" height="282" rx="16" ry="16"/><circle class="cls-2" cx="141.06" cy="137.39" r="41.93"/><path class="cls-3" d="M141.08,195.34a58,58,0,0,1-51.34-31.08,4.91,4.91,0,1,1,8.71-4.55,48.14,48.14,0,0,0,69,17.94,4.91,4.91,0,1,1,5.38,8.22A57.85,57.85,0,0,1,141.08,195.34Z"/><path class="cls-3" d="M185.06,171.87a4.84,4.84,0,0,1-2.73-.84,4.9,4.9,0,0,1-1.34-6.82,48,48,0,0,0,8.06-23.42,4.92,4.92,0,1,1,9.81.69,58,58,0,0,1-9.71,28.22A4.93,4.93,0,0,1,185.06,171.87Z"/><path class="cls-3" d="M192,127.56a4.91,4.91,0,0,1-4.72-3.55c-.42-1.44-.91-2.88-1.46-4.28a4.92,4.92,0,0,1,9.15-3.6c.66,1.69,1.25,3.42,1.75,5.15a4.91,4.91,0,0,1-3.36,6.08A4.57,4.57,0,0,1,192,127.56Z"/><path class="cls-3" d="M190.39,122.85a4.92,4.92,0,0,1-4.58-3.12c-.23-.59-.47-1.17-.73-1.75a4.91,4.91,0,0,1,9-4c.31.69.6,1.4.88,2.1a4.93,4.93,0,0,1-2.77,6.38A5,5,0,0,1,190.39,122.85Z"/><path class="cls-3" d="M179.64,105.92a4.93,4.93,0,0,1-3.58-1.54,48.14,48.14,0,0,0-64.44-5,4.91,4.91,0,1,1-6-7.77,58.07,58.07,0,0,1,77.6,6.06,4.93,4.93,0,0,1-3.57,8.3Z"/><path class="cls-3" d="M88,142.38a4.92,4.92,0,0,1-4.91-4.9,57.81,57.81,0,0,1,7.51-28.61,4.91,4.91,0,1,1,8.55,4.84A48,48,0,0,0,93,137.46a4.91,4.91,0,0,1-4.9,4.92Z"/><path class="cls-4" d="M151.69,128.6h-1.46s0,0,0-.06v-4.48a9.18,9.18,0,1,0-18.35,0v4.48s0,0,0,.06h-1.46a6.32,6.32,0,0,0-6.32,6.32v16.17a6.31,6.31,0,0,0,6.32,6.31h21.25a6.31,6.31,0,0,0,6.32-6.31V134.92A6.32,6.32,0,0,0,151.69,128.6Zm-17.8-.06v-4.48a7.18,7.18,0,1,1,14.35,0v4.48s0,0,0,.06H133.87S133.89,128.56,133.89,128.54Zm10.44,14.85a1.44,1.44,0,0,0-.39,1V148a2,2,0,0,1-2,2h-1.8a2,2,0,0,1-2-2v-3.59a1.46,1.46,0,0,0-.4-1,4.47,4.47,0,1,1,6.54,0Z"/></svg>