<?xml version="1.0" encoding="UTF-8"?>
<svg width="128px" height="128px" viewBox="0 0 128 128" version="1.1" xmlns="http://www.w3.org/2000/svg" xmlns:xlink="http://www.w3.org/1999/xlink">
    <!-- Generator: Sketch 49.1 (51147) - http://www.bohemiancoding.com/sketch -->
    <title>logo_Visa</title>
    <desc>Created with Sketch.</desc>
    <defs></defs>
    <g id="Page-1" stroke="none" stroke-width="1" fill="none" fill-rule="evenodd">
        <g id="Platform" transform="translate(-520.000000, -2531.000000)">
            <g id="Logo-Grid" transform="translate(229.000000, 2471.000000)">
                <g id="logo_Visa" transform="translate(291.000000, 60.000000)">
                    <rect fill="#FAFAFA" x="0" y="0" width="128" height="128" rx="30"></rect>
                    <g stroke-width="1" transform="translate(24.000000, 52.000000)" fill="#1A1F71" id="Shape">
                        <path d="M52.3495419,0 C45.9510887,0 41.4378941,3.39641372 41.4093296,8.27697462 C41.3807651,11.8731774 44.6371207,13.8996091 47.0651051,15.0983434 C49.6073477,16.3256189 50.4357188,17.0962338 50.4357188,18.2093442 C50.4071543,19.8932804 48.4076377,20.6638953 46.5509437,20.6638953 C43.9515721,20.6638953 42.580475,20.2928585 40.4667004,19.3509958 L39.6383292,18.9514178 L38.7242645,24.5740522 C40.2381842,25.2590432 43.0375074,25.8869517 45.9510887,25.915493 C52.7494452,25.915493 57.1769462,22.5476205 57.2340753,17.3531054 C57.2626398,14.4989762 55.5202039,12.3298381 51.7782514,10.5317367 C49.5216541,9.36154371 48.1219925,8.59092883 48.150557,7.42073587 C48.150557,6.39324936 49.3217024,5.28013898 51.863945,5.28013898 C53.9777197,5.25159769 55.5202039,5.73679965 56.7199139,6.25054291 L57.2912043,6.53595582 L58.1767045,1.11311038 C56.8627365,0.542284544 54.8632199,0 52.3495419,0 Z M32.2401178,0.428119377 L28.1839555,25.4873736 L34.6681022,25.4873736 L38.7242645,0.428119377 L32.2401178,0.428119377 Z M22.7566962,0.456660669 L16.4153721,17.5243532 L15.7298236,14.0708569 C14.1587748,9.81820438 10.7310321,5.33722157 6.76056338,3.53912018 L12.5591615,25.4588323 L19.414647,25.4588323 L29.6121817,0.456660669 L22.7566962,0.456660669 Z M69.7453363,0.456660669 C68.2028521,0.456660669 67.0317066,0.884780046 66.3461581,2.54017497 L56.7199139,25.5159149 L63.5182703,25.5159149 C63.5182703,25.5159149 64.6322867,22.4334554 64.8893674,21.7484644 C65.632045,21.7484644 72.2304498,21.7484644 73.173079,21.7484644 C73.3730307,22.6332444 73.9728857,25.5159149 73.9728857,25.5159149 L80,25.5159149 L74.7726923,0.456660669 L69.7453363,0.456660669 Z M70.2023687,7.22094683 L70.6308365,9.390085 C70.6308365,9.390085 71.8876755,15.3837563 72.1447562,16.6110318 L66.7746259,16.6110318 C67.3173518,15.1839672 69.345433,9.61841534 69.345433,9.61841534 C69.3168684,9.67549792 69.8881589,8.16280946 70.2023687,7.22094683 Z" fill-rule="nonzero"></path>
                        <path d="M10.5546735,0 L0.057362356,0 L0,0.425192665 C8.14545455,2.49446364 13.537516,7.54008327 15.7746479,13.5211268 L13.5088348,2.06927097 C13.1072983,0.510231199 11.9600512,0.0283461777 10.5546735,0" fill-rule="nonzero"></path>
                    </g>
                </g>
            </g>
        </g>
    </g>
</svg>