<svg xmlns="http://www.w3.org/2000/svg" xmlns:xlink="http://www.w3.org/1999/xlink" width="128" height="128" viewBox="0 0 128 128">
    <defs>
        <path id="a" d="M0 1.802h48.194V50H0z"/>
    </defs>
    <g fill="none" fill-rule="evenodd">
        <rect width="128" height="128" fill="#FAFAFA" rx="30"/>
        <g transform="translate(39 27.198)">
            <mask id="b" fill="#fff">
                <use xlink:href="#a"/>
            </mask>
            <path fill="#FFF" d="M24.094 1.801C10.808 1.801 0 12.613 0 25.903c0 13.284 10.808 24.098 24.094 24.098 13.288 0 24.1-10.814 24.1-24.098 0-13.29-10.812-24.102-24.1-24.102" mask="url(#b)"/>
        </g>
        <path fill="#FF9800" d="M67.647 54.866c-6.662-1.038-12.318-5.03-19.274-4.03-2.508.364-5.032 1.628-6.6 3.562-.636-6.908 2.696-14.598 9.25-19.034 5.93-4.01 15.168-4.758 21.834-1.248-.608 1.588-1.656 5.08-1.656 5.08l-7.222.004 5.818 4.284-2.186 6.87 5.86-4.114 5.784 4.15-2.098-6.896s2.346-1.596 3.458-2.472A19.234 19.234 0 0 1 84.137 50c-4.364 4.11-10.448 5.804-16.49 4.866zM79.3 39.192c-1.376-1.606-2.976-3.092-4.85-4.116.488 1.574 1.34 4.116 1.34 4.116h3.51z"/>
        <path fill="#0084C6" d="M84.37 53.872c-.009.972-.115 3.522-1.263 5.282-.524.808-1.46 1.638-2.182 2.138-3.008 2.124-6.886 3.54-11.79 3.55-6.752.008-16.062-2.224-20.198 4.168-2.058-1.716-3.792-4.118-4.976-6.432 2.458-3.996 6.28-5.106 10.25-5.124 5.518-.016 10.254 2.24 15.25 2.24 5.834.002 11.096-1.682 14.908-5.822m-28.348 19.29c9.106 3.312 19.7-.246 24.536-8.004-3.834 3.152-8.964 3.622-11.414 3.8-2.452.18-10.858-.522-13.122 4.204"/>
        <path fill="#000" d="M43.426 93.57l.132.251c.067.126.203.27.384.438h-2.905a.49.49 0 0 0 .248-.442c0-.166-.056-.272-.28-.835l-.136-.323-3.04.002-.132.318c-.181.38-.272.661-.272.838 0 .192.079.338.246.442h-2.41a1.67 1.67 0 0 0 .373-.455l.139-.282 2.722-6.514h2.168l2.763 6.562zm-5.003-2.336h1.848l-.927-2.21-.921 2.21zm52.214-4.224h-2.612s.187.16.243.302c.05.112.08.208.08.298v6.014a.793.793 0 0 1-.082.33.667.667 0 0 1-.24.304h5.858v-1.834c-.52.45-.534.411-1.52.411H90.31v-5.213a.6.6 0 0 1 .086-.31 1.53 1.53 0 0 1 .24-.302zm-21.238 0c.278.216.329.37.329.926v3.592l-2.596-4.518h-2.635a.637.637 0 0 1 .243.305c.065.15.07.17.087.308l.004 6.017c-.018.101-.04.208-.091.316a.66.66 0 0 1-.243.302h2.076a.683.683 0 0 1-.244-.302 1.043 1.043 0 0 1-.085-.316l.005-4.168 2.705 4.786h2.2v-6.322c0-.55.054-.719.325-.926h-2.08zm-20.15-.002h-5.862v1.805c.392-.393.876-.39 1.663-.389h.29v4.907c0 .547-.06.718-.331.927h2.616c-.27-.209-.331-.38-.331-.927v-4.907h.316c.86-.002 1.2.003 1.639.39v-1.806zm-16.651 5.237L30.94 88.29c-.228-.569-.28-.677-.28-.838 0-.197.08-.342.243-.452H28c.182.178.315.324.385.444l.134.251 2.76 6.563h2.17l2.723-6.514.135-.279c.108-.187.2-.293.374-.457h-2.406a.488.488 0 0 1 .243.444c0 .175-.091.46-.272.838l-1.648 3.955zm24.139-5.235c.258.184.326.362.326.613v6.024c0 .4-.123.462-.308.61h6.325l.005-1.829c-.367.468-.647.403-1.397.398h-2.653l.005-1.533h2.034c.444 0 1.194-.326 1.194-1.555 0 .021-.272.111-.964.116H59.04l-.005-1.43h2.588s1.056-.062 1.3.348v-1.754l-6.186-.008zm18.557 4.544h2.025c.442 0 1.198-.32 1.198-1.56 0 .027-.276.113-.966.117h-2.257v-1.677h2.577s.984-.057 1.226.344v-1.756l-6.092-.006c.237.198.314.277.314.617l-.002 6.007c.002.238-.14.468-.321.618h2.61a.707.707 0 0 1-.312-.618v-2.086zm-19.417-4.546h-5.864v1.805c.392-.393.877-.39 1.662-.389h.29v4.907c0 .547-.06.718-.327.927h2.61c-.265-.209-.326-.38-.326-.927v-4.907h.313c.862-.002 1.203.003 1.642.39v-1.806zm30.825 6.562l.13.251c.07.126.202.27.387.438h-2.903a.5.5 0 0 0 .245-.442c0-.166-.06-.272-.28-.835l-.137-.323-3.04.002-.132.318c-.181.38-.271.661-.271.838 0 .192.079.338.245.442h-2.41c.175-.162.272-.269.374-.455l.136-.282 2.72-6.514h2.175l2.76 6.562zm-5.005-2.336h1.846l-.928-2.209-.918 2.21zm15.71-4.224h-2.61c.002 0 .185.16.249.302a.777.777 0 0 1 .078.298v6.014a.89.89 0 0 1-.078.33.731.731 0 0 1-.247.304h5.859v-1.834c-.52.45-.535.411-1.524.411h-2.05v-5.213c0-.107.02-.198.087-.31.07-.138.237-.302.237-.302z"/>
    </g>
</svg>
