<svg xmlns="http://www.w3.org/2000/svg" xmlns:xlink="http://www.w3.org/1999/xlink" viewBox="0 0 282 282"><defs><style>.cls-1{fill:none;}.cls-2{fill:#f7f7f7;}.cls-3{clip-path:url(#clip-path);}.cls-4{fill:#56d695;}.cls-5{fill:#fff;}.cls-6{opacity:0.5;}.cls-7{fill:#5fd8a1;}</style><clipPath id="clip-path"><rect class="cls-1" y="0.05" width="282" height="282"/></clipPath></defs><title>Artboard 1</title><g id="Layer_2" data-name="Layer 2"><rect class="cls-2" x="0.06" width="282" height="282" rx="16" ry="16"/><g class="cls-3"><circle class="cls-4" cx="141.06" cy="137.39" r="41.93"/><path class="cls-4" d="M141.08,195.34a58,58,0,0,1-51.34-31.08,4.91,4.91,0,1,1,8.71-4.55,48.14,48.14,0,0,0,69,17.94,4.91,4.91,0,1,1,5.38,8.22A57.85,57.85,0,0,1,141.08,195.34Z"/><path class="cls-4" d="M185.06,171.87a4.84,4.84,0,0,1-2.73-.84,4.9,4.9,0,0,1-1.34-6.82,48,48,0,0,0,8.06-23.42,4.92,4.92,0,1,1,9.81.69,58,58,0,0,1-9.71,28.22A4.93,4.93,0,0,1,185.06,171.87Z"/><path class="cls-4" d="M192,127.56a4.91,4.91,0,0,1-4.72-3.55c-.42-1.44-.91-2.88-1.46-4.28a4.92,4.92,0,0,1,9.15-3.6c.66,1.69,1.25,3.42,1.75,5.15a4.94,4.94,0,0,1-4.72,6.28Z"/><path class="cls-4" d="M190.39,122.85a4.92,4.92,0,0,1-4.58-3.12c-.23-.59-.47-1.17-.73-1.75a4.91,4.91,0,1,1,9-4c.31.69.6,1.39.88,2.1a4.93,4.93,0,0,1-2.77,6.38A5,5,0,0,1,190.39,122.85Z"/><path class="cls-4" d="M179.64,105.92a4.93,4.93,0,0,1-3.58-1.54,48.14,48.14,0,0,0-64.44-5,4.91,4.91,0,1,1-6-7.77,58.07,58.07,0,0,1,77.6,6.06,4.93,4.93,0,0,1-3.57,8.3Z"/><path class="cls-4" d="M88,142.38a4.92,4.92,0,0,1-4.91-4.9,57.81,57.81,0,0,1,7.51-28.61,4.91,4.91,0,1,1,8.55,4.84A48,48,0,0,0,93,137.46a4.91,4.91,0,0,1-4.9,4.92Z"/><path class="cls-5" d="M155.18,137.39a3.18,3.18,0,0,1-3.18,3.17h-7.83v7.83a3.18,3.18,0,1,1-6.35,0v-7.83H130a3.18,3.18,0,0,1,0-6.35h7.83v-7.83a3.18,3.18,0,0,1,6.35,0v7.83H152A3.18,3.18,0,0,1,155.18,137.39Z"/><g class="cls-6"><path class="cls-1" d="M279,126.38v7.83h-7.83a3.18,3.18,0,1,0,0,6.35H279v7.83a3.17,3.17,0,0,0,3,3.16V123.22A3.17,3.17,0,0,0,279,126.38Z"/><path class="cls-7" d="M279,148.39v-7.83h-7.83a3.18,3.18,0,1,1,0-6.35H279v-7.83a3.17,3.17,0,0,1,3-3.16V95.46a41.93,41.93,0,0,0,0,83.85V151.55A3.17,3.17,0,0,1,279,148.39Z"/><path class="cls-4" d="M255.39,177.31a48.11,48.11,0,0,1-15.79-17.6,4.91,4.91,0,1,0-8.71,4.55A58,58,0,0,0,282,195.34V185.5A48,48,0,0,1,255.39,177.31Z"/><path class="cls-4" d="M246.76,91.56a4.91,4.91,0,1,0,6,7.77A48,48,0,0,1,282,89.27V79.44A57.79,57.79,0,0,0,246.76,91.56Z"/><path class="cls-4" d="M234.11,137.46a48.09,48.09,0,0,1,6.23-23.75,4.91,4.91,0,1,0-8.55-4.84,57.81,57.81,0,0,0-7.51,28.61,4.92,4.92,0,0,0,4.92,4.9h0A4.91,4.91,0,0,0,234.11,137.46Z"/></g><g class="cls-6"><path class="cls-1" d="M3,148.39v-7.83h7.83a3.18,3.18,0,1,0,0-6.35H3v-7.83a3.15,3.15,0,0,0-3-3.15v28.31A3.15,3.15,0,0,0,3,148.39Z"/><path class="cls-7" d="M34.71,160.77A41.91,41.91,0,0,0,23.3,102.59,41.72,41.72,0,0,0,.06,95.46v27.77a3.15,3.15,0,0,1,3,3.15v7.83h7.83a3.18,3.18,0,1,1,0,6.35H3v7.83a3.15,3.15,0,0,1-3,3.15v27.77A41.86,41.86,0,0,0,34.71,160.77Z"/><path class="cls-4" d="M31.64,185.87a4.91,4.91,0,0,0-5.38-8.22A48.15,48.15,0,0,1,.06,185.5v9.84A57.92,57.92,0,0,0,31.64,185.87Z"/><path class="cls-4" d="M53.15,136.23a4.93,4.93,0,0,0-5.25,4.56,48,48,0,0,1-8.06,23.42A4.91,4.91,0,1,0,48,169.7a58,58,0,0,0,9.72-28.22A4.92,4.92,0,0,0,53.15,136.23Z"/><path class="cls-4" d="M46.12,124a4.91,4.91,0,0,0,9.44-2.73c-.5-1.73-1.09-3.46-1.75-5.15a4.92,4.92,0,0,0-9.15,3.6C45.21,121.13,45.7,122.57,46.12,124Z"/><path class="cls-4" d="M26.74,97.46a48.42,48.42,0,0,1,8.17,6.92,4.92,4.92,0,0,0,7.15-6.76,57.67,57.67,0,0,0-9.84-8.31A57.9,57.9,0,0,0,.06,79.43v9.83A48.17,48.17,0,0,1,26.74,97.46Z"/></g></g></g></svg>