<svg xmlns="http://www.w3.org/2000/svg" xmlns:xlink="http://www.w3.org/1999/xlink" width="128" height="128" viewBox="0 0 128 128">
    <defs>
        <path id="a" d="M.484.118h38.022V51.19H.484z"/>
        <path id="c" d="M.424.947h12.132V10H.424z"/>
        <path id="e" d="M0 .542h12.758V11.89H0z"/>
    </defs>
    <g fill="none" fill-rule="evenodd">
        <rect width="128" height="128" fill="#FAFAFA" rx="30"/>
        <path fill="#F8971D" d="M86.022 56.472c-.037-.105-.08-.21-.12-.319-3.648 4.173-12.611 6.864-20.68 6.27-4.753-.353-13.55-2.812-17.986-5.53 4.686 4.491 10.18 7.905 16.39 9.748 7.39 2.196 15.262 2.048 19.704-.263 3.253-2.2 3.99-6.12 2.692-9.905"/>
        <g transform="translate(45 27.882)">
            <mask id="b" fill="#fff">
                <use xlink:href="#a"/>
            </mask>
            <path fill="#034EA2" d="M30.857 2.37c14.55 8.593 5.895 35.603-5.677 44.276C14.42 54.718 2.97 51 .484 43.558c2.164 3.223 6.473 4.398 10.295 3.114 10.623-4.259 16.098-23.51 16.807-30.197.475-5.753-.282-9.622-2.277-12.064-2.289-2.418-5.8-3.588-10.927-1.979 3.528-2.9 11.084-3.245 16.475-.063" mask="url(#b)"/>
        </g>
        <path fill="#ED1A3B" d="M83.995 65.996c.058-.036.116-.075.175-.114a6.811 6.811 0 0 0 .897-.682c.132-.12.258-.247.39-.375 5.651-5.741 6.852-21.7-7.083-29.271-4.966-2.693-16.493-6.462-27.995-.645-3.806 1.924-7.736 5.92-9.844 11.343 1.556-2.576 4.254-4.32 9.576-5.073 5.303-.668 12.614.157 19.766 2.68 4.621 1.703 8.351 3.8 11.268 6.18 2.408 2.067 3.96 4.03 4.757 6.114l.12.32c1.298 3.786.56 7.705-2.692 9.906-.005 0 .005-.005 0 0 .15-.084.301-.167.461-.26.022-.012.044-.024.065-.04l.14-.083"/>
        <path fill="#F8971D" d="M42.332 55.437c.266.428.869 1.144 1.268 1.598 2.79-6.568 18.096-10.842 22.608-10.784-10.137-3.264-20.079-1.708-24.072 1.757-1.455 1.617-1.908 4.043.196 7.43"/>
        <path fill="#4495D1" d="M72.18 70.337c-8.15-.457-20.02-3.602-28.425-13.126l-.157-.176c-.396-.455-1.001-1.172-1.267-1.598-2.104-3.386-1.652-5.812-.197-7.43l-.001.003a6.88 6.88 0 0 0-.95 1.006c-2.158 2.79-2.416 7.303-.942 12.09 3.199 10.398 17.212 16.649 28.588 14.932 7.27-1.096 11.817-5.187 13.712-6.856-4.113 1.17-7.16 1.33-10.36 1.155"/>
        <g transform="translate(46 91.882)">
            <mask id="d" fill="#fff">
                <use xlink:href="#c"/>
            </mask>
            <path fill="#ED1A3B" d="M6.492 7.908c-2.11 0-3.177-.819-3.177-2.434 0-1.615 1.066-2.434 3.177-2.434 2.106 0 3.177.82 3.177 2.434 0 1.615-1.07 2.434-3.177 2.434m0-6.96C2.637.947.424 2.597.424 5.473.424 8.348 2.637 10 6.492 10c3.854 0 6.064-1.652 6.064-4.526 0-2.876-2.21-4.527-6.064-4.527" mask="url(#d)"/>
        </g>
        <path fill="#ED1A3B" d="M59.343 93.039v1.945h3.649l-.002 5.993c0 .576.87.782 1.612.782.744 0 1.61-.204 1.61-.78v-5.995h3.658v-1.945H59.343M89.303 99.662c-.886 0-1.502-.145-1.837-.426-.433-.367-.485-.914-.498-1.336l.003-4.233c0-.556-.828-.755-1.536-.755-.717 0-1.55.199-1.55.753v4.099c0 1.567.5 2.666 1.5 3.26 1.236.716 3.479.694 5.646.669l2.689-.012.005-.394v-1.625h-4.422"/>
        <g transform="translate(35 89.882)">
            <mask id="f" fill="#fff">
                <use xlink:href="#e"/>
            </mask>
            <path fill="#ED1A3B" d="M4.394 9.145c0 1.53 1.29 2.563 3.463 2.746V2.668h4.9V.542H0v2.126h4.395v6.477" mask="url(#f)"/>
        </g>
        <path fill="#ED1A3B" d="M73.906 98.015a16.14 16.14 0 0 1 2.133-2.59c.804.791 1.531 1.68 2.126 2.59h-4.259zm8.72 3.68l-.073-.35c-.718-3.55-4.75-7.597-5.58-8.193-.269-.193-.555-.232-.934-.239-.383.007-.67.046-.942.24-.827.595-4.858 4.642-5.577 8.191l-.073.35h2.85l.055-.25c.11-.512.301-1.052.55-1.608h6.271c.247.556.436 1.096.55 1.608l.051.25h2.852z"/>
    </g>
</svg>
