<svg xmlns="http://www.w3.org/2000/svg" width="782" height="500" viewBox="0 0 782 500">
    <g fill="none" fill-rule="evenodd">
        <path fill="#F7F7F7" d="M0 0h780v500H0z"/>
        <path fill="#1791FF" d="M453.724 256.102c15.037 10.105 19.036 30.486 8.93 45.523-10.104 15.038-30.486 19.037-45.523 8.93-15.037-10.103-19.035-30.485-8.93-45.522 10.105-15.037 30.486-19.035 45.523-8.931zm-59 37.932a2.878 2.878 0 0 1-2.823-2.335 44.259 44.259 0 0 1-.493-13.456 44.244 44.244 0 0 1 3.49-12.86 2.878 2.878 0 1 1 5.264 2.328 38.557 38.557 0 0 0-3.038 11.192 38.544 38.544 0 0 0 .429 11.71 2.879 2.879 0 0 1-2.83 3.421zm9.23-34.785a2.878 2.878 0 0 1-2.183-4.752 44.314 44.314 0 0 1 38.742-15.188c9.398 1.085 18.03 5.042 24.96 11.444a2.875 2.875 0 0 1 .16 4.065 2.874 2.874 0 0 1-4.066.161c-6.027-5.567-13.536-9.009-21.715-9.954a38.578 38.578 0 0 0-33.714 13.22 2.874 2.874 0 0 1-2.185 1.004zm31.542 68.408c-3.247 0-6.51-.36-9.746-1.085-9.878-2.21-18.772-7.789-25.045-15.709a2.878 2.878 0 0 1 4.512-3.572 38.653 38.653 0 0 0 21.79 13.666c8.036 1.798 16.26 1.016 23.782-2.259a2.879 2.879 0 0 1 2.297 5.277 43.952 43.952 0 0 1-17.59 3.682zm29.046-11.96a2.88 2.88 0 0 1-2.02-4.928 38.422 38.422 0 0 0 10.534-19.019 2.87 2.87 0 0 1 3.436-2.179 2.877 2.877 0 0 1 2.179 3.437 44.16 44.16 0 0 1-12.109 21.861 2.872 2.872 0 0 1-2.02.828zM551.286 337.74a2.83 2.83 0 0 1-.623-.068 55.587 55.587 0 0 1-12.317-4.286 2.878 2.878 0 1 1 2.517-5.176 49.82 49.82 0 0 0 11.04 3.844 2.876 2.876 0 0 1-.617 5.687zm15.456 1.079a2.879 2.879 0 0 1-.219-5.747 50.476 50.476 0 0 0 9.084-1.547 2.877 2.877 0 1 1 1.481 5.561 56.241 56.241 0 0 1-10.12 1.724 2.858 2.858 0 0 1-.226.009zm23.593-7.615a2.877 2.877 0 0 1-1.503-5.334c6.17-3.768 11.359-8.746 15.425-14.796a50.602 50.602 0 0 0 3.198-5.469 2.877 2.877 0 1 1 5.141 2.588 56.54 56.54 0 0 1-3.562 6.091c-4.531 6.743-10.319 12.294-17.202 16.498a2.875 2.875 0 0 1-1.497.422z"/>
        <path fill="#56D695" d="M580.996 255.92c15.037 10.105 19.036 30.486 8.931 45.523-10.105 15.038-30.487 19.037-45.524 8.931-15.037-10.104-19.035-30.486-8.93-45.523 10.105-15.037 30.486-19.035 45.523-8.93zm-30.015 69.861c-.27 0-.544-.038-.815-.118a44.29 44.29 0 0 1-12.182-5.736 143.368 143.368 0 0 1-6.429-4.576 2.878 2.878 0 0 1 3.467-4.592 137.955 137.955 0 0 0 6.171 4.392 38.57 38.57 0 0 0 10.601 4.993 2.878 2.878 0 0 1-.813 5.637zm23.924-.157a2.878 2.878 0 0 1-.845-5.628 38.642 38.642 0 0 0 20.643-15.342c4.593-6.835 6.85-14.78 6.53-22.98a2.878 2.878 0 0 1 5.75-.225c.37 9.427-2.225 18.561-7.503 26.414-5.645 8.402-14.072 14.664-23.728 17.633a2.869 2.869 0 0 1-.847.128zm25.844-56.021a2.878 2.878 0 0 1-2.644-1.74 38.426 38.426 0 0 0-13.899-16.72 2.877 2.877 0 1 1 3.211-4.777 44.177 44.177 0 0 1 15.974 19.22 2.877 2.877 0 0 1-2.642 4.017zm-79.043 10.347a2.879 2.879 0 0 1-2.851-3.298c.967-6.554 3.344-12.684 7.064-18.22 5.277-7.854 12.754-13.707 21.62-16.927a2.878 2.878 0 0 1 1.965 5.408c-7.712 2.802-14.216 7.894-18.808 14.728-3.238 4.82-5.306 10.153-6.147 15.851a2.878 2.878 0 0 1-2.843 2.458zM576.35 246.7a3.11 3.11 0 0 1-1.011-.17 38.291 38.291 0 0 0-16.124-1.953 3.101 3.101 0 0 1-3.358-2.798 3.091 3.091 0 0 1 2.798-3.358 44.505 44.505 0 0 1 18.706 2.267 3.092 3.092 0 1 1-1.011 6.012z"/>
        <path fill="#B3B3B3" d="M529.98 328.523a2.876 2.876 0 0 1-1.478-.41l-.181-.111c-1.357-.827-1.827-2.621-1.001-3.977.823-1.357 2.553-1.813 3.91-.99l.085.053.148.089a2.877 2.877 0 1 1-1.483 5.346zm-50.332-56.995c-.77 0-1.537-.307-2.104-.913l-.417-.446a2.879 2.879 0 0 1 4.205-3.93l.418.446a2.879 2.879 0 0 1-2.102 4.843zm8.23 9.84a2.87 2.87 0 0 1-2.3-1.147l-.357-.468a2.878 2.878 0 1 1 4.571-3.496l.382.503a2.878 2.878 0 0 1-2.297 4.609zm7.37 10.509a2.875 2.875 0 0 1-2.393-1.276l-.345-.515a2.878 2.878 0 0 1 4.789-3.192l.335.502a2.875 2.875 0 0 1-.787 3.992 2.864 2.864 0 0 1-1.599.489zm7.185 10.634c-.9 0-1.786-.421-2.348-1.21l-.368-.521a2.878 2.878 0 0 1 4.721-3.293l.337.478a2.879 2.879 0 0 1-2.342 4.546zm7.97 10.049c-.786 0-1.568-.32-2.137-.95l-.422-.47a2.877 2.877 0 1 1 4.3-3.825l.394.439a2.879 2.879 0 0 1-2.135 4.806zm9.315 8.802a2.86 2.86 0 0 1-1.808-.642l-.48-.39a2.88 2.88 0 0 1-.417-4.048 2.882 2.882 0 0 1 4.05-.416l.468.382a2.878 2.878 0 0 1-1.813 5.114zm-49.35-58.78a2.865 2.865 0 0 1-1.898-.717l-.2-.174a2.877 2.877 0 1 1 3.764-4.353l.234.203a2.877 2.877 0 0 1-1.9 5.04z"/>
        <path fill="#CCC" d="M594.606 244.206a2.866 2.866 0 0 1-1.71-.565c-8.657-6.408-18.945-9.793-29.75-9.793a2.879 2.879 0 0 1 0-5.756c12.047 0 23.52 3.777 33.174 10.924a2.875 2.875 0 0 1 .6 4.024 2.868 2.868 0 0 1-2.314 1.166zm-72.496 9.124a2.878 2.878 0 0 1-2.227-4.698c5.176-6.339 11.8-11.554 19.156-15.08a2.878 2.878 0 1 1 2.488 5.19c-6.598 3.162-12.54 7.842-17.187 13.53a2.87 2.87 0 0 1-2.23 1.058z"/>
        <path fill="#E6E6E6" d="M707.86 256.192c15.037 10.105 19.035 30.486 8.931 45.523-10.105 15.038-30.487 19.037-45.524 8.93-15.037-10.103-19.035-30.485-8.93-45.522 10.104-15.037 30.486-19.035 45.523-8.931zm-59.455 25.35a2.876 2.876 0 0 1-2.862-3.209 44.325 44.325 0 0 1 3.492-12.86 2.877 2.877 0 1 1 5.264 2.328 38.558 38.558 0 0 0-3.04 11.193 2.878 2.878 0 0 1-2.854 2.547zm9.685-22.203a2.878 2.878 0 0 1-2.183-4.752A44.29 44.29 0 0 1 694.65 239.4c9.399 1.085 18.029 5.042 24.959 11.444a2.875 2.875 0 0 1 .16 4.065 2.874 2.874 0 0 1-4.065.161c-6.027-5.567-13.536-9.009-21.715-9.954a38.54 38.54 0 0 0-33.714 13.22 2.874 2.874 0 0 1-2.185 1.004zm31.543 68.408c-3.247 0-6.51-.36-9.746-1.085-9.878-2.21-18.772-7.789-25.045-15.709a2.878 2.878 0 0 1 4.512-3.572 38.653 38.653 0 0 0 21.789 13.666c8.037 1.797 16.26 1.016 23.783-2.259a2.878 2.878 0 0 1 2.297 5.277 43.952 43.952 0 0 1-17.59 3.682zm29.046-11.96a2.88 2.88 0 0 1-2.02-4.928 38.416 38.416 0 0 0 10.534-19.02 2.877 2.877 0 1 1 5.615 1.258 44.162 44.162 0 0 1-12.11 21.862 2.872 2.872 0 0 1-2.02.828zm12.284-31.345a2.879 2.879 0 0 1-2.873-2.747 38.654 38.654 0 0 0-6.417-19.651 2.876 2.876 0 0 1 .802-3.99 2.876 2.876 0 0 1 3.989.802 44.424 44.424 0 0 1 7.376 22.577 2.879 2.879 0 0 1-2.877 3.009z"/>
        <path fill="#CCC" d="M650.621 304.313a2.87 2.87 0 0 1-2.049-.858l-.202-.204a2.877 2.877 0 1 1 4.098-4.04l.202.205a2.876 2.876 0 0 1-2.049 4.897zm-38.435-46.533a2.866 2.866 0 0 1-1.922-.737l-.416-.373a2.877 2.877 0 1 1 3.815-4.309l.447.4a2.88 2.88 0 0 1-1.924 5.018zm8.549 8.628a2.867 2.867 0 0 1-2.155-.972l-.372-.417a2.878 2.878 0 0 1 4.282-3.844l.398.448a2.875 2.875 0 0 1-.247 4.06 2.862 2.862 0 0 1-1.906.724zm7.642 9.442a2.87 2.87 0 0 1-2.307-1.156l-.341-.453a2.878 2.878 0 0 1 4.598-3.462l.354.473a2.877 2.877 0 0 1-2.304 4.599zm7.129 9.84a2.876 2.876 0 0 1-2.34-1.198l-.347-.486a2.879 2.879 0 0 1 4.697-3.327l.324.454a2.878 2.878 0 0 1-2.335 4.558zm7.266 9.74a2.874 2.874 0 0 1-2.256-1.089l-.366-.463a2.877 2.877 0 1 1 4.519-3.563l.355.447a2.878 2.878 0 0 1-2.253 4.667zm-40.115-45.222a2.861 2.861 0 0 1-1.647-.52l-.236-.166a2.877 2.877 0 1 1 3.301-4.714l.235.165a2.877 2.877 0 0 1-1.653 5.235z"/>
        <path fill="#F2F2F2" d="M721.025 244.206a2.872 2.872 0 0 1-1.71-.564c-8.658-6.408-18.946-9.794-29.75-9.794a2.879 2.879 0 0 1 0-5.756c12.046 0 23.518 3.777 33.174 10.923a2.878 2.878 0 0 1-1.714 5.191"/>
        <path fill="#E6E6E6" d="M777.04 304.313a2.87 2.87 0 0 1-2.049-.858l-.218-.22a2.879 2.879 0 0 1 4.129-4.01l.187.19a2.876 2.876 0 0 1-2.049 4.898zm-38.436-46.533a2.866 2.866 0 0 1-1.922-.737l-.416-.373a2.877 2.877 0 1 1 3.815-4.309l.447.4a2.88 2.88 0 0 1-1.924 5.018zm8.55 8.628a2.867 2.867 0 0 1-2.156-.972l-.372-.417a2.878 2.878 0 0 1 4.283-3.844l.398.448a2.875 2.875 0 0 1-.248 4.06 2.862 2.862 0 0 1-1.905.724zm7.641 9.442a2.87 2.87 0 0 1-2.307-1.156l-.34-.453a2.878 2.878 0 0 1 4.597-3.462l.354.473a2.877 2.877 0 0 1-2.304 4.599zm7.13 9.84a2.876 2.876 0 0 1-2.34-1.198l-.347-.486a2.879 2.879 0 0 1 4.697-3.327l.324.454a2.878 2.878 0 0 1-2.335 4.558zm7.265 9.74a2.874 2.874 0 0 1-2.256-1.089l-.366-.463a2.877 2.877 0 1 1 4.52-3.563l.354.447a2.878 2.878 0 0 1-2.252 4.667zm-40.114-45.222a2.869 2.869 0 0 1-1.634-.51l-.169-.12c-1.302-.91-1.658-2.733-.747-4.035.91-1.304 2.665-1.648 3.968-.735l.222.155a2.88 2.88 0 0 1-1.64 5.245z"/>
        <path fill="#666" d="M185.137 283.333c0 18.116-14.688 32.803-32.804 32.803-18.117 0-32.802-14.687-32.802-32.803 0-18.117 14.685-32.804 32.802-32.804 18.117 0 32.804 14.687 32.804 32.804zm-35.242 44.242c-.057 0-.113-.002-.17-.005-23.386-1.358-41.706-20.789-41.706-44.237a44.334 44.334 0 0 1 10.573-28.729 2.878 2.878 0 0 1 4.381 3.733 38.568 38.568 0 0 0-9.198 24.996c0 20.402 15.937 37.31 36.284 38.491a2.879 2.879 0 0 1-.164 5.751zm32.923-13.301a2.876 2.876 0 0 1-2.115-4.827 38.446 38.446 0 0 0 10.187-26.113c0-10.04-3.836-19.544-10.802-26.766a2.878 2.878 0 0 1 4.142-3.996c8.006 8.3 12.416 19.225 12.416 30.762a44.178 44.178 0 0 1-11.71 30.01 2.866 2.866 0 0 1-2.118.93zm-48.236-65.513a2.88 2.88 0 0 1-1.236-5.478c5.956-2.829 12.344-4.263 18.987-4.263 5.238 0 10.367.906 15.245 2.692a2.878 2.878 0 0 1-1.978 5.404 38.474 38.474 0 0 0-13.267-2.34c-5.781 0-11.34 1.247-16.52 3.707a2.88 2.88 0 0 1-1.231.278zm25.132 78.233a2.878 2.878 0 0 1-.51-5.709 38.404 38.404 0 0 0 6.798-1.892 2.877 2.877 0 1 1 2.047 5.38 44.065 44.065 0 0 1-7.82 2.174 2.846 2.846 0 0 1-.515.047zm.87-96.049a2.89 2.89 0 0 1-3.16 2.57c-1.67-.17-3.391-.25-5.09-.25-24.7 0-45.48 17.66-49.42 42a50.397 50.397 0 0 0-.65 8.072c0 1.589-1.29 2.87-2.88 2.87a2.87 2.87 0 0 1-2.87-2.87c0-3.01.24-6.04.719-8.991.01-.09.03-.17.05-.26 4.49-27.01 27.6-46.58 55.05-46.58 1.9 0 3.81.1 5.67.29 1.58.16 2.74 1.57 2.58 3.15zm-10.02 108.182c-.032 0-.064 0-.097-.002-22.784-.749-43.193-15.699-50.785-37.2a2.876 2.876 0 1 1 5.426-1.917c6.81 19.285 25.114 32.693 45.55 33.365a2.878 2.878 0 0 1-.094 5.754zm10.303-.656a2.88 2.88 0 0 1-.456-5.719c15.15-2.455 28.589-12.01 35.949-25.556a2.878 2.878 0 1 1 5.057 2.748c-8.204 15.1-23.19 25.75-40.086 28.49a3.043 3.043 0 0 1-.464.037zm44.411-52.26a2.879 2.879 0 0 1-2.878-2.878 49.984 49.984 0 0 0-30.678-46.177 2.876 2.876 0 1 1 2.231-5.304 55.726 55.726 0 0 1 34.203 51.481 2.879 2.879 0 0 1-2.878 2.878zm-4.333-42.327a2.871 2.871 0 0 1-2.17-.987 61.591 61.591 0 0 0-46.442-21.141 61.565 61.565 0 0 0-40.197 14.927 2.876 2.876 0 0 1-4.057-.3 2.876 2.876 0 0 1 .3-4.058A67.316 67.316 0 0 1 152.333 216a67.346 67.346 0 0 1 50.78 23.115 2.877 2.877 0 0 1-2.168 4.769zm-69.33 103.38c-.307 0-.618-.05-.925-.153C103.362 337.84 85 312.21 85 283.333c0-10.755 2.598-21.453 7.514-30.938a2.878 2.878 0 0 1 5.11 2.648c-4.558 8.794-6.868 18.312-6.868 28.29 0 26.41 16.791 49.85 41.784 58.328a2.878 2.878 0 0 1-.925 5.603zm31.3 2.537a2.877 2.877 0 0 1-.465-5.717c29.819-4.927 51.46-30.476 51.46-60.751 0-7.568-1.355-14.959-4.031-21.966a2.878 2.878 0 0 1 5.377-2.052c2.926 7.665 4.41 15.746 4.41 24.018 0 33.104-23.67 61.041-56.278 66.429a2.93 2.93 0 0 1-.473.039z"/>
        <path stroke="#979797" stroke-linecap="square" d="M309.5 49.5v401.061"/>
        <path fill="#444" d="M109.97 165.06c0 2.7-1.98 4.1-4.64 4.1-1.68 0-3.12-.38-4.34-.98l.4-2.4c1.16.68 2.6 1.22 3.98 1.22 1.22 0 2.06-.6 2.06-1.68 0-1.02-.48-1.44-2.48-2.3-2.68-1.1-3.76-1.98-3.76-4.12 0-2.44 1.88-3.86 4.46-3.86 1.56 0 2.64.32 3.64.84l-.4 2.4c-1-.66-2.18-1.08-3.26-1.08-1.32 0-1.9.64-1.9 1.48 0 .88.44 1.3 2.36 2.1 2.84 1.16 3.88 2.14 3.88 4.28zm4.76-8.7c0 .8-.64 1.36-1.42 1.36-.8 0-1.44-.56-1.44-1.36 0-.82.64-1.4 1.44-1.4.78 0 1.42.58 1.42 1.4zm-.24 12.64h-2.4v-9.66h2.4V169zm10.78 0h-2.4v-6.32c0-.84-.36-1.42-1.24-1.42-.74 0-1.5.48-2.2 1.22V169h-2.4v-9.66h2.04l.22 1.36c.9-.86 1.92-1.56 3.22-1.56 1.8 0 2.76 1.1 2.76 2.9V169zm7.64-6.52c0-1.02-.68-1.8-1.7-1.8-1.06 0-1.68.82-1.68 1.88 0 1 .64 1.76 1.68 1.76 1.06 0 1.7-.78 1.7-1.84zm3.42 6.92c0 2.08-2.28 3.24-5.08 3.24-2.62 0-4.6-.8-4.6-2.4 0-.9.62-1.6 1.82-2.28-.38-.3-.56-.66-.56-1.04 0-.54.42-1.06 1.22-1.54-1.14-.54-1.82-1.54-1.82-2.82 0-2.12 1.72-3.42 3.88-3.42 1.12 0 2.04.32 2.74.9l2.36-.84.32 1.92-1.76.12c.18.38.26.82.26 1.26 0 2.08-1.78 3.32-3.86 3.32-.28 0-.54-.02-.78-.06-.24.18-.4.36-.4.52 0 .32.3.4 1.8.62l1.24.12c1.98.28 3.22.9 3.22 2.38zm-4.92 1.82c1.72 0 2.7-.58 2.7-1.3 0-.52-.42-.82-1.62-1l-1.3-.16c-.66-.08-.96-.14-1.44-.24-.7.5-1.02.96-1.02 1.46 0 .72.86 1.24 2.68 1.24zm9.14-2.22h-2.4v-14.06l2.4-.38V169zm6.38-8.2c-.96 0-1.76.78-1.94 2.34h3.86c-.16-1.5-.76-2.34-1.92-2.34zm4.24 7.22c-1.04.72-2.3 1.18-3.86 1.18-2.7 0-4.72-1.54-4.72-5.02 0-3.14 1.88-5.04 4.4-5.04 2.9 0 4.2 2.18 4.2 4.92 0 .2-.02.44-.02.58h-6.2c.1 1.88 1.12 2.7 2.6 2.7 1.24 0 2.26-.46 3.32-1.2l.28 1.88zm16.54.04c-1.08.7-2.5 1.18-4.08 1.18-4 0-6.52-2.82-6.52-7.12 0-4.28 2.58-7.16 6.6-7.16 1.56 0 2.76.36 3.78 1l-.38 2.5c-.9-.68-1.96-1.22-3.3-1.22-2.5 0-4 1.88-4 4.86 0 3 1.56 4.84 4.04 4.84 1.3 0 2.44-.5 3.5-1.2l.36 2.32zm10.26.94h-2.4v-6.32c0-.84-.36-1.42-1.24-1.42-.74 0-1.5.48-2.2 1.22V169h-2.4v-14.06l2.4-.38v6c.8-.74 1.8-1.42 3.08-1.42 1.8 0 2.76 1.1 2.76 2.9V169zm7.68-2.66v-2.16c-2.78.34-3.44 1.16-3.44 2.08 0 .7.44 1.12 1.18 1.12.82 0 1.6-.4 2.26-1.04zm2.4 2.66h-2.06l-.2-1.26c-.78.82-1.78 1.46-3.22 1.46-1.64 0-2.74-1-2.74-2.68 0-2.34 1.92-3.36 5.82-3.74v-.28c0-1.04-.6-1.44-1.66-1.44-1.12 0-2.18.32-3.22.78l-.3-1.92c1.12-.44 2.3-.78 3.84-.78 2.5 0 3.74.92 3.74 3.24V169zm5.12-12.64c0 .8-.64 1.36-1.42 1.36-.8 0-1.44-.56-1.44-1.36 0-.82.64-1.4 1.44-1.4.78 0 1.42.58 1.42 1.4zm-.24 12.64h-2.4v-9.66h2.4V169zm10.78 0h-2.4v-6.32c0-.84-.36-1.42-1.24-1.42-.74 0-1.5.48-2.2 1.22V169h-2.4v-9.66h2.04l.22 1.36c.9-.86 1.92-1.56 3.22-1.56 1.8 0 2.76 1.1 2.76 2.9V169zM528.09 169h-2.64l-.74-10.18-3.46 10.22h-2.36l-3.48-10.22-.7 10.18h-2.38l1.06-13.8h3.36l3.5 10.4 3.48-10.4h3.3l1.06 13.8zm7.56-2.66v-2.16c-2.78.34-3.44 1.16-3.44 2.08 0 .7.44 1.12 1.18 1.12.82 0 1.6-.4 2.26-1.04zm2.4 2.66h-2.06l-.2-1.26c-.78.82-1.78 1.46-3.22 1.46-1.64 0-2.74-1-2.74-2.68 0-2.34 1.92-3.36 5.82-3.74v-.28c0-1.04-.6-1.44-1.66-1.44-1.12 0-2.18.32-3.22.78l-.3-1.92c1.12-.44 2.3-.78 3.84-.78 2.5 0 3.74.92 3.74 3.24V169zm10.62 0h-2.4v-6.32c0-.84-.36-1.42-1.24-1.42-.74 0-1.5.48-2.2 1.22V169h-2.4v-9.66h2.04l.22 1.36c.9-.86 1.92-1.56 3.22-1.56 1.8 0 2.76 1.1 2.76 2.9V169zm3.42 3.64c-.52 0-.76-.04-.98-.1l-.32-2.02c.3.08.64.14 1.06.14.8 0 1.44-.36 1.76-1.4l.08-.28-3.5-9.46 2.5-.32 2.2 6.94 2.16-6.8h2.42l-3.7 10.28c-.82 2.32-1.94 3.02-3.68 3.02zm23.48-4.58c-1.08.7-2.5 1.18-4.08 1.18-4 0-6.52-2.82-6.52-7.12 0-4.28 2.58-7.16 6.6-7.16 1.56 0 2.76.36 3.78 1l-.38 2.5c-.9-.68-1.96-1.22-3.3-1.22-2.5 0-4 1.88-4 4.86 0 3 1.56 4.84 4.04 4.84 1.3 0 2.44-.5 3.5-1.2l.36 2.32zm10.26.94h-2.4v-6.32c0-.84-.36-1.42-1.24-1.42-.74 0-1.5.48-2.2 1.22V169h-2.4v-14.06l2.4-.38v6c.8-.74 1.8-1.42 3.08-1.42 1.8 0 2.76 1.1 2.76 2.9V169zm7.68-2.66v-2.16c-2.78.34-3.44 1.16-3.44 2.08 0 .7.44 1.12 1.18 1.12.82 0 1.6-.4 2.26-1.04zm2.4 2.66h-2.06l-.2-1.26c-.78.82-1.78 1.46-3.22 1.46-1.64 0-2.74-1-2.74-2.68 0-2.34 1.92-3.36 5.82-3.74v-.28c0-1.04-.6-1.44-1.66-1.44-1.12 0-2.18.32-3.22.78l-.3-1.92c1.12-.44 2.3-.78 3.84-.78 2.5 0 3.74.92 3.74 3.24V169zm5.12-12.64c0 .8-.64 1.36-1.42 1.36-.8 0-1.44-.56-1.44-1.36 0-.82.64-1.4 1.44-1.4.78 0 1.42.58 1.42 1.4zm-.24 12.64h-2.4v-9.66h2.4V169zm10.78 0h-2.4v-6.32c0-.84-.36-1.42-1.24-1.42-.74 0-1.5.48-2.2 1.22V169h-2.4v-9.66h2.04l.22 1.36c.9-.86 1.92-1.56 3.22-1.56 1.8 0 2.76 1.1 2.76 2.9V169z"/>
    </g>
</svg>
