<svg xmlns="http://www.w3.org/2000/svg" xmlns:xlink="http://www.w3.org/1999/xlink" width="128" height="128" viewBox="0 0 128 128">
    <defs>
        <path id="a" d="M.491.987h10.003v14.602H.491z"/>
        <path id="c" d="M0 .49h27.019V32H0z"/>
    </defs>
    <g fill="none" fill-rule="evenodd">
        <rect width="128" height="128" fill="#FAFAFA" rx="30"/>
        <path fill="#006BB6" d="M57.146 70.152v7.52h-1.482l-.501-.98c-.131.238-.371.48-.72.674-.348.196-.676.306-1.002.306H52c-.478 0-.892-.154-1.22-.458-.348-.284-.523-.632-.523-1.047V64.834c0-.5.175-.915.524-1.264a1.677 1.677 0 0 1 1.22-.5h3.182c.546 0 1.025.151 1.396.478.37.327.566.72.566 1.221v3.378h-2.921v-2.2c0-.349-.174-.524-.522-.524-.35 0-.524.175-.524.523v8.826c0 .152.044.283.154.393a.476.476 0 0 0 .37.152c.348 0 .522-.174.522-.545v-1.699c0-.239-.044-.415-.108-.48-.088-.065-.24-.087-.436-.087v-2.354h3.465zM59.867 63.07L58.08 77.671h2.855l.196-2.812h1.264l.197 2.812h2.854L63.66 63.07h-3.792zm2.354 9.327h-.916l.48-6.364.436 6.364zM71.583 63.07v2.353l-2.724 9.894h2.724v2.355h-5.622V75.84l2.855-10.417H66.2V63.07zM72.813 77.589h2.92v-4.925h2.31c.458 0 .852-.175 1.179-.501.326-.327.48-.72.48-1.178v-6.473c0-.435-.154-.806-.458-1.09a1.588 1.588 0 0 0-1.113-.435h-5.318v14.602zm2.92-12.248h.524c.109 0 .218.042.349.152.108.109.175.24.175.37v3.924c0 .13-.044.24-.153.348a.536.536 0 0 1-.371.176h-.523v-4.97zM83.803 77.589v-5.557h.523c.11 0 .219.043.349.153a.535.535 0 0 1 .175.37v5.034h2.92v-5.361c0-.436-.087-.806-.283-1.134-.196-.326-.436-.523-.741-.588.305-.043.545-.217.74-.5.197-.284.284-.59.284-.96V64.6c0-.457-.13-.85-.413-1.155-.284-.305-.611-.458-1.026-.458h-5.448v14.602h2.92zm0-12.248h.523c.11 0 .219.042.349.152.109.109.175.24.175.37v2.943c0 .13-.044.24-.152.349a.541.541 0 0 1-.372.174h-.523V65.34zM96.096 64.643c0-.458-.174-.85-.501-1.177-.327-.326-.741-.479-1.22-.479h-3.486c-.48 0-.872.153-1.2.48-.327.326-.48.718-.48 1.176v11.29c0 .48.175.872.502 1.176.327.328.719.48 1.178.48h3.486c.479 0 .893-.152 1.22-.48a1.61 1.61 0 0 0 .5-1.176v-11.29zm-3.967 1.22c0-.348.176-.522.525-.522.347 0 .522.174.522.522v8.827c0 .37-.175.546-.522.546a.48.48 0 0 1-.371-.153.526.526 0 0 1-.154-.393v-8.827z"/>
        <g transform="translate(97 62)">
            <mask id="b" fill="#fff">
                <use xlink:href="#a"/>
            </mask>
            <path fill="#006BB6" d="M4.415.987l1.067 7.52 1.09-7.52h3.922v14.602H7.552V7.286l-1.199 8.303h-1.72L3.477 7.286l-.044 8.303H.491V.987z" mask="url(#b)"/>
        </g>
        <path fill="#006BB6" d="M38.282 46.105c.316-4.192 1.581-7.963 3.531-11.75l.02.018c2.242 4.047 3.42 8.016 3.64 12.614.11 2.023-.092 3.991-.515 5.975.092-2.042-.019-3.952-.387-5.939-.496-2.758-1.45-5.222-2.739-7.722l-.019-.02c-1.139 2.262-2.004 4.486-2.537 6.932-.495 2.281-.606 4.396-.606 6.75-.33-2.298-.552-4.546-.388-6.859m3.55 15.242v-.017a12.099 12.099 0 0 1-1.342-5.517c0-1.874.46-3.842 1.342-5.496v-.02c.846 1.748 1.344 3.568 1.344 5.517 0 2.005-.498 3.731-1.344 5.533m0 1.105v.018c3.164-4.725 4.763-9.524 4.781-15.207 0-5.644-1.71-10.552-4.78-15.261h-.02c-2.776 4.432-4.54 9.064-4.707 14.232a27.208 27.208 0 0 0 4.726 16.218"/>
        <g transform="translate(20 46)">
            <mask id="d" fill="#fff">
                <use xlink:href="#c"/>
            </mask>
            <path fill="#006BB6" d="M16.978 22.059c.92-.901 1.783-1.361 3.09-1.233 2.096.202 3.437 1.454 3.548 3.53.203 3.973-5.056 6.382-8.345 6.197-4.764-.24-7.927-3.308-8.681-7.684-.46-2.668.532-5.592 2.41-7.613 1.855-1.987 4.374-2.778 6.985-2.832V.49C7.067.49.485 6.816.025 15.476c-.496 9.653 6.509 16.198 15.445 16.512 4.744.183 8.293-1.6 11.549-4.67v-10.28H16.978v5.02z" mask="url(#d)"/>
        </g>
    </g>
</svg>
