<svg id="Layer_1" data-name="Layer 1" xmlns="http://www.w3.org/2000/svg" viewBox="0 0 282 282"><defs><style>.cls-1{fill:#f7f7f7;}.cls-2{fill:#1791ff;}</style></defs><title>Artboard 1 copy 3</title><rect class="cls-1" x="0.06" width="282" height="282" rx="16" ry="16"/><path class="cls-2" d="M164.45,102.59a41.93,41.93,0,1,0,11.41,58.18A41.91,41.91,0,0,0,164.45,102.59Zm-11.39,25.88-15.13,33.32a.83.83,0,0,1-1.59-.37l.48-20.89a1.25,1.25,0,0,0-1.24-1.32h-5.49a1.26,1.26,0,0,1-1.24-1.45l.92-24.07a1.26,1.26,0,0,1,1.24-1h15.24a1.25,1.25,0,0,1,1.21,1.56l-2.75,10.86a1.25,1.25,0,0,0,1.18,1.56l6.05.13A1.24,1.24,0,0,1,153.06,128.47Z"/><path class="cls-2" d="M141.08,195.34a58,58,0,0,1-51.35-31.08,4.92,4.92,0,0,1,8.72-4.55,48.14,48.14,0,0,0,69,17.94,4.91,4.91,0,1,1,5.38,8.22A57.85,57.85,0,0,1,141.08,195.34Z"/><path class="cls-2" d="M185.06,171.87a4.84,4.84,0,0,1-2.73-.84,4.9,4.9,0,0,1-1.34-6.82,48,48,0,0,0,8.06-23.42,4.92,4.92,0,1,1,9.81.69,58,58,0,0,1-9.71,28.22A4.93,4.93,0,0,1,185.06,171.87Z"/><path class="cls-2" d="M192,127.56a4.91,4.91,0,0,1-4.72-3.55c-.42-1.45-.91-2.89-1.46-4.28a4.92,4.92,0,0,1,9.15-3.6c.66,1.68,1.25,3.41,1.75,5.15a4.94,4.94,0,0,1-4.72,6.28Z"/><path class="cls-2" d="M190.39,122.85a4.92,4.92,0,0,1-4.58-3.12c-.23-.59-.47-1.17-.73-1.75a4.91,4.91,0,1,1,9-4c.31.69.6,1.39.88,2.1a4.92,4.92,0,0,1-4.57,6.72Z"/><path class="cls-2" d="M179.64,105.92a4.93,4.93,0,0,1-3.58-1.54,48.14,48.14,0,0,0-64.44-5,4.91,4.91,0,1,1-6-7.77,58,58,0,0,1,77.6,6.07,4.92,4.92,0,0,1-3.57,8.29Z"/><path class="cls-2" d="M88.05,142.38a4.92,4.92,0,0,1-4.92-4.9,57.84,57.84,0,0,1,7.51-28.61,4.91,4.91,0,1,1,8.55,4.84A48,48,0,0,0,93,137.46a4.91,4.91,0,0,1-4.9,4.92Z"/></svg>