<svg xmlns="http://www.w3.org/2000/svg" width="128" height="128" viewBox="0 0 128 128">
    <g fill="none" fill-rule="evenodd">
        <rect width="128" height="128" fill="#FAFAFA" rx="30"/>
        <path fill="#1D1D1B" d="M40.336 86.221a2.179 2.179 0 0 0-.734-.482 2.456 2.456 0 0 0-.931-.172c-.18 0-.364.014-.557.047-.192.03-.381.084-.565.162a2.134 2.134 0 0 0-.526.322c-.166.138-.312.31-.435.52a2.118 2.118 0 0 0-.806-.772 2.365 2.365 0 0 0-1.163-.279c-.146 0-.3.012-.455.04a1.926 1.926 0 0 0-.91.405 1.864 1.864 0 0 0-.384.428v-.72h-1.237v5.89h1.249v-3.265c0-.25.04-.473.119-.667.079-.194.186-.357.318-.488.133-.132.288-.232.467-.299.179-.067.369-.102.57-.102.42 0 .748.134.98.401.232.265.348.647.348 1.142v3.277h1.25v-3.264c0-.25.039-.473.119-.667.079-.194.184-.357.317-.488.134-.132.289-.232.468-.299.178-.067.368-.102.57-.102.42 0 .747.134.98.401.23.265.347.647.347 1.142v3.277h1.249v-3.7c0-.345-.055-.66-.17-.947a2.158 2.158 0 0 0-.478-.74M46.876 89.415a1.69 1.69 0 0 1-.923.993 1.773 1.773 0 0 1-.724.145c-.28 0-.529-.051-.748-.152a1.637 1.637 0 0 1-.556-.405 1.792 1.792 0 0 1-.351-.6 2.149 2.149 0 0 1-.122-.731c0-.258.04-.502.122-.731.082-.23.199-.43.351-.6a1.65 1.65 0 0 1 .556-.405c.219-.101.468-.151.748-.151.265 0 .507.048.724.145.218.096.404.228.56.396.156.168.277.367.363.596.086.229.129.479.129.75 0 .27-.043.52-.129.75zm.049-2.981a2.305 2.305 0 0 0-.763-.63c-.303-.158-.666-.237-1.088-.237a2.878 2.878 0 0 0-2.717 1.854 3.333 3.333 0 0 0-.227 1.244c0 .45.076.866.227 1.245.152.379.361.706.627.98a2.895 2.895 0 0 0 2.09.873c.422 0 .785-.077 1.088-.234a2.25 2.25 0 0 0 .763-.627v.707h1.285V85.72h-1.285v.713zM54.115 88.656c-.36-.28-.863-.469-1.506-.562L52 88.001a5.667 5.667 0 0 1-.38-.07 1.247 1.247 0 0 1-.309-.108.591.591 0 0 1-.205-.172.421.421 0 0 1-.077-.259c0-.209.098-.378.292-.507.194-.128.468-.193.82-.193.185 0 .367.016.544.05.18.032.348.073.508.122a3.855 3.855 0 0 1 .768.332l.553-1.002a3.747 3.747 0 0 0-1.076-.458 5.106 5.106 0 0 0-1.308-.163c-.378 0-.716.044-1.015.132a2.361 2.361 0 0 0-.766.375c-.21.162-.373.36-.485.594a1.795 1.795 0 0 0-.169.786c0 .475.17.86.507 1.153.338.293.835.484 1.491.574l.614.08c.353.05.611.128.775.237.164.11.246.247.246.415 0 .221-.112.396-.338.525-.226.13-.56.194-1.002.194-.242 0-.458-.016-.648-.049a3.272 3.272 0 0 1-.523-.132 2.575 2.575 0 0 1-.425-.19 2.927 2.927 0 0 1-.346-.23L49.45 91c.213.16.437.29.67.387.234.098.463.175.688.231.226.055.44.092.64.11.2.02.377.028.528.028.422 0 .801-.047 1.135-.14a2.57 2.57 0 0 0 .842-.398c.227-.169.401-.373.522-.609.121-.235.182-.494.182-.777 0-.504-.18-.897-.54-1.177M62.55 88.16c.034-.212.092-.408.174-.586.08-.18.187-.332.316-.461.129-.13.282-.228.46-.298.179-.07.383-.104.613-.104.41 0 .744.127 1 .38.26.255.423.61.494 1.07H62.55zm3.594-1.735a2.489 2.489 0 0 0-.88-.633 2.761 2.761 0 0 0-1.127-.225c-.435 0-.83.074-1.19.225-.358.149-.667.36-.924.633a2.89 2.89 0 0 0-.603.98 3.56 3.56 0 0 0-.215 1.26c0 .468.074.892.22 1.272.149.38.355.707.622.978.267.27.584.479.953.627.369.147.775.222 1.217.222.446 0 .872-.062 1.275-.185a3.183 3.183 0 0 0 1.147-.646l-.64-.916c-.245.197-.516.35-.813.458a2.573 2.573 0 0 1-.89.164c-.208 0-.41-.03-.601-.086a1.592 1.592 0 0 1-.523-.268 1.605 1.605 0 0 1-.4-.464 1.903 1.903 0 0 1-.227-.682h4.352c.008-.075.014-.152.018-.234a4.04 4.04 0 0 0 .007-.246c0-.46-.07-.878-.206-1.257a2.961 2.961 0 0 0-.572-.977zM83.163 89.415a1.7 1.7 0 0 1-.922.993 1.774 1.774 0 0 1-.725.145c-.279 0-.528-.051-.747-.152a1.637 1.637 0 0 1-.556-.405 1.792 1.792 0 0 1-.35-.6 2.15 2.15 0 0 1-.124-.731c0-.258.041-.502.123-.731.082-.23.2-.43.351-.6a1.65 1.65 0 0 1 .556-.405c.22-.101.468-.151.747-.151.266 0 .508.048.725.145.218.096.403.228.56.396.155.168.276.367.362.596.086.229.13.479.13.75 0 .27-.044.52-.13.75zm.05-2.981a2.305 2.305 0 0 0-.763-.63c-.303-.158-.666-.237-1.088-.237a2.878 2.878 0 0 0-2.717 1.854 3.333 3.333 0 0 0-.227 1.244c0 .45.076.866.227 1.245a2.89 2.89 0 0 0 2.717 1.854c.422 0 .785-.078 1.088-.235a2.25 2.25 0 0 0 .763-.627v.707h1.284V85.72h-1.284v.713zM59.624 90.435a1.727 1.727 0 0 1-.612.117c-.131 0-.253-.02-.366-.06a.75.75 0 0 1-.294-.196.95.95 0 0 1-.201-.34 1.56 1.56 0 0 1-.073-.504v-2.564h2.064V85.72h-2.064v-1.782h-1.291v1.782h-1.174v1.168h1.174v2.588c0 .783.186 1.36.557 1.73.37.372.889.557 1.557.557.373 0 .708-.057 1.005-.173.197-.075.379-.162.55-.258l-.439-1.075a3.195 3.195 0 0 1-.393.178M71.223 85.567c-.36 0-.687.065-.978.196-.291.132-.534.448-.731.73v-.773h-1.166v5.89h1.179v-3.24c0-.25.034-.474.104-.67.07-.196.166-.362.289-.498.123-.135.27-.238.443-.308.172-.069.36-.104.565-.104a2.517 2.517 0 0 1 .762.125l.38-1.23a2.376 2.376 0 0 0-.315-.078 3.176 3.176 0 0 0-.532-.04M89.082 85.567c-.36 0-.687.065-.978.196-.291.132-.534.448-.731.73v-.773h-1.166v5.89h1.179v-3.24c0-.25.034-.474.104-.67.07-.196.166-.362.289-.498.122-.135.27-.238.443-.308.172-.069.36-.104.565-.104a2.524 2.524 0 0 1 .762.125l.38-1.23a2.376 2.376 0 0 0-.315-.078 3.184 3.184 0 0 0-.532-.04M95.033 89.415a1.81 1.81 0 0 1-.362.597 1.71 1.71 0 0 1-1.285.54c-.279 0-.528-.05-.747-.151a1.637 1.637 0 0 1-.556-.405 1.792 1.792 0 0 1-.35-.6 2.15 2.15 0 0 1-.124-.731c0-.258.041-.502.123-.731.082-.23.2-.43.351-.6a1.65 1.65 0 0 1 .556-.405c.22-.101.468-.151.747-.151.266 0 .508.048.725.145a1.696 1.696 0 0 1 .922.992c.086.229.13.479.13.75 0 .27-.044.52-.13.75zm.05-6.088v3.107a2.305 2.305 0 0 0-.763-.63c-.303-.158-.666-.237-1.088-.237a2.878 2.878 0 0 0-2.717 1.854 3.313 3.313 0 0 0-.227 1.244c0 .45.075.866.227 1.245a2.89 2.89 0 0 0 2.717 1.854c.422 0 .785-.078 1.088-.235a2.25 2.25 0 0 0 .763-.627v.707h1.284v-8.282h-1.284zM74.298 87.303a1.73 1.73 0 0 1 .584-.387c.225-.091.469-.137.73-.137.29 0 .558.046.806.137.239.09.447.214.623.372l.618-1.028a3.123 3.123 0 0 0-.783-.457 3.332 3.332 0 0 0-1.263-.235c-.455 0-.876.078-1.263.235a3.055 3.055 0 0 0-1.002.651c-.28.279-.501.605-.66.981a3.097 3.097 0 0 0-.241 1.23c0 .442.08.852.24 1.23.16.377.38.703.66.98.282.276.615.493 1.003.651a3.31 3.31 0 0 0 1.263.237c.455 0 .875-.079 1.263-.237a3.15 3.15 0 0 0 .783-.454l-.618-1.03a1.95 1.95 0 0 1-.623.371 2.296 2.296 0 0 1-.805.14c-.262 0-.506-.047-.731-.14a1.7 1.7 0 0 1-.584-.386 1.798 1.798 0 0 1-.388-.596 2.013 2.013 0 0 1-.141-.767c0-.278.047-.533.14-.764.095-.232.225-.43.389-.597M98.994 91.21v.099h.112a.107.107 0 0 0 .053-.011c.013-.007.02-.02.02-.037 0-.018-.007-.03-.02-.038a.097.097 0 0 0-.053-.012h-.112zm.114-.13c.073 0 .13.018.167.05a.163.163 0 0 1 .057.13.144.144 0 0 1-.04.106.205.205 0 0 1-.119.056l.166.19h-.18l-.148-.184h-.017v.185h-.15v-.532h.264zm-.034.702a.442.442 0 0 0 .306-.127.44.44 0 0 0 0-.615.431.431 0 0 0-.478-.092.445.445 0 0 0-.138.092.423.423 0 0 0-.126.308.423.423 0 0 0 .126.307.43.43 0 0 0 .31.127zm0-1.035a.619.619 0 0 1 .568.367.56.56 0 0 1 .048.234.554.554 0 0 1-.048.232.623.623 0 0 1-.13.192.618.618 0 0 1-.438.177.618.618 0 0 1-.442-.177.59.59 0 0 1-.13-.658.62.62 0 0 1 .573-.367z"/>
        <path fill="#E10D17" d="M55.532 58.193c0-7.055 3.296-13.336 8.428-17.4A22.098 22.098 0 0 0 50.193 36C37.936 36 28 45.936 28 58.193c0 12.258 9.936 22.194 22.193 22.194 5.202 0 9.983-1.795 13.767-4.792-5.132-4.065-8.428-10.346-8.428-17.402"/>
        <path fill="#E9610A" d="M55.532 58.193c0 7.056 3.296 13.337 8.428 17.402 5.132-4.065 8.426-10.346 8.426-17.402 0-7.055-3.294-13.336-8.426-17.4-5.132 4.064-8.428 10.345-8.428 17.4"/>
        <path fill="#F49D00" d="M99.806 70.198v-.574l-.187.495h-.205l-.186-.494v.573h-.194v-.828h.278l.206.53.204-.53H100v.828h-.194zm-1.391 0v-.649h-.262v-.179h.718v.18h-.262v.648h-.194zM77.726 36a22.095 22.095 0 0 0-13.766 4.792c5.132 4.065 8.427 10.347 8.427 17.4 0 7.057-3.295 13.338-8.427 17.404a22.095 22.095 0 0 0 13.766 4.792c12.258 0 22.194-9.937 22.194-22.195C99.92 45.937 89.984 36 77.726 36"/>
    </g>
</svg>
