<svg xmlns="http://www.w3.org/2000/svg" width="275" height="164" viewBox="0 0 275 164">
    <g fill="none" fill-rule="evenodd">
        <rect width="275" height="164" fill="#FAFAFA" rx="4"/>
        <path fill="#F1DC1A" d="M144.857 96.478l8.371-4.857c.494.672.897 1.248 1.327 1.802 2.796 3.595 6.461 4.86 10.857 3.934 3.144-.663 4.772-3.053 4.08-5.792-.39-1.547-1.478-2.542-2.814-3.212-2.179-1.094-4.451-2.003-6.62-3.114-2.245-1.15-4.566-2.239-6.586-3.72-4.746-3.48-6.563-9.706-4.77-15.422 1.612-5.145 6.487-8.73 12.319-9.046 2.812-.153 5.588-.002 8.257 1.03 3.389 1.31 5.76 3.711 7.543 6.98l-7.758 4.993c-.344-.499-.638-.929-.935-1.356-1.614-2.325-3.838-3.206-6.595-2.76-1.622.263-2.828 1.156-3.3 2.744-.466 1.567-.37 3.21.945 4.323 1.168.988 2.536 1.78 3.907 2.475 3.123 1.584 6.424 2.848 9.433 4.617 5.853 3.44 8.129 8.752 6.926 15.434-.717 3.986-2.944 6.903-6.46 8.834-7.278 3.996-18.253 2.644-24.244-3.094-1.414-1.354-2.495-3.058-3.883-4.793zm-34.718.898c2.74-1.662 5.382-3.262 8.078-4.895.625.945 1.126 1.78 1.705 2.56 1.675 2.258 4.024 3.049 6.722 2.294 1.502-.42 2.48-1.427 2.82-2.919.245-1.073.345-2.2.348-3.304.024-10.561.014-21.122.015-31.683 0-1.85.003-1.85 1.897-1.85 2.66-.002 5.32-.001 8.133-.001.035.618.089 1.134.089 1.65.005 10.606.016 21.211-.012 31.817-.003 1.42-.091 2.86-.346 4.254-1.21 6.618-5.032 10.176-11.831 11.126-7.619 1.064-14.138-2.051-17.293-8.266-.098-.193-.167-.4-.325-.783zm9.472-16.12c-2.552 1.403-4.868 1.887-7.306 1.695-1.98-.156-3.25-1.404-4.009-3.117-1.08-2.438-2.03-4.935-3.035-7.407l-.653-1.616c-.543 1.254-.983 2.291-1.44 3.321-.994 2.236-2.055 4.444-2.968 6.713-.445 1.104-1.145 1.592-2.265 1.688-.66.056-1.31.251-1.97.31-.314.027-.643-.122-.965-.19.077-.319.076-.686.242-.947 1.269-1.988 2.644-3.91 3.84-5.94a110.179 110.179 0 0 0 3.86-7.165c.288-.58.297-1.474.077-2.096-.503-1.42-1.171-2.79-1.877-4.123-.85-1.61-2.199-2.361-4.072-2.151-.432.048-.904-.258-1.357-.4.282-.379.488-.891.863-1.108.762-.44 1.594-.796 2.437-1.054 3.42-1.045 5.845-.257 7.579 2.876 1.48 2.673 2.592 5.554 3.82 8.364 1.176 2.69 2.247 5.425 3.447 8.104.865 1.932 1.94 3.665 4.537 3.342.298-.037.665.476 1.215.9z"/>
    </g>
</svg>
