<svg xmlns="http://www.w3.org/2000/svg" xmlns:xlink="http://www.w3.org/1999/xlink" width="178" height="164" viewBox="0 0 178 164">
    <defs>
        <path id="a" d="M0 .407H57.11V48H0z"/>
        <path id="c" d="M.288.22h15.685V18H.288z"/>
    </defs>
    <g fill="none" fill-rule="evenodd">
        <rect width="178" height="164" fill="#FAFAFA" rx="4"/>
        <g transform="translate(25 18)">
            <rect width="128" height="128" fill="#FAFAFA" rx="30"/>
            <g transform="translate(35 50.827)">
                <mask id="b" fill="#fff">
                    <use xlink:href="#a"/>
                </mask>
                <path fill="#FFD420" d="M54.955 48a2.155 2.155 0 0 0 2.154-2.155V2.56c0-1.19-.965-2.153-2.154-2.153H2.156C.966.407 0 1.37 0 2.56v43.285C0 47.035.966 48 2.156 48h52.8z" mask="url(#b)"/>
            </g>
            <path fill="#231F20" d="M62.778 86.404v12.423h1.853V87.02c1.006-1.202 2.813-2.114 4.196-2.114 1.65 0 2.47.61 2.474 2.674l.013 11.247h1.782v-11.48c0-2.48-1.158-3.94-4.13-3.94-1.773 0-3.7.953-6.188 2.997"/>
            <path fill="#231F20" d="M61.691 85.896c2.47-2.128 4.96-3.481 7.52-3.481 3.237 0 5.035 1.606 4.971 4.932v11.477h1.774V87.337c.1-3.7-1.783-6.26-6.43-6.26-2.798 0-6.233 1.344-9.609 4.374l.003 13.373h1.771V85.896zM82.005 83.19l1.18-.275v15.912h1.695l-.02-17.211c0-.505-.288-.756-.87-.598l-3.683 1.005-.002 16.804h1.7V83.19zM82.592 77.086a2.385 2.385 0 1 0 0-4.772 2.385 2.385 0 0 0 0 4.772"/>
            <g transform="translate(41 80.827)">
                <mask id="d" fill="#fff">
                    <use xlink:href="#c"/>
                </mask>
                <path fill="#231F20" d="M1.857 9.566c.081-4.53 2.694-7.938 6.936-7.938 3.122 0 5.065 1.642 5.477 4.46.316 2.16-.064 3.478-2.561 3.47l-8.781.41c.194 6.05 4.14 8.077 8.977 8.032h3.06l-.021-1.392h-2.972c-4.456-.136-6.968-2.036-7.11-5.444l8.14-.422c1.72-.07 2.967-.854 2.97-3.028C15.978 3.858 13.855.215 8.837.22 4.241.224.29 3.503.29 9.636c0 3.445 1.12 6.576 3.442 8.364h2.676c-2.936-1.302-4.625-4.217-4.55-8.434" mask="url(#d)"/>
            </g>
            <path fill="#231F20" d="M54.201 87.075c-.343-2.347-1.81-3.674-4.41-3.674-3.2 0-5.375 2.54-5.793 6.445l8.474-.406c1.626-.078 1.984-.62 1.73-2.365m-1.522.137c-.006.484-.263.882-1.194.93l-5.536.29c.17-1.855 1.547-3.531 3.67-3.531 2.357 0 3.042 1.363 3.06 2.31"/>
            <path fill="#CD1141" d="M69.106 34.46c0-.24-.3-.599-.538-.72-1.44-.839-2.881.24-4.32.24-.543 0-1.082.12-1.5-.182 0-.239.239-.299.239-.538-.358 0-.781-.119-1.197-.18 0 0-.904-.059-1.443-.238-1.98-.84-3.84-1.264-6.118-.182-.72.3-1.44.6-2.22.6-.362 0 .538.72.42 1.077-1.198.183-2.281.541-3.298 1.504v.058c.717.903 1.798 1.022 2.878 1.022.359 0 1.018.84 2.7 1.08 2.459.48 3.898-.902 5.638-.182-.12-.3-.12-.48-.12-.72 2.042.542 3.66.48 5.223-.297 1.436-.365 2.1-2.403 3.656-2.342"/>
            <path fill="#231F20" d="M63.827 44.06c-.206-.278-.124-.723-.35-.496-.462.463-.378 1.16-.322 1.759.028.294-.199.263-.288.172-.523-.497-.72-.893-.96-1.554-.6.177-.666.622-.688 1.105-.02.414.328 1.052-.034.992-.659-.118-.959-1.197-1.017-1.977-.237 0-.412.144-.682.636-.18.358-.278.924-.818.862-.54-.06-.714-.821-.774-1.442-.02-.325-.35-.004-.47.116-.262.262-.69.849-.974 1.326-.424-.48-.424-1.196-.48-2.04-.005-.028-.062-.003-.062-.003-.658.302-1.437 2.464-2.4 2.464-.122 0-.16-.12-.122-.181.458-.675.43-1.442.371-2.283-.018-.274-.15-.755-.342-.562 0 0-.785.887-1.107 1.164-.29.25-.839.723-1.378.84 0-.48.96-1.621.418-3.417-.418.479-.598.868-1.854 1.229-.724.18-1.276.063-1.814-.177-.043.533-.169 1.202-.649 1.657 0 0-1.657-.854-2.137-.794-.422.06-1.043 1.746-1.343 2.764-.717.024-1.614-.663-1.764-1.404-.573 1.517-.533 3.352-.189 5.157.894 4.712 2.484 7.826 3.383 13.215.347 2.082-1.918 3.457-2.757 5.17.96 0 1.792.047 2.874.007.27-.012.673-.304.75-.638.231-1 .283-2.193.64-3.213 1.021-.178 1.318-1.38 2.22-1.92.06-.36-.48-.42-.54-.837.3-.3.721-.663 1.02-1.084.12-.36-.48-.421-.48-.717 0-.301.105-.434.231-.614.238-.341.856-.388.55-.858-.289-.441-.839-.27-1.14-.631.178-.598.718-1.316 1.261-1.557-.422-.54-1.142-.783-1.804-.723v-1.255c0-.168.182-.06.182-.06.84.419 1.443.716 2.281 1.08-.063.719.18 1.38.3 2.037.117 1.017.802 1.67.661 2.818-.096.762-.894 1.109-1.375 1.493-.199.163-.547.31-.547.67.54.719 1.43 1.286 2.09 1.883.497-.604.733-1.584 1.15-2.243.42-.118.78-.18 1.081-.36.24-.12.48-.12.716-.242-.178-.598-.778-.897-1.196-1.258.237-.241.608-.226.96-.301.196-.044.418-.118.538-.36-.419-.123-.899-.42-.96-.902.48-.358 1.262-.775 1.443-1.558-.24-.297-.659-.297-.963-.478-.059-.422.11-.907.2-1.28.05-.197.19-.392.37-.392 1.26.236 2.588.168 3.785-.01 0 0 .526-.106.432.366-.36 1.56-.887 2.994-1.127 4.614-.538.662-1.259.96-1.8 1.436-.419.366-.959.424-1.138 1.024l2.402 1.936c.432-.51.837-1.395 1.138-1.997.117-.238 0-.597.24-.84.54.063 1.08-.123 1.557-.178.062-.543-.418-.781-.66-1.203.422-.118.96-.016 1.321-.23.232-.138.542-.431.542-.728h-.423c-.119 0-.298 0-.238-.18.718-.18 1.5-.302 1.98-.96a.337.337 0 0 1-.3-.18c.05-.166.3-.24.3-.24.48-.181.9-.72.9-1.2-.42 0-.96-.122-1.08-.538.241-.418.72-.665 1.202-.724.661 1.504 1.557 2.883 2.572 4.202.062.117.124.3.062.482l-2.278 2.756c-.12.12-.12.363.06.363l3.241-.12c.23-.03.421-.122.48-.3.06-.9.06-1.802.177-2.7.482-.364.844-1.143 1.503-1.143-.064-.358-.419-.42-.659-.657-.06-.483.357-.723.595-1.082-.299-.176-.717.242-1.013.064.296-.24.536-.361.775-.901.061-.15-.06-.117-.06-.117-.297.117-.56.024-.778-.061-.286-.14-.54-.363-.54-.664.177-.598.667-1.07 1.085-1.49.17-.157.34-.23.42-.051.185.484.292.883.593 1.305.06.295.06.654.24.9.778.477 1.5 1.135 2.156 1.979.304.539.785.956.666 1.617l-1.922 2.88c-.083.122-.048.259-.048.259.021.09.132.243.261.212l3.027-.71s.101-.02.151-.075c.031-.036.031-.103.031-.103l-.12-2.223c.298-.36.778-.54 1.14-.901-.119-.181-.242-.238-.362-.362 0-.358.362-.476.6-.656-.12-.361-.657-.303-.78-.721.48-.297.841-.72.901-1.318-.178-.124-.587-.01-.824-.004-.23.007-1.18-.108-1.478-.418-.228-.24-.277-.778-.338-1.258 0 0 .007-.155.121-.121a56.932 56.932 0 0 0 6.957 1.743s.313.049.422.24c.96 1.68 1.917 3.207 2.952 4.858.24.385.411.739.496 1.074-.542.962-1.372 1.579-2.155 2.482-.297.4.09.742.326.703l2.881-.482s.2-.02.24-.244c.061-.713.3-1.374.18-2.095.241-.418.835-.418 1.08-.842a2.966 2.966 0 0 0-.95-.796c-.727-.396-.887-1.186-1.043-1.681-.388-1.232.733-.88.733-1.663a4.9 4.9 0 0 0-.782-.775c0-.421.36-.538.723-.661a.826.826 0 0 0-.42-.484c-.242-.118-.602-.181-.843-.354-.118-.3.9-.54.78-1.441-.3.179-.78.059-1.075-.061-.364-.3.236-.6.056-.898-.72-.24-1.438-.601-2.1-.962-.468-.251-.683-.99-.897-1.498-.845-2.102-1.503-4.2-3.003-5.998-.359-.42-.48-.483-.958-.843-.156-.117-.097-.377.23-.637.298-.242.606-.623.728-.923.662-1.318.602-3.237-.122-4.497-.836-1.563-2.038-2.1-3.478-2.1-2.219 0-3.657 1.799-4.438 3.659-.96 2.34-.662 3.496-2.219 4.636-.252.16-.888.295-1.386-.256-.236-.301-.535-.784-.358-1.201.183.12.368.444.59.605a.74.74 0 0 0 .793.054c.322-.178.484-.534.484-.894 0-.438-.24-.822-.545-1.087-.478-.417-1.26-.358-1.799-.056-.722.358-1.14 1.137-1.019 2.037.056.602.393 1.02.635 1.618.063.165-.005.34-.277.365-.415.029-.733-.107-1.019-.48m-16.08-9.183l1.622-.897c.3.059.3.358.48.539.42-.122.24-.72.478-1.022.241 0 .241.362.421.542.418 0 .3-.66.482-.96.24-.357.901-.238.778-.838l-.6-2.702c-.072-.32-.244-.467-.36-.42-2.159.78-3.84 1.562-5.882 2.279-.179.06-.355.06-.657.06L41.21 29c.18 1.44.36 2.764.478 3.602.061.18 0 .24-.119.24-.659 0-1.258.539-1.68 1.14-.48 1.02-1.08 1.86-2.04 2.278.18.422.541.66.902.78.3.122.6.06.9.24 0 .118-.06.184-.12.3-.78 1.38.42 3.24-1.08 4.262.66.296 1.438 0 1.981-.602.06 0 .118 0 .118.06a6.927 6.927 0 0 0-.54 3.12s.046.25-.06.56c0 0-.114.348-.18.52 1.926-.313 2.65-2.782 2.798-3.204.02-.062.041-.067.065-.056.035.017.015.077.015.077s-.553 1.808 0 2.583c.126.173.34.347.552.326.23-.862.711-1.947 1.49-2.545.717.058 1.442.42 2.16.718.421-1.018-.362-2.46-.362-2.46-.01-.02.003-.025.008-.028.025-.014.053.029.053.029s.6.658.9.902c.358.24 1.441.475 2.041.117.214-.124.538-.417.6-.658-1.92.122-2.044-2.282-2.942-3.42l.061-.061c.48.24.722.9 1.2 1.14l2.623.54c.174.038.244-.24.244-.24.022-.084.267-1.033.133-1.498-.299-.181-.42.299-.66.299-.659-.18-1.08-.241-1.799-.541l-1.202-2.4c-.087-.183 0-.241 0-.241m21.104 9.137c.046-.047.077-.074.077-.074 1.378-1.441 2.161-3.841 2.756-4.982.717-1.317 1.443-1.92 2.52-1.98.904-.06 2.102.72 2.461 1.622.362.779.12 1.799-.299 2.4-.48.72-1.379.898-2.162.72-.477-.124-.898-.421-1.259-.782-.544.84-1.26 1.799-2.099 2.339-.6.42-1.323.84-1.979.84-.074-.001-.058-.06-.016-.103M46.791 33.32c0 .42-.304.72-.722.72-.362 0-.663-.3-.663-.72 0-.418.301-.72.663-.72.418 0 .721.302.721.72"/>
        </g>
    </g>
</svg>
