<svg xmlns="http://www.w3.org/2000/svg" width="178" height="164" viewBox="0 0 178 164">
    <g fill="none" fill-rule="evenodd">
        <rect width="178" height="164" fill="#FAFAFA" rx="4"/>
        <g transform="translate(25 18)">
            <rect width="128" height="128" fill="#FAFAFA" rx="30"/>
            <path fill="#00A451" d="M51.954 50.194c.167-3.228.79-6.152 1.43-8.23 1.825 1.181 4.182 3.02 6.385 5.386 1.261-2.977 2.845-5.51 4.157-7.246 1.311 1.735 2.897 4.27 4.158 7.244 2.203-2.364 4.56-4.203 6.385-5.385.64 2.078 1.262 5.003 1.43 8.23 2.878-1.469 5.722-2.39 7.842-2.878-.11 2.172-.525 5.133-1.473 8.223 3.208-.396 6.196-.29 8.354-.022-.847 2.003-2.248 4.644-4.196 7.224 3.15.725 5.921 1.847 7.858 2.836-1.482 1.593-3.7 3.595-6.413 5.353 2.712 1.76 4.931 3.761 6.413 5.353-1.937.99-4.708 2.111-7.858 2.837 1.948 2.58 3.35 5.221 4.197 7.224-2.158.267-5.147.374-8.355-.022.948 3.09 1.362 6.051 1.473 8.223-2.12-.487-4.963-1.408-7.843-2.878-.167 3.227-.79 6.152-1.429 8.23-1.825-1.18-4.182-3.02-6.385-5.385-1.26 2.975-2.847 5.51-4.158 7.245-1.31-1.736-2.896-4.27-4.157-7.245-2.203 2.365-4.56 4.204-6.385 5.385-.64-2.078-1.263-5.002-1.43-8.229-2.879 1.47-5.722 2.39-7.842 2.877.11-2.172.525-5.133 1.472-8.223-3.208.396-6.196.29-8.354.022.847-2.003 2.25-4.644 4.196-7.224-3.15-.725-5.92-1.846-7.857-2.836 1.481-1.593 3.701-3.595 6.413-5.353-2.712-1.759-4.932-3.76-6.413-5.353 1.936-.99 4.707-2.11 7.857-2.836-1.947-2.58-3.349-5.22-4.196-7.224 2.158-.268 5.146-.375 8.353.021-.947-3.09-1.36-6.05-1.472-8.222 2.12.486 4.964 1.408 7.843 2.878zM63.926 70.93v.001h.001z"/>
            <path fill="#A4CC39" d="M46.304 74.037c-2.292-.769-4.427-1.879-6.322-3.107 1.895-1.229 4.03-2.339 6.322-3.107-1.89-1.506-3.517-3.28-4.877-5.083 2.2-.507 4.587-.819 7.003-.758-1.261-2.06-2.184-4.284-2.846-6.444 2.242.277 4.592.8 6.84 1.684-.48-2.369-.586-4.773-.47-7.029 2.013 1.027 4.042 2.321 5.853 3.921.359-2.389 1.08-4.685 1.962-6.765 1.539 1.653 3.003 3.563 4.158 5.686 1.154-2.123 2.618-4.033 4.157-5.686.882 2.08 1.604 4.376 1.963 6.765 1.81-1.6 3.84-2.894 5.852-3.92.117 2.255.01 4.66-.47 7.028 2.249-.884 4.599-1.407 6.84-1.684-.661 2.16-1.584 4.383-2.845 6.444 2.416-.06 4.802.251 7.003.758-1.36 1.803-2.987 3.577-4.878 5.083 2.292.768 4.427 1.878 6.322 3.107-1.895 1.23-4.03 2.338-6.322 3.107 1.89 1.506 3.518 3.28 4.878 5.082-2.201.507-4.587.82-7.003.758 1.26 2.061 2.184 4.284 2.845 6.444-2.241-.276-4.591-.8-6.84-1.683.48 2.368.587 4.773.47 7.028-2.012-1.026-4.041-2.32-5.852-3.92-.36 2.39-1.081 4.685-1.963 6.765-1.54-1.654-3.003-3.564-4.157-5.687-1.155 2.123-2.62 4.033-4.158 5.687-.882-2.08-1.603-4.376-1.962-6.766-1.812 1.601-3.84 2.895-5.853 3.921-.116-2.255-.01-4.66.47-7.028-2.248.883-4.598 1.406-6.84 1.683.662-2.16 1.584-4.383 2.846-6.444-2.416.061-4.803-.25-7.003-.758 1.36-1.803 2.987-3.576 4.877-5.082zm17.623-3.108h-.001v.002h.002v-.002.001h-.001z"/>
            <path fill="#FFD800" d="M61.8 58.866c.391-2.079 1.147-4.03 2.126-5.83.98 1.8 1.735 3.751 2.127 5.83 1.08-1.819 2.457-3.395 3.993-4.75.303 2.024.347 4.118.005 6.205 1.636-1.34 3.471-2.35 5.377-3.099-.407 2.007-1.082 3.99-2.118 5.833 1.996-.7 4.066-1.02 6.113-1.072-1.069 1.747-2.38 3.378-3.986 4.757 2.115.025 4.17.432 6.111 1.083-1.602 1.275-3.393 2.36-5.372 3.106 1.98.748 3.77 1.832 5.373 3.107-1.943.651-3.997 1.06-6.112 1.083 1.605 1.38 2.916 3.011 3.986 4.758-2.047-.053-4.117-.373-6.113-1.073 1.036 1.843 1.71 3.825 2.117 5.833-1.905-.75-3.74-1.758-5.376-3.099.343 2.088.3 4.181-.004 6.206-1.536-1.357-2.913-2.932-3.993-4.75-.392 2.078-1.149 4.03-2.128 5.83-.978-1.8-1.734-3.752-2.126-5.83-1.08 1.818-2.458 3.393-3.993 4.75-.304-2.025-.348-4.118-.006-6.206-1.636 1.341-3.47 2.35-5.376 3.1.407-2.008 1.082-3.99 2.118-5.834-1.996.7-4.066 1.02-6.113 1.073 1.07-1.747 2.381-3.379 3.985-4.757-2.115-.025-4.168-.432-6.11-1.083 1.602-1.276 3.392-2.36 5.371-3.107-1.979-.747-3.77-1.83-5.372-3.107 1.942-.65 3.996-1.058 6.112-1.083-1.605-1.379-2.917-3.01-3.986-4.757 2.048.052 4.117.373 6.113 1.072-1.036-1.844-1.71-3.825-2.118-5.832 1.906.75 3.74 1.758 5.376 3.098-.342-2.087-.299-4.18.005-6.206 1.535 1.356 2.914 2.932 3.993 4.751zm2.127 12.063zm0 .001zm0 0z"/>
            <path fill="#FFF" d="M61.774 65.016a16.786 16.786 0 0 1 .025-6.15 16.78 16.78 0 0 1 2.127 5.77 16.807 16.807 0 0 1 2.126-5.768c.368 1.945.415 4.002.026 6.148a16.797 16.797 0 0 1 3.972-4.694 16.793 16.793 0 0 1-2.079 5.787 16.766 16.766 0 0 1 5.338-3.052 16.79 16.79 0 0 1-3.932 4.726 16.756 16.756 0 0 1 6.058-1.042 16.796 16.796 0 0 1-5.31 3.096 16.78 16.78 0 0 1 6.05 1.093 16.785 16.785 0 0 1-6.052 1.092 16.816 16.816 0 0 1 5.313 3.097 16.83 16.83 0 0 1-6.06-1.042c1.676 1.393 2.963 3 3.933 4.726a16.77 16.77 0 0 1-5.338-3.053 16.8 16.8 0 0 1 2.08 5.787 16.767 16.767 0 0 1-3.973-4.694 16.792 16.792 0 0 1-.025 6.15 16.835 16.835 0 0 1-2.128-5.771 16.792 16.792 0 0 1-2.126 5.77 16.77 16.77 0 0 1-.025-6.15 16.783 16.783 0 0 1-3.972 4.695c.321-1.955.98-3.904 2.08-5.787a16.78 16.78 0 0 1-5.339 3.053 16.78 16.78 0 0 1 3.933-4.727 16.83 16.83 0 0 1-6.06 1.044 16.78 16.78 0 0 1 5.313-3.098 16.786 16.786 0 0 1-6.052-1.092 16.787 16.787 0 0 1 6.052-1.094 16.8 16.8 0 0 1-5.313-3.095 16.762 16.762 0 0 1 6.06 1.042 16.805 16.805 0 0 1-3.933-4.726 16.793 16.793 0 0 1 5.338 3.05 16.788 16.788 0 0 1-2.079-5.785 16.797 16.797 0 0 1 3.972 4.694"/>
            <path fill="#00A451" d="M77.257 26.715c1.779 0 2.889 1.38 2.889 3.894 0 2.386-1.11 3.746-2.89 3.746-1.862 0-2.93-1.32-2.93-3.81 0-2.532 1.005-3.83 2.93-3.83zM72.107 21v15.05h2.24v-1.443c.922 1.234 1.947 1.803 3.433 1.803 2.763 0 4.73-2.243 4.73-5.822 0-3.685-2.008-5.925-4.71-5.925-1.484 0-2.636.628-3.432 1.822V21h-2.26zM86.288 34.69c.774 1.13 1.947 1.72 3.434 1.72 2.7 0 4.71-2.243 4.71-5.928 0-3.58-1.968-5.82-4.732-5.82-1.507 0-2.532.588-3.433 1.906v-1.55h-2.24V40.45h2.261v-5.76zm2.89-7.975c1.757 0 2.888 1.38 2.888 3.767 0 2.513-1.11 3.873-2.889 3.873-1.905 0-2.93-1.277-2.93-3.747 0-2.574 1.046-3.893 2.93-3.893z"/>
        </g>
    </g>
</svg>
