<svg xmlns="http://www.w3.org/2000/svg" width="275" height="164" viewBox="0 0 275 164">
    <g fill="none" fill-rule="evenodd">
        <rect width="275" height="164" fill="#FAFAFA" rx="4"/>
        <path fill="#404137" d="M150.45 49a.753.753 0 0 0-.372.1.75.75 0 0 0-.372.643v18.951a.502.502 0 0 1-.248.446.519.519 0 0 1-.521 0l-3.102-1.784a1.489 1.489 0 0 0-1.489 0l-12.382 7.135c-.463.266-.745.78-.745 1.313v14.269c0 .533.282 1.02.745 1.288l12.382 7.134a1.485 1.485 0 0 0 1.489 0l12.382-7.134c.463-.267.745-.755.745-1.288V54.5a1.51 1.51 0 0 0-.77-1.313l-7.37-4.113a.729.729 0 0 0-.372-.074zM70.797 66.811c-.236.01-.458.051-.67.174l-12.383 7.134A1.48 1.48 0 0 0 57 75.407l.025 19.15c0 .266.137.513.372.644.23.137.515.137.744 0l7.345-4.212c.466-.276.77-.756.77-1.288v-8.943c0-.533.28-1.023.744-1.288l3.127-1.808c.233-.135.484-.198.744-.198.255 0 .518.063.745.198l3.126 1.808c.463.265.745.755.745 1.288v8.943c0 .532.307 1.015.769 1.288l7.345 4.212c.23.137.515.137.744 0a.745.745 0 0 0 .372-.645l.025-19.149c0-.537-.28-1.022-.744-1.288l-12.382-7.134a1.392 1.392 0 0 0-.67-.174h-.15zm111.267.174c-.259 0-.512.065-.745.198l-12.382 7.134a1.482 1.482 0 0 0-.744 1.289v14.268c0 .537.302 1.023.769 1.289l12.283 6.985a1.492 1.492 0 0 0 1.464.025l7.444-4.137a.75.75 0 0 0 .397-.644.732.732 0 0 0-.372-.644l-12.457-7.135a.8.8 0 0 1-.397-.669v-4.459c0-.266.166-.51.397-.644l3.871-2.23a.744.744 0 0 1 .745 0l3.87 2.23a.74.74 0 0 1 .373.644v3.518c0 .267.14.511.372.644a.74.74 0 0 0 .745 0l7.42-4.31c.46-.267.744-.757.744-1.288v-3.444c0-.532-.283-1.02-.745-1.288l-12.308-7.134a1.478 1.478 0 0 0-.744-.198zM145.04 77.637c.064 0 .14.016.198.049l4.244 2.453c.115.066.198.189.198.322v4.904a.382.382 0 0 1-.198.323l-4.244 2.452a.376.376 0 0 1-.372 0l-4.243-2.452a.383.383 0 0 1-.199-.323v-4.904c0-.133.084-.256.199-.322l4.243-2.453a.327.327 0 0 1 .174-.049z"/>
        <path fill="#83CD29" d="M219.161 66.638c-.43 0-.847.089-1.216.297l-11.687 6.738a2.457 2.457 0 0 0-1.216 2.13v13.452c0 .874.46 1.694 1.216 2.13l3.052 1.76c1.483.729 2.03.718 2.705.718 2.195 0 3.449-1.33 3.449-3.642V76.943c0-.187-.163-.322-.348-.322h-1.464c-.187 0-.347.135-.347.322v13.278c0 1.025-1.07 2.055-2.804 1.19l-3.176-1.859c-.112-.06-.199-.168-.199-.297V75.804c0-.128.086-.258.199-.322l11.662-6.714a.345.345 0 0 1 .348 0l11.662 6.714c.112.066.199.19.199.322v13.451c0 .129-.065.26-.174.322l-11.687 6.713a.36.36 0 0 1-.348 0l-3.002-1.783a.312.312 0 0 0-.298 0c-.829.469-.985.523-1.762.793-.191.066-.482.17.1.495l3.92 2.304c.373.215.79.322 1.216.322a2.4 2.4 0 0 0 1.216-.322l11.687-6.714a2.463 2.463 0 0 0 1.216-2.13V75.804a2.46 2.46 0 0 0-1.216-2.13l-11.687-6.739a2.44 2.44 0 0 0-1.216-.297zm-111.168.272c-.258 0-.513.065-.744.199l-12.382 7.11c-.463.266-.745.78-.745 1.312v14.27c0 .533.282 1.02.745 1.287l12.382 7.135a1.484 1.484 0 0 0 1.489 0l12.382-7.135c.462-.267.744-.754.744-1.288V75.531a1.52 1.52 0 0 0-.744-1.313l-12.382-7.11a1.484 1.484 0 0 0-.745-.198zm128.513.075v.347h.968v2.551h.397v-2.551h.993v-.347h-2.358zm2.705 0v2.898h.372v-1.709c0-.07.003-.178 0-.322-.005-.147 0-.275 0-.347v-.074l.82 2.452h.396l.844-2.452c0 .156-.021.306-.025.446-.002.135 0 .237 0 .297v1.709h.372v-2.898h-.546l-.843 2.452-.82-2.452h-.57zm-16.923 9.265c-3.328 0-5.31 1.414-5.31 3.765 0 2.551 1.967 3.252 5.16 3.567 3.822.374 4.12.934 4.12 1.685 0 1.302-1.04 1.858-3.499 1.858-3.089 0-3.768-.77-3.995-2.304-.027-.164-.154-.297-.323-.297h-1.513a.354.354 0 0 0-.348.347c0 1.963 1.07 4.285 6.18 4.285 3.697 0 5.83-1.449 5.83-3.988 0-2.517-1.723-3.193-5.31-3.666-3.625-.48-3.97-.714-3.97-1.561 0-.7.293-1.635 2.978-1.635 2.398 0 3.284.516 3.647 2.13a.34.34 0 0 0 .323.273h1.514c.093 0 .183-.057.248-.124.063-.071.108-.152.099-.248-.234-2.78-2.091-4.087-5.831-4.087zm-40.249 3.394c-.05 0-.104 0-.149.024l-2.382 1.387a.289.289 0 0 0-.149.248v2.725c0 .103.06.197.149.248l2.382 1.362a.26.26 0 0 0 .273 0l2.382-1.362a.291.291 0 0 0 .15-.248v-2.725a.291.291 0 0 0-.15-.248l-2.382-1.387c-.044-.026-.075-.024-.124-.024z"/>
    </g>
</svg>
