<svg id="Layer_1" data-name="Layer 1" xmlns="http://www.w3.org/2000/svg" xmlns:xlink="http://www.w3.org/1999/xlink" viewBox="0 0 258.12 288.93"><defs><style>.cls-1{fill:url(#linear-gradient);}.cls-2{fill:url(#linear-gradient-2);}.cls-3,.cls-4{fill:none;stroke:#b3b3b3;stroke-linecap:round;stroke-miterlimit:10;stroke-width:3.75px;}.cls-4{stroke-dasharray:0.67 6.71;}.cls-5{fill:url(#linear-gradient-3);}.cls-6{fill:url(#linear-gradient-4);}.cls-7{fill:url(#linear-gradient-5);}.cls-8{fill:url(#linear-gradient-6);}.cls-9{fill:url(#linear-gradient-7);}.cls-10{fill:url(#linear-gradient-8);}.cls-11{fill:url(#linear-gradient-9);}.cls-12{fill:url(#linear-gradient-10);}.cls-13{fill:url(#linear-gradient-11);}.cls-14{fill:url(#linear-gradient-12);}.cls-15{fill:url(#linear-gradient-13);}.cls-16{fill:#56d695;}.cls-17{fill:#fe7862;}</style><linearGradient id="linear-gradient" x1="109.13" y1="120.92" x2="119.13" y2="120.92" gradientUnits="userSpaceOnUse"><stop offset="0" stop-color="#1791ff"/><stop offset="1" stop-color="#1791ff"/></linearGradient><linearGradient id="linear-gradient-2" x1="109.13" y1="120.92" x2="119.13" y2="120.92" gradientTransform="translate(-55.08 83.38) rotate(-30)" xlink:href="#linear-gradient"/><linearGradient id="linear-gradient-3" x1="98.59" y1="144.76" x2="102.59" y2="144.76" xlink:href="#linear-gradient"/><linearGradient id="linear-gradient-4" x1="93.76" y1="129.81" x2="100.06" y2="129.81" gradientTransform="translate(183.49 298.64) rotate(-173.74)" xlink:href="#linear-gradient"/><linearGradient id="linear-gradient-5" x1="109.62" y1="168.3" x2="119.65" y2="168.3" xlink:href="#linear-gradient"/><linearGradient id="linear-gradient-6" x1="93.93" y1="131.31" x2="100.23" y2="131.31" gradientTransform="translate(290.61 174.3) rotate(126.26)" xlink:href="#linear-gradient"/><linearGradient id="linear-gradient-7" x1="136.99" y1="168.01" x2="146.99" y2="168.01" xlink:href="#linear-gradient"/><linearGradient id="linear-gradient-8" x1="92.72" y1="132.21" x2="99.01" y2="132.21" gradientTransform="translate(236.48 19.36) rotate(66.26)" xlink:href="#linear-gradient"/><linearGradient id="linear-gradient-9" x1="153.53" y1="144.17" x2="157.53" y2="144.17" xlink:href="#linear-gradient"/><linearGradient id="linear-gradient-10" x1="162.65" y1="111.72" x2="166.65" y2="111.72" gradientTransform="translate(-46.75 116.05) rotate(-30)" xlink:href="#linear-gradient"/><linearGradient id="linear-gradient-11" x1="136.47" y1="120.63" x2="146.5" y2="120.63" xlink:href="#linear-gradient"/><linearGradient id="linear-gradient-12" x1="91.17" y1="130.11" x2="97.46" y2="130.11" gradientTransform="matrix(0.59, -0.81, 0.81, 0.59, -31.88, 113.12)" xlink:href="#linear-gradient"/><linearGradient id="linear-gradient-13" x1="105.49" y1="144.47" x2="150.63" y2="144.47" xlink:href="#linear-gradient"/></defs><title>control_by_proxy</title><path class="cls-1" d="M111,124.62a1.88,1.88,0,0,1-1.14-3.36,29,29,0,0,1,6.68-3.88,1.87,1.87,0,0,1,1.44,3.46,25.22,25.22,0,0,0-5.83,3.39A1.9,1.9,0,0,1,111,124.62Z"/><path class="cls-2" d="M103.36,135.8a1.9,1.9,0,0,1-1.65.12,1.88,1.88,0,0,1-1-2.45,29.48,29.48,0,0,1,3.84-6.7,1.87,1.87,0,0,1,3,2.27,26.09,26.09,0,0,0-3.35,5.85A1.88,1.88,0,0,1,103.36,135.8Z"/><line class="cls-3" x1="128.88" y1="220.2" x2="128.88" y2="219.83"/><line class="cls-4" x1="128.88" y1="213.11" x2="128.88" y2="186.93"/><line class="cls-3" x1="128.88" y1="183.58" x2="128.88" y2="183.2"/><path class="cls-5" d="M102.34,149.31a1.87,1.87,0,0,1-3.48-.68,29,29,0,0,1,0-7.73,1.87,1.87,0,1,1,3.71.48,26.29,26.29,0,0,0,0,6.75A1.83,1.83,0,0,1,102.34,149.31Z"/><path class="cls-6" d="M102.83,154.28a1.87,1.87,0,0,1,1.62,1.43,6.8,6.8,0,0,1,.14,2.34,6.88,6.88,0,0,1-4.12,5.57A1.88,1.88,0,0,1,99,160.17a3.1,3.1,0,0,0,1.81-3.59,1.88,1.88,0,0,1,1.39-2.26A2,2,0,0,1,102.83,154.28Z"/><path class="cls-7" d="M119.4,169.16a1.88,1.88,0,0,1-2.34,2.68,29.73,29.73,0,0,1-6.7-3.85,1.88,1.88,0,0,1,2.28-3,25.54,25.54,0,0,0,5.85,3.36A1.86,1.86,0,0,1,119.4,169.16Z"/><path class="cls-8" d="M123.94,171.22a1.89,1.89,0,0,1,2-.69,6.9,6.9,0,0,1,4.86,7.41,1.87,1.87,0,0,1-3.72-.44,3.12,3.12,0,0,0-2.21-3.37,1.89,1.89,0,0,1-1-2.91Z"/><path class="cls-9" d="M145.12,164.32a1.88,1.88,0,0,1,1.14,3.36,29.34,29.34,0,0,1-6.68,3.88,1.87,1.87,0,1,1-1.44-3.46,26,26,0,0,0,5.83-3.39A1.9,1.9,0,0,1,145.12,164.32Z"/><path class="cls-10" d="M149.17,161.41a1.88,1.88,0,0,1,.43-2.12,6.91,6.91,0,0,1,8.84-.51,1.88,1.88,0,0,1-2.24,3,3.13,3.13,0,0,0-3.13-.36,3,3,0,0,0-.89.59,1.87,1.87,0,0,1-2.65-.08A1.84,1.84,0,0,1,149.17,161.41Z"/><path class="cls-11" d="M153.78,139.62a1.87,1.87,0,0,1,3.48.69,28.92,28.92,0,0,1,0,7.72,1.87,1.87,0,1,1-3.71-.48,26.22,26.22,0,0,0,0-6.74A1.86,1.86,0,0,1,153.78,139.62Z"/><path class="cls-12" d="M147.91,127.41a1.88,1.88,0,0,1,3.36-1.15,29.56,29.56,0,0,1,3.88,6.68,1.87,1.87,0,1,1-3.46,1.44,26.17,26.17,0,0,0-3.39-5.83A1.87,1.87,0,0,1,147.91,127.41Z"/><path class="cls-13" d="M136.72,119.77a1.88,1.88,0,0,1,2.34-2.67,29.32,29.32,0,0,1,6.7,3.84,1.88,1.88,0,0,1-2.28,3,25.5,25.5,0,0,0-5.85-3.35A1.88,1.88,0,0,1,136.72,119.77Z"/><path class="cls-14" d="M132.18,117.71a1.89,1.89,0,0,1-2.05.69,6.89,6.89,0,0,1-4.86-7.4,1.87,1.87,0,1,1,3.72.44,3.13,3.13,0,0,0,1.26,2.89,3.4,3.4,0,0,0,.95.48,1.87,1.87,0,0,1,1.26,2.33A1.89,1.89,0,0,1,132.18,117.71Z"/><circle class="cls-15" cx="128.06" cy="144.47" r="22.57"/><path class="cls-16" d="M113,239.62a1.88,1.88,0,0,1-1.14-3.36,29,29,0,0,1,6.68-3.88,1.87,1.87,0,0,1,1.44,3.46,25.22,25.22,0,0,0-5.83,3.39A1.9,1.9,0,0,1,113,239.62Z"/><path class="cls-16" d="M104.34,264.31a1.87,1.87,0,0,1-3.48-.68,29,29,0,0,1,0-7.73,1.87,1.87,0,1,1,3.71.48,26.29,26.29,0,0,0,0,6.75A1.83,1.83,0,0,1,104.34,264.31Z"/><path class="cls-16" d="M121.4,284.16a1.88,1.88,0,0,1-2.34,2.68,29.73,29.73,0,0,1-6.7-3.85,1.88,1.88,0,0,1,2.28-3,25.54,25.54,0,0,0,5.85,3.36A1.86,1.86,0,0,1,121.4,284.16Z"/><path class="cls-16" d="M147.12,279.32a1.88,1.88,0,0,1,1.14,3.36,29.34,29.34,0,0,1-6.68,3.88,1.87,1.87,0,0,1-1.44-3.46,26,26,0,0,0,5.83-3.39A1.9,1.9,0,0,1,147.12,279.32Z"/><path class="cls-16" d="M105.36,250.8a1.9,1.9,0,0,1-1.65.12,1.88,1.88,0,0,1-1-2.45,29.48,29.48,0,0,1,3.84-6.7,1.87,1.87,0,0,1,3,2.27,26.09,26.09,0,0,0-3.35,5.85A1.88,1.88,0,0,1,105.36,250.8Z"/><path class="cls-16" d="M110.21,276.52a1.88,1.88,0,0,1-3.36,1.15A29.56,29.56,0,0,1,103,271a1.87,1.87,0,0,1,3.46-1.44,26,26,0,0,0,3.39,5.83A1.87,1.87,0,0,1,110.21,276.52Z"/><path class="cls-16" d="M134.91,285.19a1.87,1.87,0,0,1-.69,3.48,29.78,29.78,0,0,1-7.72,0A1.88,1.88,0,0,1,127,285a25.78,25.78,0,0,0,6.74,0A1.93,1.93,0,0,1,134.91,285.19Z"/><path class="cls-16" d="M154.76,268.13a1.88,1.88,0,0,1,2.67,2.34,29.69,29.69,0,0,1-3.84,6.7,1.88,1.88,0,1,1-3-2.28A26.09,26.09,0,0,0,154,269,1.88,1.88,0,0,1,154.76,268.13Z"/><path class="cls-16" d="M155.78,254.62a1.87,1.87,0,0,1,3.48.69,28.92,28.92,0,0,1,0,7.72,1.87,1.87,0,1,1-3.71-.48,26.22,26.22,0,0,0,0-6.74A1.86,1.86,0,0,1,155.78,254.62Z"/><path class="cls-16" d="M149.91,242.41a1.88,1.88,0,0,1,3.36-1.15,29.56,29.56,0,0,1,3.88,6.68,1.87,1.87,0,0,1-3.46,1.44,26.17,26.17,0,0,0-3.39-5.83A1.87,1.87,0,0,1,149.91,242.41Z"/><path class="cls-16" d="M138.72,234.77a1.88,1.88,0,0,1,2.34-2.67,29.32,29.32,0,0,1,6.7,3.84,1.88,1.88,0,1,1-2.28,3,25.5,25.5,0,0,0-5.85-3.35A1.88,1.88,0,0,1,138.72,234.77Z"/><path class="cls-16" d="M134.18,232.71a1.89,1.89,0,0,1-2.05.69,6.89,6.89,0,0,1-4.86-7.4,1.87,1.87,0,0,1,3.72.44,3.13,3.13,0,0,0,1.26,2.89,3.4,3.4,0,0,0,.95.48,1.87,1.87,0,0,1,1.26,2.33A1.89,1.89,0,0,1,134.18,232.71Z"/><circle class="cls-16" cx="130.06" cy="259.47" r="22.57"/><line class="cls-3" x1="62.88" y1="183.04" x2="63.21" y2="182.86"/><line class="cls-4" x1="69.02" y1="179.5" x2="91.69" y2="166.41"/><line class="cls-3" x1="94.6" y1="164.73" x2="94.93" y2="164.54"/><path class="cls-16" d="M38.13,179a1.88,1.88,0,0,1,2.34-2.67,29.69,29.69,0,0,1,6.7,3.84,1.88,1.88,0,1,1-2.28,3A26.09,26.09,0,0,0,39,179.8,1.88,1.88,0,0,1,38.13,179Z"/><path class="cls-16" d="M12.41,183.85a1.88,1.88,0,0,1-1.15-3.36,29.56,29.56,0,0,1,6.68-3.88,1.87,1.87,0,0,1,1.44,3.46,26.17,26.17,0,0,0-5.83,3.39A1.87,1.87,0,0,1,12.41,183.85Z"/><path class="cls-16" d="M3.75,208.55a1.88,1.88,0,0,1-3.49-.69,29.85,29.85,0,0,1,0-7.73,1.88,1.88,0,0,1,3.72.49,25.78,25.78,0,0,0,0,6.74A1.86,1.86,0,0,1,3.75,208.55Z"/><path class="cls-16" d="M20.8,228.4a1.9,1.9,0,0,1,.12,1.65,1.88,1.88,0,0,1-2.45,1,29.52,29.52,0,0,1-6.7-3.85,1.87,1.87,0,0,1,2.27-3,26.09,26.09,0,0,0,5.85,3.35A1.83,1.83,0,0,1,20.8,228.4Z"/><path class="cls-16" d="M24.62,178a1.87,1.87,0,0,1,.69-3.48,28.92,28.92,0,0,1,7.72,0,1.87,1.87,0,1,1-.48,3.71,26.22,26.22,0,0,0-6.74,0A1.86,1.86,0,0,1,24.62,178Z"/><path class="cls-16" d="M4.77,195A1.88,1.88,0,0,1,2.1,192.7,29.11,29.11,0,0,1,5.94,186a1.88,1.88,0,0,1,3,2.28,25.5,25.5,0,0,0-3.35,5.85A1.93,1.93,0,0,1,4.77,195Z"/><path class="cls-16" d="M9.62,220.76a1.88,1.88,0,0,1-3.36,1.14,29,29,0,0,1-3.88-6.68,1.87,1.87,0,0,1,3.46-1.44,25.22,25.22,0,0,0,3.39,5.83A1.9,1.9,0,0,1,9.62,220.76Z"/><path class="cls-16" d="M34.31,229.42a1.87,1.87,0,0,1-.68,3.48,29.42,29.42,0,0,1-7.73,0,1.88,1.88,0,1,1,.48-3.72,25.85,25.85,0,0,0,6.75,0A1.83,1.83,0,0,1,34.31,229.42Z"/><path class="cls-16" d="M46.52,223.55a1.88,1.88,0,0,1,1.15,3.36A29.56,29.56,0,0,1,41,230.79a1.87,1.87,0,1,1-1.44-3.46,26,26,0,0,0,5.83-3.39A1.87,1.87,0,0,1,46.52,223.55Z"/><path class="cls-16" d="M54.16,212.36a1.88,1.88,0,0,1,2.68,2.34A29.73,29.73,0,0,1,53,221.4a1.88,1.88,0,0,1-3-2.28,25.75,25.75,0,0,0,3.36-5.85A1.86,1.86,0,0,1,54.16,212.36Z"/><path class="cls-16" d="M55.19,198.85a1.87,1.87,0,0,1,3.48.69,29.78,29.78,0,0,1,0,7.72,1.88,1.88,0,0,1-3.72-.48A25.78,25.78,0,0,0,55,200,1.93,1.93,0,0,1,55.19,198.85Z"/><path class="cls-16" d="M54.7,193.89a1.87,1.87,0,0,1-1.62-1.43,6.86,6.86,0,0,1,4-7.91A1.87,1.87,0,0,1,58.54,188a3.14,3.14,0,0,0-1.88,2.53,3.2,3.2,0,0,0,.06,1.07,1.87,1.87,0,0,1-1.39,2.26A1.93,1.93,0,0,1,54.7,193.89Z"/><circle class="cls-16" cx="29.47" cy="203.7" r="22.57"/><line class="cls-3" x1="127.24" y1="68.73" x2="127.24" y2="69.11"/><line class="cls-4" x1="127.24" y1="75.82" x2="127.24" y2="102"/><line class="cls-3" x1="127.24" y1="105.36" x2="127.24" y2="105.73"/><path class="cls-17" d="M143.12,49.32a1.88,1.88,0,0,1,1.14,3.36,29.34,29.34,0,0,1-6.68,3.88,1.87,1.87,0,0,1-1.44-3.46A26,26,0,0,0,142,49.71,1.9,1.9,0,0,1,143.12,49.32Z"/><path class="cls-17" d="M150.76,38.13a1.88,1.88,0,0,1,2.67,2.34,29.69,29.69,0,0,1-3.84,6.7,1.88,1.88,0,1,1-3-2.28A26.09,26.09,0,0,0,150,39,1.88,1.88,0,0,1,150.76,38.13Z"/><path class="cls-17" d="M151.78,24.62a1.87,1.87,0,0,1,3.48.69,28.92,28.92,0,0,1,0,7.72,1.87,1.87,0,1,1-3.71-.48,26.22,26.22,0,0,0,0-6.74A1.86,1.86,0,0,1,151.78,24.62Z"/><path class="cls-17" d="M134.72,4.77a1.88,1.88,0,0,1,2.34-2.67,29.32,29.32,0,0,1,6.7,3.84,1.88,1.88,0,1,1-2.28,3,25.5,25.5,0,0,0-5.85-3.35A1.88,1.88,0,0,1,134.72,4.77Z"/><path class="cls-17" d="M121.21,3.75A1.88,1.88,0,0,1,121.9.26a29.78,29.78,0,0,1,7.72,0A1.88,1.88,0,1,1,129.14,4a25.78,25.78,0,0,0-6.74,0A1.86,1.86,0,0,1,121.21,3.75Z"/><path class="cls-17" d="M109,9.62a1.88,1.88,0,0,1-1.14-3.36,29,29,0,0,1,6.68-3.88A1.87,1.87,0,1,1,116,5.84a25.22,25.22,0,0,0-5.83,3.39A1.9,1.9,0,0,1,109,9.62Z"/><path class="cls-17" d="M145.91,12.41a1.88,1.88,0,0,1,3.36-1.15,29.56,29.56,0,0,1,3.88,6.68,1.87,1.87,0,0,1-3.46,1.44,26.17,26.17,0,0,0-3.39-5.83A1.87,1.87,0,0,1,145.91,12.41Z"/><path class="cls-17" d="M101.36,20.8a1.9,1.9,0,0,1-1.65.12,1.88,1.88,0,0,1-1-2.45,29.48,29.48,0,0,1,3.84-6.7,1.87,1.87,0,0,1,3,2.27,26.09,26.09,0,0,0-3.35,5.85A1.88,1.88,0,0,1,101.36,20.8Z"/><path class="cls-17" d="M100.34,34.31a1.87,1.87,0,0,1-3.48-.68,29,29,0,0,1,0-7.73,1.87,1.87,0,1,1,3.71.48,26.29,26.29,0,0,0,0,6.75A1.83,1.83,0,0,1,100.34,34.31Z"/><path class="cls-17" d="M106.21,46.52a1.88,1.88,0,0,1-3.36,1.15A29.56,29.56,0,0,1,99,41a1.87,1.87,0,0,1,3.46-1.44,26,26,0,0,0,3.39,5.83A1.87,1.87,0,0,1,106.21,46.52Z"/><path class="cls-17" d="M117.4,54.16a1.88,1.88,0,0,1-2.34,2.68,29.73,29.73,0,0,1-6.7-3.85,1.88,1.88,0,0,1,2.28-3,25.54,25.54,0,0,0,5.85,3.36A1.86,1.86,0,0,1,117.4,54.16Z"/><path class="cls-17" d="M121.94,56.22a1.89,1.89,0,0,1,2-.69,6.9,6.9,0,0,1,4.86,7.41,1.87,1.87,0,0,1-3.72-.44,3.12,3.12,0,0,0-2.21-3.37,1.89,1.89,0,0,1-1-2.91Z"/><circle class="cls-17" cx="126.06" cy="29.47" r="22.57"/><line class="cls-3" x1="194.06" y1="181.62" x2="193.73" y2="181.44"/><line class="cls-4" x1="187.92" y1="178.08" x2="165.25" y2="164.99"/><line class="cls-3" x1="162.34" y1="163.31" x2="162.01" y2="163.12"/><path class="cls-16" d="M202.93,205.08a1.85,1.85,0,0,1-1.37.92,1.87,1.87,0,0,1-2.11-1.61,29.34,29.34,0,0,1,0-7.72,1.88,1.88,0,1,1,3.72.48,25.85,25.85,0,0,0,0,6.75A1.91,1.91,0,0,1,202.93,205.08Z"/><path class="cls-16" d="M220,224.93a1.88,1.88,0,0,1-2.34,2.68,29.73,29.73,0,0,1-6.7-3.85,1.88,1.88,0,0,1,2.28-3,25.75,25.75,0,0,0,5.85,3.36A1.86,1.86,0,0,1,220,224.93Z"/><path class="cls-16" d="M245.71,220.09a1.88,1.88,0,0,1,1.15,3.36,29.94,29.94,0,0,1-6.68,3.88,1.88,1.88,0,0,1-1.44-3.47,25.75,25.75,0,0,0,5.83-3.38A1.81,1.81,0,0,1,245.71,220.09Z"/><path class="cls-16" d="M254.37,195.39a1.88,1.88,0,0,1,3.49.69,29.78,29.78,0,0,1,0,7.72,1.88,1.88,0,0,1-3.72-.48,25.85,25.85,0,0,0,0-6.75A1.84,1.84,0,0,1,254.37,195.39Z"/><path class="cls-16" d="M208.8,217.29a1.88,1.88,0,0,1-3.36,1.15,29.56,29.56,0,0,1-3.88-6.68,1.87,1.87,0,1,1,3.46-1.44,26,26,0,0,0,3.39,5.83A1.87,1.87,0,0,1,208.8,217.29Z"/><path class="cls-16" d="M233.5,226a1.88,1.88,0,0,1-.69,3.49,29.78,29.78,0,0,1-7.72,0,1.88,1.88,0,1,1,.48-3.72,25.78,25.78,0,0,0,6.74,0A1.86,1.86,0,0,1,233.5,226Z"/><path class="cls-16" d="M253.35,208.9a1.87,1.87,0,0,1,2.67,2.33,29.11,29.11,0,0,1-3.84,6.7,1.87,1.87,0,1,1-3-2.27,25.71,25.71,0,0,0,3.35-5.85A1.88,1.88,0,0,1,253.35,208.9Z"/><path class="cls-16" d="M248.5,183.18a1.88,1.88,0,0,1,3.36-1.15,29.19,29.19,0,0,1,3.88,6.68,1.87,1.87,0,0,1-3.46,1.44,25.22,25.22,0,0,0-3.39-5.83A1.87,1.87,0,0,1,248.5,183.18Z"/><path class="cls-16" d="M237.32,175.54a1.91,1.91,0,0,1-.12-1.65,1.88,1.88,0,0,1,2.45-1,29.52,29.52,0,0,1,6.7,3.85,1.87,1.87,0,0,1-2.27,3,25.75,25.75,0,0,0-5.85-3.36A1.86,1.86,0,0,1,237.32,175.54Z"/><path class="cls-16" d="M223.81,174.52a1.92,1.92,0,0,1-.93-1.38,1.89,1.89,0,0,1,1.61-2.11,29.85,29.85,0,0,1,7.73,0,1.88,1.88,0,1,1-.48,3.72,25.85,25.85,0,0,0-6.75,0A1.83,1.83,0,0,1,223.81,174.52Z"/><path class="cls-16" d="M211.6,180.38a1.88,1.88,0,0,1-1.15-3.36,29.94,29.94,0,0,1,6.68-3.88,1.88,1.88,0,0,1,1.44,3.47,25.54,25.54,0,0,0-5.83,3.38A1.81,1.81,0,0,1,211.6,180.38Z"/><path class="cls-16" d="M207.54,183.29a1.88,1.88,0,0,1-.43,2.12,6.85,6.85,0,0,1-8.84.51,1.88,1.88,0,1,1,2.25-3,3.1,3.1,0,0,0,3.13.36,2.94,2.94,0,0,0,.89-.59,1.88,1.88,0,0,1,2.65.08A1.81,1.81,0,0,1,207.54,183.29Z"/><circle class="cls-16" cx="228.65" cy="200.23" r="22.57"/></svg>