<svg xmlns="http://www.w3.org/2000/svg" viewBox="0 0 281.75 252.59"><defs><style>.a{fill:#1791ff;}.b{fill:#56d695;}.c{fill:#b3b3b3;}.d{fill:#fe7862;}</style></defs><title>hierarchical_throughput</title><path class="a" d="M113.27,22.32a2.07,2.07,0,0,1-.77-.15,2,2,0,0,1-1.07-2.62,32,32,0,0,1,4.23-7.21,2,2,0,0,1,3.16,2.46,27.71,27.71,0,0,0-3.7,6.3A2,2,0,0,1,113.27,22.32Z"/><path class="a" d="M122.81,10.07a2,2,0,0,1-1.21-3.59,31.62,31.62,0,0,1,7.25-4.14,2,2,0,1,1,1.51,3.71A27.91,27.91,0,0,0,124,9.66,1.94,1.94,0,0,1,122.81,10.07Z"/><path class="a" d="M152.56,2.37a2,2,0,0,1,.78.16,32.21,32.21,0,0,1,7.2,4.24,2,2,0,1,1-2.46,3.15,28.08,28.08,0,0,0-6.3-3.7,2,2,0,0,1,.78-3.85Z"/><path class="a" d="M111.15,25.84a1.27,1.27,0,0,1,.28,0,2,2,0,0,1,1.71,2.25,27.61,27.61,0,0,0-.27,3.86,28.65,28.65,0,0,0,.21,3.45l0,.12a2,2,0,0,1-4,.47v-.08a33.26,33.26,0,0,1-.24-4,30.93,30.93,0,0,1,.31-4.41A2,2,0,0,1,111.15,25.84Z"/><path class="a" d="M170.66,26.32a2,2,0,0,1,2,1.72s0,.08,0,.1a31.82,31.82,0,0,1-.06,8.26,2,2,0,0,1-4-.55,26.77,26.77,0,0,0,.27-3.8,28.41,28.41,0,0,0-.22-3.45,2,2,0,0,1,1.73-2.26Z"/><path class="a" d="M163.82,12.19a2,2,0,0,1,2.57.5l.06.08A34.88,34.88,0,0,1,168.61,16,33.84,33.84,0,0,1,170.53,20a2,2,0,0,1-3.71,1.51A27.22,27.22,0,0,0,165.14,18a28.63,28.63,0,0,0-1.9-2.88,2,2,0,0,1,.36-2.82Z"/><path class="a" d="M122.48,53.71a2,2,0,0,1,1.23.42,28,28,0,0,0,6.3,3.69,2,2,0,0,1-1.55,3.69,32.58,32.58,0,0,1-7.21-4.22,2,2,0,0,1-.35-2.81A2,2,0,0,1,122.48,53.71Z"/><path class="a" d="M159,53.93a2,2,0,0,1,1.21,3.59,31.81,31.81,0,0,1-7.26,4.13,2,2,0,1,1-1.51-3.7,28,28,0,0,0,6.35-3.62A2,2,0,0,1,159,53.93Z"/><circle class="a" cx="140.87" cy="32.01" r="25"/><path class="b" d="M261.42,65.21a2,2,0,0,1,.78.16,32.17,32.17,0,0,1,7.2,4.23,2,2,0,1,1-2.46,3.16,28.12,28.12,0,0,0-6.3-3.71,2,2,0,0,1,.78-3.84Z"/><path class="b" d="M52.19,70.2a2,2,0,0,1-3,2.58,27.86,27.86,0,0,0-6.3-3.7,2,2,0,1,1,1.56-3.68,31.73,31.73,0,0,1,7.2,4.23A1.92,1.92,0,0,1,52.19,70.2Z"/><path class="b" d="M63.51,90.17a2,2,0,0,1,.25.76,32.42,32.42,0,0,1-.06,8.35,2,2,0,0,1-4-.56,27.88,27.88,0,0,0,.06-7.3,2,2,0,0,1,3.72-1.25Z"/><path class="b" d="M37.9,64.16a2,2,0,0,1,.24,1.27,2,2,0,0,1-2.25,1.71,28,28,0,0,0-7.31-.07,2,2,0,0,1-.49-4,32,32,0,0,1,8.35.08A2,2,0,0,1,37.9,64.16Z"/><path class="b" d="M255.61,64.13a2,2,0,0,1-2,3,28.4,28.4,0,0,0-7.31-.07,2,2,0,0,1-.49-4,32.42,32.42,0,0,1,8.35.08A2,2,0,0,1,255.61,64.13Z"/><path class="a" d="M146.75,1.29a2,2,0,0,1-2,3,28,28,0,0,0-7.31-.06,2,2,0,0,1-.49-4,32,32,0,0,1,8.35.07A2,2,0,0,1,146.75,1.29Z"/><path class="b" d="M61.37,105.55a2,2,0,0,1,.11,1.77,32.13,32.13,0,0,1-4.22,7.21,2,2,0,0,1-3.16-2.46,28.24,28.24,0,0,0,3.7-6.3,2,2,0,0,1,3.57-.22Z"/><path class="b" d="M22.49,66l.12.25a2,2,0,0,1-1.1,2.61A28.62,28.62,0,0,0,18,70.59a30.56,30.56,0,0,0-2.88,1.91l-.09.07a2,2,0,0,1-2.4-3.2l.06-.05A34.42,34.42,0,0,1,16,67.13a31.12,31.12,0,0,1,4-1.94A2,2,0,0,1,22.49,66Z"/><path class="b" d="M51.82,117.82a2,2,0,0,1-.5,2.56l-.08.06A33,33,0,0,1,48,122.6a32.3,32.3,0,0,1-3.92,1.92,2,2,0,0,1-1.51-3.71A27.22,27.22,0,0,0,46,119.13a28.63,28.63,0,0,0,2.88-1.9,2,2,0,0,1,2.82.37Z"/><path class="b" d="M10,75.47a2,2,0,0,1-.15,2.23A27.49,27.49,0,0,0,6.19,84,2,2,0,1,1,2.5,82.46a31.72,31.72,0,0,1,4.21-7.21,2,2,0,0,1,2.81-.36A2.09,2.09,0,0,1,10,75.47Z"/><path class="b" d="M37.45,123.64a2.09,2.09,0,0,1,.26.75A2,2,0,0,1,36,126.62a31.55,31.55,0,0,1-8.35-.06,2,2,0,1,1,.55-4,28,28,0,0,0,7.31.05A2,2,0,0,1,37.45,123.64Z"/><path class="b" d="M4,89.79a2,2,0,0,1,.25,1.27,27.88,27.88,0,0,0,0,7.3,2,2,0,1,1-4,.5,32,32,0,0,1,0-8.35A2,2,0,0,1,2.55,88.8,2,2,0,0,1,4,89.79Z"/><path class="b" d="M22.07,121.51a2,2,0,0,1,.12,1.78,2,2,0,0,1-2.62,1.07,32.13,32.13,0,0,1-7.21-4.22A2,2,0,1,1,14.82,117a27.61,27.61,0,0,0,6.3,3.69A2,2,0,0,1,22.07,121.51Z"/><path class="b" d="M5.94,105.18a1.15,1.15,0,0,1,.12.25,28.44,28.44,0,0,0,3.58,6.29,2,2,0,0,1-.37,2.83,2,2,0,0,1-2.77-.36l-.08-.09a32.77,32.77,0,0,1-4.06-7.16,2,2,0,0,1,3.58-1.76Z"/><path class="c" d="M104.19,53.19a2,2,0,0,1-.73,2.73l-.87.5a2,2,0,0,1-2-3.47l.87-.5A2,2,0,0,1,104.19,53.19Zm-7.79,4.5a2,2,0,0,1-.74,2.73l-.86.5a2,2,0,0,1-2-3.47l.86-.5A2,2,0,0,1,96.4,57.69Zm-7.8,4.5a2,2,0,0,1-.73,2.73l-.87.5A2,2,0,0,1,85,62l.87-.5A2,2,0,0,1,88.6,62.19Zm-7.79,4.5a2,2,0,0,1-.73,2.73l-.87.5a2,2,0,0,1-2-3.47l.87-.5A2,2,0,0,1,80.81,66.69ZM73,71.19a2,2,0,0,1-.73,2.73l-.86.5a2,2,0,1,1-2-3.47l.86-.5A2,2,0,0,1,73,71.19Z"/><circle class="b" cx="32" cy="94.87" r="25"/><path class="b" d="M65.22,75.69a2,2,0,0,1-.73,2.73l-1.75,1A3.07,3.07,0,0,0,61.44,82s0,.26.06.75a2,2,0,1,1-4,.31c0-.41-.06-.64-.06-.66A7,7,0,0,1,60.74,76l1.75-1A2,2,0,0,1,65.22,75.69Z"/><path class="a" d="M107.65,51.19a2,2,0,0,1,.74-2.74l1.75-1a3.12,3.12,0,0,0,1.3-2.54s0-.27-.07-.76a2,2,0,0,1,4-.31c0,.42,0,.65.06.66a7,7,0,0,1-3.28,6.42l-1.75,1A2,2,0,0,1,107.65,51.19Z"/><path class="b" d="M129.61,127.91a2,2,0,0,1,.75,3.85,28.25,28.25,0,0,0-6.35,3.6,2,2,0,1,1-2.41-3.19,32.15,32.15,0,0,1,7.26-4.12A2,2,0,0,1,129.61,127.91Z"/><path class="b" d="M152.56,128.09a2,2,0,0,1,.78.16,32.17,32.17,0,0,1,7.2,4.23,2,2,0,1,1-2.46,3.15,28.08,28.08,0,0,0-6.3-3.7,2,2,0,0,1,.78-3.84Z"/><path class="b" d="M117.23,137.26a2,2,0,0,1,1.57,3.23,28.5,28.5,0,0,0-3.71,6.3,2,2,0,1,1-3.68-1.57,32.37,32.37,0,0,1,4.24-7.19A2,2,0,0,1,117.23,137.26Z"/><path class="b" d="M164.81,137.63a2,2,0,0,1,1.59.79,32,32,0,0,1,4.13,7.26,2,2,0,1,1-3.71,1.51,27.66,27.66,0,0,0-3.6-6.35,2,2,0,0,1,1.59-3.21Z"/><path class="b" d="M111.15,151.55l.28,0a2,2,0,0,1,1.71,2.26,27.58,27.58,0,0,0-.27,3.85,28.4,28.4,0,0,0,.21,3.45l0,.12a2,2,0,0,1-4,.48v-.08a33.42,33.42,0,0,1-.24-4,31,31,0,0,1,.31-4.41A2,2,0,0,1,111.15,151.55Z"/><path class="b" d="M170.66,152a2,2,0,0,1,2,1.71s0,.09,0,.1a31.82,31.82,0,0,1-.06,8.26,2,2,0,0,1-4-.54,27,27,0,0,0,.27-3.81,28.41,28.41,0,0,0-.22-3.45,2,2,0,0,1,1.73-2.26Z"/><path class="b" d="M122.48,179.42a2,2,0,0,1,1.23.42,27.67,27.67,0,0,0,6.3,3.69,2,2,0,1,1-1.55,3.69,31.82,31.82,0,0,1-7.21-4.22,2,2,0,0,1,1.23-3.58Z"/><path class="b" d="M159,179.64a2,2,0,0,1,1.59.79,2,2,0,0,1-.38,2.81,31.81,31.81,0,0,1-7.26,4.13,2,2,0,1,1-1.51-3.71,27.91,27.91,0,0,0,6.35-3.61A2,2,0,0,1,159,179.64Z"/><path class="b" d="M136.78,185.45l.27,0a28.29,28.29,0,0,0,7.24,0,2,2,0,0,1,2.26,1.74,2,2,0,0,1-1.69,2.22l-.12,0a32.4,32.4,0,0,1-8.23-.06,2,2,0,0,1,.27-4Z"/><path class="c" d="M140.87,74.37a2,2,0,0,1,2,2v1a2,2,0,0,1-4,0v-1A2,2,0,0,1,140.87,74.37Zm0,9a2,2,0,0,1,2,2v1a2,2,0,0,1-4,0v-1A2,2,0,0,1,140.87,83.37Zm0,9a2,2,0,0,1,2,2v1a2,2,0,0,1-4,0v-1A2,2,0,0,1,140.87,92.37Zm0,9a2,2,0,0,1,2,2v1a2,2,0,0,1-4,0v-1A2,2,0,0,1,140.87,101.37Zm0,9a2,2,0,0,1,2,2v1a2,2,0,0,1-4,0v-1A2,2,0,0,1,140.87,110.37Z"/><circle class="b" cx="140.87" cy="157.72" r="25"/><path class="b" d="M140.87,119.37a2,2,0,0,1,2,2v2a3.08,3.08,0,0,0,1.56,2.4l.69.33a2,2,0,0,1-1.73,3.61l-.6-.29a7,7,0,0,1-3.92-6.05v-2A2,2,0,0,1,140.87,119.37Z"/><path class="a" d="M140.87,70.37a2,2,0,0,1-2-2v-2a3.09,3.09,0,0,0-1.55-2.4l-.69-.33A2,2,0,0,1,138.35,60l.6.29a7,7,0,0,1,3.92,6v2A2,2,0,0,1,140.87,70.37Z"/><path class="b" d="M218.29,89.71A2,2,0,0,1,222,91a27.87,27.87,0,0,0-.06,7.3,2,2,0,0,1-4,.5,31.62,31.62,0,0,1,.07-8.36A2,2,0,0,1,218.29,89.71Z"/><path class="b" d="M229.93,69.92a1.94,1.94,0,0,1,.52-.59,32,32,0,0,1,7.27-4.12,2,2,0,0,1,1.5,3.71,28.1,28.1,0,0,0-6.36,3.6,2,2,0,0,1-2.93-2.6Z"/><path class="b" d="M220.2,105.11a2,2,0,0,1,1-.85,2,2,0,0,1,2.6,1.11,28.32,28.32,0,0,0,3.6,6.36,2,2,0,0,1-3.2,2.4,32,32,0,0,1-4.11-7.27A2,2,0,0,1,220.2,105.11Z"/><path class="b" d="M229.54,117.52c.05-.08.1-.16.16-.24a2,2,0,0,1,2.8-.34,30,30,0,0,0,3.21,2.16,28.69,28.69,0,0,0,3.09,1.54l.11,0a2,2,0,0,1-1.57,3.68l-.08,0a32.62,32.62,0,0,1-3.55-1.77,32.26,32.26,0,0,1-3.67-2.47A2,2,0,0,1,229.54,117.52Z"/><path class="b" d="M243.94,123.59a2,2,0,0,1,2-1,27.45,27.45,0,0,0,7.3,0,2,2,0,0,1,.5,4,32,32,0,0,1-8.35,0,2,2,0,0,1-1.71-2.26A2,2,0,0,1,243.94,123.59Z"/><path class="b" d="M271.94,75.76a2,2,0,0,1,3.32-.21,32.19,32.19,0,0,1,4.13,7.26,2,2,0,0,1-3.71,1.51A27.76,27.76,0,0,0,272.07,78,2,2,0,0,1,271.94,75.76Z"/><path class="b" d="M259.34,121.64a2,2,0,0,1,1-.85,28.29,28.29,0,0,0,6.35-3.61,2,2,0,0,1,2.41,3.19,32.28,32.28,0,0,1-7.25,4.13,2,2,0,0,1-2.49-2.86Z"/><path class="b" d="M277.78,90.14a2,2,0,0,1,1.49-1,2,2,0,0,1,2.23,1.74,31.55,31.55,0,0,1-.05,8.35,2,2,0,1,1-4-.55,27.87,27.87,0,0,0,0-7.3A2,2,0,0,1,277.78,90.14Z"/><path class="b" d="M271.71,112.27l.15-.23a28.16,28.16,0,0,0,3.66-6.23,2,2,0,0,1,2.64-1.1,2,2,0,0,1,1.08,2.58.54.54,0,0,0-.05.11,32,32,0,0,1-4.17,7.1,2,2,0,0,1-3.31-2.23Z"/><path class="c" d="M177.56,53.19a2,2,0,0,1,2.73-.74l.86.5a2,2,0,1,1-2,3.47l-.86-.5A2,2,0,0,1,177.56,53.19Zm7.79,4.5a2,2,0,0,1,2.73-.74l.87.5a2,2,0,0,1-2,3.47l-.87-.5A2,2,0,0,1,185.35,57.69Zm7.79,4.5a2,2,0,0,1,2.74-.74l.86.5a2,2,0,0,1-2,3.47l-.86-.5A2,2,0,0,1,193.14,62.19Zm7.8,4.5a2,2,0,0,1,2.73-.74l.87.5a2,2,0,0,1-2,3.47l-.87-.5A2,2,0,0,1,200.94,66.69Zm7.79,4.5a2,2,0,0,1,2.73-.74l.87.5a2,2,0,0,1-2,3.47l-.87-.5A2,2,0,0,1,208.73,71.19Z"/><circle class="b" cx="249.74" cy="94.87" r="25"/><path class="b" d="M216.53,75.69a2,2,0,0,1,2.73-.74L221,76a3.09,3.09,0,0,0,2.85-.14l.63-.44a2,2,0,0,1,2.26,3.3l-.54.38a7,7,0,0,1-7.2.37l-1.75-1A2,2,0,0,1,216.53,75.69Z"/><path class="a" d="M174.09,51.19a2,2,0,0,1-2.73.73l-1.75-1a3.08,3.08,0,0,0-2.86.15l-.62.43a2,2,0,0,1-2.26-3.3l.54-.38a7,7,0,0,1,7.2-.37l1.75,1A2,2,0,0,1,174.09,51.19Z"/><path class="d" d="M261.42,190.93a2.12,2.12,0,0,1,.78.15,32.21,32.21,0,0,1,7.2,4.24,2,2,0,1,1-2.46,3.15,28.08,28.08,0,0,0-6.3-3.7,2,2,0,0,1,.78-3.84Z"/><path class="d" d="M52.19,195.92a2,2,0,0,1-3,2.58,27.9,27.9,0,0,0-6.3-3.71,2,2,0,1,1,1.56-3.68,31.73,31.73,0,0,1,7.2,4.23A2,2,0,0,1,52.19,195.92Z"/><path class="d" d="M63.51,215.89a1.9,1.9,0,0,1,.25.75A32.42,32.42,0,0,1,63.7,225a2,2,0,0,1-4-.55,28,28,0,0,0,.06-7.31,2,2,0,0,1,3.72-1.24Z"/><path class="d" d="M37.9,189.87a2,2,0,0,1-2,3,28.4,28.4,0,0,0-7.31-.07,2,2,0,1,1-.49-4,32.42,32.42,0,0,1,8.35.08A2,2,0,0,1,37.9,189.87Z"/><path class="d" d="M255.61,189.85a2,2,0,0,1-2,3,28,28,0,0,0-7.31-.06,2,2,0,1,1-.49-4,32.42,32.42,0,0,1,8.35.07A2,2,0,0,1,255.61,189.85Z"/><path class="d" d="M61.37,231.26a2,2,0,0,1,.11,1.78,32.07,32.07,0,0,1-4.22,7.2,2,2,0,1,1-3.16-2.46,28.17,28.17,0,0,0,3.7-6.29,2,2,0,0,1,2.62-1.07A2.05,2.05,0,0,1,61.37,231.26Z"/><path class="d" d="M22.49,191.76l.12.25a2,2,0,0,1-1.1,2.6,28,28,0,0,0-6.36,3.61l-.09.07a2,2,0,0,1-2.4-3.2l.06-.05a34.53,34.53,0,0,1,3.31-2.2,34,34,0,0,1,4-1.94A2,2,0,0,1,22.49,191.76Z"/><path class="d" d="M51.82,243.53a2,2,0,0,1-.5,2.56l-.08.06A31.33,31.33,0,0,1,48,248.31a32.3,32.3,0,0,1-3.92,1.92,2,2,0,0,1-1.51-3.7,28,28,0,0,0,6.31-3.59,2,2,0,0,1,2.82.37Z"/><path class="d" d="M10,201.19a2,2,0,0,1-.15,2.22,27.49,27.49,0,0,0-3.68,6.31,2,2,0,0,1-3.69-1.55A31.94,31.94,0,0,1,6.71,201a2,2,0,0,1,2.81-.35A1.84,1.84,0,0,1,10,201.19Z"/><path class="d" d="M37.45,249.35a2.14,2.14,0,0,1,.26.76A2,2,0,0,1,36,252.34a32.42,32.42,0,0,1-8.35-.06,2,2,0,1,1,.55-4,28.39,28.39,0,0,0,7.31.05A2,2,0,0,1,37.45,249.35Z"/><path class="d" d="M4,215.5a2,2,0,0,1,.25,1.27,28,28,0,0,0,0,7.31,2,2,0,0,1-4,.5,32,32,0,0,1,0-8.35,2,2,0,0,1,2.25-1.71A2,2,0,0,1,4,215.5Z"/><path class="d" d="M22.07,247.23a2,2,0,0,1,.12,1.77,2,2,0,0,1-2.62,1.07,31.4,31.4,0,0,1-7.21-4.22,2,2,0,0,1,2.46-3.16,27.25,27.25,0,0,0,6.3,3.69A2,2,0,0,1,22.07,247.23Z"/><path class="d" d="M5.94,230.9a1.15,1.15,0,0,1,.12.25,28.37,28.37,0,0,0,3.58,6.28,2,2,0,0,1-.37,2.83,2,2,0,0,1-2.77-.35l-.08-.1a32.46,32.46,0,0,1-4.06-7.15,2,2,0,0,1,3.58-1.76Z"/><path class="c" d="M104.19,178.9a2,2,0,0,1-.73,2.73l-.87.5a2,2,0,0,1-2-3.46l.87-.5A2,2,0,0,1,104.19,178.9Zm-7.79,4.5a2,2,0,0,1-.74,2.73l-.86.5a2,2,0,0,1-2-3.46l.86-.5A2,2,0,0,1,96.4,183.4Zm-7.8,4.5a2,2,0,0,1-.73,2.73l-.87.5a2,2,0,0,1-2-3.46l.87-.5A2,2,0,0,1,88.6,187.9Zm-7.79,4.5a2,2,0,0,1-.73,2.73l-.87.5a2,2,0,1,1-2-3.46l.87-.5A2,2,0,0,1,80.81,192.4ZM73,196.9a2,2,0,0,1-.73,2.73l-.86.5a2,2,0,1,1-2-3.46l.86-.5A2,2,0,0,1,73,196.9Z"/><circle class="d" cx="32" cy="220.58" r="25"/><path class="d" d="M65.22,201.4a2,2,0,0,1-.73,2.73l-1.75,1a3.07,3.07,0,0,0-1.3,2.55s0,.27.06.76a2,2,0,1,1-4,.31c0-.42-.06-.65-.06-.66a7,7,0,0,1,3.28-6.42l1.75-1A2,2,0,0,1,65.22,201.4Z"/><path class="b" d="M107.65,176.9a2,2,0,0,1,.74-2.73l1.75-1a3.12,3.12,0,0,0,1.3-2.55s0-.27-.07-.75a2,2,0,0,1,4-.32c0,.42,0,.65.06.66a7,7,0,0,1-3.28,6.42l-1.75,1A2,2,0,0,1,107.65,176.9Z"/><path class="d" d="M218.29,215.43A2,2,0,0,1,222,216.7,28,28,0,0,0,222,224a2,2,0,0,1-4,.49,31.54,31.54,0,0,1,.07-8.35A1.92,1.92,0,0,1,218.29,215.43Z"/><path class="d" d="M229.93,195.64a2,2,0,0,1,.52-.6,32,32,0,0,1,7.27-4.11,2,2,0,1,1,1.5,3.7,28.14,28.14,0,0,0-6.36,3.61,2,2,0,0,1-2.93-2.6Z"/><path class="d" d="M220.2,230.83a2,2,0,0,1,3.59.25,28.1,28.1,0,0,0,3.6,6.36,2,2,0,0,1-3.2,2.41,32.18,32.18,0,0,1-4.11-7.27A2,2,0,0,1,220.2,230.83Z"/><path class="d" d="M229.54,243.23a1.88,1.88,0,0,1,.16-.23,2,2,0,0,1,2.8-.35,28.19,28.19,0,0,0,6.3,3.7l.11.05a2,2,0,0,1-1.57,3.68l-.08,0a32.56,32.56,0,0,1-3.55-1.76,33.63,33.63,0,0,1-3.67-2.47A2,2,0,0,1,229.54,243.23Z"/><path class="d" d="M243.94,249.31a2,2,0,0,1,2-1,27.87,27.87,0,0,0,7.3,0,2,2,0,0,1,.5,4,32,32,0,0,1-8.35,0,2,2,0,0,1-1.71-2.25A2,2,0,0,1,243.94,249.31Z"/><path class="d" d="M271.94,201.47a2,2,0,0,1,3.32-.2,32,32,0,0,1,4.13,7.26,2,2,0,0,1-3.71,1.5,27.7,27.7,0,0,0-3.61-6.35A2,2,0,0,1,271.94,201.47Z"/><path class="d" d="M259.34,247.36a2,2,0,0,1,1-.85,28.33,28.33,0,0,0,6.35-3.62,2,2,0,1,1,2.41,3.19,31.9,31.9,0,0,1-7.25,4.13,2,2,0,0,1-2.49-2.85Z"/><path class="d" d="M277.78,215.85a2,2,0,0,1,3.72.75,31.54,31.54,0,0,1-.05,8.35,2,2,0,1,1-4-.55,27.87,27.87,0,0,0,0-7.3A2.05,2.05,0,0,1,277.78,215.85Z"/><path class="d" d="M271.71,238l.15-.23a28.46,28.46,0,0,0,3.66-6.24,2,2,0,0,1,2.64-1.1,2,2,0,0,1,1.08,2.58.54.54,0,0,0-.05.11,31.79,31.79,0,0,1-4.17,7.1,2,2,0,0,1-3.31-2.22Z"/><path class="c" d="M177.56,178.9a2,2,0,0,1,2.73-.73l.86.5a2,2,0,1,1-2,3.46l-.86-.5A2,2,0,0,1,177.56,178.9Zm7.79,4.5a2,2,0,0,1,2.73-.73l.87.5a2,2,0,1,1-2,3.46l-.87-.5A2,2,0,0,1,185.35,183.4Zm7.79,4.5a2,2,0,0,1,2.74-.73l.86.5a2,2,0,0,1-2,3.46l-.86-.5A2,2,0,0,1,193.14,187.9Zm7.8,4.5a2,2,0,0,1,2.73-.73l.87.5a2,2,0,1,1-2,3.46l-.87-.5A2,2,0,0,1,200.94,192.4Zm7.79,4.5a2,2,0,0,1,2.73-.73l.87.5a2,2,0,0,1-2,3.46l-.87-.5A2,2,0,0,1,208.73,196.9Z"/><circle class="d" cx="249.74" cy="220.58" r="25"/><path class="d" d="M216.53,201.4a2,2,0,0,1,2.73-.73l1.75,1a3.06,3.06,0,0,0,2.85-.15l.63-.43a2,2,0,1,1,2.26,3.29l-.54.38a7,7,0,0,1-7.2.37l-1.75-1A2,2,0,0,1,216.53,201.4Z"/><path class="b" d="M174.09,176.9a2,2,0,0,1-2.73.73l-1.75-1a3.11,3.11,0,0,0-2.86.15s-.21.16-.62.43a2,2,0,1,1-2.26-3.29l.54-.38a7,7,0,0,1,7.2-.37l1.75,1A2,2,0,0,1,174.09,176.9Z"/></svg>