<svg id="Layer_1" data-name="Layer 1" xmlns="http://www.w3.org/2000/svg" xmlns:xlink="http://www.w3.org/1999/xlink" viewBox="0 0 258.36 286.53"><defs><style>.cls-1{fill:url(#New_Gradient_Swatch_1);}.cls-2{fill:#56d695;}.cls-3,.cls-4,.cls-5,.cls-6{fill:none;stroke-linecap:round;stroke-miterlimit:10;stroke-width:3.75px;}.cls-3,.cls-4{stroke:#56d695;}.cls-4{stroke-dasharray:9.08 9.08;}.cls-5,.cls-6{stroke:#b3b3b3;}.cls-6{stroke-dasharray:0.82 8.24;}.cls-7{fill:url(#New_Gradient_Swatch_1-2);}.cls-8{fill:url(#New_Gradient_Swatch_1-3);}.cls-9{fill:url(#New_Gradient_Swatch_1-4);}.cls-10{fill:url(#New_Gradient_Swatch_1-5);}.cls-11{fill:url(#New_Gradient_Swatch_1-6);}.cls-12{fill:url(#New_Gradient_Swatch_1-7);}.cls-13{fill:url(#New_Gradient_Swatch_1-8);}.cls-14{fill:url(#New_Gradient_Swatch_1-9);}.cls-15{fill:url(#New_Gradient_Swatch_1-10);}.cls-16{fill:url(#New_Gradient_Swatch_1-11);}.cls-17{fill:url(#New_Gradient_Swatch_1-12);}.cls-18{fill:url(#New_Gradient_Swatch_1-13);}</style><linearGradient id="New_Gradient_Swatch_1" x1="110.25" y1="119.72" x2="120.25" y2="119.72" gradientUnits="userSpaceOnUse"><stop offset="0" stop-color="#1791ff"/><stop offset="1" stop-color="#1791ff"/></linearGradient><linearGradient id="New_Gradient_Swatch_1-2" x1="92.37" y1="130.27" x2="98.66" y2="130.27" gradientTransform="translate(22.4 267.27) rotate(-113.74)" xlink:href="#New_Gradient_Swatch_1"/><linearGradient id="New_Gradient_Swatch_1-3" x1="99.71" y1="143.56" x2="103.71" y2="143.56" xlink:href="#New_Gradient_Swatch_1"/><linearGradient id="New_Gradient_Swatch_1-4" x1="92.37" y1="130.27" x2="98.66" y2="130.27" gradientTransform="translate(183.18 297.74) rotate(-173.74)" xlink:href="#New_Gradient_Swatch_1"/><linearGradient id="New_Gradient_Swatch_1-5" x1="110.74" y1="167.1" x2="120.77" y2="167.1" xlink:href="#New_Gradient_Swatch_1"/><linearGradient id="New_Gradient_Swatch_1-6" x1="92.37" y1="130.27" x2="98.66" y2="130.27" gradientTransform="translate(289.96 173.74) rotate(126.26)" xlink:href="#New_Gradient_Swatch_1"/><linearGradient id="New_Gradient_Swatch_1-7" x1="138.11" y1="166.81" x2="148.11" y2="166.81" xlink:href="#New_Gradient_Swatch_1"/><linearGradient id="New_Gradient_Swatch_1-8" x1="92.37" y1="130.27" x2="98.66" y2="130.27" gradientTransform="translate(235.96 19.26) rotate(66.26)" xlink:href="#New_Gradient_Swatch_1"/><linearGradient id="New_Gradient_Swatch_1-9" x1="154.65" y1="142.97" x2="158.65" y2="142.97" xlink:href="#New_Gradient_Swatch_1"/><linearGradient id="New_Gradient_Swatch_1-10" x1="92.37" y1="130.27" x2="98.66" y2="130.27" gradientTransform="translate(75.18 -11.21) rotate(6.26)" xlink:href="#New_Gradient_Swatch_1"/><linearGradient id="New_Gradient_Swatch_1-11" x1="137.59" y1="119.43" x2="147.62" y2="119.43" xlink:href="#New_Gradient_Swatch_1"/><linearGradient id="New_Gradient_Swatch_1-12" x1="92.37" y1="130.27" x2="98.66" y2="130.27" gradientTransform="matrix(0.59, -0.81, 0.81, 0.59, -31.6, 112.79)" xlink:href="#New_Gradient_Swatch_1"/><linearGradient id="New_Gradient_Swatch_1-13" x1="106.61" y1="143.27" x2="151.75" y2="143.27" xlink:href="#New_Gradient_Swatch_1"/></defs><title>hub_and_spoke</title><path class="cls-1" d="M112.12,123.42a1.89,1.89,0,0,1-1.48-.73,1.87,1.87,0,0,1,.34-2.63,29,29,0,0,1,6.68-3.88,1.87,1.87,0,1,1,1.44,3.46,25.54,25.54,0,0,0-5.83,3.38A1.85,1.85,0,0,1,112.12,123.42Z"/><circle class="cls-2" cx="226.52" cy="84.41" r="22.57"/><path class="cls-3" d="M199.7,77.48a27.94,27.94,0,0,1,1.47-4.24"/><path class="cls-4" d="M206.13,65.67a27.68,27.68,0,1,1,8.07,43.55"/><path class="cls-3" d="M210.32,106.88A28,28,0,0,1,206.9,104"/><path class="cls-3" d="M198.5,101.35a6,6,0,0,0,2.56-7.1,50,50,0,0,1-1.76-6.06"/><line class="cls-5" x1="193.89" y1="104.14" x2="193.56" y2="104.34"/><line class="cls-6" x1="186.52" y1="108.6" x2="166.78" y2="120.53"/><line class="cls-5" x1="163.26" y1="122.66" x2="162.94" y2="122.86"/><circle class="cls-2" cx="126.88" cy="29.54" r="22.57"/><path class="cls-3" d="M107.47,49.3a27.78,27.78,0,0,1-2.94-3.4"/><path class="cls-4" d="M100.46,37.83a27.68,27.68,0,1,1,41.75,14.78"/><path class="cls-3" d="M138.24,54.8A26.7,26.7,0,0,1,134,56.3"/><path class="cls-3" d="M127.54,62.28a6,6,0,0,0-4.87-5.78,49.2,49.2,0,0,1-6.13-1.5"/><line class="cls-5" x1="127.65" y1="67.67" x2="127.66" y2="68.04"/><line class="cls-6" x1="127.83" y1="76.28" x2="128.29" y2="99.34"/><line class="cls-5" x1="128.37" y1="103.45" x2="128.38" y2="103.83"/><circle class="cls-2" cx="29.54" cy="88.4" r="22.57"/><path class="cls-3" d="M37,115.09a28,28,0,0,1-4.42.84"/><path class="cls-4" d="M23.51,115.42A27.67,27.67,0,1,1,57.19,86.66"/><path class="cls-3" d="M57.1,91.19a28.9,28.9,0,0,1-.82,4.42"/><path class="cls-3" d="M58.22,104.19a6,6,0,0,0-7.43,1.33,50.2,50.2,0,0,1-4.37,4.56"/><line class="cls-5" x1="62.95" y1="106.79" x2="63.27" y2="106.97"/><line class="cls-6" x1="70.49" y1="110.94" x2="90.69" y2="122.07"/><line class="cls-5" x1="94.3" y1="124.06" x2="94.63" y2="124.24"/><circle class="cls-2" cx="31.84" cy="202.12" r="22.57"/><path class="cls-3" d="M58.66,209.05a28.06,28.06,0,0,1-1.47,4.25"/><path class="cls-4" d="M52.23,220.86a27.68,27.68,0,1,1-8.07-43.55"/><path class="cls-3" d="M48,179.66a27.11,27.11,0,0,1,3.42,2.91"/><path class="cls-3" d="M59.86,185.18a6,6,0,0,0-2.56,7.1,53,53,0,0,1,1.76,6.06"/><line class="cls-5" x1="64.47" y1="182.39" x2="64.79" y2="182.2"/><line class="cls-6" x1="71.84" y1="177.93" x2="91.58" y2="166"/><line class="cls-5" x1="95.1" y1="163.87" x2="95.42" y2="163.68"/><circle class="cls-2" cx="131.48" cy="256.99" r="22.57"/><path class="cls-3" d="M150.89,237.23a27.78,27.78,0,0,1,2.94,3.4"/><path class="cls-4" d="M157.9,248.7a27.68,27.68,0,1,1-41.75-14.78"/><path class="cls-3" d="M120.12,231.73a27.73,27.73,0,0,1,4.24-1.5"/><path class="cls-3" d="M130.82,224.26a6,6,0,0,0,4.87,5.77,49.2,49.2,0,0,1,6.13,1.5"/><line class="cls-5" x1="130.71" y1="218.86" x2="130.7" y2="218.49"/><line class="cls-6" x1="130.53" y1="210.25" x2="130.07" y2="187.2"/><line class="cls-5" x1="129.98" y1="183.08" x2="129.98" y2="182.7"/><circle class="cls-2" cx="228.82" cy="198.14" r="22.57"/><path class="cls-3" d="M221.41,171.45a27,27,0,0,1,4.41-.85"/><path class="cls-4" d="M234.85,171.11a27.67,27.67,0,1,1-33.68,28.76"/><path class="cls-3" d="M201.26,195.34a28.9,28.9,0,0,1,.82-4.42"/><path class="cls-3" d="M200.14,182.34a6,6,0,0,0,7.43-1.33,50.2,50.2,0,0,1,4.37-4.56"/><line class="cls-5" x1="195.41" y1="179.74" x2="195.09" y2="179.56"/><line class="cls-6" x1="187.87" y1="175.59" x2="167.67" y2="164.46"/><line class="cls-5" x1="164.06" y1="162.48" x2="163.73" y2="162.29"/><path class="cls-7" d="M108.07,126.32a1.88,1.88,0,0,1-.43,2.12,6.87,6.87,0,0,1-8.84.51,1.88,1.88,0,0,1,2.24-3,3.1,3.1,0,0,0,3.13.36,3,3,0,0,0,.89-.58,1.87,1.87,0,0,1,2.65.07A1.84,1.84,0,0,1,108.07,126.32Z"/><path class="cls-8" d="M103.46,148.11a1.87,1.87,0,0,1-3.48-.68,29,29,0,0,1,0-7.73,1.87,1.87,0,1,1,3.71.48,26.3,26.3,0,0,0,0,6.75A1.83,1.83,0,0,1,103.46,148.11Z"/><path class="cls-9" d="M104,153.08a1.87,1.87,0,0,1,1.62,1.43,6.8,6.8,0,0,1,.14,2.34,6.9,6.9,0,0,1-4.12,5.57,1.88,1.88,0,0,1-1.48-3.45,3.1,3.1,0,0,0,1.81-3.59,1.88,1.88,0,0,1,1.39-2.26A2,2,0,0,1,104,153.08Z"/><path class="cls-10" d="M120.52,168a1.88,1.88,0,0,1-2.34,2.68,29.73,29.73,0,0,1-6.7-3.85,1.88,1.88,0,1,1,2.28-3,25.54,25.54,0,0,0,5.85,3.36A1.86,1.86,0,0,1,120.52,168Z"/><path class="cls-11" d="M125.06,170a1.89,1.89,0,0,1,2-.69,6.9,6.9,0,0,1,4.86,7.41,1.87,1.87,0,0,1-3.72-.44,3.12,3.12,0,0,0-2.21-3.37,1.89,1.89,0,0,1-1-2.91Z"/><path class="cls-12" d="M146.24,163.12a1.88,1.88,0,0,1,1.14,3.36,29.71,29.71,0,0,1-6.68,3.88,1.87,1.87,0,0,1-1.44-3.46,26,26,0,0,0,5.83-3.39A1.84,1.84,0,0,1,146.24,163.12Z"/><path class="cls-13" d="M150.29,160.21a1.88,1.88,0,0,1,.43-2.12,6.91,6.91,0,0,1,8.84-.51,1.88,1.88,0,0,1-2.24,3,3.13,3.13,0,0,0-3.13-.36,2.71,2.71,0,0,0-.89.59,1.88,1.88,0,0,1-2.65-.08A1.84,1.84,0,0,1,150.29,160.21Z"/><path class="cls-14" d="M154.9,138.42a1.87,1.87,0,0,1,3.48.69,28.92,28.92,0,0,1,0,7.72,1.88,1.88,0,0,1-3.72-.48,25.78,25.78,0,0,0,0-6.74A1.86,1.86,0,0,1,154.9,138.42Z"/><path class="cls-15" d="M154.41,133.45a1.86,1.86,0,0,1-1.62-1.43,6.8,6.8,0,0,1-.14-2.34,6.89,6.89,0,0,1,4.12-5.57,1.88,1.88,0,0,1,1.48,3.45,3.13,3.13,0,0,0-1.88,2.53,3,3,0,0,0,.07,1.07,1.88,1.88,0,0,1-1.39,2.25A1.55,1.55,0,0,1,154.41,133.45Z"/><path class="cls-16" d="M137.84,118.57a1.88,1.88,0,0,1,2.34-2.67,29.32,29.32,0,0,1,6.7,3.84,1.88,1.88,0,1,1-2.28,3,25.54,25.54,0,0,0-5.85-3.36A1.81,1.81,0,0,1,137.84,118.57Z"/><path class="cls-17" d="M133.3,116.51a1.89,1.89,0,0,1-2.05.69,6.89,6.89,0,0,1-4.86-7.4,1.87,1.87,0,1,1,3.72.44,3.14,3.14,0,0,0,1.26,2.89,3.4,3.4,0,0,0,.95.48,1.87,1.87,0,0,1,1.26,2.33A1.89,1.89,0,0,1,133.3,116.51Z"/><circle class="cls-18" cx="129.18" cy="143.27" r="22.57"/></svg>