<svg xmlns="http://www.w3.org/2000/svg" viewBox="0 0 281.76 315.43"><defs><style>.a{fill:#56d695;}.b{fill:#b3b3b3;}.c{fill:#1791ff;}.d{fill:#fe7862;}</style></defs><title>hub_and_connected_spoke</title><path class="a" d="M152.14,61.82a2,2,0,0,1-.75-3.86,27.87,27.87,0,0,0,6.35-3.6,2,2,0,1,1,2.42,3.19,32,32,0,0,1-7.27,4.12A2,2,0,0,1,152.14,61.82Z"/><path class="a" d="M129.19,61.64a2.13,2.13,0,0,1-.78-.16,32.21,32.21,0,0,1-7.2-4.24,2,2,0,1,1,2.46-3.15,28.08,28.08,0,0,0,6.3,3.7,2,2,0,0,1-.78,3.85Z"/><path class="a" d="M116.94,52.09a2,2,0,0,1-1.59-.79A31.81,31.81,0,0,1,111.22,44a2,2,0,0,1,3.71-1.5,27.91,27.91,0,0,0,3.61,6.35,2,2,0,0,1-1.6,3.2Z"/><path class="a" d="M170.6,38.17a1.32,1.32,0,0,1-.28,0,2,2,0,0,1-1.71-2.25,27.72,27.72,0,0,0,.27-3.86,28.65,28.65,0,0,0-.21-3.45v-.12a2,2,0,1,1,4-.47v.08a33.13,33.13,0,0,1,.24,4,32.57,32.57,0,0,1-.3,4.41A2,2,0,0,1,170.6,38.17Z"/><path class="a" d="M111.1,37.69a2,2,0,0,1-2-1.72.44.44,0,0,0,0-.1,33,33,0,0,1,.06-8.26,2,2,0,0,1,4,.55,26.76,26.76,0,0,0-.26,3.8,28.4,28.4,0,0,0,.21,3.45,2,2,0,0,1-1.73,2.26Z"/><path class="a" d="M168.66,22.66a2,2,0,0,1-1.85-1.24,28,28,0,0,0-3.62-6.35,2,2,0,1,1,3.18-2.42,31.48,31.48,0,0,1,4.14,7.26,2,2,0,0,1-1.09,2.6A2.06,2.06,0,0,1,168.66,22.66Z"/><path class="a" d="M113.23,22.34a1.9,1.9,0,0,1-.77-.16,2,2,0,0,1-1.07-2.62,32,32,0,0,1,4.23-7.2,2,2,0,0,1,3.16,2.45,27.78,27.78,0,0,0-3.7,6.31A2,2,0,0,1,113.23,22.34Z"/><path class="a" d="M159.27,10.3a2,2,0,0,1-1.22-.42,28.33,28.33,0,0,0-6.31-3.69A2,2,0,0,1,153.3,2.5a32.52,32.52,0,0,1,7.2,4.22,2,2,0,0,1,.35,2.81A2,2,0,0,1,159.27,10.3Z"/><path class="a" d="M122.77,10.08a2,2,0,0,1-1.21-3.59,32.38,32.38,0,0,1,7.25-4.14,2,2,0,0,1,1.51,3.71A27.91,27.91,0,0,0,124,9.67,1.94,1.94,0,0,1,122.77,10.08Z"/><path class="a" d="M145,4.27h-.27a27.77,27.77,0,0,0-7.23,0,2,2,0,0,1-2.27-1.73A2,2,0,0,1,136.89.25H137a32.4,32.4,0,0,1,8.23,0,2,2,0,0,1-.27,4Z"/><path class="b" d="M140.88,115.36a2,2,0,0,1-2-2v-1a2,2,0,0,1,4,0v1A2,2,0,0,1,140.88,115.36Zm0-9a2,2,0,0,1-2-2v-1a2,2,0,0,1,4,0v1A2,2,0,0,1,140.88,106.36Zm0-9a2,2,0,0,1-2-2v-1a2,2,0,0,1,4,0v1A2,2,0,0,1,140.88,97.36Zm0-9a2,2,0,0,1-2-2v-1a2,2,0,0,1,4,0v1A2,2,0,0,1,140.88,88.36Zm0-9a2,2,0,0,1-2-2v-1a2,2,0,0,1,4,0v1A2,2,0,0,1,140.88,79.36Z"/><circle class="a" cx="140.88" cy="32" r="25"/><path class="a" d="M140.88,70.36a2,2,0,0,1-2-2v-2a3.08,3.08,0,0,0-1.56-2.4l-.68-.32A2,2,0,1,1,138.36,60l.6.28a7,7,0,0,1,3.92,6.05v2A2,2,0,0,1,140.88,70.36Z"/><path class="c" d="M129.62,127.9a2,2,0,0,1,.75,3.86,27.56,27.56,0,0,0-6.36,3.6,2,2,0,1,1-2.41-3.19,31.67,31.67,0,0,1,7.27-4.12A2,2,0,0,1,129.62,127.9Z"/><path class="c" d="M152.57,128.08a2,2,0,0,1,.78.16,32.17,32.17,0,0,1,7.2,4.23,2,2,0,0,1-2.46,3.16,28.12,28.12,0,0,0-6.3-3.71,2,2,0,0,1,.78-3.84Z"/><path class="c" d="M111.16,151.54l.28,0a2,2,0,0,1,1.7,2.26,29.21,29.21,0,0,0-.26,3.86,28.65,28.65,0,0,0,.21,3.45v.11a2,2,0,1,1-4,.48v-.08a33.26,33.26,0,0,1-.24-4,32.35,32.35,0,0,1,.3-4.41A2,2,0,0,1,111.16,151.54Z"/><path class="c" d="M170.66,152a2,2,0,0,1,2,1.71s0,.09,0,.1a31.9,31.9,0,0,1-.06,8.27,2,2,0,0,1-4-.55,28.23,28.23,0,0,0,0-7.26,2,2,0,0,1,1.73-2.25Z"/><path class="c" d="M163.83,137.9a2,2,0,0,1,2.56.5l.06.08a32.53,32.53,0,0,1,4.08,7.18,2,2,0,1,1-3.7,1.51,29.27,29.27,0,0,0-1.68-3.42,26.25,26.25,0,0,0-1.91-2.89,2,2,0,0,1,.37-2.81A1.43,1.43,0,0,1,163.83,137.9Z"/><path class="c" d="M122.49,179.41a2,2,0,0,1,1.22.42,28,28,0,0,0,6.31,3.7,2,2,0,0,1-1.56,3.68,31.76,31.76,0,0,1-7.2-4.22,2,2,0,0,1,1.23-3.58Z"/><path class="c" d="M159,179.63a2,2,0,0,1,1.21,3.6,32,32,0,0,1-7.25,4.13,2,2,0,1,1-1.51-3.7,28,28,0,0,0,6.35-3.62A2,2,0,0,1,159,179.63Z"/><circle class="c" cx="140.88" cy="157.71" r="25"/><path class="c" d="M140.88,119.36a2,2,0,0,1,2,2v2a3.08,3.08,0,0,0,1.56,2.4l.68.32a2,2,0,1,1-1.72,3.61l-.6-.28a7,7,0,0,1-3.92-6.05v-2A2,2,0,0,1,140.88,119.36Z"/><path class="b" d="M249.74,178.2a2,2,0,0,1-2-2v-1a2,2,0,0,1,4,0v1A2,2,0,0,1,249.74,178.2Zm0-9a2,2,0,0,1-2-2v-1a2,2,0,0,1,4,0v1A2,2,0,0,1,249.74,169.2Zm0-9a2,2,0,0,1-2-2v-1a2,2,0,0,1,4,0v1A2,2,0,0,1,249.74,160.2Zm0-9a2,2,0,0,1-2-2v-1a2,2,0,0,1,4,0v1A2,2,0,0,1,249.74,151.2Zm0-9a2,2,0,0,1-2-2v-1a2,2,0,0,1,4,0v1A2,2,0,0,1,249.74,142.2Z"/><path class="d" d="M249.74,133.2a2,2,0,0,1-2-2v-2a3.08,3.08,0,0,0-1.56-2.4l-.68-.33a2,2,0,1,1,1.72-3.61l.6.29a7,7,0,0,1,3.92,6.05v2A2,2,0,0,1,249.74,133.2Z"/><path class="a" d="M261.43,190.92a2,2,0,0,1,.78.16,32.17,32.17,0,0,1,7.2,4.23,2,2,0,0,1-2.46,3.16,27.75,27.75,0,0,0-6.3-3.71,2,2,0,0,1,.78-3.84Z"/><path class="a" d="M249.74,182.2a2,2,0,0,1,2,2v2a3.13,3.13,0,0,0,1.55,2.4s.25.1.69.32a2,2,0,1,1-1.72,3.61l-.6-.29a7,7,0,0,1-3.92-6v-2A2,2,0,0,1,249.74,182.2Z"/><path class="a" d="M63.46,100a2,2,0,0,1-3.71-1.28,27.87,27.87,0,0,0,0-7.3,2,2,0,0,1,4-.49,31.54,31.54,0,0,1-.06,8.35A2.12,2.12,0,0,1,63.46,100Z"/><path class="a" d="M51.83,119.8a2.14,2.14,0,0,1-.53.6A32.5,32.5,0,0,1,44,124.51a2,2,0,0,1-1.51-3.71,28.1,28.1,0,0,0,6.36-3.6,2,2,0,0,1,2.94,2.6Z"/><path class="a" d="M61.55,84.61A2,2,0,0,1,58,84.36,27.69,27.69,0,0,0,54.37,78a2,2,0,1,1,3.19-2.41,32.18,32.18,0,0,1,4.11,7.27A2,2,0,0,1,61.55,84.61Z"/><path class="a" d="M37.44,125.63a2,2,0,0,1-1.48,1,31.54,31.54,0,0,1-8.35-.06,2,2,0,1,1,.55-4,27.87,27.87,0,0,0,7.3.05,2,2,0,0,1,2.23,1.74A1.94,1.94,0,0,1,37.44,125.63Z"/><path class="a" d="M52.21,72.21c0,.08-.1.15-.15.23a2,2,0,0,1-2.81.35A26.88,26.88,0,0,0,46,70.63,28.76,28.76,0,0,0,43,69.08l-.11,0a2,2,0,0,1,1.57-3.68l.08,0A34.53,34.53,0,0,1,48,67.16a32.7,32.7,0,0,1,3.67,2.47A2,2,0,0,1,52.21,72.21Z"/><path class="a" d="M22,123.49a2,2,0,0,1-2.47.85l-.09,0A31,31,0,0,1,16,122.55a32.22,32.22,0,0,1-3.62-2.43A2,2,0,1,1,14.81,117,26.89,26.89,0,0,0,18,119.09a29.79,29.79,0,0,0,3.1,1.54,2,2,0,0,1,1.09,2.63Z"/><path class="a" d="M37.81,66.13a2,2,0,0,1-2,1,28,28,0,0,0-7.31,0,2,2,0,0,1-.5-4,32,32,0,0,1,8.35,0,2,2,0,0,1,1.46,3Z"/><path class="a" d="M9.82,114a2,2,0,0,1-3.33.2,32.15,32.15,0,0,1-4.12-7.26,2,2,0,0,1,3.7-1.5,28.29,28.29,0,0,0,3.61,6.35A2,2,0,0,1,9.82,114Z"/><path class="a" d="M22.41,68.08a2,2,0,0,1-1,.85,28.17,28.17,0,0,0-6.36,3.62,2,2,0,1,1-2.41-3.19,31.81,31.81,0,0,1,7.26-4.13,2,2,0,0,1,2.48,2.85Z"/><path class="a" d="M4,99.58a2,2,0,0,1-1.48,1A2,2,0,0,1,.25,98.84a32,32,0,0,1,0-8.36,2,2,0,0,1,4,.55,28,28,0,0,0,0,7.31A1.94,1.94,0,0,1,4,99.58Z"/><path class="a" d="M10,77.45a1.5,1.5,0,0,1-.15.23,28,28,0,0,0-3.66,6.24A2,2,0,0,1,3.6,85a2,2,0,0,1-1.08-2.59.54.54,0,0,1,0-.11,32.07,32.07,0,0,1,4.16-7.09,2,2,0,0,1,2.8-.36A2,2,0,0,1,10,77.45Z"/><path class="b" d="M104.2,136.54a2,2,0,0,1-2.73.73l-.87-.5a2,2,0,0,1,2-3.47l.87.5A2,2,0,0,1,104.2,136.54ZM96.4,132a2,2,0,0,1-2.73.73l-.87-.5a2,2,0,0,1,2-3.47l.87.5A2,2,0,0,1,96.4,132Zm-7.79-4.5a2,2,0,0,1-2.73.73l-.87-.5a2,2,0,0,1,2-3.47l.87.5A2,2,0,0,1,88.61,127.54Zm-7.8-4.5a2,2,0,0,1-2.73.73l-.86-.5a2,2,0,1,1,2-3.47l.86.5A2,2,0,0,1,80.81,123ZM73,118.54a2,2,0,0,1-2.73.73l-.87-.5a2,2,0,0,1,2-3.47l.87.5A2,2,0,0,1,73,118.54Z"/><circle class="a" cx="32.01" cy="94.86" r="25"/><path class="a" d="M65.23,114a2,2,0,0,1-2.74.73l-1.74-1a3.08,3.08,0,0,0-2.86.15l-.62.43A2,2,0,0,1,55,111c.35-.23.54-.37.55-.38a7,7,0,0,1,7.2-.37l1.74,1A2,2,0,0,1,65.23,114Z"/><path class="c" d="M107.66,138.54a2,2,0,0,1,2.73-.74l1.75,1a3.11,3.11,0,0,0,2.86-.14l.62-.44a2,2,0,1,1,2.26,3.3l-.54.38a7,7,0,0,1-7.2.37l-1.75-1A2,2,0,0,1,107.66,138.54Z"/><path class="a" d="M52.2,195.91a2,2,0,0,1-3,2.58,27.8,27.8,0,0,0-6.29-3.7,2,2,0,1,1,1.55-3.69,31.84,31.84,0,0,1,7.21,4.24A2.25,2.25,0,0,1,52.2,195.91Z"/><path class="a" d="M63.52,215.88a1.9,1.9,0,0,1,.25.75A32,32,0,0,1,63.7,225a2,2,0,1,1-4-.55,28,28,0,0,0,.06-7.31,2,2,0,0,1,3.72-1.24Z"/><path class="a" d="M37.9,189.86a2,2,0,0,1,.25,1.28,2,2,0,0,1-2.26,1.7,28,28,0,0,0-7.31-.06,2,2,0,0,1-.48-4,32,32,0,0,1,8.35.07A2,2,0,0,1,37.9,189.86Z"/><path class="a" d="M61.38,231.25a2,2,0,0,1,.11,1.78,32,32,0,0,1-4.23,7.21,2,2,0,0,1-3.15-2.46,28,28,0,0,0,3.69-6.3,2,2,0,0,1,2.62-1.07A2,2,0,0,1,61.38,231.25Z"/><path class="a" d="M22.49,191.75a2,2,0,0,1,.13.25,2,2,0,0,1-1.11,2.61A27.79,27.79,0,0,0,18,196.3a27.1,27.1,0,0,0-2.88,1.91l-.1.07a2,2,0,1,1-2.39-3.2l.06-.05A31.56,31.56,0,0,1,16,192.84a31,31,0,0,1,4-1.94A2,2,0,0,1,22.49,191.75Z"/><path class="a" d="M51.82,243.52a2,2,0,0,1-.5,2.56l-.08.07A33.46,33.46,0,0,1,48,248.31a32.23,32.23,0,0,1-3.92,1.91,2,2,0,1,1-1.51-3.7A27.9,27.9,0,0,0,46,244.84a27.1,27.1,0,0,0,2.88-1.91,2,2,0,0,1,2.82.37Z"/><path class="a" d="M10,201.18a2,2,0,0,1-.15,2.23,28,28,0,0,0-3.69,6.3,2,2,0,1,1-3.68-1.54A32,32,0,0,1,6.72,201a2,2,0,0,1,2.8-.35A2.15,2.15,0,0,1,10,201.18Z"/><path class="a" d="M37.46,249.35a1.9,1.9,0,0,1,.25.75A2,2,0,0,1,36,252.33a32.34,32.34,0,0,1-8.34-.06,2,2,0,1,1,.54-4,28.4,28.4,0,0,0,7.31.05A2,2,0,0,1,37.46,249.35Z"/><path class="a" d="M4,215.49a2,2,0,0,1,.25,1.27,28.4,28.4,0,0,0,0,7.31,2,2,0,0,1-4,.5,32.42,32.42,0,0,1,.06-8.35A2,2,0,0,1,4,215.49Z"/><path class="a" d="M22.08,247.22a2,2,0,0,1-2.51,2.84,31.54,31.54,0,0,1-7.2-4.22,2,2,0,1,1,2.45-3.15,27.89,27.89,0,0,0,6.31,3.69A2,2,0,0,1,22.08,247.22Z"/><path class="a" d="M6,230.89l.12.25a28.15,28.15,0,0,0,3.58,6.28,2.05,2.05,0,0,1-.37,2.84,2,2,0,0,1-2.78-.36.61.61,0,0,0-.07-.1,32.07,32.07,0,0,1-4.06-7.15A2,2,0,0,1,6,230.89Z"/><path class="b" d="M104.2,178.89a2,2,0,0,1-.73,2.74l-.87.5a2,2,0,0,1-2-3.47l.87-.5A2,2,0,0,1,104.2,178.89Zm-7.8,4.5a2,2,0,0,1-.73,2.74l-.87.5a2,2,0,0,1-2-3.47l.87-.5A2,2,0,0,1,96.4,183.39Zm-7.79,4.5a2,2,0,0,1-.73,2.74l-.87.5a2,2,0,0,1-2-3.47l.87-.5A2,2,0,0,1,88.61,187.89Zm-7.8,4.5a2,2,0,0,1-.73,2.74l-.86.5a2,2,0,1,1-2-3.47l.86-.5A2,2,0,0,1,80.81,192.39ZM73,196.89a2,2,0,0,1-.73,2.74l-.87.5a2,2,0,0,1-2-3.47l.87-.5A2,2,0,0,1,73,196.89Z"/><circle class="a" cx="32.01" cy="220.57" r="25"/><path class="a" d="M65.23,201.39a2,2,0,0,1-.74,2.74l-1.74,1a3.1,3.1,0,0,0-1.31,2.54s0,.27.07.76a2,2,0,0,1-4,.31c0-.42-.05-.65-.05-.66a7,7,0,0,1,3.28-6.42l1.74-1A2,2,0,0,1,65.23,201.39Z"/><path class="c" d="M107.66,176.89a2,2,0,0,1,.73-2.73l1.75-1a3.07,3.07,0,0,0,1.3-2.55s0-.26-.06-.75a2,2,0,1,1,4-.31c0,.41,0,.64,0,.66a7,7,0,0,1-3.28,6.42l-1.75,1A2,2,0,0,1,107.66,176.89Z"/><path class="a" d="M129.62,253.61a2,2,0,0,1,.75,3.86,27.94,27.94,0,0,0-6.36,3.6,2,2,0,1,1-2.41-3.19,32,32,0,0,1,7.27-4.12A2,2,0,0,1,129.62,253.61Z"/><path class="a" d="M152.57,253.79a2.13,2.13,0,0,1,.78.16,32.21,32.21,0,0,1,7.2,4.24,2,2,0,0,1-2.46,3.15,28.08,28.08,0,0,0-6.3-3.7,2,2,0,0,1,.78-3.85Z"/><path class="a" d="M117.23,263a2,2,0,0,1,1.58,3.23,27.75,27.75,0,0,0-3.71,6.3,2,2,0,0,1-3.68-1.57,31.56,31.56,0,0,1,4.24-7.19A2,2,0,0,1,117.23,263Z"/><path class="a" d="M164.81,263.34a2,2,0,0,1,1.6.79,31.81,31.81,0,0,1,4.13,7.26,2,2,0,0,1-3.71,1.5,27.91,27.91,0,0,0-3.61-6.35,2,2,0,0,1,1.59-3.2Z"/><path class="a" d="M111.16,277.26a1.32,1.32,0,0,1,.28,0,2,2,0,0,1,1.7,2.25,29.33,29.33,0,0,0-.26,3.86,28.65,28.65,0,0,0,.21,3.45V287a2,2,0,1,1-4,.47v-.08a33.13,33.13,0,0,1-.24-4,32.57,32.57,0,0,1,.3-4.41A2,2,0,0,1,111.16,277.26Z"/><path class="a" d="M170.66,277.74a2,2,0,0,1,2,1.72s0,.08,0,.1a31.82,31.82,0,0,1-.06,8.26,2,2,0,1,1-4-.55,28.16,28.16,0,0,0,0-7.25,2,2,0,0,1,1.73-2.26Z"/><path class="a" d="M113.1,292.77A2,2,0,0,1,115,294a28,28,0,0,0,3.62,6.35,2,2,0,0,1-3.19,2.42,32.22,32.22,0,0,1-4.14-7.26,2,2,0,0,1,1.1-2.6A2.06,2.06,0,0,1,113.1,292.77Z"/><path class="a" d="M168.53,293.09a1.9,1.9,0,0,1,.77.16,2,2,0,0,1,1.07,2.62,32,32,0,0,1-4.23,7.2,2,2,0,0,1-3.16-2.45,27.78,27.78,0,0,0,3.7-6.31A2,2,0,0,1,168.53,293.09Z"/><path class="a" d="M122.49,305.13a2,2,0,0,1,1.22.42,28.33,28.33,0,0,0,6.31,3.69,2,2,0,0,1-1.56,3.69,32.52,32.52,0,0,1-7.2-4.22,2,2,0,0,1-.35-2.81A2,2,0,0,1,122.49,305.13Z"/><path class="a" d="M159,305.35a2,2,0,0,1,1.21,3.59,32.38,32.38,0,0,1-7.25,4.14,2,2,0,1,1-1.51-3.71,28.29,28.29,0,0,0,6.35-3.61A1.94,1.94,0,0,1,159,305.35Z"/><path class="a" d="M136.79,311.16h.27a27.77,27.77,0,0,0,7.23.05,2,2,0,0,1,2.27,1.73,2,2,0,0,1-1.69,2.23h-.13a32.32,32.32,0,0,1-8.22-.05,2,2,0,0,1,.27-4Z"/><path class="b" d="M140.88,200.07a2,2,0,0,1,2,2v1a2,2,0,0,1-4,0v-1A2,2,0,0,1,140.88,200.07Zm0,9a2,2,0,0,1,2,2v1a2,2,0,0,1-4,0v-1A2,2,0,0,1,140.88,209.07Zm0,9a2,2,0,0,1,2,2v1a2,2,0,0,1-4,0v-1A2,2,0,0,1,140.88,218.07Zm0,9a2,2,0,0,1,2,2v1a2,2,0,0,1-4,0v-1A2,2,0,0,1,140.88,227.07Zm0,9a2,2,0,0,1,2,2v1a2,2,0,0,1-4,0v-1A2,2,0,0,1,140.88,236.07Z"/><circle class="a" cx="140.88" cy="283.43" r="25"/><path class="a" d="M140.88,245.07a2,2,0,0,1,2,2v2a3.08,3.08,0,0,0,1.56,2.4l.68.32a2,2,0,1,1-1.72,3.61l-.6-.28a7,7,0,0,1-3.92-6v-2A2,2,0,0,1,140.88,245.07Z"/><path class="c" d="M140.88,196.07a2,2,0,0,1-2-2v-2a3.08,3.08,0,0,0-1.56-2.4l-.68-.32a2,2,0,1,1,1.72-3.61l.6.28a7,7,0,0,1,3.92,6.05v2A2,2,0,0,1,140.88,196.07Z"/><path class="a" d="M218.3,215.42A2,2,0,0,1,222,216.7a27.45,27.45,0,0,0,0,7.3,2,2,0,0,1-4,.49,31.54,31.54,0,0,1,.06-8.35A2.12,2.12,0,0,1,218.3,215.42Z"/><path class="a" d="M229.93,195.63a2,2,0,0,1,.53-.6,32.5,32.5,0,0,1,7.26-4.11,2,2,0,0,1,1.51,3.71,28.1,28.1,0,0,0-6.36,3.6,2,2,0,0,1-2.94-2.6Z"/><path class="a" d="M220.21,230.82a2,2,0,0,1,1-.85,2,2,0,0,1,2.61,1.1,27.69,27.69,0,0,0,3.59,6.36,2,2,0,1,1-3.19,2.41,32.18,32.18,0,0,1-4.11-7.27A2,2,0,0,1,220.21,230.82Z"/><path class="a" d="M229.55,243.22c0-.08.1-.15.15-.23a2,2,0,0,1,2.81-.35,26.88,26.88,0,0,0,3.21,2.16,28.76,28.76,0,0,0,3.09,1.55l.11,0a2,2,0,0,1-1.58,3.68l-.07,0a33.55,33.55,0,0,1-3.55-1.77,32.7,32.7,0,0,1-3.67-2.47A2,2,0,0,1,229.55,243.22Z"/><path class="a" d="M244,249.3a2,2,0,0,1,2-1,27.88,27.88,0,0,0,7.3,0,2,2,0,1,1,.51,4,31.54,31.54,0,0,1-8.35,0A2,2,0,0,1,243.7,250,1.81,1.81,0,0,1,244,249.3Z"/><path class="a" d="M271.94,201.46a2,2,0,0,1,3.33-.2,32.15,32.15,0,0,1,4.12,7.26,2,2,0,1,1-3.7,1.5,28.29,28.29,0,0,0-3.61-6.35A2,2,0,0,1,271.94,201.46Z"/><path class="a" d="M259.35,247.35a2,2,0,0,1,1-.85,27.89,27.89,0,0,0,6.35-3.62,2,2,0,1,1,2.42,3.19,31.81,31.81,0,0,1-7.26,4.13,2,2,0,0,1-2.48-2.85Z"/><path class="a" d="M277.79,215.85a2,2,0,0,1,1.48-1,2,2,0,0,1,2.24,1.73,32,32,0,0,1-.05,8.36,2,2,0,0,1-4-.55,28,28,0,0,0,0-7.31A1.94,1.94,0,0,1,277.79,215.85Z"/><path class="a" d="M271.72,238a1.5,1.5,0,0,1,.15-.23,28,28,0,0,0,3.66-6.24,2,2,0,0,1,2.63-1.1,2,2,0,0,1,1.08,2.59.54.54,0,0,1-.05.11A32.07,32.07,0,0,1,275,240.2a2,2,0,0,1-3.31-2.22Z"/><path class="b" d="M177.56,178.89a2,2,0,0,1,2.73-.73l.87.5a2,2,0,0,1-2,3.47l-.87-.5A2,2,0,0,1,177.56,178.89Zm7.8,4.5a2,2,0,0,1,2.73-.73l.86.5a2,2,0,1,1-2,3.47l-.86-.5A2,2,0,0,1,185.36,183.39Zm7.79,4.5a2,2,0,0,1,2.73-.73l.87.5a2,2,0,0,1-2,3.47l-.87-.5A2,2,0,0,1,193.15,187.89Zm7.79,4.5a2,2,0,0,1,2.74-.73l.86.5a2,2,0,0,1-2,3.47l-.86-.5A2,2,0,0,1,200.94,192.39Zm7.8,4.5a2,2,0,0,1,2.73-.73l.87.5a2,2,0,0,1-2,3.47l-.87-.5A2,2,0,0,1,208.74,196.89Z"/><circle class="a" cx="249.75" cy="220.57" r="25"/><path class="a" d="M216.53,201.39a2,2,0,0,1,2.74-.73l1.74,1a3.08,3.08,0,0,0,2.86-.15l.62-.43a2,2,0,0,1,2.27,3.3c-.35.23-.54.37-.55.38a7,7,0,0,1-7.2.37l-1.74-1A2,2,0,0,1,216.53,201.39Z"/><path class="c" d="M174.1,176.89a2,2,0,0,1-2.73.74l-1.75-1a3.11,3.11,0,0,0-2.86.14l-.62.44a2,2,0,0,1-2.27-3.3l.55-.38a7,7,0,0,1,7.2-.37l1.75,1A2,2,0,0,1,174.1,176.89Z"/><path class="d" d="M229.91,69.92a2,2,0,0,1,.53-.6,31.89,31.89,0,0,1,7.26-4.11,2,2,0,1,1,1.5,3.7,28.2,28.2,0,0,0-6.35,3.6,2,2,0,0,1-2.94-2.59Z"/><path class="b" d="M177.54,53.18a2,2,0,0,1,2.73-.73l.87.5a2,2,0,1,1-2,3.46l-.87-.5A2,2,0,0,1,177.54,53.18Zm7.79,4.5a2,2,0,0,1,2.74-.73l.86.5a2,2,0,0,1-2,3.46l-.86-.5A2,2,0,0,1,185.33,57.68Zm7.8,4.5a2,2,0,0,1,2.73-.73l.87.5a2,2,0,1,1-2,3.46l-.87-.5A2,2,0,0,1,193.13,62.18Zm7.79,4.5a2,2,0,0,1,2.73-.73l.87.5a2,2,0,0,1-2,3.46l-.87-.5A2,2,0,0,1,200.92,66.68Zm7.8,4.5a2,2,0,0,1,2.73-.73l.86.5a2,2,0,1,1-2,3.46l-.86-.5A2,2,0,0,1,208.72,71.18Z"/><path class="d" d="M216.51,75.68a2,2,0,0,1,2.73-.73L221,76a3.08,3.08,0,0,0,2.86-.15s.21-.16.62-.43a2,2,0,1,1,2.26,3.29l-.54.38a7,7,0,0,1-7.2.37l-1.75-1A2,2,0,0,1,216.51,75.68Z"/><path class="a" d="M174.07,51.18a2,2,0,0,1-2.73.73l-1.75-1a3.09,3.09,0,0,0-2.85.15l-.62.43a2,2,0,1,1-2.27-3.29c.35-.24.53-.38.55-.38a7,7,0,0,1,7.19-.37l1.75,1A2,2,0,0,1,174.07,51.18Z"/><path class="d" d="M229.56,119.52a2,2,0,0,1,3-2.58,27.8,27.8,0,0,0,6.29,3.7,2,2,0,1,1-1.56,3.69,32,32,0,0,1-7.2-4.24A2.08,2.08,0,0,1,229.56,119.52Z"/><path class="d" d="M218.24,99.55a1.9,1.9,0,0,1-.25-.75,32,32,0,0,1,.07-8.35,2,2,0,1,1,4,.55,28,28,0,0,0-.06,7.31,2,2,0,0,1-3.72,1.24Z"/><path class="d" d="M224.81,114.68a2,2,0,0,1-.6-.53,32.11,32.11,0,0,1-4.11-7.26,2,2,0,1,1,3.7-1.51,28.52,28.52,0,0,0,3.61,6.36,2,2,0,0,1-2.6,2.94Z"/><path class="d" d="M259.27,123.68a2,2,0,0,1-.13-.25,2,2,0,0,1,1.11-2.61,28.49,28.49,0,0,0,3.47-1.69,27.1,27.1,0,0,0,2.88-1.91l.09-.07a2,2,0,0,1,2.4,3.2l-.06.05a31.56,31.56,0,0,1-3.31,2.19,31,31,0,0,1-4,1.94A2,2,0,0,1,259.27,123.68Z"/><path class="d" d="M271.73,114.25a2,2,0,0,1,.15-2.23,28,28,0,0,0,3.69-6.3,2,2,0,1,1,3.68,1.54,32,32,0,0,1-4.21,7.22,2,2,0,0,1-3.31-.23Z"/><path class="d" d="M244.3,66.08a1.9,1.9,0,0,1-.25-.75,2,2,0,0,1,1.73-2.23,32.41,32.41,0,0,1,8.35.06,2,2,0,1,1-.54,4,28.4,28.4,0,0,0-7.31-.05A2,2,0,0,1,244.3,66.08Z"/><path class="d" d="M277.74,99.94a2,2,0,0,1-.25-1.27,28.4,28.4,0,0,0,.05-7.31,2,2,0,0,1,4-.5,32.42,32.42,0,0,1-.06,8.35,2,2,0,0,1-3.71.73Z"/><path class="d" d="M259.68,68.21a2,2,0,0,1,2.5-2.84,31.4,31.4,0,0,1,7.21,4.22,2,2,0,1,1-2.45,3.15,27.89,27.89,0,0,0-6.31-3.69A2,2,0,0,1,259.68,68.21Z"/><path class="d" d="M275.81,84.54a1.15,1.15,0,0,1-.12-.25A28.15,28.15,0,0,0,272.11,78a2.05,2.05,0,0,1,.37-2.84,2,2,0,0,1,2.78.36.61.61,0,0,0,.07.1,32.07,32.07,0,0,1,4.06,7.15,2,2,0,0,1-3.58,1.76Z"/><circle class="d" cx="249.75" cy="94.86" r="25"/></svg>