<svg xmlns="http://www.w3.org/2000/svg" viewBox="0 0 281.75 378.3"><defs><style>.a{fill:#1791ff;}.b{fill:#56d695;}.c{fill:#fe7862;}.d{fill:#b3b3b3;}</style></defs><title>spoke_control</title><path class="a" d="M113.27,148a1.9,1.9,0,0,1-.77-.16,2,2,0,0,1-1.07-2.62,32.17,32.17,0,0,1,4.23-7.2,2,2,0,0,1,3.16,2.46,27.71,27.71,0,0,0-3.7,6.3A2,2,0,0,1,113.27,148Z" transform="translate(0 0)"/><path class="a" d="M122.81,135.78a2,2,0,0,1-1.21-3.59,32,32,0,0,1,7.25-4.13,2,2,0,1,1,1.51,3.7,28,28,0,0,0-6.35,3.62A2,2,0,0,1,122.81,135.78Z" transform="translate(0 0)"/><path class="a" d="M152.56,128.09a2,2,0,0,1,.78.16,32.17,32.17,0,0,1,7.2,4.23,2,2,0,1,1-2.46,3.15,28.08,28.08,0,0,0-6.3-3.7,2,2,0,0,1,.78-3.84Z" transform="translate(0 0)"/><path class="a" d="M111.15,151.55l.28,0a2,2,0,0,1,1.71,2.26,27.58,27.58,0,0,0-.27,3.85,28.4,28.4,0,0,0,.21,3.45l0,.12a2,2,0,0,1-4,.48v-.08a33.42,33.42,0,0,1-.24-4,31,31,0,0,1,.31-4.41A2,2,0,0,1,111.15,151.55Z" transform="translate(0 0)"/><path class="a" d="M170.66,152a2,2,0,0,1,2,1.71s0,.09,0,.1a31.82,31.82,0,0,1-.06,8.26,2,2,0,0,1-4-.54,27,27,0,0,0,.27-3.81,28.41,28.41,0,0,0-.22-3.45,2,2,0,0,1,1.73-2.26Z" transform="translate(0 0)"/><path class="a" d="M163.82,137.91a2,2,0,0,1,2.57.5l.06.08a33.46,33.46,0,0,1,2.16,3.26,33.84,33.84,0,0,1,1.92,3.92,2,2,0,1,1-3.71,1.51,27.9,27.9,0,0,0-1.68-3.43,28.63,28.63,0,0,0-1.9-2.88,2,2,0,0,1,.36-2.82Z" transform="translate(0 0)"/><path class="a" d="M122.48,179.42a2,2,0,0,1,1.23.42,27.67,27.67,0,0,0,6.3,3.69,2,2,0,1,1-1.55,3.69,31.82,31.82,0,0,1-7.21-4.22,2,2,0,0,1,1.23-3.58Z" transform="translate(0 0)"/><path class="a" d="M159,179.64a2,2,0,0,1,1.59.79,2,2,0,0,1-.38,2.81,31.81,31.81,0,0,1-7.26,4.13,2,2,0,1,1-1.51-3.71,27.91,27.91,0,0,0,6.35-3.61A2,2,0,0,1,159,179.64Z" transform="translate(0 0)"/><circle class="a" cx="140.87" cy="157.72" r="25"/><path class="b" d="M261.42,190.93a2.12,2.12,0,0,1,.78.15,32.21,32.21,0,0,1,7.2,4.24,2,2,0,1,1-2.46,3.15,28.08,28.08,0,0,0-6.3-3.7,2,2,0,0,1,.78-3.84Z" transform="translate(0 0)"/><path class="b" d="M52.19,195.92a2,2,0,0,1-3,2.58,27.9,27.9,0,0,0-6.3-3.71,2,2,0,1,1,1.56-3.68,31.73,31.73,0,0,1,7.2,4.23A2,2,0,0,1,52.19,195.92Z" transform="translate(0 0)"/><path class="b" d="M63.51,215.89a1.9,1.9,0,0,1,.25.75A32.42,32.42,0,0,1,63.7,225a2,2,0,0,1-4-.55,28,28,0,0,0,.06-7.31,2,2,0,0,1,3.72-1.24Z" transform="translate(0 0)"/><path class="c" d="M152.56,2.37a2,2,0,0,1,.78.16,32.21,32.21,0,0,1,7.2,4.24,2,2,0,1,1-2.46,3.15,28.08,28.08,0,0,0-6.3-3.7,2,2,0,0,1,.78-3.85Z" transform="translate(0 0)"/><path class="c" d="M146.75,1.29a2,2,0,0,1-2,3,28,28,0,0,0-7.31-.06,2,2,0,0,1-.49-4,32,32,0,0,1,8.35.07A2,2,0,0,1,146.75,1.29Z" transform="translate(0 0)"/><path class="a" d="M146.75,127a2,2,0,0,1,.24,1.27,2,2,0,0,1-2.25,1.71,28,28,0,0,0-7.31-.07,2,2,0,1,1-.49-4,32,32,0,0,1,8.35.08A2,2,0,0,1,146.75,127Z" transform="translate(0 0)"/><path class="b" d="M61.37,231.26a2,2,0,0,1,.11,1.78,32.07,32.07,0,0,1-4.22,7.2,2,2,0,1,1-3.16-2.46,28.17,28.17,0,0,0,3.7-6.29,2,2,0,0,1,2.62-1.07A2.05,2.05,0,0,1,61.37,231.26Z" transform="translate(0 0)"/><path class="b" d="M22.49,191.76l.12.25a2,2,0,0,1-1.1,2.6,28,28,0,0,0-6.36,3.61l-.09.07a2,2,0,0,1-2.4-3.2l.06-.05a34.53,34.53,0,0,1,3.31-2.2,34,34,0,0,1,4-1.94A2,2,0,0,1,22.49,191.76Z" transform="translate(0 0)"/><path class="b" d="M51.82,243.53a2,2,0,0,1-.5,2.56l-.08.06A31.33,31.33,0,0,1,48,248.31a32.3,32.3,0,0,1-3.92,1.92,2,2,0,0,1-1.51-3.7,28,28,0,0,0,6.31-3.59,2,2,0,0,1,2.82.37Z" transform="translate(0 0)"/><path class="b" d="M10,201.19a2,2,0,0,1-.15,2.22,27.49,27.49,0,0,0-3.68,6.31,2,2,0,0,1-3.69-1.55A31.94,31.94,0,0,1,6.71,201a2,2,0,0,1,2.81-.35A1.84,1.84,0,0,1,10,201.19Z" transform="translate(0 0)"/><path class="b" d="M4,215.5a2,2,0,0,1,.25,1.27,28,28,0,0,0,0,7.31,2,2,0,0,1-4,.5,32,32,0,0,1,0-8.35,2,2,0,0,1,2.25-1.71A2,2,0,0,1,4,215.5Z" transform="translate(0 0)"/><path class="b" d="M22.07,247.23a2,2,0,0,1,.12,1.77,2,2,0,0,1-2.62,1.07,31.4,31.4,0,0,1-7.21-4.22,2,2,0,0,1,2.46-3.16,27.25,27.25,0,0,0,6.3,3.69A2,2,0,0,1,22.07,247.23Z" transform="translate(0 0)"/><path class="b" d="M5.94,230.9a1.15,1.15,0,0,1,.12.25,28.37,28.37,0,0,0,3.58,6.28,2,2,0,0,1-.37,2.83,2,2,0,0,1-2.77-.35l-.08-.1a32.46,32.46,0,0,1-4.06-7.15,2,2,0,0,1,3.58-1.76Z" transform="translate(0 0)"/><path class="d" d="M104.19,178.9a2,2,0,0,1-.73,2.73l-.87.5a2,2,0,0,1-2-3.46l.87-.5A2,2,0,0,1,104.19,178.9Zm-7.79,4.5a2,2,0,0,1-.74,2.73l-.86.5a2,2,0,0,1-2-3.46l.86-.5A2,2,0,0,1,96.4,183.4Zm-7.8,4.5a2,2,0,0,1-.73,2.73l-.87.5a2,2,0,0,1-2-3.46l.87-.5A2,2,0,0,1,88.6,187.9Zm-7.79,4.5a2,2,0,0,1-.73,2.73l-.87.5a2,2,0,1,1-2-3.46l.87-.5A2,2,0,0,1,80.81,192.4ZM73,196.9a2,2,0,0,1-.73,2.73l-.86.5a2,2,0,1,1-2-3.46l.86-.5A2,2,0,0,1,73,196.9Z" transform="translate(0 0)"/><circle class="b" cx="32" cy="220.58" r="25"/><path class="b" d="M65.22,201.4a2,2,0,0,1-.73,2.73l-1.75,1a3.07,3.07,0,0,0-1.3,2.55s0,.27.06.76a2,2,0,1,1-4,.31c0-.42-.06-.65-.06-.66a7,7,0,0,1,3.28-6.42l1.75-1A2,2,0,0,1,65.22,201.4Z" transform="translate(0 0)"/><path class="a" d="M107.65,176.9a2,2,0,0,1,.74-2.73l1.75-1a3.12,3.12,0,0,0,1.3-2.55s0-.27-.07-.75a2,2,0,0,1,4-.32c0,.42,0,.65.06.66a7,7,0,0,1-3.28,6.42l-1.75,1A2,2,0,0,1,107.65,176.9Z" transform="translate(0 0)"/><path class="b" d="M129.61,253.62a2,2,0,0,1,.75,3.86,27.5,27.5,0,0,0-6.35,3.6,2,2,0,1,1-2.41-3.19,31.4,31.4,0,0,1,7.26-4.12A2,2,0,0,1,129.61,253.62Z" transform="translate(0 0)"/><path class="b" d="M152.56,253.8a2,2,0,0,1,.78.16,32.17,32.17,0,0,1,7.2,4.23,2,2,0,1,1-2.46,3.16,28.12,28.12,0,0,0-6.3-3.71,2,2,0,0,1,.78-3.84Z" transform="translate(0 0)"/><path class="b" d="M117.23,263a2,2,0,0,1,1.23.42,2,2,0,0,1,.34,2.81,28.67,28.67,0,0,0-3.71,6.29,2,2,0,0,1-3.68-1.56,31.92,31.92,0,0,1,4.24-7.19A2,2,0,0,1,117.23,263Z" transform="translate(0 0)"/><path class="b" d="M164.81,263.34a2,2,0,0,1,1.59.8,31.81,31.81,0,0,1,4.13,7.26,2,2,0,0,1-3.71,1.5,27.87,27.87,0,0,0-3.6-6.35,2,2,0,0,1,.38-2.8A2,2,0,0,1,164.81,263.34Z" transform="translate(0 0)"/><path class="b" d="M111.15,277.26l.28,0a2,2,0,0,1,1.71,2.26,27.61,27.61,0,0,0-.27,3.86,28.65,28.65,0,0,0,.21,3.45l0,.11a2,2,0,0,1-4,.48v-.08a33.26,33.26,0,0,1-.24-4,30.93,30.93,0,0,1,.31-4.41A2,2,0,0,1,111.15,277.26Z" transform="translate(0 0)"/><path class="b" d="M170.66,277.75a2,2,0,0,1,2,1.71s0,.09,0,.11a31.82,31.82,0,0,1-.06,8.26,2,2,0,0,1-4-.55,27,27,0,0,0,.27-3.81,28.67,28.67,0,0,0-.22-3.45,2,2,0,0,1,1.73-2.25Z" transform="translate(0 0)"/><path class="b" d="M122.48,305.14a2,2,0,0,1,1.23.42,28,28,0,0,0,6.3,3.69,2,2,0,1,1-1.55,3.68,32.16,32.16,0,0,1-7.21-4.21,2,2,0,0,1-.35-2.81A2,2,0,0,1,122.48,305.14Z" transform="translate(0 0)"/><path class="b" d="M159,305.36A2,2,0,0,1,160.2,309a31.81,31.81,0,0,1-7.26,4.13,2,2,0,1,1-1.51-3.7,28,28,0,0,0,6.35-3.62A2,2,0,0,1,159,305.36Z" transform="translate(0 0)"/><path class="b" d="M136.78,311.16l.27,0a28.29,28.29,0,0,0,7.24.05,2,2,0,0,1,2.26,1.73,2,2,0,0,1-1.69,2.23h-.12a32,32,0,0,1-8.23-.06,2,2,0,0,1,.27-4Z" transform="translate(0 0)"/><path class="d" d="M140.87,200.08a2,2,0,0,1,2,2v1a2,2,0,1,1-4,0v-1A2,2,0,0,1,140.87,200.08Zm0,9a2,2,0,0,1,2,2v1a2,2,0,1,1-4,0v-1A2,2,0,0,1,140.87,209.08Zm0,9a2,2,0,0,1,2,2v1a2,2,0,1,1-4,0v-1A2,2,0,0,1,140.87,218.08Zm0,9a2,2,0,0,1,2,2v1a2,2,0,1,1-4,0v-1A2,2,0,0,1,140.87,227.08Zm0,9a2,2,0,0,1,2,2v1a2,2,0,1,1-4,0v-1A2,2,0,0,1,140.87,236.08Z" transform="translate(0 0)"/><circle class="b" cx="140.87" cy="283.44" r="25"/><path class="b" d="M140.87,245.08a2,2,0,0,1,2,2v2a3.08,3.08,0,0,0,1.56,2.4l.69.32a2,2,0,1,1-1.73,3.61l-.6-.28a7,7,0,0,1-3.92-6.05v-2A2,2,0,0,1,140.87,245.08Z" transform="translate(0 0)"/><path class="a" d="M140.87,196.08a2,2,0,0,1-2-2v-2a3.09,3.09,0,0,0-1.55-2.4l-.69-.32a2,2,0,0,1,1.72-3.61l.6.28a7,7,0,0,1,3.92,6.05v2A2,2,0,0,1,140.87,196.08Z" transform="translate(0 0)"/><path class="c" d="M43.71,316.67a2.12,2.12,0,0,1,.78.15,32.21,32.21,0,0,1,7.2,4.24,2,2,0,1,1-2.46,3.15,28.08,28.08,0,0,0-6.3-3.7,2,2,0,0,1,.78-3.84Z" transform="translate(0 0)"/><path class="d" d="M32,262.94a2,2,0,0,1,2,2v1a2,2,0,0,1-4,0v-1A2,2,0,0,1,32,262.94Zm0,9a2,2,0,0,1,2,2v1a2,2,0,0,1-4,0v-1A2,2,0,0,1,32,271.94Zm0,9a2,2,0,0,1,2,2v1a2,2,0,0,1-4,0v-1A2,2,0,0,1,32,280.94Zm0,9a2,2,0,0,1,2,2v1a2,2,0,1,1-4,0v-1A2,2,0,0,1,32,289.94Zm0,9a2,2,0,0,1,2,2v1a2,2,0,1,1-4,0v-1A2,2,0,0,1,32,298.94Z" transform="translate(0 0)"/><path class="c" d="M32,307.94a2,2,0,0,1,2,2v2a3.08,3.08,0,0,0,1.56,2.4l.69.32a2,2,0,1,1-1.73,3.61l-.6-.28A7,7,0,0,1,30,312v-2A2,2,0,0,1,32,307.94Z" transform="translate(0 0)"/><path class="b" d="M32,258.94a2,2,0,0,1-2-2v-2a3.09,3.09,0,0,0-1.55-2.4l-.69-.32a2,2,0,0,1,1.72-3.61l.6.28a7,7,0,0,1,3.92,6v2A2,2,0,0,1,32,258.94Z" transform="translate(0 0)"/><path class="c" d="M261.42,316.64a2,2,0,0,1,.78.16,32.17,32.17,0,0,1,7.2,4.23,2,2,0,1,1-2.46,3.16,27.75,27.75,0,0,0-6.3-3.71,2,2,0,0,1,.78-3.84Z" transform="translate(0 0)"/><path class="d" d="M249.73,262.92a2,2,0,0,1,2,2v1a2,2,0,0,1-4,0v-1A2,2,0,0,1,249.73,262.92Zm0,9a2,2,0,0,1,2,2v1a2,2,0,0,1-4,0v-1A2,2,0,0,1,249.73,271.92Zm0,9a2,2,0,0,1,2,2v1a2,2,0,0,1-4,0v-1A2,2,0,0,1,249.73,280.92Zm0,9a2,2,0,0,1,2,2v1a2,2,0,0,1-4,0v-1A2,2,0,0,1,249.73,289.92Zm0,9a2,2,0,0,1,2,2v1a2,2,0,0,1-4,0v-1A2,2,0,0,1,249.73,298.92Z" transform="translate(0 0)"/><path class="c" d="M249.73,307.92a2,2,0,0,1,2,2v2a3.08,3.08,0,0,0,1.56,2.4l.69.32a2,2,0,1,1-1.73,3.61l-.6-.28a7,7,0,0,1-3.92-6.05v-2A2,2,0,0,1,249.73,307.92Z" transform="translate(0 0)"/><path class="d" d="M249.73,137.2a2,2,0,0,1,2,2v1a2,2,0,0,1-4,0v-1A2,2,0,0,1,249.73,137.2Zm0,9a2,2,0,0,1,2,2v1a2,2,0,0,1-4,0v-1A2,2,0,0,1,249.73,146.2Zm0,9a2,2,0,0,1,2,2v1a2,2,0,0,1-4,0v-1A2,2,0,0,1,249.73,155.2Zm0,9a2,2,0,0,1,2,2v1a2,2,0,0,1-4,0v-1A2,2,0,0,1,249.73,164.2Zm0,9a2,2,0,0,1,2,2v1a2,2,0,0,1-4,0v-1A2,2,0,0,1,249.73,173.2Z" transform="translate(0 0)"/><path class="d" d="M249.73,101.2a2,2,0,0,1,2,2v1a2,2,0,1,1-4,0v-1A2,2,0,0,1,249.73,101.2Z" transform="translate(0 0)"/><path class="d" d="M249.73,110.2a2,2,0,0,1,2,2v1a2,2,0,1,1-4,0v-1A2,2,0,0,1,249.73,110.2Z" transform="translate(0 0)"/><path class="d" d="M249.73,119.2a2,2,0,0,1,2,2v1a2,2,0,1,1-4,0v-1A2,2,0,0,1,249.73,119.2Z" transform="translate(0 0)"/><path class="d" d="M249.73,128.2a2,2,0,0,1,2,2v1a2,2,0,0,1-4,0v-1A2,2,0,0,1,249.73,128.2Z" transform="translate(0 0)"/><path class="d" d="M32,101.23a2,2,0,0,1,2,2v1a2,2,0,1,1-4,0v-1A2,2,0,0,1,32,101.23Z" transform="translate(0 0)"/><path class="d" d="M32,110.23a2,2,0,0,1,2,2v1a2,2,0,1,1-4,0v-1A2,2,0,0,1,32,110.23Z" transform="translate(0 0)"/><path class="d" d="M32,119.23a2,2,0,0,1,2,2v1a2,2,0,1,1-4,0v-1A2,2,0,0,1,32,119.23Z" transform="translate(0 0)"/><path class="d" d="M32,128.23a2,2,0,0,1,2,2v1a2,2,0,1,1-4,0v-1A2,2,0,0,1,32,128.23Z" transform="translate(0 0)"/><path class="b" d="M249.73,182.2a2,2,0,0,1,2,2v2a3.08,3.08,0,0,0,1.56,2.4l.69.32a2,2,0,1,1-1.73,3.61l-.6-.28a7,7,0,0,1-3.92-6.05v-2A2,2,0,0,1,249.73,182.2Z" transform="translate(0 0)"/><path class="d" d="M32,137.23a2,2,0,0,1,2,2v1a2,2,0,1,1-4,0v-1A2,2,0,0,1,32,137.23Zm0,9a2,2,0,0,1,2,2v1a2,2,0,1,1-4,0v-1A2,2,0,0,1,32,146.23Zm0,9a2,2,0,0,1,2,2v1a2,2,0,1,1-4,0v-1A2,2,0,0,1,32,155.23Zm0,9a2,2,0,0,1,2,2v1a2,2,0,1,1-4,0v-1A2,2,0,0,1,32,164.23Zm0,9a2,2,0,0,1,2,2v1a2,2,0,1,1-4,0v-1A2,2,0,0,1,32,173.23Z" transform="translate(0 0)"/><path class="b" d="M32,182.23a2,2,0,0,1,2,2v2a3.08,3.08,0,0,0,1.56,2.4l.69.32a2,2,0,0,1-1.73,3.61l-.6-.28A7,7,0,0,1,30,186.25v-2A2,2,0,0,1,32,182.23Z" transform="translate(0 0)"/><path class="b" d="M249.73,258.92a2,2,0,0,1-2-2v-2a3.09,3.09,0,0,0-1.55-2.4l-.69-.32a2,2,0,0,1,1.72-3.61l.6.28a7,7,0,0,1,3.92,6.05v2A2,2,0,0,1,249.73,258.92Z" transform="translate(0 0)"/><path class="b" d="M218.29,215.43A2,2,0,0,1,222,216.7,28,28,0,0,0,222,224a2,2,0,0,1-4,.49,31.54,31.54,0,0,1,.07-8.35A1.92,1.92,0,0,1,218.29,215.43Z" transform="translate(0 0)"/><path class="b" d="M229.93,195.64a2,2,0,0,1,.52-.6,32,32,0,0,1,7.27-4.11,2,2,0,1,1,1.5,3.7,28.14,28.14,0,0,0-6.36,3.61,2,2,0,0,1-2.93-2.6Z" transform="translate(0 0)"/><path class="b" d="M220.2,230.83a2,2,0,0,1,3.59.25,28.1,28.1,0,0,0,3.6,6.36,2,2,0,0,1-3.2,2.41,32.18,32.18,0,0,1-4.11-7.27A2,2,0,0,1,220.2,230.83Z" transform="translate(0 0)"/><path class="b" d="M229.54,243.23a1.88,1.88,0,0,1,.16-.23,2,2,0,0,1,2.8-.35,28.19,28.19,0,0,0,6.3,3.7l.11.05a2,2,0,0,1-1.57,3.68l-.08,0a32.56,32.56,0,0,1-3.55-1.76,33.63,33.63,0,0,1-3.67-2.47A2,2,0,0,1,229.54,243.23Z" transform="translate(0 0)"/><path class="b" d="M271.94,201.47a2,2,0,0,1,3.32-.2,32,32,0,0,1,4.13,7.26,2,2,0,0,1-3.71,1.5,27.7,27.7,0,0,0-3.61-6.35A2,2,0,0,1,271.94,201.47Z" transform="translate(0 0)"/><path class="b" d="M259.34,247.36a2,2,0,0,1,1-.85,28.33,28.33,0,0,0,6.35-3.62,2,2,0,1,1,2.41,3.19,31.9,31.9,0,0,1-7.25,4.13,2,2,0,0,1-2.49-2.85Z" transform="translate(0 0)"/><path class="b" d="M277.78,215.85a2,2,0,0,1,3.72.75,31.54,31.54,0,0,1-.05,8.35,2,2,0,1,1-4-.55,27.87,27.87,0,0,0,0-7.3A2.05,2.05,0,0,1,277.78,215.85Z" transform="translate(0 0)"/><path class="b" d="M271.71,238l.15-.23a28.46,28.46,0,0,0,3.66-6.24,2,2,0,0,1,2.64-1.1,2,2,0,0,1,1.08,2.58.54.54,0,0,0-.05.11,31.79,31.79,0,0,1-4.17,7.1,2,2,0,0,1-3.31-2.22Z" transform="translate(0 0)"/><path class="d" d="M177.56,178.9a2,2,0,0,1,2.73-.73l.86.5a2,2,0,1,1-2,3.46l-.86-.5A2,2,0,0,1,177.56,178.9Zm7.79,4.5a2,2,0,0,1,2.73-.73l.87.5a2,2,0,1,1-2,3.46l-.87-.5A2,2,0,0,1,185.35,183.4Zm7.79,4.5a2,2,0,0,1,2.74-.73l.86.5a2,2,0,0,1-2,3.46l-.86-.5A2,2,0,0,1,193.14,187.9Zm7.8,4.5a2,2,0,0,1,2.73-.73l.87.5a2,2,0,1,1-2,3.46l-.87-.5A2,2,0,0,1,200.94,192.4Zm7.79,4.5a2,2,0,0,1,2.73-.73l.87.5a2,2,0,0,1-2,3.46l-.87-.5A2,2,0,0,1,208.73,196.9Z" transform="translate(0 0)"/><circle class="b" cx="249.74" cy="220.58" r="25"/><path class="b" d="M216.53,201.4a2,2,0,0,1,2.73-.73l1.75,1a3.06,3.06,0,0,0,2.85-.15l.63-.43a2,2,0,1,1,2.26,3.29l-.54.38a7,7,0,0,1-7.2.37l-1.75-1A2,2,0,0,1,216.53,201.4Z" transform="translate(0 0)"/><path class="a" d="M174.09,176.9a2,2,0,0,1-2.73.73l-1.75-1a3.11,3.11,0,0,0-2.86.15s-.21.16-.62.43a2,2,0,1,1-2.26-3.29l.54-.38a7,7,0,0,1,7.2-.37l1.75,1A2,2,0,0,1,174.09,176.9Z" transform="translate(0 0)"/><path class="c" d="M63.51,341.6a2,2,0,0,1,.25.76,32.34,32.34,0,0,1-.06,8.34,2,2,0,0,1-4-.55,28,28,0,0,0,.06-7.31,2,2,0,0,1,3.72-1.24Z" transform="translate(0 0)"/><path class="c" d="M61.37,357a2,2,0,0,1,.11,1.78A32.13,32.13,0,0,1,57.26,366a2,2,0,1,1-3.16-2.46,28.47,28.47,0,0,0,3.7-6.3,2,2,0,0,1,2.62-1.07A2.05,2.05,0,0,1,61.37,357Z" transform="translate(0 0)"/><path class="c" d="M22.49,317.47l.12.25a2,2,0,0,1-1.1,2.61,27.45,27.45,0,0,0-6.36,3.6l-.09.07a2,2,0,1,1-2.4-3.2l.06-.05A32.64,32.64,0,0,1,16,318.56a31.12,31.12,0,0,1,4-1.94A2,2,0,0,1,22.49,317.47Z" transform="translate(0 0)"/><path class="c" d="M51.82,369.24a2,2,0,0,1-.5,2.57l-.08.06A34.88,34.88,0,0,1,48,374,33.84,33.84,0,0,1,44.05,376a2,2,0,0,1-1.51-3.71A27.22,27.22,0,0,0,46,370.56a28.63,28.63,0,0,0,2.88-1.9,2,2,0,0,1,2.82.37Z" transform="translate(0 0)"/><path class="c" d="M10,326.9a2,2,0,0,1-.15,2.23,27.49,27.49,0,0,0-3.68,6.31,2,2,0,1,1-3.69-1.55,31.72,31.72,0,0,1,4.21-7.21,2,2,0,0,1,2.81-.36A2,2,0,0,1,10,326.9Z" transform="translate(0 0)"/><path class="c" d="M37.45,375.07a2.09,2.09,0,0,1,.26.75A2,2,0,0,1,36,378.05a32.42,32.42,0,0,1-8.35-.06,2,2,0,1,1,.55-4,28.39,28.39,0,0,0,7.31.05A2,2,0,0,1,37.45,375.07Z" transform="translate(0 0)"/><path class="c" d="M4,341.21a2,2,0,0,1,.25,1.28,27.88,27.88,0,0,0,0,7.3,2,2,0,1,1-4,.5,32,32,0,0,1,0-8.35A2,2,0,0,1,4,341.21Z" transform="translate(0 0)"/><path class="c" d="M22.07,372.94a2,2,0,0,1,.12,1.78,2,2,0,0,1-2.62,1.07,32.13,32.13,0,0,1-7.21-4.22,2,2,0,0,1,2.46-3.16,27.61,27.61,0,0,0,6.3,3.69A2,2,0,0,1,22.07,372.94Z" transform="translate(0 0)"/><path class="c" d="M5.94,356.61a1.15,1.15,0,0,1,.12.25,28.15,28.15,0,0,0,3.58,6.28A2,2,0,0,1,9.27,366a2,2,0,0,1-2.77-.36l-.08-.1a32.46,32.46,0,0,1-4.06-7.15,2,2,0,0,1,3.58-1.76Z" transform="translate(0 0)"/><path class="d" d="M104.19,304.61a2,2,0,0,1-.73,2.74l-.87.5a2,2,0,0,1-2-3.47l.87-.5A2,2,0,0,1,104.19,304.61Zm-7.79,4.5a2,2,0,0,1-.74,2.74l-.86.5a2,2,0,0,1-2-3.47l.86-.5A2,2,0,0,1,96.4,309.11Zm-7.8,4.5a2,2,0,0,1-.73,2.74l-.87.5a2,2,0,0,1-2-3.47l.87-.5A2,2,0,0,1,88.6,313.61Zm-7.79,4.5a2,2,0,0,1-.73,2.74l-.87.5a2,2,0,0,1-2-3.47l.87-.5A2,2,0,0,1,80.81,318.11Zm-7.8,4.5a2,2,0,0,1-.73,2.74l-.86.5a2,2,0,1,1-2-3.47l.86-.5A2,2,0,0,1,73,322.61Z" transform="translate(0 0)"/><circle class="c" cx="32" cy="346.29" r="25"/><path class="c" d="M65.22,327.11a2,2,0,0,1-.73,2.74l-1.75,1a3.07,3.07,0,0,0-1.3,2.54s0,.27.06.76a2,2,0,1,1-4,.31c0-.41-.06-.65-.06-.66a7,7,0,0,1,3.28-6.42l1.75-1A2,2,0,0,1,65.22,327.11Z" transform="translate(0 0)"/><path class="b" d="M107.65,302.61a2,2,0,0,1,.74-2.73l1.75-1a3.12,3.12,0,0,0,1.3-2.54s0-.27-.07-.76a2,2,0,0,1,4-.31c0,.41,0,.65.06.66a7,7,0,0,1-3.28,6.42l-1.75,1A2,2,0,0,1,107.65,302.61Z" transform="translate(0 0)"/><path class="c" d="M218.29,341.14a2,2,0,0,1,3.72,1.28,27.87,27.87,0,0,0-.06,7.3,2,2,0,0,1-4,.49,31.55,31.55,0,0,1,.07-8.35A2,2,0,0,1,218.29,341.14Z" transform="translate(0 0)"/><path class="c" d="M229.93,321.35a1.94,1.94,0,0,1,.52-.59,32,32,0,0,1,7.27-4.12,2,2,0,0,1,1.5,3.71,28.1,28.1,0,0,0-6.36,3.6,2,2,0,0,1-2.93-2.6Z" transform="translate(0 0)"/><path class="c" d="M220.2,356.54a2,2,0,0,1,1-.85,2,2,0,0,1,2.6,1.1,28.38,28.38,0,0,0,3.6,6.37,2,2,0,0,1-3.2,2.4,32,32,0,0,1-4.11-7.27A2,2,0,0,1,220.2,356.54Z" transform="translate(0 0)"/><path class="c" d="M229.54,368.94l.16-.23a2,2,0,0,1,2.8-.34,30,30,0,0,0,3.21,2.16,28.69,28.69,0,0,0,3.09,1.54l.11,0a2,2,0,0,1-1.57,3.68l-.08,0a34.53,34.53,0,0,1-3.55-1.77,33.63,33.63,0,0,1-3.67-2.47A2,2,0,0,1,229.54,368.94Z" transform="translate(0 0)"/><path class="c" d="M243.94,375a2,2,0,0,1,2-1,27.87,27.87,0,0,0,7.3,0,2,2,0,0,1,.5,4,31.55,31.55,0,0,1-8.35-.05,2,2,0,0,1-1.71-2.25A2,2,0,0,1,243.94,375Z" transform="translate(0 0)"/><path class="c" d="M271.94,327.18a2.07,2.07,0,0,1,.52-.59,2,2,0,0,1,2.8.39,32.19,32.19,0,0,1,4.13,7.26,2,2,0,0,1-3.71,1.51,27.76,27.76,0,0,0-3.61-6.36A2,2,0,0,1,271.94,327.18Z" transform="translate(0 0)"/><path class="c" d="M259.34,373.07a2,2,0,0,1,1-.85,28.29,28.29,0,0,0,6.35-3.61,2,2,0,1,1,2.41,3.19,31.87,31.87,0,0,1-7.25,4.12,2,2,0,0,1-2.49-2.85Z" transform="translate(0 0)"/><path class="c" d="M277.78,341.57a2,2,0,0,1,3.72.75,31.55,31.55,0,0,1-.05,8.35,2,2,0,0,1-4-.55,27.88,27.88,0,0,0,0-7.3A2,2,0,0,1,277.78,341.57Z" transform="translate(0 0)"/><path class="c" d="M271.71,363.7l.15-.23a28,28,0,0,0,3.66-6.24,2,2,0,0,1,2.64-1.09,2,2,0,0,1,1.08,2.58.54.54,0,0,0-.05.11,32,32,0,0,1-4.17,7.1,2,2,0,0,1-3.31-2.23Z" transform="translate(0 0)"/><path class="d" d="M177.56,304.61a2,2,0,0,1,2.73-.73l.86.5a2,2,0,1,1-2,3.47l-.86-.5A2,2,0,0,1,177.56,304.61Zm7.79,4.5a2,2,0,0,1,2.73-.73l.87.5a2,2,0,0,1-2,3.47l-.87-.5A2,2,0,0,1,185.35,309.11Zm7.79,4.5a2,2,0,0,1,2.74-.73l.86.5a2,2,0,0,1-2,3.47l-.86-.5A2,2,0,0,1,193.14,313.61Zm7.8,4.5a2,2,0,0,1,2.73-.73l.87.5a2,2,0,0,1-2,3.47l-.87-.5A2,2,0,0,1,200.94,318.11Zm7.79,4.5a2,2,0,0,1,2.73-.73l.87.5a2,2,0,0,1-2,3.47l-.87-.5A2,2,0,0,1,208.73,322.61Z" transform="translate(0 0)"/><circle class="c" cx="249.74" cy="346.29" r="25"/><path class="c" d="M216.53,327.11a2,2,0,0,1,2.73-.73l1.75,1a3.09,3.09,0,0,0,2.85-.14l.63-.44a2,2,0,0,1,2.26,3.3l-.54.38a7,7,0,0,1-7.2.37l-1.75-1A2,2,0,0,1,216.53,327.11Z" transform="translate(0 0)"/><path class="b" d="M174.09,302.61a2,2,0,0,1-2.73.74l-1.75-1a3.11,3.11,0,0,0-2.86.14s-.21.16-.62.44a2,2,0,1,1-2.26-3.3l.54-.38a7,7,0,0,1,7.2-.37l1.75,1A2,2,0,0,1,174.09,302.61Z" transform="translate(0 0)"/><path class="c" d="M129.61,2.19a2,2,0,0,1,.75,3.86A27.5,27.5,0,0,0,124,9.65a2,2,0,0,1-2.41-3.19,31.77,31.77,0,0,1,7.26-4.12A2,2,0,0,1,129.61,2.19Z" transform="translate(0 0)"/><path class="c" d="M117.23,11.55a2,2,0,0,1,1.23.42,2,2,0,0,1,.34,2.81,28.5,28.5,0,0,0-3.71,6.3,2,2,0,0,1-3.68-1.57,31.92,31.92,0,0,1,4.24-7.19A2,2,0,0,1,117.23,11.55Z" transform="translate(0 0)"/><path class="c" d="M164.81,11.91a2,2,0,0,1,1.59.8A31.81,31.81,0,0,1,170.53,20a2,2,0,0,1-3.71,1.5,27.87,27.87,0,0,0-3.6-6.35,2,2,0,0,1,.38-2.8A2,2,0,0,1,164.81,11.91Z" transform="translate(0 0)"/><path class="c" d="M111.15,25.84a1.27,1.27,0,0,1,.28,0,2,2,0,0,1,1.71,2.25,27.61,27.61,0,0,0-.27,3.86,28.65,28.65,0,0,0,.21,3.45l0,.12a2,2,0,0,1-4,.47v-.08a33.26,33.26,0,0,1-.24-4,30.93,30.93,0,0,1,.31-4.41A2,2,0,0,1,111.15,25.84Z" transform="translate(0 0)"/><path class="c" d="M170.66,26.32a2,2,0,0,1,2,1.72s0,.08,0,.1a31.82,31.82,0,0,1-.06,8.26,2,2,0,0,1-4-.55,26.77,26.77,0,0,0,.27-3.8,28.41,28.41,0,0,0-.22-3.45,2,2,0,0,1,1.73-2.26Z" transform="translate(0 0)"/><path class="c" d="M122.48,53.71a2,2,0,0,1,1.23.42,28,28,0,0,0,6.3,3.69,2,2,0,0,1-1.55,3.69,32.58,32.58,0,0,1-7.21-4.22,2,2,0,0,1-.35-2.81A2,2,0,0,1,122.48,53.71Z" transform="translate(0 0)"/><path class="c" d="M159,53.93a2,2,0,0,1,1.21,3.59,31.81,31.81,0,0,1-7.26,4.13,2,2,0,1,1-1.51-3.7,28,28,0,0,0,6.35-3.62A2,2,0,0,1,159,53.93Z" transform="translate(0 0)"/><path class="c" d="M136.78,59.74a1.22,1.22,0,0,1,.27,0,28.29,28.29,0,0,0,7.24,0,2,2,0,0,1,2.26,1.73,2,2,0,0,1-1.69,2.23h-.12a32.4,32.4,0,0,1-8.23-.05,2,2,0,0,1,.27-4Z" transform="translate(0 0)"/><circle class="c" cx="140.87" cy="32.01" r="25"/><path class="d" d="M104.19,53.19a2,2,0,0,1-.73,2.73l-.87.5a2,2,0,0,1-2-3.47l.87-.5A2,2,0,0,1,104.19,53.19Zm-7.79,4.5a2,2,0,0,1-.74,2.73l-.86.5a2,2,0,0,1-2-3.47l.86-.5A2,2,0,0,1,96.4,57.69Zm-7.8,4.5a2,2,0,0,1-.73,2.73l-.87.5A2,2,0,0,1,85,62l.87-.5A2,2,0,0,1,88.6,62.19Zm-7.79,4.5a2,2,0,0,1-.73,2.73l-.87.5a2,2,0,0,1-2-3.47l.87-.5A2,2,0,0,1,80.81,66.69ZM73,71.19a2,2,0,0,1-.73,2.73l-.86.5a2,2,0,1,1-2-3.47l.86-.5A2,2,0,0,1,73,71.19Z" transform="translate(0 0)"/><path class="d" d="M65.22,75.69a2,2,0,0,1-.73,2.73l-.87.5a2,2,0,0,1-2-3.47l.87-.5A2,2,0,0,1,65.22,75.69Z" transform="translate(0 0)"/><path class="d" d="M57.43,80.19a2,2,0,0,1-.74,2.73l-.86.5a2,2,0,0,1-2-3.47l.86-.5A2,2,0,0,1,57.43,80.19Z" transform="translate(0 0)"/><path class="d" d="M49.63,84.69a2,2,0,0,1-.73,2.73l-.87.5a2,2,0,0,1-2-3.47l.87-.5A2,2,0,0,1,49.63,84.69Z" transform="translate(0 0)"/><path class="d" d="M41.84,89.19a2,2,0,0,1-.74,2.73l-.86.5a2,2,0,0,1-2-3.47l.86-.5A2,2,0,0,1,41.84,89.19Z" transform="translate(0 0)"/><path class="c" d="M107.65,51.19a2,2,0,0,1,.74-2.74l1.75-1a3.12,3.12,0,0,0,1.3-2.54s0-.27-.07-.76a2,2,0,0,1,4-.31c0,.42,0,.65.06.66a7,7,0,0,1-3.28,6.42l-1.75,1A2,2,0,0,1,107.65,51.19Z" transform="translate(0 0)"/><path class="d" d="M177.56,53.19a2,2,0,0,1,2.73-.74l.86.5a2,2,0,1,1-2,3.47l-.86-.5A2,2,0,0,1,177.56,53.19Zm7.79,4.5a2,2,0,0,1,2.73-.74l.87.5a2,2,0,0,1-2,3.47l-.87-.5A2,2,0,0,1,185.35,57.69Zm7.79,4.5a2,2,0,0,1,2.74-.74l.86.5a2,2,0,0,1-2,3.47l-.86-.5A2,2,0,0,1,193.14,62.19Zm7.8,4.5a2,2,0,0,1,2.73-.74l.87.5a2,2,0,0,1-2,3.47l-.87-.5A2,2,0,0,1,200.94,66.69Zm7.79,4.5a2,2,0,0,1,2.73-.74l.87.5a2,2,0,0,1-2,3.47l-.87-.5A2,2,0,0,1,208.73,71.19Z" transform="translate(0 0)"/><path class="d" d="M216.53,75.69a2,2,0,0,1,2.73-.74l.86.5a2,2,0,1,1-2,3.47l-.86-.5A2,2,0,0,1,216.53,75.69Z" transform="translate(0 0)"/><path class="d" d="M224.32,80.19a2,2,0,0,1,2.73-.74l.87.5a2,2,0,0,1-2,3.47l-.87-.5A2,2,0,0,1,224.32,80.19Z" transform="translate(0 0)"/><path class="d" d="M232.12,84.69a2,2,0,0,1,2.73-.74l.86.5a2,2,0,1,1-2,3.47l-.86-.5A2,2,0,0,1,232.12,84.69Z" transform="translate(0 0)"/><path class="d" d="M239.91,89.19a2,2,0,0,1,2.73-.74l.87.5a2,2,0,0,1-2,3.47l-.87-.5A2,2,0,0,1,239.91,89.19Z" transform="translate(0 0)"/><path class="d" d="M247.89,93.43a1.74,1.74,0,0,0-.19.26,2.6,2.6,0,0,0,2,3.51,1.66,1.66,0,0,0,.32,0,2,2,0,0,0,1.68-2v-1a.62.62,0,0,0-.43-.75l-.86-.5A2,2,0,0,0,247.89,93.43Z" transform="translate(0 0)"/><path class="d" d="M33.87,93.43a1.7,1.7,0,0,1,.18.26,2.6,2.6,0,0,1-2,3.51,1.55,1.55,0,0,1-.31,0,2,2,0,0,1-1.69-2v-1a2.32,2.32,0,0,1,.06-.46,2.06,2.06,0,0,1,.37-.29l.87-.5A2,2,0,0,1,33.87,93.43Z" transform="translate(0 0)"/><path class="c" d="M174.09,51.19a2,2,0,0,1-2.73.73l-1.75-1a3.08,3.08,0,0,0-2.86.15l-.62.43a2,2,0,0,1-2.26-3.3l.54-.38a7,7,0,0,1,7.2-.37l1.75,1A2,2,0,0,1,174.09,51.19Z" transform="translate(0 0)"/></svg>