<svg xmlns="http://www.w3.org/2000/svg" xmlns:xlink="http://www.w3.org/1999/xlink" viewBox="0 0 260.12 348.17"><defs><style>.a{fill:url(#a);}.b{fill:url(#b);}.c,.d,.q,.s,.t{fill:none;stroke:#b3b3b3;stroke-linecap:round;stroke-miterlimit:10;stroke-width:3.75px;}.d{stroke-dasharray:0.67 6.71;}.e{fill:url(#c);}.f{fill:url(#d);}.g{fill:url(#e);}.h{fill:url(#f);}.i{fill:url(#g);}.j{fill:url(#h);}.k{fill:url(#i);}.l{fill:url(#j);}.m{fill:url(#k);}.n{fill:url(#l);}.o{fill:url(#m);}.p{fill:#56d695;}.q{stroke-dasharray:0.77 7.69;}.r{fill:#fe7862;}.s{stroke-dasharray:0.77 7.71;}.t{stroke-dasharray:0.77 7.66;}</style><linearGradient id="a" x1="109.13" y1="120.92" x2="119.13" y2="120.92" gradientUnits="userSpaceOnUse"><stop offset="0" stop-color="#1791ff"/><stop offset="1" stop-color="#1791ff"/></linearGradient><linearGradient id="b" x1="109.13" y1="120.92" x2="119.13" y2="120.92" gradientTransform="translate(-55.08 83.38) rotate(-30)" xlink:href="#a"/><linearGradient id="c" x1="98.59" y1="144.76" x2="102.59" y2="144.76" xlink:href="#a"/><linearGradient id="d" x1="93.76" y1="129.81" x2="100.06" y2="129.81" gradientTransform="matrix(-0.99, -0.11, 0.11, -0.99, 183.49, 298.64)" xlink:href="#a"/><linearGradient id="e" x1="109.62" y1="168.3" x2="119.65" y2="168.3" xlink:href="#a"/><linearGradient id="f" x1="93.93" y1="131.31" x2="100.23" y2="131.31" gradientTransform="matrix(-0.59, 0.81, -0.81, -0.59, 290.61, 174.3)" xlink:href="#a"/><linearGradient id="g" x1="136.99" y1="168.01" x2="146.99" y2="168.01" xlink:href="#a"/><linearGradient id="h" x1="92.72" y1="132.21" x2="99.01" y2="132.21" gradientTransform="translate(236.48 19.36) rotate(66.26)" xlink:href="#a"/><linearGradient id="i" x1="153.53" y1="144.17" x2="157.53" y2="144.17" xlink:href="#a"/><linearGradient id="j" x1="162.65" y1="111.72" x2="166.65" y2="111.72" gradientTransform="translate(-46.75 116.05) rotate(-30)" xlink:href="#a"/><linearGradient id="k" x1="136.47" y1="120.63" x2="146.5" y2="120.63" xlink:href="#a"/><linearGradient id="l" x1="136.47" y1="120.63" x2="146.5" y2="120.63" gradientTransform="translate(-55.08 83.38) rotate(-30)" xlink:href="#a"/><linearGradient id="m" x1="105.49" y1="144.47" x2="150.63" y2="144.47" xlink:href="#a"/></defs><title>spoke_control</title><path class="a" d="M111,124.62a1.88,1.88,0,0,1-1.14-3.36,29,29,0,0,1,6.68-3.88,1.87,1.87,0,0,1,1.44,3.46,25.22,25.22,0,0,0-5.83,3.39A1.9,1.9,0,0,1,111,124.62Z"/><path class="b" d="M103.36,135.8a1.9,1.9,0,0,1-1.65.12,1.88,1.88,0,0,1-1-2.45,29.48,29.48,0,0,1,3.84-6.7,1.87,1.87,0,0,1,3,2.27,26.09,26.09,0,0,0-3.35,5.85A1.88,1.88,0,0,1,103.36,135.8Z"/><line class="c" x1="128.88" y1="220.2" x2="128.88" y2="219.83"/><line class="d" x1="128.88" y1="213.11" x2="128.88" y2="186.93"/><line class="c" x1="128.88" y1="183.58" x2="128.88" y2="183.2"/><line class="c" x1="230" y1="276" x2="230" y2="275.63"/><line class="d" x1="230" y1="268.91" x2="230" y2="242.73"/><line class="c" x1="230" y1="239.38" x2="230" y2="239"/><line class="c" x1="31" y1="280" x2="31" y2="279.63"/><line class="d" x1="31" y1="272.91" x2="31" y2="246.73"/><line class="c" x1="31" y1="243.38" x2="31" y2="243"/><path class="e" d="M102.34,149.31a1.87,1.87,0,0,1-3.48-.68,29,29,0,0,1,0-7.73,1.87,1.87,0,1,1,3.71.48,26.29,26.29,0,0,0,0,6.75A1.83,1.83,0,0,1,102.34,149.31Z"/><path class="f" d="M102.83,154.28a1.87,1.87,0,0,1,1.62,1.43,6.8,6.8,0,0,1,.14,2.34,6.88,6.88,0,0,1-4.12,5.57A1.88,1.88,0,0,1,99,160.17a3.1,3.1,0,0,0,1.81-3.59,1.88,1.88,0,0,1,1.39-2.26A2,2,0,0,1,102.83,154.28Z"/><path class="g" d="M119.4,169.16a1.88,1.88,0,0,1-2.34,2.68,29.73,29.73,0,0,1-6.7-3.85,1.88,1.88,0,0,1,2.28-3,25.54,25.54,0,0,0,5.85,3.36A1.86,1.86,0,0,1,119.4,169.16Z"/><path class="h" d="M123.94,171.22a1.89,1.89,0,0,1,2-.69,6.9,6.9,0,0,1,4.86,7.41,1.87,1.87,0,0,1-3.72-.44,3.12,3.12,0,0,0-2.21-3.37,1.89,1.89,0,0,1-1-2.91Z"/><path class="i" d="M145.12,164.32a1.88,1.88,0,0,1,1.14,3.36,29.34,29.34,0,0,1-6.68,3.88,1.87,1.87,0,1,1-1.44-3.46,26,26,0,0,0,5.83-3.39A1.9,1.9,0,0,1,145.12,164.32Z"/><path class="j" d="M149.17,161.41a1.88,1.88,0,0,1,.43-2.12,6.91,6.91,0,0,1,8.84-.51,1.88,1.88,0,0,1-2.24,3,3.13,3.13,0,0,0-3.13-.36,3,3,0,0,0-.89.59,1.87,1.87,0,0,1-2.65-.08A1.84,1.84,0,0,1,149.17,161.41Z"/><path class="k" d="M153.78,139.62a1.87,1.87,0,0,1,3.48.69,28.92,28.92,0,0,1,0,7.72,1.87,1.87,0,1,1-3.71-.48,26.22,26.22,0,0,0,0-6.74A1.86,1.86,0,0,1,153.78,139.62Z"/><path class="l" d="M147.91,127.41a1.88,1.88,0,0,1,3.36-1.15,29.56,29.56,0,0,1,3.88,6.68,1.87,1.87,0,1,1-3.46,1.44,26.17,26.17,0,0,0-3.39-5.83A1.87,1.87,0,0,1,147.91,127.41Z"/><path class="m" d="M136.72,119.77a1.88,1.88,0,0,1,2.34-2.67,29.32,29.32,0,0,1,6.7,3.84,1.88,1.88,0,0,1-2.28,3,25.5,25.5,0,0,0-5.85-3.35A1.88,1.88,0,0,1,136.72,119.77Z"/><path class="n" d="M123.21,118.75a1.88,1.88,0,0,1,.69-3.49,29.78,29.78,0,0,1,7.72,0,1.88,1.88,0,0,1-.48,3.72,25.78,25.78,0,0,0-6.74,0A1.86,1.86,0,0,1,123.21,118.75Z"/><circle class="o" cx="128.06" cy="144.47" r="22.57"/><path class="p" d="M113,239.62a1.88,1.88,0,0,1-1.14-3.36,29,29,0,0,1,6.68-3.88,1.87,1.87,0,0,1,1.44,3.46,25.22,25.22,0,0,0-5.83,3.39A1.9,1.9,0,0,1,113,239.62Z"/><path class="p" d="M104.34,264.31a1.87,1.87,0,0,1-3.48-.68,29,29,0,0,1,0-7.73,1.87,1.87,0,1,1,3.71.48,26.29,26.29,0,0,0,0,6.75A1.83,1.83,0,0,1,104.34,264.31Z"/><path class="p" d="M121.4,284.16a1.88,1.88,0,0,1-2.34,2.68,29.73,29.73,0,0,1-6.7-3.85,1.88,1.88,0,0,1,2.28-3,25.54,25.54,0,0,0,5.85,3.36A1.86,1.86,0,0,1,121.4,284.16Z"/><path class="p" d="M147.12,279.32a1.88,1.88,0,0,1,1.14,3.36,29.34,29.34,0,0,1-6.68,3.88,1.87,1.87,0,0,1-1.44-3.46,26,26,0,0,0,5.83-3.39A1.9,1.9,0,0,1,147.12,279.32Z"/><path class="p" d="M105.36,250.8a1.9,1.9,0,0,1-1.65.12,1.88,1.88,0,0,1-1-2.45,29.48,29.48,0,0,1,3.84-6.7,1.87,1.87,0,0,1,3,2.27,26.09,26.09,0,0,0-3.35,5.85A1.88,1.88,0,0,1,105.36,250.8Z"/><path class="p" d="M134.91,285.19a1.87,1.87,0,0,1-.69,3.48,29.78,29.78,0,0,1-7.72,0A1.88,1.88,0,0,1,127,285a25.78,25.78,0,0,0,6.74,0A1.93,1.93,0,0,1,134.91,285.19Z"/><path class="p" d="M155.78,254.62a1.87,1.87,0,0,1,3.48.69,28.92,28.92,0,0,1,0,7.72,1.87,1.87,0,1,1-3.71-.48,26.22,26.22,0,0,0,0-6.74A1.86,1.86,0,0,1,155.78,254.62Z"/><path class="p" d="M149.91,242.41a1.88,1.88,0,0,1,3.36-1.15,29.56,29.56,0,0,1,3.88,6.68,1.87,1.87,0,0,1-3.46,1.44,26.17,26.17,0,0,0-3.39-5.83A1.87,1.87,0,0,1,149.91,242.41Z"/><path class="p" d="M138.72,234.77a1.88,1.88,0,0,1,2.34-2.67,29.32,29.32,0,0,1,6.7,3.84,1.88,1.88,0,1,1-2.28,3,25.5,25.5,0,0,0-5.85-3.35A1.88,1.88,0,0,1,138.72,234.77Z"/><path class="p" d="M134.18,232.71a1.89,1.89,0,0,1-2.05.69,6.89,6.89,0,0,1-4.86-7.4,1.87,1.87,0,0,1,3.72.44,3.13,3.13,0,0,0,1.26,2.89,3.4,3.4,0,0,0,.95.48,1.87,1.87,0,0,1,1.26,2.33A1.89,1.89,0,0,1,134.18,232.71Z"/><path class="p" d="M151.17,276.41a1.88,1.88,0,0,1,.43-2.12,6.91,6.91,0,0,1,8.84-.51,1.88,1.88,0,0,1-2.24,3,3.13,3.13,0,0,0-3.13-.36,3,3,0,0,0-.89.59,1.87,1.87,0,0,1-2.65-.08A1.84,1.84,0,0,1,151.17,276.41Z"/><path class="p" d="M104.83,269.28a1.87,1.87,0,0,1,1.62,1.43,6.8,6.8,0,0,1,.14,2.34,6.88,6.88,0,0,1-4.12,5.57,1.88,1.88,0,0,1-1.48-3.45,3.1,3.1,0,0,0,1.81-3.59,1.88,1.88,0,0,1,1.39-2.26A2,2,0,0,1,104.83,269.28Z"/><circle class="p" cx="130.06" cy="259.47" r="22.57"/><line class="c" x1="62.88" y1="183.04" x2="63.21" y2="182.86"/><line class="d" x1="69.02" y1="179.5" x2="91.69" y2="166.41"/><line class="c" x1="94.6" y1="164.73" x2="94.93" y2="164.54"/><path class="p" d="M38.13,179a1.88,1.88,0,0,1,2.34-2.67,29.69,29.69,0,0,1,6.7,3.84,1.88,1.88,0,1,1-2.28,3A26.09,26.09,0,0,0,39,179.8,1.88,1.88,0,0,1,38.13,179Z"/><path class="p" d="M12.41,183.85a1.88,1.88,0,0,1-1.15-3.36,29.56,29.56,0,0,1,6.68-3.88,1.87,1.87,0,0,1,1.44,3.46,26.17,26.17,0,0,0-5.83,3.39A1.87,1.87,0,0,1,12.41,183.85Z"/><path class="p" d="M3.75,208.55a1.88,1.88,0,0,1-3.49-.69,29.85,29.85,0,0,1,0-7.73,1.88,1.88,0,0,1,3.72.49,25.78,25.78,0,0,0,0,6.74A1.86,1.86,0,0,1,3.75,208.55Z"/><path class="p" d="M20.8,228.4a1.9,1.9,0,0,1,.12,1.65,1.88,1.88,0,0,1-2.45,1,29.52,29.52,0,0,1-6.7-3.85,1.87,1.87,0,0,1,2.27-3,26.09,26.09,0,0,0,5.85,3.35A1.83,1.83,0,0,1,20.8,228.4Z"/><path class="p" d="M4.77,195A1.88,1.88,0,0,1,2.1,192.7,29.11,29.11,0,0,1,5.94,186a1.88,1.88,0,0,1,3,2.28,25.5,25.5,0,0,0-3.35,5.85A1.93,1.93,0,0,1,4.77,195Z"/><path class="p" d="M9.62,220.76a1.88,1.88,0,0,1-3.36,1.14,29,29,0,0,1-3.88-6.68,1.87,1.87,0,0,1,3.46-1.44,25.22,25.22,0,0,0,3.39,5.83A1.9,1.9,0,0,1,9.62,220.76Z"/><path class="p" d="M46.52,223.55a1.88,1.88,0,0,1,1.15,3.36A29.56,29.56,0,0,1,41,230.79a1.87,1.87,0,1,1-1.44-3.46,26,26,0,0,0,5.83-3.39A1.87,1.87,0,0,1,46.52,223.55Z"/><path class="p" d="M54.16,212.36a1.88,1.88,0,0,1,2.68,2.34A29.73,29.73,0,0,1,53,221.4a1.88,1.88,0,0,1-3-2.28,25.75,25.75,0,0,0,3.36-5.85A1.86,1.86,0,0,1,54.16,212.36Z"/><path class="p" d="M55.19,198.85a1.87,1.87,0,0,1,3.48.69,29.78,29.78,0,0,1,0,7.72,1.88,1.88,0,0,1-3.72-.48A25.78,25.78,0,0,0,55,200,1.93,1.93,0,0,1,55.19,198.85Z"/><path class="p" d="M54.7,193.89a1.87,1.87,0,0,1-1.62-1.43,6.86,6.86,0,0,1,4-7.91A1.87,1.87,0,0,1,58.54,188a3.14,3.14,0,0,0-1.88,2.53,3.2,3.2,0,0,0,.06,1.07,1.87,1.87,0,0,1-1.39,2.26A1.93,1.93,0,0,1,54.7,193.89Z"/><path class="p" d="M25.35,230.45a1.87,1.87,0,0,1,2-.68,6.76,6.76,0,0,1,2.1,1,6.9,6.9,0,0,1,2.76,6.36,1.88,1.88,0,0,1-3.73-.44,3.1,3.1,0,0,0-1.25-2.89,2.94,2.94,0,0,0-1-.48A1.87,1.87,0,0,1,25.07,231,1.84,1.84,0,0,1,25.35,230.45Z"/><circle class="p" cx="29.47" cy="203.7" r="22.57"/><line class="c" x1="28.29" y1="88.89" x2="28.29" y2="89.26"/><line class="q" x1="28.37" y1="96.95" x2="28.96" y2="160.78"/><line class="c" x1="29" y1="164.63" x2="29" y2="165"/><path class="r" d="M143.12,49.32a1.88,1.88,0,0,1,1.14,3.36,29.34,29.34,0,0,1-6.68,3.88,1.87,1.87,0,0,1-1.44-3.46A26,26,0,0,0,142,49.71,1.9,1.9,0,0,1,143.12,49.32Z"/><path class="r" d="M151.78,24.62a1.87,1.87,0,0,1,3.48.69,28.92,28.92,0,0,1,0,7.72,1.87,1.87,0,1,1-3.71-.48,26.22,26.22,0,0,0,0-6.74A1.86,1.86,0,0,1,151.78,24.62Z"/><path class="r" d="M134.72,4.77a1.88,1.88,0,0,1,2.34-2.67,29.32,29.32,0,0,1,6.7,3.84,1.88,1.88,0,1,1-2.28,3,25.5,25.5,0,0,0-5.85-3.35A1.88,1.88,0,0,1,134.72,4.77Z"/><path class="r" d="M121.21,3.75A1.88,1.88,0,0,1,121.9.26a29.78,29.78,0,0,1,7.72,0A1.88,1.88,0,1,1,129.14,4a25.78,25.78,0,0,0-6.74,0A1.86,1.86,0,0,1,121.21,3.75Z"/><path class="r" d="M109,9.62a1.88,1.88,0,0,1-1.14-3.36,29,29,0,0,1,6.68-3.88A1.87,1.87,0,1,1,116,5.84a25.22,25.22,0,0,0-5.83,3.39A1.9,1.9,0,0,1,109,9.62Z"/><path class="r" d="M145.91,12.41a1.88,1.88,0,0,1,3.36-1.15,29.56,29.56,0,0,1,3.88,6.68,1.87,1.87,0,0,1-3.46,1.44,26.17,26.17,0,0,0-3.39-5.83A1.87,1.87,0,0,1,145.91,12.41Z"/><path class="r" d="M101.36,20.8a1.9,1.9,0,0,1-1.65.12,1.88,1.88,0,0,1-1-2.45,29.48,29.48,0,0,1,3.84-6.7,1.87,1.87,0,0,1,3,2.27,26.09,26.09,0,0,0-3.35,5.85A1.88,1.88,0,0,1,101.36,20.8Z"/><path class="r" d="M100.34,34.31a1.87,1.87,0,0,1-3.48-.68,29,29,0,0,1,0-7.73,1.87,1.87,0,1,1,3.71.48,26.29,26.29,0,0,0,0,6.75A1.83,1.83,0,0,1,100.34,34.31Z"/><path class="r" d="M117.4,54.16a1.88,1.88,0,0,1-2.34,2.68,29.73,29.73,0,0,1-6.7-3.85,1.88,1.88,0,0,1,2.28-3,25.54,25.54,0,0,0,5.85,3.36A1.86,1.86,0,0,1,117.4,54.16Z"/><path class="r" d="M130.91,55.19a1.87,1.87,0,0,1-.69,3.48,29.78,29.78,0,0,1-7.72,0A1.88,1.88,0,1,1,123,55a25.78,25.78,0,0,0,6.74,0A1.93,1.93,0,0,1,130.91,55.19Z"/><path class="r" d="M100.83,39.28a1.87,1.87,0,0,1,1.62,1.43,6.8,6.8,0,0,1,.14,2.34,6.88,6.88,0,0,1-4.12,5.57A1.88,1.88,0,0,1,97,45.17a3.1,3.1,0,0,0,1.81-3.59,1.88,1.88,0,0,1,1.39-2.26A2,2,0,0,1,100.83,39.28Z"/><path class="r" d="M147.17,46.41a1.88,1.88,0,0,1,.43-2.12,6.91,6.91,0,0,1,8.84-.51,1.88,1.88,0,0,1-2.24,3,3.13,3.13,0,0,0-3.13-.36,3,3,0,0,0-.89.59,1.87,1.87,0,0,1-2.65-.08A1.84,1.84,0,0,1,147.17,46.41Z"/><circle class="r" cx="126.06" cy="29.47" r="22.57"/><line class="c" x1="194.06" y1="181.62" x2="193.73" y2="181.44"/><line class="d" x1="187.92" y1="178.08" x2="165.25" y2="164.99"/><line class="c" x1="162.34" y1="163.31" x2="162.01" y2="163.12"/><path class="p" d="M202.93,205.08a1.85,1.85,0,0,1-1.37.92,1.87,1.87,0,0,1-2.11-1.61,29.34,29.34,0,0,1,0-7.72,1.88,1.88,0,1,1,3.72.48,25.85,25.85,0,0,0,0,6.75A1.91,1.91,0,0,1,202.93,205.08Z"/><path class="p" d="M220,224.93a1.88,1.88,0,0,1-2.34,2.68,29.73,29.73,0,0,1-6.7-3.85,1.88,1.88,0,0,1,2.28-3,25.75,25.75,0,0,0,5.85,3.36A1.86,1.86,0,0,1,220,224.93Z"/><path class="p" d="M245.71,220.09a1.88,1.88,0,0,1,1.15,3.36,29.94,29.94,0,0,1-6.68,3.88,1.88,1.88,0,0,1-1.44-3.47,25.75,25.75,0,0,0,5.83-3.38A1.81,1.81,0,0,1,245.71,220.09Z"/><path class="p" d="M254.37,195.39a1.88,1.88,0,0,1,3.49.69,29.78,29.78,0,0,1,0,7.72,1.88,1.88,0,0,1-3.72-.48,25.85,25.85,0,0,0,0-6.75A1.84,1.84,0,0,1,254.37,195.39Z"/><path class="p" d="M208.8,217.29a1.88,1.88,0,0,1-3.36,1.15,29.56,29.56,0,0,1-3.88-6.68,1.87,1.87,0,1,1,3.46-1.44,26,26,0,0,0,3.39,5.83A1.87,1.87,0,0,1,208.8,217.29Z"/><path class="p" d="M253.35,208.9a1.87,1.87,0,0,1,2.67,2.33,29.11,29.11,0,0,1-3.84,6.7,1.87,1.87,0,1,1-3-2.27,25.71,25.71,0,0,0,3.35-5.85A1.88,1.88,0,0,1,253.35,208.9Z"/><path class="p" d="M248.5,183.18a1.88,1.88,0,0,1,3.36-1.15,29.19,29.19,0,0,1,3.88,6.68,1.87,1.87,0,0,1-3.46,1.44,25.22,25.22,0,0,0-3.39-5.83A1.87,1.87,0,0,1,248.5,183.18Z"/><path class="p" d="M237.32,175.54a1.91,1.91,0,0,1-.12-1.65,1.88,1.88,0,0,1,2.45-1,29.52,29.52,0,0,1,6.7,3.85,1.87,1.87,0,0,1-2.27,3,25.75,25.75,0,0,0-5.85-3.36A1.86,1.86,0,0,1,237.32,175.54Z"/><path class="p" d="M211.6,180.38a1.88,1.88,0,0,1-1.15-3.36,29.94,29.94,0,0,1,6.68-3.88,1.88,1.88,0,0,1,1.44,3.47,25.54,25.54,0,0,0-5.83,3.38A1.81,1.81,0,0,1,211.6,180.38Z"/><path class="p" d="M207.54,183.29a1.88,1.88,0,0,1-.43,2.12,6.85,6.85,0,0,1-8.84.51,1.88,1.88,0,1,1,2.25-3,3.1,3.1,0,0,0,3.13.36,2.94,2.94,0,0,0,.89-.59,1.88,1.88,0,0,1,2.65.08A1.81,1.81,0,0,1,207.54,183.29Z"/><path class="p" d="M224.54,227a1.87,1.87,0,0,1,2-.69,6.89,6.89,0,0,1,4.86,7.4,1.87,1.87,0,1,1-3.72-.44,3.16,3.16,0,0,0-1.25-2.89,3.29,3.29,0,0,0-1-.47,1.88,1.88,0,0,1-1.26-2.34A1.71,1.71,0,0,1,224.54,227Z"/><circle class="p" cx="228.65" cy="200.23" r="22.57"/><line class="c" x1="64.88" y1="298.04" x2="65.21" y2="297.86"/><line class="d" x1="71.02" y1="294.5" x2="93.69" y2="281.41"/><line class="c" x1="96.6" y1="279.73" x2="96.93" y2="279.54"/><path class="r" d="M40.13,294a1.88,1.88,0,0,1,2.34-2.67,29.69,29.69,0,0,1,6.7,3.84,1.88,1.88,0,1,1-2.28,3A26.09,26.09,0,0,0,41,294.8,1.88,1.88,0,0,1,40.13,294Z"/><path class="r" d="M14.41,298.85a1.88,1.88,0,0,1-1.15-3.36,29.56,29.56,0,0,1,6.68-3.88,1.87,1.87,0,1,1,1.44,3.46,26.17,26.17,0,0,0-5.83,3.39A1.87,1.87,0,0,1,14.41,298.85Z"/><path class="r" d="M5.75,323.55a1.88,1.88,0,0,1-3.49-.69,29.85,29.85,0,0,1,0-7.73,1.88,1.88,0,0,1,3.72.49,25.78,25.78,0,0,0,0,6.74A1.86,1.86,0,0,1,5.75,323.55Z"/><path class="r" d="M22.8,343.4a1.9,1.9,0,0,1,.12,1.65,1.88,1.88,0,0,1-2.45,1,29.52,29.52,0,0,1-6.7-3.85,1.87,1.87,0,1,1,2.27-3,26.09,26.09,0,0,0,5.85,3.35A1.83,1.83,0,0,1,22.8,343.4Z"/><path class="r" d="M6.77,310A1.88,1.88,0,0,1,4.1,307.7,29.11,29.11,0,0,1,7.94,301a1.88,1.88,0,0,1,3,2.28,25.5,25.5,0,0,0-3.35,5.85A1.93,1.93,0,0,1,6.77,310Z"/><path class="r" d="M11.62,335.76a1.88,1.88,0,0,1-3.36,1.14,29,29,0,0,1-3.88-6.68,1.87,1.87,0,1,1,3.46-1.44,25.22,25.22,0,0,0,3.39,5.83A1.9,1.9,0,0,1,11.62,335.76Z"/><path class="r" d="M36.31,344.42a1.87,1.87,0,0,1-.68,3.48,29.42,29.42,0,0,1-7.73,0,1.88,1.88,0,0,1,.48-3.72,25.85,25.85,0,0,0,6.75,0A1.83,1.83,0,0,1,36.31,344.42Z"/><path class="r" d="M48.52,338.55a1.88,1.88,0,0,1,1.15,3.36A29.56,29.56,0,0,1,43,345.79a1.87,1.87,0,0,1-1.44-3.46,26,26,0,0,0,5.83-3.39A1.87,1.87,0,0,1,48.52,338.55Z"/><path class="r" d="M56.16,327.36a1.88,1.88,0,0,1,2.68,2.34A29.73,29.73,0,0,1,55,336.4a1.88,1.88,0,0,1-3-2.28,25.75,25.75,0,0,0,3.36-5.85A1.86,1.86,0,0,1,56.16,327.36Z"/><path class="r" d="M57.19,313.85a1.87,1.87,0,0,1,3.48.69,29.78,29.78,0,0,1,0,7.72,1.88,1.88,0,1,1-3.72-.48A25.78,25.78,0,0,0,57,315,1.93,1.93,0,0,1,57.19,313.85Z"/><path class="r" d="M56.7,308.89a1.87,1.87,0,0,1-1.62-1.43,6.86,6.86,0,0,1,4-7.91A1.87,1.87,0,1,1,60.54,303a3.14,3.14,0,0,0-1.88,2.53,3.2,3.2,0,0,0,.06,1.07,1.87,1.87,0,0,1-1.39,2.26A1.93,1.93,0,0,1,56.7,308.89Z"/><path class="r" d="M35.58,291.94a1.85,1.85,0,0,1-2,.69,6.87,6.87,0,0,1-4.87-7.4,1.88,1.88,0,0,1,3.73.44,3.14,3.14,0,0,0,1.25,2.89,3.09,3.09,0,0,0,1,.48,1.87,1.87,0,0,1,1.26,2.33A1.62,1.62,0,0,1,35.58,291.94Z"/><circle class="r" cx="31.47" cy="318.7" r="22.57"/><line class="c" x1="196.06" y1="296.62" x2="195.73" y2="296.44"/><line class="d" x1="189.92" y1="293.08" x2="167.25" y2="279.99"/><line class="c" x1="164.34" y1="278.31" x2="164.01" y2="278.12"/><path class="r" d="M204.93,320.08a1.85,1.85,0,0,1-1.37.92,1.87,1.87,0,0,1-2.11-1.61,29.34,29.34,0,0,1,0-7.72,1.88,1.88,0,1,1,3.72.48,25.85,25.85,0,0,0,0,6.75A1.91,1.91,0,0,1,204.93,320.08Z"/><path class="r" d="M222,339.93a1.88,1.88,0,0,1-2.34,2.68,29.73,29.73,0,0,1-6.7-3.85,1.88,1.88,0,0,1,2.28-3,25.75,25.75,0,0,0,5.85,3.36A1.86,1.86,0,0,1,222,339.93Z"/><path class="r" d="M247.71,335.09a1.88,1.88,0,0,1,1.15,3.36,29.94,29.94,0,0,1-6.68,3.88,1.88,1.88,0,0,1-1.44-3.47,25.75,25.75,0,0,0,5.83-3.38A1.81,1.81,0,0,1,247.71,335.09Z"/><path class="r" d="M256.37,310.39a1.88,1.88,0,0,1,3.49.69,29.78,29.78,0,0,1,0,7.72,1.88,1.88,0,1,1-3.72-.48,25.85,25.85,0,0,0,0-6.75A1.84,1.84,0,0,1,256.37,310.39Z"/><path class="r" d="M210.8,332.29a1.88,1.88,0,0,1-3.36,1.15,29.56,29.56,0,0,1-3.88-6.68,1.87,1.87,0,1,1,3.46-1.44,26,26,0,0,0,3.39,5.83A1.87,1.87,0,0,1,210.8,332.29Z"/><path class="r" d="M235.5,341a1.88,1.88,0,0,1-.69,3.49,29.78,29.78,0,0,1-7.72,0,1.88,1.88,0,1,1,.48-3.72,25.78,25.78,0,0,0,6.74,0A1.86,1.86,0,0,1,235.5,341Z"/><path class="r" d="M255.35,323.9a1.87,1.87,0,0,1,2.67,2.33,29.11,29.11,0,0,1-3.84,6.7,1.87,1.87,0,1,1-3-2.27,25.71,25.71,0,0,0,3.35-5.85A1.88,1.88,0,0,1,255.35,323.9Z"/><path class="r" d="M250.5,298.18a1.88,1.88,0,0,1,3.36-1.15,29.19,29.19,0,0,1,3.88,6.68,1.87,1.87,0,0,1-3.46,1.44,25.22,25.22,0,0,0-3.39-5.83A1.87,1.87,0,0,1,250.5,298.18Z"/><path class="r" d="M239.32,290.54a1.91,1.91,0,0,1-.12-1.65,1.88,1.88,0,0,1,2.45-1,29.52,29.52,0,0,1,6.7,3.85,1.87,1.87,0,0,1-2.27,3,25.75,25.75,0,0,0-5.85-3.36A1.86,1.86,0,0,1,239.32,290.54Z"/><path class="r" d="M213.6,295.38a1.88,1.88,0,0,1-1.15-3.36,29.94,29.94,0,0,1,6.68-3.88,1.88,1.88,0,0,1,1.44,3.47,25.54,25.54,0,0,0-5.83,3.38A1.81,1.81,0,0,1,213.6,295.38Z"/><path class="r" d="M209.54,298.29a1.88,1.88,0,0,1-.43,2.12,6.85,6.85,0,0,1-8.84.51,1.88,1.88,0,1,1,2.25-3,3.1,3.1,0,0,0,3.13.36,2.94,2.94,0,0,0,.89-.59,1.88,1.88,0,0,1,2.65.08A1.81,1.81,0,0,1,209.54,298.29Z"/><path class="r" d="M234.77,288.48a1.89,1.89,0,0,1-2.05.69,7,7,0,0,1-2.1-1.05,6.89,6.89,0,0,1-2.76-6.35,1.88,1.88,0,1,1,3.73.44,3.11,3.11,0,0,0,2.2,3.36,1.89,1.89,0,0,1,1,2.91Z"/><circle class="r" cx="230.65" cy="315.23" r="22.57"/><path class="p" d="M33.58,176.94a1.85,1.85,0,0,1-2,.69,6.87,6.87,0,0,1-4.87-7.4,1.88,1.88,0,0,1,3.73.44,3.14,3.14,0,0,0,1.25,2.89,3.09,3.09,0,0,0,1,.48,1.87,1.87,0,0,1,1.26,2.33A1.62,1.62,0,0,1,33.58,176.94Z"/><line class="c" x1="28.29" y1="88.89" x2="28.61" y2="88.7"/><line class="s" x1="35.23" y1="84.74" x2="90.12" y2="51.9"/><line class="c" x1="93.43" y1="49.93" x2="93.75" y2="49.73"/><path class="p" d="M232.77,173.48a1.89,1.89,0,0,1-2.05.69,7,7,0,0,1-2.1-1,6.89,6.89,0,0,1-2.76-6.35,1.88,1.88,0,1,1,3.73.44,3.11,3.11,0,0,0,2.2,3.36,1.89,1.89,0,0,1,1,2.91Z"/><line class="c" x1="227.94" y1="161.12" x2="227.94" y2="160.75"/><line class="t" x1="227.8" y1="153.09" x2="226.67" y2="89.56"/><line class="c" x1="226.6" y1="85.73" x2="226.6" y2="85.36"/><line class="c" x1="226.6" y1="85.36" x2="226.27" y2="85.18"/><line class="s" x1="219.54" y1="81.43" x2="163.65" y2="50.3"/><line class="c" x1="160.29" y1="48.43" x2="159.96" y2="48.25"/></svg>