<svg width="28" height="26" viewBox="0 0 28 26" fill="none" xmlns="http://www.w3.org/2000/svg">
<path fill-rule="evenodd" clip-rule="evenodd" d="M6.87662 25.9094C3.22144 23.4854 0.799805 19.2503 0.799805 14.4312C0.799805 6.90278 6.70965 0.799805 13.9998 0.799805C21.29 0.799805 27.1998 6.90278 27.1998 14.4312C27.1998 19.2788 24.7495 23.5354 21.0581 25.9521C19.7413 24.4763 17.0518 23.4653 13.948 23.4653C10.8743 23.4653 8.20688 24.4569 6.87662 25.9094ZM13.948 21.2201C17.6074 21.2201 20.5739 18.1567 20.5739 14.3777C20.5739 10.5988 17.6074 7.53531 13.948 7.53531C10.2887 7.53531 7.32216 10.5988 7.32216 14.3777C7.32216 18.1567 10.2887 21.2201 13.948 21.2201Z" fill="#F2F2F2"/>
</svg>
