<svg width="14" height="16" viewBox="0 0 14 16" fill="none" xmlns="http://www.w3.org/2000/svg">
<rect width="14" height="16" fill="black" fill-opacity="0"/>
<path fill-rule="evenodd" clip-rule="evenodd" d="M4.89941 0.695557C4.89941 0.311768 5.21289 0 5.59961 0H8.39941C8.78613 0 9.09961 0.311768 9.09961 0.695557H13.2998C13.6865 0.695557 14 1.00732 14 1.39111C14 1.77515 13.6865 2.08691 13.2998 2.08691H0.700195C0.313477 2.08691 0 1.77515 0 1.39111C0 1.00732 0.313477 0.695557 0.700195 0.695557H4.89941ZM10.2969 16H3.70312C2.98926 16 2.39062 15.467 2.31152 14.7625L1.0498 3.47827H12.9502L11.6885 14.7625C11.6094 15.467 11.0098 16 10.2969 16Z" fill="white"/>
</svg>
