<svg xmlns="http://www.w3.org/2000/svg" xmlns:xlink="http://www.w3.org/1999/xlink" width="282" height="282" viewBox="0 0 282 282">
    <defs>
        <rect id="a" width="282" height="282" rx="16"/>
    </defs>
    <g fill="none" fill-rule="evenodd" transform="translate(-16 -16)">
        <rect width="314" height="519" fill="#FFF" rx="30"/>
        <g transform="translate(16 16)">
            <mask id="b" fill="#fff">
                <use xlink:href="#a"/>
            </mask>
            <use fill="#F7F7F7" xlink:href="#a"/>
            <g fill-rule="nonzero" mask="url(#b)">
                <path fill="#FFF" d="M0 0h282v282H0z"/>
                <path fill="#2B2B2B" d="M0 0h282v282H0z"/>
                <path fill="#FFF" d="M169.8 113.9c-15 0-27.1 12.2-27.1 27.1 0 1.1.1 2.2.2 3.2v.2c.9 9.7 2.9 13-.4 16.3-3.4 3.4-6.8 1.2-16.8.3-.5-.1-1.1-.1-1.6-.1h-1.3c-15 0-27.1 12.2-27.1 27.1 0 15 12.2 27.1 27.1 27.1 14.9 0 27.1-12.2 27.1-27.1 0-1-.1-2-.2-3-.9-10-3-13.4.3-16.8 3.3-3.3 6.7-1.3 16.7-.4.5 0 1.1.1 1.7.1h1.3c14.9 0 27.1-12.2 27.1-27.1.2-14.8-12-26.9-27-26.9zm-47 93.9c-10.9 0-19.7-8.8-19.7-19.7 0-10.9 8.8-19.7 19.7-19.7 10.9 0 19.7 8.8 19.7 19.7 0 10.8-8.9 19.7-19.7 19.7zm47-47.1c-10.9 0-19.7-8.8-19.7-19.7 0-10.9 8.8-19.7 19.7-19.7 10.9 0 19.7 8.8 19.7 19.7 0 10.9-8.8 19.7-19.7 19.7z"/>
                <path fill="#2B2B2B" d="M142.5 93.9c0 10.9-8.8 19.7-19.7 19.7-10.9 0-19.7-8.8-19.7-19.7 0-10.9 8.8-19.7 19.7-19.7 10.8 0 19.7 8.9 19.7 19.7z"/>
                <path fill="#FFF" d="M122.8 66.8c-14.9 0-27.1 12.2-27.1 27.1 0 14.9 12.2 27.1 27.1 27.1 15 0 27.1-12.2 27.1-27.1 0-14.9-12.2-27.1-27.1-27.1zm0 46.8c-10.9 0-19.7-8.8-19.7-19.7 0-10.9 8.8-19.7 19.7-19.7 10.9 0 19.7 8.8 19.7 19.7 0 10.9-8.9 19.7-19.7 19.7z"/>
            </g>
        </g>
    </g>
</svg>
