<?xml version="1.0" encoding="UTF-8"?>
<svg width="33px" height="33px" viewBox="0 0 33 33" version="1.1" xmlns="http://www.w3.org/2000/svg" xmlns:xlink="http://www.w3.org/1999/xlink">
    <!-- Generator: Sketch 49.1 (51147) - http://www.bohemiancoding.com/sketch -->
    <title>nav_Accounts-01</title>
    <desc>Created with Sketch.</desc>
    <defs>
        <linearGradient x1="50%" y1="0.031152648%" x2="50%" y2="99.6573209%" id="linearGradient-1">
            <stop stop-color="#1AC8FC" offset="0%"></stop>
            <stop stop-color="#1D70F1" offset="100%"></stop>
        </linearGradient>
    </defs>
    <g id="Symbols" stroke="none" stroke-width="1" fill="none" fill-rule="evenodd">
        <g id="Accounts-Navigation---Signed-In-(1024)" transform="translate(-32.000000, -21.000000)" fill-rule="nonzero">
            <g id="nav_Accounts-01">
                <g transform="translate(32.000000, 21.000000)">
                    <g id="Page-1">
                        <g id="Accounts">
                            <g id="Icon">
                                <path d="M7.5,0 L24.6,0 C28.7,0 32,3.3 32,7.5 L32,24.6 C32,28.7 28.7,32.1 24.5,32.1 L7.5,32.1 C3.3,32 0,28.7 0,24.5 L0,7.5 C0,3.3 3.3,0 7.5,0 Z" id="path-2_10_" fill="#000000"></path>
                                <path d="M7.5,0 L24.6,0 C28.7,0 32,3.3 32,7.5 L32,24.6 C32,28.7 28.7,32.1 24.5,32.1 L7.5,32.1 C3.3,32 0,28.7 0,24.5 L0,7.5 C0,3.3 3.3,0 7.5,0 Z" id="path-2_1_" fill="url(#linearGradient-1)"></path>
                            </g>
                            <path d="M10.3,25.5 C7.4,23.6 5.4,20.2 5.4,16.3 C5.4,10.3 10.1,5.4 16,5.4 C21.9,5.4 26.6,10.3 26.6,16.3 C26.6,20.2 24.6,23.6 21.7,25.5 C20.6,24.3 18.5,23.5 16,23.5 C13.5,23.6 11.4,24.4 10.3,25.5 Z M16,21.8 C18.9,21.8 21.3,19.3 21.3,16.3 C21.3,13.3 18.9,10.8 16,10.8 C13.1,10.8 10.7,13.3 10.7,16.3 C10.7,19.3 13,21.8 16,21.8 Z" id="Combined-Shape" fill="#FFFFFF"></path>
                        </g>
                    </g>
                </g>
            </g>
        </g>
    </g>
</svg>
