<?xml version="1.0" encoding="UTF-8"?>
<svg width="64px" height="64px" viewBox="0 0 64 64" version="1.1" xmlns="http://www.w3.org/2000/svg" xmlns:xlink="http://www.w3.org/1999/xlink">
    <!-- Generator: Sketch 49.1 (51147) - http://www.bohemiancoding.com/sketch -->
    <title>icon_Github</title>
    <desc>Created with Sketch.</desc>
    <defs></defs>
    <g id="Symbols" stroke="none" stroke-width="1" fill="none" fill-rule="evenodd">
        <g id="icon_Github">
            <rect id="Icon" fill="#4D4D4D" x="0" y="0" width="64" height="64" rx="16"></rect>
            <path d="M31.9845679,8.00001147 C20.2199659,8.00371397 10.19395,16.5379914 8.31133007,28.1509848 C6.42871018,39.7639782 13.2450584,51.0286258 24.4059616,54.748856 C25.6062282,54.9642885 26.0447871,54.2256629 26.0447871,53.5870595 C26.0447871,52.9484561 26.0447871,51.5096751 26.006317,49.5092308 C19.3356047,50.9557059 17.9583757,46.2931318 17.9583757,46.2931318 C16.8658254,43.5232859 15.296246,42.7846603 15.296246,42.7846603 C13.1188393,41.2997151 15.4655143,41.3304912 15.4655143,41.3304912 C17.8352714,41.5151476 19.1047842,43.8233525 19.1047842,43.8233525 C21.2437208,47.4857044 24.7214163,46.4316241 26.0832572,45.8161028 C26.2004319,44.598255 26.7456779,43.4614172 27.6220605,42.6076979 C22.297801,42.0075646 16.696557,39.9455682 16.696557,30.7589124 C16.6625775,28.3748232 17.5468896,26.0690002 19.1663363,24.3190206 C18.4346635,22.2499868 18.5199695,19.9797474 19.4048508,17.9714569 C19.4048508,17.9714569 21.4129891,17.3251595 25.998623,20.4335422 C29.9296032,19.3562444 34.0780027,19.3562444 38.0089828,20.4335422 C42.6253928,17.3559356 44.595061,17.9714569 44.595061,17.9714569 C45.4799423,19.9797474 45.5652483,22.2499868 44.8335755,24.3190206 C46.4485237,26.0645369 47.3277104,28.3658563 47.2879668,30.7435244 C47.2879668,39.9763442 41.6790287,41.9844826 36.3316872,42.5769218 C37.1934171,43.3078534 37.9628187,44.7697166 37.9628187,47.0086754 C37.9628187,50.2170803 37.9628187,52.8022698 37.9628187,53.5870595 C37.9628187,54.2333569 38.3936837,54.9796765 39.6170323,54.741162 C50.7753485,51.009251 57.580383,39.7358315 55.6842256,28.1237788 C53.7880682,16.5117261 43.7504104,7.98858656 31.9845679,8.00001147 Z" id="Shape" fill="#FFFFFF"></path>
        </g>
    </g>
</svg>