<svg xmlns="http://www.w3.org/2000/svg" width="64" height="64" viewBox="0 0 64 64">
    <g fill="none" fill-rule="evenodd">
        <path fill="#FFF" d="M48 64H16C7.164 64 0 56.836 0 48V16C0 7.164 7.164 0 16 0h32c8.836 0 16 7.164 16 16v32c0 8.836-7.164 16-16 16"/>
        <path fill="#17A6F2" d="M31.92 42.422c-5.266 0-9.533-4.415-9.533-9.859 0-5.443 4.267-9.858 9.533-9.858 5.262 0 9.533 4.415 9.533 9.858 0 5.444-4.271 9.86-9.533 9.86m17.625-17.287a20.11 20.11 0 0 1 1.437 7.502c0 6.985-3.525 13.12-8.835 16.6-1.894-2.124-5.762-3.582-10.227-3.582-4.425 0-8.262 1.427-10.176 3.522C16.486 45.683 13 39.584 13 32.638 13 21.795 21.503 13 31.991 13c2.38 0 4.658.45 6.758 1.28a8.719 8.719 0 0 0-.371 2.523c0 4.803 3.888 8.696 8.684 8.696.864 0 1.697-.126 2.483-.363zM47 10a7 7 0 1 1-7 6.998A7 7 0 0 1 47 10zm2.12 8.449l2.963-2.964a.177.177 0 0 0 0-.25l-2.963-2.964a.177.177 0 0 0-.301.125v1.491c-6.99-.216-6.31 5.093-5.259 7.657.077.189.361.104.323-.097-.353-1.858.13-5.177 4.936-4.737v1.614c0 .157.19.236.301.125z"/>
    </g>
</svg>
