<svg id="Layer_1" data-name="Layer 1" xmlns="http://www.w3.org/2000/svg" viewBox="0 0 16 16"><defs><style>.cls-1{fill:#42acf3;}.cls-2{fill:#fff;}</style></defs><title>icon-tip</title><circle class="cls-1" cx="8" cy="8" r="8"/><path class="cls-2" d="M6.66,11.12H9.37a7.58,7.58,0,0,1,1.21-2.48,6.09,6.09,0,0,0,1.27-3A3.64,3.64,0,0,0,8,2.28,3.64,3.64,0,0,0,4.17,5.66a6.18,6.18,0,0,0,1.27,3A7.61,7.61,0,0,1,6.66,11.12Z"/><path class="cls-1" d="M6.6,7.82a.1.1,0,0,1,.05-.07h0l0,0a.69.69,0,0,1,.14.27.56.56,0,0,1,0,.12.45.45,0,0,1-.21-.09A.3.3,0,0,1,6.6,7.82Zm1.3-.67A.13.13,0,0,1,8,7.08a.13.13,0,0,1,.12.07.25.25,0,0,1,0,.22A.91.91,0,0,1,8,7.53a.86.86,0,0,1-.1-.16A.22.22,0,0,1,7.9,7.15Zm1.26.9a.87.87,0,0,1,.15-.27.05.05,0,0,1,0,0h0a.1.1,0,0,1,0,.07.34.34,0,0,1-.1.26.41.41,0,0,1-.2.09ZM7,8.35c0,.11,0,.23.08.34l.15.61c.17.72.33,1.34.45,1.82h.12c-.1-.49-.24-1.12-.41-1.85,0-.2-.09-.4-.14-.61s0-.21-.07-.32A1.69,1.69,0,0,0,8,7.79a1.69,1.69,0,0,0,.88.55c0,.11,0,.21-.07.32s-.09.41-.14.61c-.16.73-.3,1.36-.4,1.85h.11c.13-.48.28-1.1.46-1.82L9,8.69c0-.11.05-.23.08-.34a.63.63,0,0,0,.39-.15.46.46,0,0,0,.14-.41.24.24,0,0,0-.17-.2.29.29,0,0,0-.16,0,.35.35,0,0,0-.11.07A1,1,0,0,0,9,8a1.54,1.54,0,0,0-.05.17s-.17,0-.52-.22a1,1,0,0,1-.3-.29.79.79,0,0,0,.16-.23.43.43,0,0,0,.05-.16.27.27,0,0,0,0-.19.3.3,0,0,0-.16-.15L8,6.91l-.11,0a.36.36,0,0,0-.17.15.43.43,0,0,0,0,.19.44.44,0,0,0,.06.16.79.79,0,0,0,.16.23A1.1,1.1,0,0,1,7.6,8c-.35.24-.51.22-.51.22A1.54,1.54,0,0,0,7,8a1,1,0,0,0-.18-.34.42.42,0,0,0-.12-.07.29.29,0,0,0-.16,0,.26.26,0,0,0-.17.2.46.46,0,0,0,.15.41A.59.59,0,0,0,7,8.35Z"/><path class="cls-2" d="M6.64,11.49v.36h.19v.7H7v.36H7v.35h.27a.76.76,0,0,0,1.45,0H9v-.35H9v-.3l.19-.06h0V11.9l.19-.05h0v-.36Z"/></svg>