<svg id="Layer_1" data-name="Layer 1" xmlns="http://www.w3.org/2000/svg" viewBox="0 0 16 16"><defs><style>.cls-1{fill:#f0ad4e;}</style></defs><title>icon-caution</title><path class="cls-1" d="M1.46,15a.84.84,0,0,1-.83-1.32L7.31.57c.37-.72,1-.72,1.35,0l6.68,13.14A.84.84,0,0,1,14.51,15Z"/><path d="M6.81,12.74a1.17,1.17,0,0,1,.34-.86,1.17,1.17,0,0,1,1.67,0,1.25,1.25,0,0,1,0,1.71,1.17,1.17,0,0,1-1.67,0A1.16,1.16,0,0,1,6.81,12.74Zm.05-9.47a5.85,5.85,0,0,1,1.32-.19,1.37,1.37,0,0,1,.73.15.47.47,0,0,1,.23.43v.09a.62.62,0,0,1,0,.1c-.09.47-.19,1-.27,1.54s-.16,1.14-.23,1.74S8.48,8.33,8.42,9s-.09,1.22-.12,1.79l-.16,0H8q-.27,0-.33-.09a.44.44,0,0,1-.07-.19Z"/></svg>