<svg id="Layer_1" data-name="Layer 1" xmlns="http://www.w3.org/2000/svg" xmlns:xlink="http://www.w3.org/1999/xlink" viewBox="0 0 282 282"><defs><style>.cls-1,.cls-18{fill:url(#New_Gradient_Swatch);}.cls-1,.cls-10,.cls-11,.cls-12,.cls-13,.cls-14,.cls-15,.cls-16,.cls-2,.cls-3,.cls-4,.cls-5,.cls-6,.cls-7,.cls-8,.cls-9{clip-rule:evenodd;}.cls-2,.cls-21{fill:url(#New_Gradient_Swatch-2);}.cls-3,.cls-48{fill:url(#New_Gradient_Swatch-3);}.cls-4,.cls-51{fill:url(#New_Gradient_Swatch-4);}.cls-5,.cls-54{fill:url(#New_Gradient_Swatch-5);}.cls-57,.cls-6{fill:url(#New_Gradient_Swatch-6);}.cls-60,.cls-7{fill:url(#New_Gradient_Swatch-7);}.cls-63,.cls-8{fill:url(#New_Gradient_Swatch-8);}.cls-24,.cls-9{fill:url(#New_Gradient_Swatch-9);}.cls-10,.cls-27{fill:url(#New_Gradient_Swatch-10);}.cls-11,.cls-30{fill:url(#New_Gradient_Swatch-11);}.cls-12,.cls-33{fill:url(#New_Gradient_Swatch-12);}.cls-13,.cls-36{fill:url(#New_Gradient_Swatch-13);}.cls-14,.cls-39{fill:url(#New_Gradient_Swatch-14);}.cls-15,.cls-42{fill:url(#New_Gradient_Swatch-15);}.cls-16,.cls-45{fill:url(#New_Gradient_Swatch-16);}.cls-17{fill:#f6f7f7;}.cls-18,.cls-21,.cls-24,.cls-27,.cls-30,.cls-33,.cls-36,.cls-39,.cls-42,.cls-45,.cls-48,.cls-51,.cls-54,.cls-57,.cls-60,.cls-63{fill-rule:evenodd;}.cls-19{clip-path:url(#clip-path);}.cls-20{fill:url(#New_Gradient_Swatch-18);}.cls-22{clip-path:url(#clip-path-2);}.cls-23{fill:url(#New_Gradient_Swatch-20);}.cls-25{clip-path:url(#clip-path-3);}.cls-26{fill:url(#New_Gradient_Swatch-22);}.cls-28{clip-path:url(#clip-path-4);}.cls-29{fill:url(#New_Gradient_Swatch-24);}.cls-31{clip-path:url(#clip-path-5);}.cls-32{fill:url(#New_Gradient_Swatch-26);}.cls-34{clip-path:url(#clip-path-6);}.cls-35{fill:url(#New_Gradient_Swatch-28);}.cls-37{clip-path:url(#clip-path-7);}.cls-38{fill:url(#New_Gradient_Swatch-30);}.cls-40{clip-path:url(#clip-path-8);}.cls-41{fill:url(#New_Gradient_Swatch-32);}.cls-43{clip-path:url(#clip-path-9);}.cls-44{fill:url(#New_Gradient_Swatch-34);}.cls-46{clip-path:url(#clip-path-10);}.cls-47{fill:url(#New_Gradient_Swatch-36);}.cls-49{clip-path:url(#clip-path-11);}.cls-50{fill:url(#New_Gradient_Swatch-38);}.cls-52{clip-path:url(#clip-path-12);}.cls-53{fill:url(#New_Gradient_Swatch-40);}.cls-55{clip-path:url(#clip-path-13);}.cls-56{fill:url(#New_Gradient_Swatch-42);}.cls-58{clip-path:url(#clip-path-14);}.cls-59{fill:url(#New_Gradient_Swatch-44);}.cls-61{clip-path:url(#clip-path-15);}.cls-62{fill:url(#New_Gradient_Swatch-46);}.cls-64{clip-path:url(#clip-path-16);}.cls-65{fill:url(#New_Gradient_Swatch-48);}.cls-66{fill:#1791ff;}.cls-67{fill:url(#linear-gradient);}</style><linearGradient id="New_Gradient_Swatch" x1="76.94" y1="204.83" x2="97" y2="204.83" gradientUnits="userSpaceOnUse"><stop offset="0" stop-color="#1791ff"/><stop offset="1" stop-color="#1791ff"/></linearGradient><linearGradient id="New_Gradient_Swatch-2" x1="180.11" y1="207.7" x2="200.17" y2="207.7" xlink:href="#New_Gradient_Swatch"/><linearGradient id="New_Gradient_Swatch-3" x1="149.54" y1="59.32" x2="173.13" y2="59.32" xlink:href="#New_Gradient_Swatch"/><linearGradient id="New_Gradient_Swatch-4" x1="92.37" y1="57.52" x2="115.96" y2="57.52" xlink:href="#New_Gradient_Swatch"/><linearGradient id="New_Gradient_Swatch-5" x1="180.71" y1="63.83" x2="193.32" y2="63.83" xlink:href="#New_Gradient_Swatch"/><linearGradient id="New_Gradient_Swatch-6" x1="204.76" y1="97.26" x2="222.08" y2="97.26" xlink:href="#New_Gradient_Swatch"/><linearGradient id="New_Gradient_Swatch-7" x1="53.08" y1="95.91" x2="70.4" y2="95.91" xlink:href="#New_Gradient_Swatch"/><linearGradient id="New_Gradient_Swatch-8" x1="124.33" y1="59.32" x2="141.66" y2="59.32" xlink:href="#New_Gradient_Swatch"/><linearGradient id="New_Gradient_Swatch-9" x1="104.03" y1="231.19" x2="127.62" y2="231.19" xlink:href="#New_Gradient_Swatch"/><linearGradient id="New_Gradient_Swatch-10" x1="161.2" y1="232.99" x2="184.79" y2="232.99" xlink:href="#New_Gradient_Swatch"/><linearGradient id="New_Gradient_Swatch-11" x1="83.84" y1="226.69" x2="96.45" y2="226.69" xlink:href="#New_Gradient_Swatch"/><linearGradient id="New_Gradient_Swatch-12" x1="55.08" y1="193.26" x2="72.4" y2="193.26" xlink:href="#New_Gradient_Swatch"/><linearGradient id="New_Gradient_Swatch-13" x1="204.76" y1="197.6" x2="222.08" y2="197.6" xlink:href="#New_Gradient_Swatch"/><linearGradient id="New_Gradient_Swatch-14" x1="135.5" y1="228.32" x2="152.83" y2="228.32" xlink:href="#New_Gradient_Swatch"/><linearGradient id="New_Gradient_Swatch-15" x1="180.16" y1="85.68" x2="200.22" y2="85.68" xlink:href="#New_Gradient_Swatch"/><linearGradient id="New_Gradient_Swatch-16" x1="76.99" y1="82.81" x2="97.05" y2="82.81" xlink:href="#New_Gradient_Swatch"/><clipPath id="clip-path"><path class="cls-1" d="M89.73,209a5,5,0,1,0-7-1.35A5,5,0,0,0,89.73,209Zm-2.52,5.87a10,10,0,1,1,9-6,7.56,7.56,0,0,0-5.5,1.5A7.64,7.64,0,0,0,87.21,214.86Z"/></clipPath><linearGradient id="New_Gradient_Swatch-18" x1="72.5" y1="204.19" x2="100.58" y2="204.19" gradientTransform="translate(129.04 -13.47) rotate(34.02)" xlink:href="#New_Gradient_Swatch"/><clipPath id="clip-path-2"><path class="cls-2" d="M187.42,211.89a5,5,0,1,0-1.53-7A5,5,0,0,0,187.42,211.89Zm-6.39,0a10,10,0,1,1,9.06,5.83A8.9,8.9,0,0,0,181,211.9Z"/></clipPath><linearGradient id="New_Gradient_Swatch-20" x1="176.58" y1="207.04" x2="204.54" y2="207.04" gradientTransform="translate(262.33 -65.04) rotate(57.4)" xlink:href="#New_Gradient_Swatch"/><clipPath id="clip-path-3"><path class="cls-9" d="M113.26,236.51a5.92,5.92,0,1,0-2.8-7.89A5.92,5.92,0,0,0,113.26,236.51Zm-7.45.94a11.79,11.79,0,1,1,11.42,5.49c-.51-1.66-2.3-3.48-4.81-4.68S107.43,236.83,105.81,237.45Z"/></clipPath><linearGradient id="New_Gradient_Swatch-22" x1="100.28" y1="230.41" x2="132.16" y2="230.41" gradientTransform="translate(274.17 26.33) rotate(64.51)" xlink:href="#New_Gradient_Swatch"/><clipPath id="clip-path-4"><path class="cls-10" d="M174.5,238.94a5.92,5.92,0,1,0-7.27-4.15A5.91,5.91,0,0,0,174.5,238.94Zm-5,5.58a11.79,11.79,0,1,1,12.23-3.3c-1.47-.92-4-1.13-6.69-.4S170.28,243,169.47,244.52Z"/></clipPath><linearGradient id="New_Gradient_Swatch-24" x1="157.95" y1="232.38" x2="187.56" y2="232.38" gradientTransform="translate(67.16 -37.24) rotate(15.24)" xlink:href="#New_Gradient_Swatch"/><clipPath id="clip-path-5"><path class="cls-11" d="M88.28,229.22a3.17,3.17,0,1,0-.71-4.42A3.17,3.17,0,0,0,88.28,229.22Zm-4-.22a6.3,6.3,0,1,1,5.47,4,5.57,5.57,0,0,0-5.47-4Z"/></clipPath><linearGradient id="New_Gradient_Swatch-26" x1="81.57" y1="226.29" x2="99.29" y2="226.29" gradientTransform="translate(220.88 20.46) rotate(54.15)" xlink:href="#New_Gradient_Swatch"/><clipPath id="clip-path-6"><path class="cls-12" d="M61.91,197.2a4.35,4.35,0,1,0-2.14-5.76A4.34,4.34,0,0,0,61.91,197.2Zm-5.46.78a8.66,8.66,0,1,1,8.45,3.9,6.57,6.57,0,0,0-3.58-3.38A6.58,6.58,0,0,0,56.45,198Z"/></clipPath><linearGradient id="New_Gradient_Swatch-28" x1="52.36" y1="192.69" x2="75.67" y2="192.69" gradientTransform="translate(212.47 54.16) rotate(65.36)" xlink:href="#New_Gradient_Swatch"/><clipPath id="clip-path-7"><path class="cls-13" d="M215,201.72a4.35,4.35,0,1,0-5.63-2.48A4.35,4.35,0,0,0,215,201.72Zm-3.24,4.46a8.66,8.66,0,1,1,8.68-3.35,7.69,7.69,0,0,0-8.68,3.35Z"/></clipPath><linearGradient id="New_Gradient_Swatch-30" x1="201.77" y1="197.06" x2="224.59" y2="197.06" gradientTransform="translate(86.04 -63.93) rotate(21.28)" xlink:href="#New_Gradient_Swatch"/><clipPath id="clip-path-8"><path class="cls-14" d="M145.94,232.3a4.35,4.35,0,1,0-5.77-2.14A4.35,4.35,0,0,0,145.94,232.3Zm-3,4.64a8.66,8.66,0,1,1,8.47-3.85,6.51,6.51,0,0,0-4.9.51A6.6,6.6,0,0,0,143,236.94Z"/></clipPath><linearGradient id="New_Gradient_Swatch-32" x1="132.23" y1="227.76" x2="155.55" y2="227.76" gradientTransform="translate(108.16 -39.26) rotate(24.66)" xlink:href="#New_Gradient_Swatch"/><clipPath id="clip-path-9"><path class="cls-15" d="M194.42,88.49a5,5,0,1,0-7,1.36A5,5,0,0,0,194.42,88.49Zm-7.92,2.72a7.6,7.6,0,0,0-5.5-1.5,10,10,0,1,1,8.95,6A7.64,7.64,0,0,0,186.5,91.21Z"/></clipPath><linearGradient id="New_Gradient_Swatch-34" x1="176.58" y1="85.04" x2="204.66" y2="85.04" gradientTransform="translate(154.47 -120.54) rotate(55.98)" xlink:href="#New_Gradient_Swatch"/><clipPath id="clip-path-10"><path class="cls-16" d="M91.27,80.05a5,5,0,1,0-1.53,7A5,5,0,0,0,91.27,80.05Zm-.64,8.34a7.59,7.59,0,0,0-3.56,4.46A10,10,0,1,1,96.13,87,7.71,7.71,0,0,0,90.63,88.39Z"/></clipPath><linearGradient id="New_Gradient_Swatch-36" x1="72.62" y1="82.16" x2="100.58" y2="82.16" gradientTransform="translate(57.9 -33.71) rotate(32.6)" xlink:href="#New_Gradient_Swatch"/><clipPath id="clip-path-11"><path class="cls-3" d="M166.7,56.76a5.92,5.92,0,1,0-2.8,7.89A5.93,5.93,0,0,0,166.7,56.76Zm-2,9.64c-2.51,1.19-4.3,3-4.81,4.68a11.79,11.79,0,1,1,11.42-5.49C169.73,65,167.22,65.22,164.74,66.4Z"/></clipPath><linearGradient id="New_Gradient_Swatch-38" x1="145" y1="58.54" x2="176.88" y2="58.54" gradientTransform="translate(40.87 -63.57) rotate(25.49)" xlink:href="#New_Gradient_Swatch"/><clipPath id="clip-path-12"><path class="cls-4" d="M109.93,59.31a5.92,5.92,0,1,0-7.27,4.16A5.91,5.91,0,0,0,109.93,59.31Zm-7.78,6c-2.67-.73-5.22-.51-6.69.41A11.8,11.8,0,1,1,107.69,69C106.88,67.52,104.8,66.06,102.15,65.34Z"/></clipPath><linearGradient id="New_Gradient_Swatch-40" x1="89.6" y1="56.91" x2="119.21" y2="56.91" gradientTransform="translate(131.87 -58.78) rotate(74.76)" xlink:href="#New_Gradient_Swatch"/><clipPath id="clip-path-13"><path class="cls-5" d="M189.59,61.94a3.16,3.16,0,1,0-.71,4.42A3.16,3.16,0,0,0,189.59,61.94Zm-.11,5.26a4.76,4.76,0,0,0-2.07,2.92,6.31,6.31,0,1,1,4.72-10,6.35,6.35,0,0,1,.76,6A4.78,4.78,0,0,0,189.48,67.2Z"/></clipPath><linearGradient id="New_Gradient_Swatch-42" x1="177.87" y1="63.43" x2="195.59" y2="63.43" gradientTransform="translate(72.53 -97.35) rotate(35.85)" xlink:href="#New_Gradient_Swatch"/><clipPath id="clip-path-14"><path class="cls-6" d="M217.39,95.44a4.34,4.34,0,1,0-2.14,5.76A4.35,4.35,0,0,0,217.39,95.44Zm-1.55,7.06a6.57,6.57,0,0,0-3.58,3.38,8.66,8.66,0,1,1,8.45-3.9A6.58,6.58,0,0,0,215.84,102.5Z"/></clipPath><linearGradient id="New_Gradient_Swatch-44" x1="201.49" y1="96.69" x2="224.8" y2="96.69" gradientTransform="translate(59.72 -80.06) rotate(24.64)" xlink:href="#New_Gradient_Swatch"/><clipPath id="clip-path-15"><path class="cls-7" d="M65.84,97.56A4.35,4.35,0,1,0,60.21,100,4.35,4.35,0,0,0,65.84,97.56Zm-6.15,3.8a6.54,6.54,0,0,0-4.92-.22,8.66,8.66,0,1,1,8.68,3.35A6.57,6.57,0,0,0,59.69,101.36Z"/></clipPath><linearGradient id="New_Gradient_Swatch-46" x1="50.57" y1="95.37" x2="73.39" y2="95.37" gradientTransform="translate(128.36 3.01) rotate(68.72)" xlink:href="#New_Gradient_Swatch"/><clipPath id="clip-path-16"><path class="cls-8" d="M137,61.16a4.35,4.35,0,1,0-5.77,2.14A4.35,4.35,0,0,0,137,61.16Zm-6.36,3.44a6.55,6.55,0,0,0-4.9-.51A8.65,8.65,0,1,1,134.2,68,6.58,6.58,0,0,0,130.63,64.6Z"/></clipPath><linearGradient id="New_Gradient_Swatch-48" x1="121.61" y1="58.76" x2="144.93" y2="58.76" gradientTransform="translate(131.06 -86.87) rotate(65.34)" xlink:href="#New_Gradient_Swatch"/><linearGradient id="linear-gradient" x1="185.71" y1="146.13" x2="255.88" y2="146.13" gradientUnits="userSpaceOnUse"><stop offset="0" stop-color="#56d695"/><stop offset="1" stop-color="#78deaa"/></linearGradient></defs><title>Artboard 1 copy 2</title><rect class="cls-17" width="282" height="282"/><path class="cls-18" d="M89.73,209a5,5,0,1,0-7-1.35A5,5,0,0,0,89.73,209Zm-2.52,5.87a10,10,0,1,1,9-6,7.56,7.56,0,0,0-5.5,1.5A7.64,7.64,0,0,0,87.21,214.86Z"/><g class="cls-19"><rect class="cls-20" x="76.11" y="194.54" width="20.85" height="19.3" transform="translate(-99.42 83.36) rotate(-34.02)"/></g><path class="cls-21" d="M187.42,211.89a5,5,0,1,0-1.53-7A5,5,0,0,0,187.42,211.89Zm-6.39,0a10,10,0,1,1,9.06,5.83A8.9,8.9,0,0,0,181,211.9Z"/><g class="cls-22"><rect class="cls-23" x="180.91" y="196.62" width="19.3" height="20.85" transform="matrix(0.54, -0.84, 0.84, 0.54, -86.53, 256.05)"/></g><path class="cls-24" d="M113.26,236.51a5.92,5.92,0,1,0-2.8-7.89A5.92,5.92,0,0,0,113.26,236.51Zm-7.45.94a11.79,11.79,0,1,1,11.42,5.49c-.51-1.66-2.3-3.48-4.81-4.68S107.43,236.83,105.81,237.45Z"/><g class="cls-25"><rect class="cls-26" x="104.88" y="218.15" width="22.68" height="24.51" transform="translate(-141.77 236.14) rotate(-64.51)"/></g><path class="cls-27" d="M174.5,238.94a5.92,5.92,0,1,0-7.27-4.15A5.91,5.91,0,0,0,174.5,238.94Zm-5,5.58a11.79,11.79,0,1,1,12.23-3.3c-1.47-.92-4-1.13-6.69-.4S170.28,243,169.47,244.52Z"/><g class="cls-28"><rect class="cls-29" x="160.5" y="221.04" width="24.51" height="22.68" transform="translate(-55.01 53.58) rotate(-15.24)"/></g><path class="cls-30" d="M88.28,229.22a3.17,3.17,0,1,0-.71-4.42A3.17,3.17,0,0,0,88.28,229.22Zm-4-.22a6.3,6.3,0,1,1,5.47,4,5.57,5.57,0,0,0-5.47-4Z"/><g class="cls-31"><rect class="cls-32" x="84.36" y="219.74" width="12.13" height="13.11" transform="translate(-145.95 167.05) rotate(-54.15)"/></g><path class="cls-33" d="M61.91,197.2a4.35,4.35,0,1,0-2.14-5.76A4.34,4.34,0,0,0,61.91,197.2Zm-5.46.78a8.66,8.66,0,1,1,8.45,3.9,6.57,6.57,0,0,0-3.58-3.38A6.58,6.58,0,0,0,56.45,198Z"/><g class="cls-34"><rect class="cls-35" x="55.69" y="183.68" width="16.66" height="18" transform="translate(-137.81 170.54) rotate(-65.36)"/></g><path class="cls-36" d="M215,201.72a4.35,4.35,0,1,0-5.63-2.48A4.35,4.35,0,0,0,215,201.72Zm-3.24,4.46a8.66,8.66,0,1,1,8.68-3.35,7.69,7.69,0,0,0-8.68,3.35Z"/><g class="cls-37"><rect class="cls-38" x="204.18" y="188.73" width="18" height="16.66" transform="translate(-56.98 90.79) rotate(-21.28)"/></g><path class="cls-39" d="M145.94,232.3a4.35,4.35,0,1,0-5.77-2.14A4.35,4.35,0,0,0,145.94,232.3Zm-3,4.64a8.66,8.66,0,1,1,8.47-3.85,6.51,6.51,0,0,0-4.9.51A6.6,6.6,0,0,0,143,236.94Z"/><g class="cls-40"><rect class="cls-41" x="134.89" y="219.42" width="18" height="16.66" transform="translate(-81.91 80.81) rotate(-24.66)"/></g><path class="cls-42" d="M194.42,88.49a5,5,0,1,0-7,1.36A5,5,0,0,0,194.42,88.49Zm-7.92,2.72a7.6,7.6,0,0,0-5.5-1.5,10,10,0,1,1,8.95,6A7.64,7.64,0,0,0,186.5,91.21Z"/><g class="cls-43"><rect class="cls-44" x="180.97" y="74.61" width="19.3" height="20.85" transform="translate(13.49 195.47) rotate(-55.98)"/></g><path class="cls-45" d="M91.27,80.05a5,5,0,1,0-1.53,7A5,5,0,0,0,91.27,80.05Zm-.64,8.34a7.59,7.59,0,0,0-3.56,4.46A10,10,0,1,1,96.13,87,7.71,7.71,0,0,0,90.63,88.39Z"/><g class="cls-46"><rect class="cls-47" x="76.18" y="72.51" width="20.85" height="19.3" transform="translate(-30.62 59.6) rotate(-32.6)"/></g><path class="cls-48" d="M166.7,56.76a5.92,5.92,0,1,0-2.8,7.89A5.93,5.93,0,0,0,166.7,56.76Zm-2,9.64c-2.51,1.19-4.3,3-4.81,4.68a11.79,11.79,0,1,1,11.42-5.49C169.73,65,167.22,65.22,164.74,66.4Z"/><g class="cls-49"><rect class="cls-50" x="148.69" y="47.2" width="24.51" height="22.68" transform="translate(-9.53 74.97) rotate(-25.49)"/></g><path class="cls-51" d="M109.93,59.31a5.92,5.92,0,1,0-7.27,4.16A5.91,5.91,0,0,0,109.93,59.31Zm-7.78,6c-2.67-.73-5.22-.51-6.69.41A11.8,11.8,0,1,1,107.69,69C106.88,67.52,104.8,66.06,102.15,65.34Z"/><g class="cls-52"><rect class="cls-53" x="93.06" y="44.66" width="22.68" height="24.51" transform="translate(22.05 142.68) rotate(-74.76)"/></g><path class="cls-54" d="M189.59,61.94a3.16,3.16,0,1,0-.71,4.42A3.16,3.16,0,0,0,189.59,61.94Zm-.11,5.26a4.76,4.76,0,0,0-2.07,2.92,6.31,6.31,0,1,1,4.72-10,6.35,6.35,0,0,1,.76,6A4.78,4.78,0,0,0,189.48,67.2Z"/><g class="cls-55"><rect class="cls-56" x="180.18" y="57.36" width="13.11" height="12.13" transform="translate(-1.77 121.39) rotate(-35.85)"/></g><path class="cls-57" d="M217.39,95.44a4.34,4.34,0,1,0-2.14,5.76A4.35,4.35,0,0,0,217.39,95.44Zm-1.55,7.06a6.57,6.57,0,0,0-3.58,3.38,8.66,8.66,0,1,1,8.45-3.9A6.58,6.58,0,0,0,215.84,102.5Z"/><g class="cls-58"><rect class="cls-59" x="204.14" y="88.35" width="18" height="16.66" transform="translate(-20.9 97.67) rotate(-24.64)"/></g><path class="cls-60" d="M65.84,97.56A4.35,4.35,0,1,0,60.21,100,4.35,4.35,0,0,0,65.84,97.56Zm-6.15,3.8a6.54,6.54,0,0,0-4.92-.22,8.66,8.66,0,1,1,8.68,3.35A6.57,6.57,0,0,0,59.69,101.36Z"/><g class="cls-61"><rect class="cls-62" x="53.65" y="86.37" width="16.66" height="18" transform="translate(-49.38 118.52) rotate(-68.72)"/></g><path class="cls-63" d="M137,61.16a4.35,4.35,0,1,0-5.77,2.14A4.35,4.35,0,0,0,137,61.16Zm-6.36,3.44a6.55,6.55,0,0,0-4.9-.51A8.65,8.65,0,1,1,134.2,68,6.58,6.58,0,0,0,130.63,64.6Z"/><g class="cls-64"><rect class="cls-65" x="124.94" y="49.76" width="16.66" height="18" transform="translate(24.26 155.36) rotate(-65.34)"/></g><rect class="cls-66" x="26.12" y="111.04" width="70.17" height="70.17" rx="12.84" ry="12.84"/><rect class="cls-67" x="185.71" y="111.04" width="70.17" height="70.17" rx="12.84" ry="12.84"/></svg>