<svg id="Layer_1" data-name="Layer 1" xmlns="http://www.w3.org/2000/svg" xmlns:xlink="http://www.w3.org/1999/xlink" viewBox="0 0 282 282"><defs><style>.cls-1,.cls-2,.cls-7,.cls-8{fill:none;}.cls-1{clip-rule:evenodd;}.cls-3{fill:#f6f7f7;}.cls-4{fill:#1791ff;}.cls-5{fill:url(#linear-gradient);}.cls-6{fill:#231f20;}.cls-7{stroke:#e6e7e8;}.cls-7,.cls-8{stroke-linecap:round;stroke-miterlimit:10;stroke-width:5px;stroke-dasharray:2 10;}.cls-8{stroke:#1791ff;}.cls-9{clip-path:url(#clip-path);}.cls-10{clip-path:url(#clip-path-2);}.cls-11{fill:#fff;}</style><linearGradient id="linear-gradient" x1="189.72" y1="143.17" x2="259.89" y2="143.17" gradientUnits="userSpaceOnUse"><stop offset="0" stop-color="#56d695"/><stop offset="1" stop-color="#78deaa"/></linearGradient><clipPath id="clip-path"><path class="cls-1" d="M57.11,153.55a11.05,11.05,0,1,0-11-11.05A11.05,11.05,0,0,0,57.11,153.55Zm-11.79,7.57a22,22,0,1,1,23.65.07c-2.2-2.38-6.68-4-11.86-4S47.54,158.78,45.32,161.12Z"/></clipPath><clipPath id="clip-path-2"><rect class="cls-2" x="-4.52" y="80.87" width="123.26" height="123.26"/></clipPath></defs><title>Artboard 1 copy 5</title><rect class="cls-3" y="-0.73" width="282" height="282"/><rect class="cls-4" x="22.11" y="108.09" width="70.17" height="70.17" rx="12.84" ry="12.84"/><rect class="cls-5" x="189.72" y="108.09" width="70.17" height="70.17" rx="12.84" ry="12.84"/><g id="r1VMIK"><path class="cls-6" d="M131.06,152c0-.22.08-.43.13-.65a5,5,0,0,1,2.9-3.55,3.45,3.45,0,0,1,3,0l.12,0,.93-1.62,1.36-2.39a.34.34,0,0,0,0-.28q-1.43-2.88-2.88-5.75c-.75-1.47-1.47-3-2.28-4.39a2.5,2.5,0,0,1,.09-2.66c.1-.18.23-.36.37-.57l6.25,10.93,6.26-11c.18.32.36.59.51.88a2.23,2.23,0,0,1,0,2.27,8.77,8.77,0,0,0-.45.86c-1,1.92-2,3.83-2.93,5.75-.61,1.2-1.21,2.4-1.81,3.61a.39.39,0,0,0,0,.3c.72,1.28,1.46,2.56,2.19,3.84,0,.06.07.11.08.13.37-.11.72-.24,1.08-.31a3.67,3.67,0,0,1,2.51.48,5.14,5.14,0,0,1,2.59,3.88.53.53,0,0,0,0,.12v.87c0,.06,0,.13,0,.19a3.44,3.44,0,0,1-2,2.78,7.75,7.75,0,0,1-1,.3h-.7l-.32-.07a4.8,4.8,0,0,1-3.26-2.47,7,7,0,0,1-.69-2.32,14.34,14.34,0,0,0-1.43-4.47c-.18-.32-.39-.62-.61-1-.09.12-.14.18-.19.26a10.21,10.21,0,0,0-1.53,3.59c-.21.83-.32,1.68-.52,2.51A5,5,0,0,1,136,155.8a8,8,0,0,1-1.21.35h-.7l-.07,0a3.31,3.31,0,0,1-2.84-2.72,4.82,4.82,0,0,1-.11-.52Zm2,.46v.16a1.38,1.38,0,0,0,2,1.36A3.14,3.14,0,0,0,137,150.9a1.61,1.61,0,0,0-.56-1.14,1.38,1.38,0,0,0-1.51-.09A3.09,3.09,0,0,0,133.1,152.47Zm16.06,0h0a3,3,0,0,0-.41-1.5,2.76,2.76,0,0,0-1.6-1.38,1.31,1.31,0,0,0-1.81,1.07,2.81,2.81,0,0,0,.38,2,2.68,2.68,0,0,0,1.87,1.4,1.21,1.21,0,0,0,1.36-.71A8.7,8.7,0,0,0,149.16,152.48Z"/></g><line class="cls-7" x1="158.2" y1="143.17" x2="186.96" y2="143.17"/><line class="cls-8" x1="97.54" y1="143.17" x2="129.43" y2="143.17"/><g class="cls-9"><g class="cls-10"><rect class="cls-11" x="34.33" y="119.71" width="45.75" height="42.34"/></g></g></svg>