<?xml version="1.0" encoding="UTF-8"?>
<svg width="320px" height="230px" viewBox="0 0 320 230" version="1.1" xmlns="http://www.w3.org/2000/svg" xmlns:xlink="http://www.w3.org/1999/xlink">
    <!-- Generator: Sketch 49.1 (51147) - http://www.bohemiancoding.com/sketch -->
    <title>Service Conenction Image</title>
    <desc>Created with Sketch.</desc>
    <defs>
        <linearGradient x1="0%" y1="0%" x2="101.999998%" y2="100.999999%" id="linearGradient-1">
            <stop stop-color="#3023AE" offset="0%"></stop>
            <stop stop-color="#C86DD7" offset="100%"></stop>
        </linearGradient>
        <rect id="path-2" x="0" y="0" width="128" height="128" rx="64"></rect>
        <rect id="path-3" x="0" y="51" width="128" height="128" rx="64"></rect>
    </defs>
    <g id="Page-1" stroke="none" stroke-width="1" fill="none" fill-rule="evenodd">
        <g id="3rd-Party-Auth-(Connecting)" transform="translate(-352.000000, -201.000000)">
            <g id="Service-Conenction-Image" transform="translate(352.000000, 201.000000)">
                <circle id="Oval" stroke="#E6E6E6" stroke-width="2" cx="160" cy="115" r="114"></circle>
                <g id="Fake-Service-Logo" transform="translate(192.000000, 51.000000)">
                    <g id="Service-Container">
                        <use fill="url(#linearGradient-1)" fill-rule="evenodd" xlink:href="#path-2"></use>
                        <rect stroke="#000000" stroke-width="2" x="1" y="1" width="126" height="126" rx="63"></rect>
                    </g>
                    <path d="M96.9877914,54.3243343 C102.517382,54.3243343 107,58.8136255 107,64.3514557 C107,69.8891878 102.517382,74.378577 96.9877915,74.378577 C92.2867933,74.378577 88.3444136,71.1330798 87.2678759,66.7579653 L74.8688695,66.7579653 C73.7923633,71.1330798 69.8499556,74.378577 65.1489609,74.378577 C60.4479662,74.378577 56.505583,71.1330798 55.4290523,66.7579653 L44.7321206,66.7579653 C43.6556109,71.1330798 39.7132067,74.378577 35.0122103,74.378577 C29.4826389,74.378577 25,69.8891877 25,64.3514557 C25,58.8136255 29.4826389,54.3243343 35.0122102,54.3243343 C39.7132066,54.3243343 43.6556108,57.5697334 44.7321206,61.944946 L55.4290522,61.944946 C56.5055584,57.5697334 60.4479626,54.3243343 65.1489608,54.3243343 C69.849959,54.3243343 73.7923632,57.5697334 74.8688694,61.944946 L87.2678758,61.944946 C88.3443855,57.5697334 92.2867932,54.3243343 96.9877914,54.3243343 Z M75.3032861,82.3266408 C80.0704805,79.5206109 86.2063795,81.1162394 89.0082081,85.8905762 C91.8100158,90.6648151 90.2167604,96.8099583 85.449573,99.6158831 C80.6823577,102.421913 74.5464552,100.826291 71.7446511,96.0519476 C71.2394943,95.1911246 70.8793611,94.2855516 70.6527921,93.3632332 L58.9443016,93.3632332 C58.7177291,94.2855516 58.3575994,95.1911246 57.8524426,96.0519476 C55.0506349,100.826291 48.9147342,102.421913 44.1475206,99.6158831 C39.3803299,96.8099583 37.787078,90.6648151 40.5888839,85.8905762 C43.3906898,81.1162394 49.5265888,79.5206109 54.2938041,82.3266408 C56.7088832,83.7481597 58.307536,86.0270754 58.9346681,88.550214 L70.6624221,88.550214 C71.2895541,86.0270754 72.888207,83.7481597 75.3032861,82.3266408 Z M54.2938041,45.6733934 C49.5265888,48.4793216 43.3906898,46.8836984 40.5888839,42.1094561 C37.7870779,37.3351174 39.3803299,31.1900767 44.1475206,28.3840494 C48.9147343,25.5781194 55.050635,27.1737443 57.8524426,31.9479866 C58.4612172,32.9853626 58.8619482,34.0874641 59.0682777,35.2059201 L70.5288125,35.2059201 C70.735142,34.0874641 71.1358765,32.9853627 71.7446511,31.9479866 C74.5464553,27.1737443 80.6823578,25.5781194 85.449573,28.3840494 C90.2167604,31.1900767 91.8100157,37.3351175 89.0082081,42.1094561 C86.2063794,46.8836984 80.0704804,48.4793216 75.3032861,45.6733934 C73.0710964,44.3594879 71.5349214,42.3134271 70.8198671,40.0189378 L58.7772266,40.0189378 C58.0621688,42.3134271 56.5259938,44.3594879 54.2938041,45.6733934 Z" id="Logo" fill="#FFFFFF" fill-rule="nonzero"></path>
                </g>
                <g id="Interbit-Identity-Logo">
                    <use fill="#FFFFFF" fill-rule="evenodd" xlink:href="#path-3"></use>
                    <rect stroke="#000000" stroke-width="2" x="1" y="52" width="126" height="126" rx="63"></rect>
                </g>
                <polygon id="+" fill="#000000" points="157.528 112.336 157.528 106 162.584 106 162.584 112.336 169.176 112.336 169.176 117.136 162.648 117.136 162.648 123.472 157.592 123.472 157.592 117.136 151 117.136 151 112.336"></polygon>
                <path d="M64,51 C99.2376471,51 128,79.7623529 128,115 C128,150.237647 99.2376471,179 64,179 C28.7623529,179 0,150.237647 0,115 C0,79.7623529 28.7623529,51 64,51 Z M64.503937,72.1653543 C76.7218383,72.1653543 86.6771654,82.0272844 86.6771654,94.2799854 C86.6771654,106.532686 76.7218383,123.566929 64.503937,123.566929 C52.2860357,123.566929 42.3307087,106.23384 42.3307087,94.1305622 C42.3307087,82.0272844 52.2860357,72.1653543 64.503937,72.1653543 Z M100.886662,160.858268 C114.401336,150.019679 122.96063,133.310189 122.96063,114.643732 C122.96063,81.8268949 96.2316074,55.0314961 63.496063,55.0314961 C30.7605186,55.0314961 4.03149606,81.8268949 4.03149606,114.643732 C4.03149606,133.310189 12.5907898,150.019679 25.955301,160.858268 C25.955301,160.557196 25.955301,160.105588 25.955301,159.804516 C25.955301,141.890738 42.6233993,127.288751 63.3458999,127.288751 C84.0684005,127.288751 100.886662,141.890738 100.886662,159.804516 C100.886662,160.105588 100.886662,160.557196 100.886662,160.858268 Z" id="Identity-Logo" fill="#000000" fill-rule="nonzero"></path>
                <path d="M64,52.5 C29.5907801,52.5 1.5,80.5907801 1.5,115 C1.5,149.40922 29.5907801,177.5 64,177.5 C98.4092199,177.5 126.5,149.40922 126.5,115 C126.5,80.5907801 98.4092199,52.5 64,52.5 Z" id="Shape" stroke="#000000" stroke-width="3"></path>
            </g>
        </g>
    </g>
</svg>