<?xml version="1.0" encoding="UTF-8"?>
<svg width="157px" height="33px" viewBox="0 0 157 33" version="1.1" xmlns="http://www.w3.org/2000/svg" xmlns:xlink="http://www.w3.org/1999/xlink">
    <!-- Generator: Sketch 49.1 (51147) - http://www.bohemiancoding.com/sketch -->
    <title>nav_Accounts-01</title>
    <desc>Created with Sketch.</desc>
    <defs>
        <linearGradient x1="50%" y1="0.031152648%" x2="50%" y2="99.6573209%" id="linearGradient-1">
            <stop stop-color="#1AC8FC" offset="0%"></stop>
            <stop stop-color="#1D70F1" offset="100%"></stop>
        </linearGradient>
    </defs>
    <g id="Symbols" stroke="none" stroke-width="1" fill="none" fill-rule="evenodd">
        <g id="Accounts-Navigation---Signed-In-(1024)" transform="translate(-32.000000, -21.000000)" fill-rule="nonzero">
            <g id="nav_Accounts-01">
                <g transform="translate(32.000000, 21.000000)">
                    <g id="Page-1">
                        <g id="Accounts">
                            <g id="Icon">
                                <path d="M7.5,0 L24.6,0 C28.7,0 32,3.3 32,7.5 L32,24.6 C32,28.7 28.7,32.1 24.5,32.1 L7.5,32.1 C3.3,32 0,28.7 0,24.5 L0,7.5 C0,3.3 3.3,0 7.5,0 Z" id="path-2_10_" fill="#000000"></path>
                                <path d="M7.5,0 L24.6,0 C28.7,0 32,3.3 32,7.5 L32,24.6 C32,28.7 28.7,32.1 24.5,32.1 L7.5,32.1 C3.3,32 0,28.7 0,24.5 L0,7.5 C0,3.3 3.3,0 7.5,0 Z" id="path-2_1_" fill="url(#linearGradient-1)"></path>
                            </g>
                            <path d="M10.3,25.5 C7.4,23.6 5.4,20.2 5.4,16.3 C5.4,10.3 10.1,5.4 16,5.4 C21.9,5.4 26.6,10.3 26.6,16.3 C26.6,20.2 24.6,23.6 21.7,25.5 C20.6,24.3 18.5,23.5 16,23.5 C13.5,23.6 11.4,24.4 10.3,25.5 Z M16,21.8 C18.9,21.8 21.3,19.3 21.3,16.3 C21.3,13.3 18.9,10.8 16,10.8 C13.1,10.8 10.7,13.3 10.7,16.3 C10.7,19.3 13,21.8 16,21.8 Z" id="Combined-Shape" fill="#FFFFFF"></path>
                        </g>
                    </g>
                    <g id="Group" transform="translate(41.000000, 5.000000)" fill="#000000">
                        <path d="M13.7,14.8 L4.7,14.8 L2.2,21.5 L0,21.5 L8.2,0.7 L10.3,0.7 L18.4,21.3 L16.4,21.8 L13.7,14.8 Z M5.4,13 L13,13 L9.2,3.1 L5.4,13 Z" id="Shape"></path>
                        <path d="M27.3,21.8 C23.7,21.8 20.9,19.1 20.9,14.4 C20.9,9.6 23.8,7 27.4,7 C29.3,7 30.9,7.6 32,8.4 L31.7,10.4 C30.4,9.3 29.1,8.7 27.4,8.7 C24.8,8.7 22.9,10.7 22.9,14.4 C22.9,18 24.8,20.1 27.5,20.1 C29,20.1 30.4,19.7 31.8,18.4 L32.1,20.3 C30.8,21.3 29.2,21.8 27.3,21.8 Z" id="Shape"></path>
                        <path d="M40.9,21.8 C37.3,21.8 34.5,19.1 34.5,14.4 C34.5,9.6 37.4,7 41,7 C42.9,7 44.5,7.6 45.6,8.4 L45.3,10.4 C44,9.3 42.7,8.7 41,8.7 C38.4,8.7 36.5,10.7 36.5,14.4 C36.5,18 38.4,20.1 41.1,20.1 C42.6,20.1 44,19.7 45.4,18.4 L45.7,20.3 C44.5,21.3 42.9,21.8 40.9,21.8 Z" id="Shape"></path>
                        <path d="M54.6,21.8 C51,21.8 48.2,19.1 48.2,14.4 C48.2,9.7 51,7 54.6,7 C58.3,7 61,9.7 61,14.4 C61,19.1 58.2,21.8 54.6,21.8 Z M54.6,8.7 C52,8.7 50.3,10.9 50.3,14.4 C50.3,17.8 52.1,20.1 54.6,20.1 C57.3,20.1 59,17.9 59,14.4 C59,11 57.2,8.7 54.6,8.7 Z" id="Shape"></path>
                        <path d="M66.6,7.4 L66.6,17.2 C66.6,19 67.4,20.1 69.2,20.1 C70.7,20.1 72.2,19.2 73.8,17.7 L73.8,7.4 L75.8,7.4 L75.8,21.6 L74.3,21.6 L74,19.5 C72.4,20.9 70.8,21.9 68.9,21.9 C66.1,21.9 64.7,20.3 64.7,17.6 L64.7,7.4 L66.6,7.4 Z" id="Shape"></path>
                        <path d="M89.7,21.5 L89.7,11.7 C89.7,9.9 88.9,8.8 87.1,8.8 C85.6,8.8 84.1,9.7 82.5,11.3 L82.5,21.6 L80.5,21.6 L80.5,7.4 L82,7.4 L82.3,9.5 C83.9,8.1 85.5,7.1 87.4,7.1 C90.2,7.1 91.6,8.7 91.6,11.4 L91.6,21.5 L89.7,21.5 Z" id="Shape"></path>
                        <path d="M100.5,21.8 C98.3,21.8 96.8,20.9 96.8,18.3 L96.8,9 L94.6,9 L94.6,7.3 L96.8,7.3 L96.8,2.4 L98.8,2.1 L98.8,7.3 L102.1,7.3 L102.4,9 L98.9,9 L98.9,18 C98.9,19.4 99.5,20.1 101,20.1 C101.5,20.1 102,20 102.3,19.9 L102.6,21.6 C102.1,21.7 101.4,21.8 100.5,21.8 Z" id="Shape"></path>
                        <path d="M110.2,21.8 C108.3,21.8 106.3,21.2 105.1,20.5 L105.4,18.6 C106.7,19.4 108.5,20.1 110.4,20.1 C112.4,20.1 113.6,19.3 113.6,17.9 C113.6,16.5 112.8,15.9 109.9,15.1 C106.8,14.3 105.4,13.3 105.4,10.9 C105.4,8.7 107.3,7.1 110.2,7.1 C111.9,7.1 113.3,7.5 114.6,8.1 L114.3,10 C113,9.3 111.6,8.9 110.2,8.9 C108.2,8.9 107.3,9.7 107.3,10.9 C107.3,12.1 108.1,12.7 110.5,13.3 C113.9,14.2 115.5,15.3 115.5,17.8 C115.5,20.3 113.5,21.8 110.2,21.8 Z" id="Shape"></path>
                    </g>
                </g>
            </g>
        </g>
    </g>
</svg>
