<svg width="116" height="22" viewBox="0 0 116 22" fill="none" xmlns="http://www.w3.org/2000/svg">
<path d="M17.52 29.21L19.56 28.76L11.46 8.18H9.33L1.17 29H3.33L5.88 22.31H14.88L17.52 29.21ZM10.35 10.58L14.19 20.48H6.57L10.35 10.58ZM33.2264 27.71L32.9564 25.85C31.5164 27.11 30.1064 27.56 28.6064 27.56C25.9364 27.56 24.0164 25.46 24.0164 21.89C24.0164 18.26 25.9064 16.22 28.5164 16.22C30.1364 16.22 31.4564 16.82 32.7764 17.93L33.1064 15.95C31.9964 15.14 30.4664 14.51 28.5464 14.51C24.8864 14.51 22.0064 17.15 22.0064 21.92C22.0064 26.6 24.7964 29.3 28.4264 29.3C30.3764 29.3 31.9364 28.73 33.2264 27.71ZM46.908 27.71L46.638 25.85C45.198 27.11 43.788 27.56 42.288 27.56C39.618 27.56 37.698 25.46 37.698 21.89C37.698 18.26 39.588 16.22 42.198 16.22C43.818 16.22 45.138 16.82 46.458 17.93L46.788 15.95C45.678 15.14 44.148 14.51 42.228 14.51C38.568 14.51 35.688 17.15 35.688 21.92C35.688 26.6 38.478 29.3 42.108 29.3C44.058 29.3 45.618 28.73 46.908 27.71ZM62.1797 21.92C62.1797 17.21 59.4197 14.51 55.7297 14.51C52.1597 14.51 49.3697 17.21 49.3697 21.92C49.3697 26.6 52.0997 29.3 55.7297 29.3C59.3597 29.3 62.1797 26.6 62.1797 21.92ZM60.1397 21.92C60.1397 25.46 58.3997 27.62 55.7297 27.62C53.1497 27.62 51.3797 25.37 51.3797 21.92C51.3797 18.35 53.0897 16.19 55.7297 16.19C58.3997 16.19 60.1397 18.44 60.1397 21.92ZM65.8228 14.81V24.95C65.8228 27.65 67.2028 29.3 70.0528 29.3C71.9728 29.3 73.5928 28.28 75.1528 26.9L75.4828 29H77.0128V14.81H75.0328V25.07C73.4728 26.6 71.9428 27.5 70.4428 27.5C68.6428 27.5 67.8028 26.42 67.8028 24.59V14.81H65.8228ZM92.8359 29V18.86C92.8359 16.13 91.4259 14.51 88.6059 14.51C86.6859 14.51 85.0659 15.53 83.5059 16.91L83.1759 14.81H81.6459V29H83.6259V18.74C85.1859 17.21 86.7159 16.28 88.2159 16.28C90.0159 16.28 90.8559 17.39 90.8559 19.22V29H92.8359ZM103.709 29L103.409 27.35C103.079 27.41 102.539 27.5 102.089 27.5C100.559 27.5 99.9891 26.87 99.9891 25.43V16.49H103.529L103.259 14.81H99.9891V9.56L98.0391 9.89V14.81H95.8491V16.49H98.0391V25.76C98.0391 28.37 99.5091 29.24 101.729 29.24C102.569 29.24 103.289 29.12 103.709 29ZM116.671 25.16C116.671 22.64 115.051 21.56 111.691 20.66C109.291 20.03 108.511 19.43 108.511 18.26C108.511 17.09 109.441 16.25 111.391 16.25C112.801 16.25 114.241 16.67 115.531 17.36L115.861 15.47C114.601 14.9 113.131 14.51 111.451 14.51C108.511 14.51 106.621 16.13 106.621 18.35C106.621 20.69 107.971 21.71 111.121 22.52C113.941 23.27 114.781 23.9 114.781 25.31C114.781 26.75 113.551 27.56 111.571 27.56C109.681 27.56 107.941 26.9 106.621 26.06L106.291 27.98C107.521 28.67 109.501 29.27 111.391 29.27C114.661 29.27 116.671 27.74 116.671 25.16Z" transform="translate(-1 -8)" fill="#333333"/>
</svg>
